<svg width="24" height="24" viewBox="0 0 24 24" fill="none" xmlns="http://www.w3.org/2000/svg">
<path d="M9.25 6.5C8.83437 6.5 8.5 6.83438 8.5 7.25V16.75C8.5 17.0125 8.45625 17.2656 8.37187 17.5H17.75C18.1656 17.5 18.5 17.1656 18.5 16.75V7.25C18.5 6.83438 18.1656 6.5 17.75 6.5H9.25ZM6.25 19C5.00625 19 4 17.9937 4 16.75V7.5C4 7.08437 4.33437 6.75 4.75 6.75C5.16562 6.75 5.5 7.08437 5.5 7.5V16.75C5.5 17.1656 5.83438 17.5 6.25 17.5C6.66563 17.5 7 17.1656 7 16.75V7.25C7 6.00625 8.00625 5 9.25 5H17.75C18.9937 5 20 6.00625 20 7.25V16.75C20 17.9937 18.9937 19 17.75 19H6.25ZM9.5 8.25C9.5 7.83437 9.83437 7.5 10.25 7.5H13.25C13.6656 7.5 14 7.83437 14 8.25V10.75C14 11.1656 13.6656 11.5 13.25 11.5H10.25C9.83437 11.5 9.5 11.1656 9.5 10.75V8.25ZM15.75 7.5H16.75C17.1656 7.5 17.5 7.83437 17.5 8.25C17.5 8.66563 17.1656 9 16.75 9H15.75C15.3344 9 15 8.66563 15 8.25C15 7.83437 15.3344 7.5 15.75 7.5ZM15.75 10H16.75C17.1656 10 17.5 10.3344 17.5 10.75C17.5 11.1656 17.1656 11.5 16.75 11.5H15.75C15.3344 11.5 15 11.1656 15 10.75C15 10.3344 15.3344 10 15.75 10ZM10.25 12.5H16.75C17.1656 12.5 17.5 12.8344 17.5 13.25C17.5 13.6656 17.1656 14 16.75 14H10.25C9.83437 14 9.5 13.6656 9.5 13.25C9.5 12.8344 9.83437 12.5 10.25 12.5ZM10.25 15H16.75C17.1656 15 17.5 15.3344 17.5 15.75C17.5 16.1656 17.1656 16.5 16.75 16.5H10.25C9.83437 16.5 9.5 16.1656 9.5 15.75C9.5 15.3344 9.83437 15 10.25 15Z" fill="#98A2B3"/>
</svg>
