<svg width="24" height="24" viewBox="0 0 24 24" fill="none" xmlns="http://www.w3.org/2000/svg">
<path d="M12.0176 21C8.7832 21 5.83008 19.3125 4.21289 16.5C2.5957 13.7227 2.5957 10.3125 4.21289 7.5C5.83008 4.72266 8.7832 3 12.0176 3C15.2168 3 18.1699 4.72266 19.7871 7.5C21.4043 10.3125 21.4043 13.7227 19.7871 16.5C18.1699 19.3125 15.2168 21 12.0176 21ZM15.9902 10.3477H15.9551C16.3066 10.0312 16.3066 9.50391 15.9551 9.15234C15.6387 8.83594 15.1113 8.83594 14.7949 9.15234L10.8926 13.0898L9.24023 11.4375C8.88867 11.0859 8.36133 11.0859 8.04492 11.4375C7.69336 11.7539 7.69336 12.2812 8.04492 12.5977L10.2949 14.8477C10.6113 15.1992 11.1387 15.1992 11.4902 14.8477L15.9902 10.3477Z" fill="#393C3C"/>
</svg>
