<svg width="24" height="24" viewBox="0 0 24 24" fill="none" xmlns="http://www.w3.org/2000/svg">
<path fill-rule="evenodd" clip-rule="evenodd" d="M5.4359 8.20162C4.0449 10.5765 4.04545 13.4584 5.43542 15.7976L5.4367 15.7997C6.79333 18.1738 9.26846 19.5984 12.0171 19.5984C14.7308 19.5984 17.2061 18.1742 18.5629 15.7997L18.5642 15.7976C19.9542 13.4584 19.9547 10.5765 18.5637 8.20162C17.2063 5.86016 14.7298 4.40164 12.0171 4.40164C9.26947 4.40164 6.79308 5.86048 5.4359 8.20162ZM4.21284 7.49953C5.82964 4.72285 8.78262 3 12.0171 3C15.2173 3 18.1701 4.72313 19.7868 7.49953C21.4034 10.3111 21.4043 13.7222 19.787 16.5001C18.1698 19.3123 15.2163 21 12.0171 21C8.78363 21 5.82995 19.3126 4.21262 16.5001C2.59528 13.7222 2.59623 10.311 4.21284 7.49953ZM10.9101 13.2433L14.817 9.30263C15.0821 9.03753 15.5564 9.03708 15.8215 9.30218C16.0866 9.56728 16.0866 10.0411 15.8215 10.3062L11.3952 14.7324C11.1301 14.9975 10.6563 14.9975 10.3912 14.7324L8.17813 12.5193C7.91303 12.2542 7.91303 11.7804 8.17813 11.5153C8.44323 11.2502 8.91703 11.2502 9.18212 11.5153L10.9101 13.2433Z" fill="#98A2B3"/>
</svg>
