<svg width="24" height="24" viewBox="0 0 24 24" fill="none" xmlns="http://www.w3.org/2000/svg">
<g clip-path="url(#clip0_0_707)">
<path d="M12.8319 3.16739L15.2419 8.0987L20.544 8.87733C20.9889 8.95148 21.3597 9.2481 21.508 9.69303C21.6563 10.1009 21.5451 10.5829 21.2114 10.8795L17.3553 14.6985L18.2822 20.1118C18.3564 20.5567 18.171 21.0017 17.8002 21.2612C17.4295 21.5578 16.9475 21.5578 16.5396 21.3724L11.7937 18.8141L7.01069 21.3724C6.63992 21.5578 6.15791 21.5578 5.78714 21.2612C5.41636 21.0017 5.23097 20.5567 5.30513 20.1118L6.19499 14.6985L2.33893 10.8795C2.04231 10.5829 1.93108 10.1009 2.04231 9.69303C2.19062 9.2481 2.5614 8.95148 3.00632 8.87733L8.34548 8.0987L10.7184 3.16739C10.9038 2.75954 11.3117 2.5 11.7937 2.5C12.2386 2.5 12.6465 2.75954 12.8319 3.16739Z" fill="#393C3C"/>
</g>
<defs>
<clipPath id="clip0_0_707">
<rect width="20" height="20" fill="white" transform="translate(2 2)"/>
</clipPath>
</defs>
</svg>
