<svg width="24" height="24" viewBox="0 0 24 24" fill="none" xmlns="http://www.w3.org/2000/svg">
<g clip-path="url(#clip0_0_344)">
<path fill-rule="evenodd" clip-rule="evenodd" d="M9.72997 8.92824C9.517 9.35416 9.13332 9.60757 8.7154 9.69115L8.70478 9.69327L4.14254 10.359L7.43795 13.6544C7.7853 13.9621 7.90947 14.4345 7.82616 14.8573L7.06069 19.5167L11.1215 17.3198C11.5423 17.1094 12.0097 17.1095 12.4305 17.3199L12.4364 17.3229L16.4913 19.5167L15.7259 14.8573C15.6426 14.4345 15.7667 13.9621 16.1141 13.6544L19.4095 10.359L14.8402 9.69195C14.3922 9.61051 13.9973 9.35973 13.8181 8.92027L11.7594 4.73635L9.72997 8.92824ZM16.6467 21.3756L11.7942 18.7546L6.91749 21.3887C6.5533 21.5708 6.11406 21.5198 5.77279 21.3065L5.75964 21.2982L5.74786 21.2881C5.45106 21.0337 5.26335 20.6366 5.35307 20.2218L6.27756 14.7105L2.32753 10.796C2.01821 10.4867 1.92595 10.0778 2.0594 9.67746L2.06182 9.67021C2.19 9.32839 2.49664 9.00643 2.9173 8.95779L8.35584 8.14023L10.8117 3.12184C10.9841 2.77687 11.3377 2.5 11.7579 2.5C12.2096 2.5 12.5655 2.77201 12.7404 3.12184L12.7412 3.12342L15.1962 8.14023L20.6347 8.95779C21.0554 9.00643 21.3619 9.32844 21.4901 9.67026L21.4928 9.67742C21.6262 10.0778 21.5345 10.486 21.2252 10.7954L17.2745 14.7105L18.199 20.2218C18.2887 20.6366 18.101 21.0337 17.8042 21.2881L17.7924 21.2982L17.7792 21.3065C17.4351 21.5216 17.0364 21.5674 16.6431 21.3926L16.6467 21.3756Z" fill="#98A2B3"/>
</g>
<defs>
<clipPath id="clip0_0_344">
<rect width="20" height="20" fill="white" transform="translate(2 2)"/>
</clipPath>
</defs>
</svg>
