<svg width="24" height="24" viewBox="0 0 24 24" fill="none" xmlns="http://www.w3.org/2000/svg">
<path d="M8.62857 3C9.2433 3 9.78571 3.52734 9.78571 4.125V5.25H14.4143V4.125C14.4143 3.52734 14.9205 3 15.5714 3C16.1862 3 16.7286 3.52734 16.7286 4.125V5.25H18.4643C19.4045 5.25 20.2 6.02344 20.2 6.9375V8.625H4V6.9375C4 6.02344 4.75937 5.25 5.73571 5.25H7.47143V4.125C7.47143 3.52734 7.97768 3 8.62857 3ZM4 9.75H20.2V19.3125C20.2 20.2617 19.4045 21 18.4643 21H5.73571C4.75937 21 4 20.2617 4 19.3125V9.75ZM12.4254 11.8242C12.2808 11.5781 11.883 11.5781 11.7384 11.8242L10.9067 13.5117L8.99018 13.793C8.66473 13.8281 8.55625 14.2148 8.77321 14.4258L10.1473 15.7266L9.82188 17.5547C9.78571 17.8711 10.1112 18.082 10.3643 17.9414L12.1 17.0625L13.7996 17.9414C14.0527 18.082 14.3781 17.8711 14.342 17.5547L14.0165 15.7266L15.3906 14.4258C15.6076 14.2148 15.4991 13.8281 15.1737 13.793L13.2933 13.5117L12.4254 11.8242Z" fill="#393C3C"/>
</svg>
