<svg width="24" height="24" viewBox="0 0 24 24" fill="none" xmlns="http://www.w3.org/2000/svg">
<path d="M8.6899 3.69323V5.35458H15.5101V3.69323C15.5101 3.41633 15.7587 3.13944 16.0784 3.13944C16.3626 3.13944 16.6468 3.41633 16.6468 3.69323V5.35458H17.7835C19.0268 5.35458 20.0569 6.35832 20.0569 7.56972V18.6454C20.0569 19.8914 19.0268 20.8606 17.7835 20.8606H6.41651C5.13772 20.8606 4.14311 19.8914 4.14311 18.6454V7.56972C4.14311 6.35832 5.13772 5.35458 6.41651 5.35458H7.55321V3.69323C7.55321 3.41633 7.80186 3.13944 8.12156 3.13944C8.40573 3.13944 8.6899 3.41633 8.6899 3.69323ZM5.27981 9.78486V18.6454C5.27981 19.2684 5.77711 19.753 6.41651 19.753H17.7835C18.3874 19.753 18.9202 19.2684 18.9202 18.6454V9.78486H5.27981ZM6.41651 6.46215C5.77711 6.46215 5.27981 6.98133 5.27981 7.56972V8.67729H18.9202V7.56972C18.9202 6.98133 18.3874 6.46215 17.7835 6.46215H6.41651ZM12.846 11.1693L13.6274 12.7268L15.368 12.9691C16.0784 13.073 16.3626 13.9036 15.8653 14.3882L14.5865 15.565L14.8707 17.261C15.0128 17.9532 14.2668 18.4724 13.663 18.1609L12.1 17.3302L10.537 18.1609C9.89765 18.4724 9.15169 17.9532 9.29378 17.261L9.57795 15.565L8.33469 14.3882C7.80186 13.9036 8.08603 13.073 8.79647 12.9691L10.537 12.7268L11.3185 11.1693C11.6382 10.5463 12.5263 10.5463 12.846 11.1693ZM11.4251 13.4537L11.283 13.7306L10.9988 13.7652L9.54243 13.9729L10.6081 14.9766L10.8212 15.1843L10.7502 15.4612L10.5015 16.9148L11.8158 16.2226L12.1 16.0842L12.3487 16.2226L13.663 16.9148L13.4143 15.4612L13.3788 15.1843L13.5919 14.9766L14.6576 13.9729L13.1657 13.7652L12.8815 13.7306L12.7394 13.4537L12.1 12.1731L11.4251 13.4537Z" fill="#98A2B3"/>
<path fill-rule="evenodd" clip-rule="evenodd" d="M12.974 11.107L12.9745 11.1081L13.7227 12.5992L15.3892 12.8312C16.2124 12.9515 16.5493 13.9189 15.9665 14.4868L15.9636 14.4896L14.74 15.6156L15.0115 17.2361C15.175 18.0424 14.3057 18.6502 13.596 18.2841L13.5944 18.2833L12.1 17.489L10.6011 18.2857C9.86386 18.6448 8.98809 18.0492 9.15293 17.2361L9.42468 15.6143L8.23597 14.4892C7.61339 13.9215 7.95184 12.9516 8.77524 12.8312L8.77623 12.8311L10.4418 12.5992L11.1905 11.107C11.563 10.3812 12.6015 10.3812 12.974 11.107ZM10.537 12.7268L8.79647 12.9691C8.08603 13.073 7.80186 13.9036 8.33469 14.3882L9.57795 15.565L9.29378 17.261C9.15169 17.9532 9.89765 18.4724 10.537 18.1609L12.1 17.3302L13.663 18.1609C14.2668 18.4724 15.0128 17.9532 14.8707 17.261L14.5865 15.565L15.8653 14.3882C16.3626 13.9036 16.0784 13.073 15.368 12.9691L13.6274 12.7268L12.846 11.1693C12.5263 10.5463 11.6382 10.5463 11.3185 11.1693L10.537 12.7268ZM12.7394 13.4537L12.1 12.1731L11.4251 13.4537L11.283 13.7306L10.9988 13.7652L9.54243 13.9729L10.6081 14.9766L10.8212 15.1843L10.7502 15.4612L10.5015 16.9148L11.8158 16.2226L12.1 16.0842L12.3487 16.2226L13.663 16.9148L13.4143 15.4612L13.3788 15.1843L13.5919 14.9766L14.6576 13.9729L13.1657 13.7652L12.8815 13.7306L12.7394 13.4537ZM13.1466 13.9034L12.7877 13.8597L12.6107 13.5147L12.0965 12.4849L11.5531 13.516L11.5524 13.5174L11.3767 13.8597L11.0181 13.9034L9.85121 14.0698L10.7093 14.878L10.9797 15.1415L10.8904 15.4896L10.6908 16.6567L11.7518 16.0978L12.1045 15.9261L12.4182 16.1007L13.4737 16.6567L13.2722 15.4785L13.2281 15.1339L13.4924 14.8763L14.3479 14.0706L13.1466 13.9034ZM15.5101 5.35458V3.69323C15.5101 3.41633 15.7587 3.13944 16.0784 3.13944C16.3626 3.13944 16.6468 3.41633 16.6468 3.69323V5.35458H17.7835C19.0268 5.35458 20.0569 6.35832 20.0569 7.56972V18.6454C20.0569 19.8914 19.0268 20.8606 17.7835 20.8606H6.41651C5.13772 20.8606 4.14311 19.8914 4.14311 18.6454V7.56972C4.14311 6.35832 5.13772 5.35458 6.41651 5.35458H7.55321V3.69323C7.55321 3.41633 7.80186 3.13944 8.12156 3.13944C8.40573 3.13944 8.6899 3.41633 8.6899 3.69323V5.35458H15.5101ZM8.83301 5.21514H15.367V3.69323C15.367 3.34498 15.674 3 16.0784 3C16.2671 3 16.4437 3.09049 16.5704 3.2139C16.697 3.3373 16.7899 3.50943 16.7899 3.69323V5.21514H17.7835C19.1058 5.21514 20.2 6.28131 20.2 7.56972V18.6454C20.2 19.9699 19.1043 21 17.7835 21H6.41651C5.05868 21 4 19.9684 4 18.6454V7.56972C4 6.28273 5.05723 5.21514 6.41651 5.21514H7.4101V3.69323C7.4101 3.34498 7.71714 3 8.12156 3C8.31019 3 8.48684 3.09049 8.61349 3.2139C8.74014 3.3373 8.83301 3.50943 8.83301 3.69323V5.21514ZM5.42292 9.9243V18.6454C5.42292 19.1914 5.85615 19.6135 6.41651 19.6135H17.7835C18.3112 19.6135 18.7771 19.1886 18.7771 18.6454V9.9243H5.42292ZM5.27981 18.6454C5.27981 19.2684 5.77711 19.753 6.41651 19.753H17.7835C18.3874 19.753 18.9202 19.2684 18.9202 18.6454V9.78486H5.27981V18.6454ZM6.41651 6.60159C5.85904 6.60159 5.42292 7.05549 5.42292 7.56972V8.53785H18.7771V7.56972C18.7771 7.05834 18.3083 6.60159 17.7835 6.60159H6.41651ZM18.9202 7.56972C18.9202 6.98133 18.3874 6.46215 17.7835 6.46215H6.41651C5.77711 6.46215 5.27981 6.98133 5.27981 7.56972V8.67729H18.9202V7.56972Z" fill="#98A2B3"/>
</svg>
