<svg width="24" height="24" viewBox="0 0 24 24" fill="none" xmlns="http://www.w3.org/2000/svg">
<path d="M12.0156 5C14.5178 5 16.5508 6.15725 18.0209 7.53345C19.4909 8.87837 20.4605 10.5048 20.9296 11.6308C21.0235 11.881 21.0235 12.1625 20.9296 12.4127C20.4605 13.5074 19.4909 15.1338 18.0209 16.51C16.5508 17.8862 14.5178 19.0122 12.0156 19.0122C9.48219 19.0122 7.44917 17.8862 5.97915 16.51C4.50912 15.1338 3.53953 13.5074 3.07037 12.4127C2.97654 12.1625 2.97654 11.881 3.07037 11.6308C3.53953 10.5048 4.50912 8.87837 5.97915 7.53345C7.44917 6.15725 9.48219 5 12.0156 5ZM7.51173 12.0061C7.51173 13.6325 8.35621 15.1025 9.76368 15.9157C11.1399 16.7289 12.8601 16.7289 14.2676 15.9157C15.6438 15.1025 16.5195 13.6325 16.5195 12.0061C16.5195 10.4109 15.6438 8.94092 14.2676 8.12772C12.8601 7.31451 11.1399 7.31451 9.76368 8.12772C8.35621 8.94092 7.51173 10.4109 7.51173 12.0061ZM12.0156 10.0043C12.0156 9.7854 11.9531 9.59774 11.8905 9.3788C11.828 9.22242 11.9531 9.00348 12.1407 9.00348C13.3918 9.06603 14.5491 9.94179 14.8931 11.2554C15.331 12.8506 14.3927 14.477 12.7663 14.9149C11.1712 15.3527 9.51347 14.3831 9.10686 12.788C9.04431 12.5691 9.01303 12.3501 9.01303 12.1625C8.98175 11.9748 9.2007 11.8497 9.35708 11.9123C9.57602 11.9748 9.76368 12.0061 10.0139 12.0061C11.1086 12.0061 12.0156 11.1303 12.0156 10.0043Z" fill="#393C3C"/>
</svg>
