<svg width="24" height="24" viewBox="0 0 24 24" fill="none" xmlns="http://www.w3.org/2000/svg">
<path d="M20.9062 11.4375C20.9688 11.625 21 11.8125 21 12C21 12.1875 20.9688 12.375 20.9062 12.5625C20.0312 14.5 18.8125 16.0625 17.25 17.2188C15.6875 18.4062 13.9375 19 12 19C10.0625 19 8.3125 18.4062 6.75 17.2188C5.1875 16.0625 3.96875 14.5 3.09375 12.5312C3.03125 12.375 3 12.1875 3 12C3 11.8125 3.03125 11.625 3.09375 11.4375C3.96875 9.5 5.1875 7.96875 6.75 6.78125C8.3125 5.625 10.0625 5.03125 12 5C13.9375 5.03125 15.6875 5.625 17.25 6.78125C18.8125 7.96875 20.0312 9.5 20.9062 11.4375ZM12 17.5C13.5625 17.5 15.0312 17 16.3438 16.0312C17.625 15.0625 18.6875 13.7188 19.5 11.9688C18.6875 10.2812 17.6562 8.96875 16.3438 7.96875C15.0312 7.03125 13.5625 6.53125 12 6.5C10.4062 6.53125 8.96875 7.03125 7.65625 7.96875C6.34375 8.96875 5.28125 10.3125 4.5 12.0312C5.28125 13.7188 6.34375 15.0625 7.65625 16.0312C8.96875 17 10.4062 17.5 12 17.5ZM12 8C13.125 8.03125 14.0625 8.4375 14.8438 9.1875C15.5938 9.9375 15.9688 10.875 16 12C15.9688 13.125 15.5625 14.0938 14.8125 14.8438C14.0625 15.5938 13.125 16 12 16C10.875 16 9.90625 15.5938 9.15625 14.8438C8.40625 14.0938 8 13.125 8 12C8 10.875 8.40625 9.9375 9.15625 9.15625C9.90625 8.40625 10.875 8.03125 12 8ZM12 14.5C12.6875 14.5 13.2812 14.25 13.7812 13.7812C14.2188 13.3125 14.4688 12.7188 14.5 12C14.4688 11.3125 14.2188 10.7188 13.7812 10.2188C13.2812 9.78125 12.6875 9.53125 12 9.5H11.9688H11.9375C11.9688 9.6875 12 9.84375 12 10C11.9688 10.5625 11.7812 11.0312 11.4062 11.4062C11.0312 11.7812 10.5625 12 10 12C9.8125 12 9.65625 12 9.5 11.9375V11.9688V12C9.5 12.7188 9.75 13.3125 10.2188 13.7812C10.6875 14.25 11.2812 14.5 12 14.5Z" fill="#98A2B3"/>
</svg>
