<svg width="24" height="24" viewBox="0 0 24 24" fill="none" xmlns="http://www.w3.org/2000/svg">
<path d="M9.50125 12.7479H7.50623V14.7974H9.50125V12.7479Z" fill="#393C3C"/>
<path d="M16.015 12.7479H14.5187V14.7974H16.015V12.7479Z" fill="#393C3C"/>
<path d="M16.015 9.48862H14.5187V11.2482H16.015V9.48862Z" fill="#393C3C"/>
<path d="M9.53117 9.51861H7.53616V11.2482H9.53117V9.51861Z" fill="#393C3C"/>
<path d="M12.0249 3.0001C11.8917 2.99126 11.758 3.01106 11.633 3.05818C11.508 3.1053 11.3945 3.17864 11.3 3.2733C11.2056 3.36796 11.1324 3.48176 11.0854 3.60706C11.0384 3.73237 11.0186 3.86629 11.0274 3.99987V19.9962C11.0186 20.1298 11.0384 20.2637 11.0854 20.389C11.1324 20.5143 11.2056 20.6281 11.3 20.7228C11.3945 20.8174 11.508 20.8908 11.633 20.9379C11.758 20.985 11.8917 21.0048 12.0249 20.996C12.1582 21.0048 12.2918 20.985 12.4169 20.9379C12.5419 20.8908 12.6554 20.8174 12.7499 20.7228C12.8443 20.6281 12.9175 20.5143 12.9645 20.389C13.0115 20.2637 13.0313 20.1298 13.0224 19.9962V4.09985C13.0236 3.8247 12.9218 3.55912 12.7371 3.35552C12.5524 3.15193 12.2983 3.02511 12.0249 3.0001Z" fill="#393C3C"/>
<path d="M9.50125 7.99896V5.09962H4C2.89543 5.09962 2 5.99505 2 7.09962V17.0964C2 18.201 2.89543 19.0964 4 19.0964H9.4813V16.2971H4.4258C3.97303 16.2971 3.60599 15.93 3.60599 15.4773C3.60599 15.0245 3.97303 14.6574 4.4258 14.6574H5.99003V9.52861H4.37081C3.94841 9.52861 3.60599 9.18619 3.60599 8.76378C3.60599 8.34138 3.94841 7.99896 4.37081 7.99896H9.50125Z" fill="#393C3C"/>
<path d="M14.5187 5.09962V7.99896H19.6542C20.0683 7.99896 20.404 8.33467 20.404 8.74879C20.404 9.16291 20.0683 9.49862 19.6542 9.49862H17.5112V14.7974H19.6542C20.0683 14.7974 20.404 15.1331 20.404 15.5472C20.404 15.9614 20.0683 16.2971 19.6542 16.2971H14.5187V19.0864H21.0025C21.5533 19.0759 22 18.6398 22 18.0889V7.09962C22 5.99505 21.1046 5.09962 20 5.09962H14.5187Z" fill="#393C3C"/>
</svg>
