<svg width="24" height="24" viewBox="0 0 24 24" fill="none" xmlns="http://www.w3.org/2000/svg">
<path d="M12.7 9.2003V3.7003C12.7028 3.60763 12.6866 3.51536 12.6524 3.42918C12.6182 3.343 12.5667 3.26473 12.5011 3.19917C12.4356 3.13361 12.3573 3.08215 12.2711 3.04795C12.1849 3.01375 12.0927 2.99753 12 3.0003C11.9073 2.99753 11.8151 3.01375 11.7289 3.04795C11.6427 3.08215 11.5644 3.13361 11.4989 3.19917C11.4333 3.26473 11.3818 3.343 11.3476 3.42918C11.3134 3.51536 11.2972 3.60763 11.3 3.7003V20.4003C11.2972 20.493 11.3134 20.5852 11.3476 20.6714C11.3818 20.7576 11.4333 20.8359 11.4989 20.9014C11.5644 20.967 11.6427 21.0185 11.7289 21.0527C11.8151 21.0869 11.9073 21.1031 12 21.1003C12.0927 21.1031 12.1849 21.0869 12.2711 21.0527C12.3573 21.0185 12.4356 20.967 12.5011 20.9014C12.5667 20.8359 12.6182 20.7576 12.6524 20.6714C12.6866 20.5852 12.7028 20.493 12.7 20.4003V12.9003" fill="#98A2B3"/>
<path d="M13.4 5.0003V6.4003H20.5V7.8003H13.4V9.2003H15.6V11.3003H13.4V12.9003H15.6V15.0003H13.4V16.3003H20.5V17.7003H13.4V19.1003H20.4C21.2284 19.1003 21.9 18.4287 21.9 17.6003V6.5003C21.9 5.67188 21.2284 5.0003 20.4 5.0003H13.4ZM20.6 14.9003H17.1V9.1003H20.6V14.9003Z" fill="#98A2B3"/>
<path d="M10.5 6.4003V5.0003H3.5C2.67157 5.0003 2 5.67188 2 6.5003V17.6003C2 18.4287 2.67157 19.1003 3.5 19.1003H10.5V17.7003H3.4V16.4003H10.5V15.0003H8.3V12.9003H10.5V11.3003H8.3V9.2003H10.5V7.8003H3.4V6.4003H10.5ZM6.9 9.2003V15.0003H3.4V9.2003H6.9Z" fill="#98A2B3"/>
</svg>
