<svg width="24" height="24" viewBox="0 0 24 24" fill="none" xmlns="http://www.w3.org/2000/svg">
<path d="M12.0176 21C8.7832 21 5.83008 19.3125 4.21289 16.5C2.5957 13.7227 2.5957 10.3125 4.21289 7.5C5.83008 4.72266 8.7832 3 12.0176 3C15.2168 3 18.1699 4.72266 19.7871 7.5C21.4043 10.3125 21.4043 13.7227 19.7871 16.5C18.1699 19.3125 15.2168 21 12.0176 21ZM13.7754 14.4609C14.0918 14.3203 14.3027 14.1094 14.4434 13.793L16.377 8.73047C16.6582 8.02734 15.9902 7.35938 15.2871 7.64062L10.2246 9.57422C9.9082 9.71484 9.69727 9.92578 9.55664 10.2422L7.62305 15.3047C7.3418 15.9727 8.04492 16.6758 8.71289 16.3945L13.7754 14.4609ZM13.1426 12C13.1426 12.6328 12.6152 13.125 12.0176 13.125C11.3848 13.125 10.8926 12.6328 10.8926 12C10.8926 11.4023 11.3848 10.875 12.0176 10.875C12.6152 10.875 13.1426 11.4023 13.1426 12Z" fill="#393C3C"/>
</svg>
