<svg width="24" height="24" viewBox="0 0 24 24" fill="none" xmlns="http://www.w3.org/2000/svg">
<path d="M12.0149 12.9178C12.5191 12.9178 12.9278 12.5091 12.9278 12.005C12.9278 11.5008 12.5191 11.0921 12.0149 11.0921C11.5107 11.0921 11.102 11.5008 11.102 12.005C11.102 12.5091 11.5107 12.9178 12.0149 12.9178Z" fill="#98A2B3"/>
<path d="M19.7942 7.50008C18.6008 5.43291 16.635 3.92451 14.3294 3.30671C12.0238 2.6889 9.56724 3.0123 7.50008 4.20575C5.43291 5.39921 3.92451 7.36496 3.30671 9.67056C2.6889 11.9762 3.0123 14.4328 4.20575 16.4999C5.39921 18.5671 7.36496 20.0755 9.67056 20.6933C11.9762 21.3111 14.4328 20.9877 16.4999 19.7942C18.5671 18.6008 20.0755 16.635 20.6933 14.3294C21.3111 12.0238 20.9877 9.56724 19.7942 7.50008ZM18.6829 15.8946C18.0183 17.0764 17.0494 18.0586 15.8768 18.7391C14.7041 19.4196 13.3706 19.7737 12.0149 19.7645C10.6547 19.7759 9.31625 19.423 8.13848 18.7426C6.9607 18.0621 5.98653 17.0787 5.31709 15.8946C4.62477 14.7243 4.25952 13.3895 4.25952 12.0298C4.25952 10.67 4.62477 9.33521 5.31709 8.16489C5.98893 6.98289 6.96363 6.00127 8.14086 5.3211C9.31809 4.64092 10.6553 4.28675 12.0149 4.29506C13.3691 4.3004 14.6982 4.6605 15.8699 5.33948C17.0416 6.01846 18.0149 6.99262 18.6928 8.16489C19.3786 9.33782 19.7392 10.6724 19.7375 12.0311C19.7357 13.3898 19.3717 14.7235 18.6829 15.8946Z" fill="#98A2B3"/>
<path d="M15.21 7.2917L10.1097 8.9984C9.8418 9.08194 9.59764 9.22812 9.39747 9.42484C9.1973 9.62156 9.04689 9.86314 8.95871 10.1296L7.27185 15.2199C7.204 15.4318 7.19685 15.6584 7.25121 15.8741C7.30558 16.0898 7.41929 16.286 7.57946 16.4404C7.73249 16.6025 7.92865 16.7176 8.14485 16.7721C8.36106 16.8266 8.58833 16.8182 8.79994 16.748L13.92 15.0314C14.1792 14.945 14.4143 14.7983 14.6057 14.6033C14.7972 14.4084 14.9397 14.1708 15.0214 13.9101L16.7281 8.80987C16.7949 8.59867 16.8025 8.37319 16.75 8.15799C16.6975 7.94278 16.587 7.74611 16.4305 7.58938C16.275 7.43093 16.0783 7.31909 15.8627 7.26649C15.647 7.21389 15.4209 7.22262 15.21 7.2917ZM15.458 8.5618L13.791 13.5231C13.7774 13.5961 13.7415 13.663 13.6881 13.7145C13.6348 13.7661 13.5667 13.7998 13.4934 13.8109L8.53203 15.4779L10.199 10.5166C10.2146 10.4435 10.251 10.3765 10.3039 10.3237C10.3567 10.2709 10.4237 10.2345 10.4967 10.2189L15.458 8.5618Z" fill="#98A2B3"/>
</svg>
