<svg width="24" height="24" viewBox="0 0 24 24" fill="none" xmlns="http://www.w3.org/2000/svg">
<path d="M14.375 3.875V4.5C14.375 4.85156 14.0625 5.125 13.75 5.125H10C9.64844 5.125 9.375 4.85156 9.375 4.5V3.875H8.125C7.42188 3.875 6.875 4.46094 6.875 5.125V18.875C6.875 19.5781 7.42188 20.125 8.125 20.125H15.625C16.2891 20.125 16.875 19.5781 16.875 18.875V5.125C16.875 4.46094 16.2891 3.875 15.625 3.875H14.375ZM5 5.125C5 3.40625 6.36719 2 8.125 2H15.625C17.3438 2 18.75 3.40625 18.75 5.125V18.875C18.75 20.6328 17.3438 22 15.625 22H8.125C6.36719 22 5 20.6328 5 18.875V5.125Z" fill="#393C3C"/>
</svg>
