<svg width="24" height="24" viewBox="0 0 24 24" fill="none" xmlns="http://www.w3.org/2000/svg">
<path fill-rule="evenodd" clip-rule="evenodd" d="M14.9163 3.52709V3.99507C14.9163 4.77241 14.2698 5.37438 13.537 5.37438H11.0739C10.2996 5.37438 9.69461 4.76943 9.69461 3.99507V3.52709H8.61087C8.00273 3.52709 7.52712 4.03519 7.52712 4.61084V19.3892C7.52712 20.0003 7.99975 20.4729 8.61087 20.4729H16C16.5757 20.4729 17.0838 19.9973 17.0838 19.3892V4.61084C17.0838 4.03821 16.5727 3.52709 16 3.52709H14.9163ZM11.2217 3.52709V3.84729H13.3892V3.52709H11.2217ZM6.00003 4.61084C6.00003 3.18375 7.14228 2 8.61087 2H16C17.4286 2 18.6109 3.18224 18.6109 4.61084V19.3892C18.6109 20.8578 17.4271 22 16 22H8.61087C7.14378 22 6.00003 20.8562 6.00003 19.3892V4.61084Z" fill="#98A2B3"/>
</svg>
