<svg width="24" height="24" viewBox="0 0 24 24" fill="none" xmlns="http://www.w3.org/2000/svg">
<g clip-path="url(#clip0_0_961)">
<path d="M10 9.50007C9.44688 9.50007 9 9.94692 9 10.5V21.0001C9 21.5532 9.44688 22 10 22H14C14.5531 22 15 21.5532 15 21.0001V10.5C15 9.94692 14.5531 9.50007 14 9.50007H10ZM3 13.5C2.44687 13.5 2 13.9468 2 14.4999L2 21.0001C2 21.5532 2.44687 22 3 22H7C7.55312 22 8 21.5532 8 21.0001V14.4999C8 13.9468 7.55312 13.5 7 13.5H3ZM16 17V21.0001C16 21.5532 16.4469 22 17 22H21C21.5531 22 22 21.5532 22 21.0001V17C22 16.4469 21.5531 16.0001 21 16.0001H17C16.4469 16.0001 16 16.4469 16 17Z" fill="#393C3C"/>
<path d="M12.3187 2.19805L13.0562 3.69169H13.0593L14.6937 3.92604C14.9843 3.97292 15.1062 4.33226 14.8937 4.54475L13.7062 5.68841L13.9875 7.31642C14.0343 7.60702 13.7312 7.832 13.4625 7.69764L12.0062 6.9352L10.5406 7.71014C10.2718 7.8445 9.97185 7.61952 10.0156 7.32892L10.2968 5.70091L9.10934 4.54475C8.89372 4.32914 9.01872 3.96979 9.30934 3.92604L10.9437 3.69169L11.6812 2.19805C11.8156 1.92932 12.1968 1.93869 12.3187 2.19805Z" fill="#393C3C"/>
</g>
<defs>
<clipPath id="clip0_0_961">
<rect width="20" height="20" fill="white" transform="translate(2 2)"/>
</clipPath>
</defs>
</svg>
