<svg width="24" height="24" viewBox="0 0 24 24" fill="none" xmlns="http://www.w3.org/2000/svg">
<g clip-path="url(#clip0_0_595)">
<path d="M13.0312 3.71177L14.6875 3.93063C14.9688 3.9619 15.0938 4.33708 14.875 4.55594L13.6875 5.68149L13.9688 7.33854C14 7.61993 13.7188 7.83879 13.4375 7.71373L12 6.9321L10.5312 7.71373C10.25 7.83879 9.9375 7.61993 10 7.33854L10.2812 5.71275L9.09375 4.55594C8.875 4.33708 9 3.99316 9.28125 3.93063L10.9375 3.71177L11.6562 2.21104C11.8125 1.92965 12.1875 1.92965 12.3125 2.21104L13.0312 3.71177ZM10.5 11V20.4993H13.5V11H10.5ZM9 11C9 10.1871 9.65625 9.49927 10.5 9.49927H13.5C14.3125 9.49927 15 10.1871 15 11V20.4993C15 21.3434 14.3125 22 13.5 22H10.5C9.65625 22 9 21.3434 9 20.4993V11ZM3.5 15.0054V20.5H6.5V15.0054H3.5ZM2 15.0007C2 14.1878 2.65625 13.5 3.5 13.5H6.5C7.3125 13.5 8 14.1878 8 15.0007V20.4993C8 21.3434 7.3125 22 6.5 22H3.5C2.65625 22 2 21.3434 2 20.4993V15.0007ZM20.5 17.4983H17.5V20.5H20.5V17.4983ZM17.5 15.9976H20.5C21.3125 15.9976 22 16.6854 22 17.4983V20.4993C22 21.3434 21.3125 22 20.5 22H17.5C16.6562 22 16 21.3434 16 20.4993V17.4983C16 16.6854 16.6562 15.9976 17.5 15.9976Z" fill="#98A2B3"/>
</g>
<defs>
<clipPath id="clip0_0_595">
<rect width="20" height="20" fill="white" transform="translate(2 2)"/>
</clipPath>
</defs>
</svg>
