<svg width="24" height="24" viewBox="0 0 24 24" fill="none" xmlns="http://www.w3.org/2000/svg">
<path d="M12.0176 3C15.2168 3 18.1699 4.72266 19.7871 7.5C21.4043 10.3125 21.4043 13.7227 19.7871 16.5C18.1699 19.3125 15.2168 21 12.0176 21C8.7832 21 5.83008 19.3125 4.21289 16.5C2.5957 13.7227 2.5957 10.3125 4.21289 7.5C5.83008 4.72266 8.7832 3 12.0176 3ZM11.1738 7.21875V12C11.1738 12.2812 11.3145 12.5625 11.5254 12.7031L14.9004 14.9531C15.2871 15.2344 15.8145 15.1289 16.0957 14.7422C16.3418 14.3555 16.2363 13.8281 15.8496 13.5469L12.8613 11.5781V7.21875C12.8613 6.76172 12.4746 6.375 12.0176 6.375C11.5254 6.375 11.1738 6.76172 11.1738 7.21875Z" fill="#393C3C"/>
</svg>
