<svg width="24" height="24" viewBox="0 0 24 24" fill="none" xmlns="http://www.w3.org/2000/svg">
<path d="M19.773 11.9826C19.773 9.20663 18.2809 6.67351 15.8866 5.28549C13.4576 3.86278 10.508 3.86278 8.11373 5.28549C5.68471 6.67351 4.22729 9.20663 4.22729 11.9826C4.22729 14.7934 5.68471 17.3265 8.11373 18.7145C10.508 20.1372 13.4576 20.1372 15.8866 18.7145C18.2809 17.3265 19.773 14.7934 19.773 11.9826ZM3.11689 11.9826C3.11689 8.82492 4.7825 5.9101 7.55852 4.31389C10.2998 2.71767 13.6658 2.71767 16.4418 4.31389C19.1831 5.9101 20.8834 8.82492 20.8834 11.9826C20.8834 15.1751 19.1831 18.0899 16.4418 19.6861C13.6658 21.2823 10.2998 21.2823 7.55852 19.6861C4.7825 18.0899 3.11689 15.1751 3.11689 11.9826ZM11.445 6.98581C11.445 6.70821 11.6879 6.4306 12.0002 6.4306C12.2778 6.4306 12.5554 6.70821 12.5554 6.98581V11.705L15.609 13.7524C15.8866 13.9259 15.956 14.2729 15.7825 14.5158C15.609 14.7934 15.262 14.8628 15.0191 14.6893L11.6879 12.4685C11.5144 12.3644 11.445 12.1909 11.445 11.9826V6.98581Z" fill="#98A2B3"/>
<path fill-rule="evenodd" clip-rule="evenodd" d="M15.8275 5.38635C13.4347 3.98485 10.5307 3.98529 8.17343 5.38598L8.17173 5.38699C5.77929 6.7541 4.34418 9.24839 4.34418 11.9826C4.34418 14.7519 5.77953 17.2461 8.17172 18.613L8.17344 18.614C10.5307 20.0147 13.4347 20.0151 15.8275 18.6136C18.1863 17.2462 19.6561 14.7511 19.6561 11.9826C19.6561 9.24919 18.1865 6.7539 15.8275 5.38635ZM16.5006 4.21288C19.2773 5.82966 21.0003 8.78259 21.0003 11.9826C21.0003 15.2172 19.2775 18.1702 16.5006 19.7871C13.6888 21.4039 10.2778 21.4046 7.49998 19.7873C4.68747 18.17 3 15.2163 3 11.9826C3 8.7834 4.68769 5.82992 7.49998 4.21272C10.2778 2.59536 13.6888 2.5961 16.5006 4.21288ZM7.55852 4.31389C4.7825 5.9101 3.11689 8.82492 3.11689 11.9826C3.11689 15.1751 4.7825 18.0899 7.55852 19.6861C10.2998 21.2823 13.6658 21.2823 16.4418 19.6861C19.1831 18.0899 20.8834 15.1751 20.8834 11.9826C20.8834 8.82492 19.1831 5.9101 16.4418 4.31389C13.6658 2.71767 10.2998 2.71767 7.55852 4.31389ZM11.3281 6.98581C11.3281 6.64839 11.6187 6.31372 12.0002 6.31372C12.177 6.31372 12.344 6.40095 12.4645 6.52145C12.585 6.64196 12.6722 6.80899 12.6722 6.98581V11.6427L15.6726 13.6543C16.0011 13.8608 16.0919 14.2802 15.8797 14.5808C15.6725 14.9087 15.253 14.9986 14.9527 14.7855L11.6252 12.5672C11.4079 12.4355 11.3281 12.2171 11.3281 11.9826V6.98581ZM11.6879 12.4685L15.0191 14.6893C15.262 14.8628 15.609 14.7934 15.7825 14.5158C15.956 14.2729 15.8866 13.9259 15.609 13.7524L12.5554 11.705V6.98581C12.5554 6.70821 12.2778 6.4306 12.0002 6.4306C11.6879 6.4306 11.445 6.70821 11.445 6.98581V11.9826C11.445 12.1909 11.5144 12.3644 11.6879 12.4685ZM15.8866 5.28549C18.2809 6.67351 19.773 9.20663 19.773 11.9826C19.773 14.7934 18.2809 17.3265 15.8866 18.7145C13.4576 20.1372 10.508 20.1372 8.11373 18.7145C5.68471 17.3265 4.22729 14.7934 4.22729 11.9826C4.22729 9.20663 5.68471 6.67351 8.11373 5.28549C10.508 3.86278 13.4576 3.86278 15.8866 5.28549Z" fill="#98A2B3"/>
</svg>
