<svg width="24" height="24" viewBox="0 0 24 24" fill="none" xmlns="http://www.w3.org/2000/svg">
<path fill-rule="evenodd" clip-rule="evenodd" d="M18.0976 4.98266L11.9828 4.96747C11.7074 4.96585 11.4645 4.84027 11.2958 4.67164C11.1272 4.503 11.0016 4.26084 11 3.98553C10.9969 3.4562 11.4562 2.99692 11.9855 3.00002L20.4542 3.04957C20.7295 3.05119 20.9717 3.17677 21.1403 3.3454C21.309 3.51403 21.4345 3.75619 21.4361 4.0315L21.4857 12.5002C21.4888 13.0295 21.0295 13.4888 20.5002 13.4857C20.2249 13.4841 19.9827 13.3585 19.8141 13.1899C19.6455 13.0212 19.5199 12.7791 19.5183 12.5038L19.4823 6.36046L14.4615 11.3811C14.0724 11.7702 13.4631 11.7585 13.083 11.3784C12.74 11.0355 12.6787 10.4015 13.0803 9.99988L18.0976 4.98266Z" fill="#393C3C"/>
<path fill-rule="evenodd" clip-rule="evenodd" d="M6.38811 19.5031L12.503 19.5183C12.7783 19.5199 13.0212 19.6454 13.1899 19.8141C13.3585 19.9827 13.4841 20.2249 13.4857 20.5002C13.4888 21.0295 13.0295 21.4888 12.5002 21.4857L4.0315 21.4361C3.75619 21.4345 3.51404 21.309 3.3454 21.1403C3.17677 20.9717 3.05119 20.7295 3.04958 20.4542L3.00002 11.9855C2.99692 11.4562 3.4562 10.9969 3.98553 11C4.26084 11.0016 4.503 11.1272 4.67164 11.2958C4.84027 11.4645 4.96585 11.7066 4.96746 11.9819L5.00341 18.1253L10.0242 13.1046C10.4133 12.7155 11.0226 12.7272 11.4027 13.1073C11.7457 13.4503 11.807 14.0842 11.4054 14.4858L6.38811 19.5031Z" fill="#393C3C"/>
</svg>
