<svg width="24" height="24" viewBox="0 0 24 24" fill="none" xmlns="http://www.w3.org/2000/svg">
<path fill-rule="evenodd" clip-rule="evenodd" d="M3 4.02857C3 3.46051 3.46051 3 4.02857 3H8.14284C8.56889 3 8.91427 3.34538 8.91427 3.77143C8.91427 4.19747 8.56889 4.54285 8.14284 4.54285H4.54285V19.4571H19.4571V15.8571C19.4571 15.4311 19.8025 15.0857 20.2285 15.0857C20.6546 15.0857 20.9999 15.4311 20.9999 15.8571V19.9714C20.9999 20.5394 20.5394 20.9999 19.9714 20.9999H4.02857C3.46051 20.9999 3 20.5394 3 19.9714V4.02857Z" fill="#98A2B3"/>
<path fill-rule="evenodd" clip-rule="evenodd" d="M18.3662 4.54285H14.3143C13.8883 4.54285 13.5429 4.19747 13.5429 3.77143C13.5429 3.34538 13.8883 3 14.3143 3H19.9714C20.5395 3 21 3.46051 21 4.02857V9.17141C21 9.59746 20.6546 9.94283 20.2286 9.94283C19.8025 9.94283 19.4571 9.59746 19.4571 9.17141V5.63381L11.0339 14.0571C10.7326 14.3584 10.2442 14.3584 9.94289 14.0571C9.64163 13.7558 9.64163 13.2674 9.94289 12.9661L18.3662 4.54285Z" fill="#98A2B3"/>
</svg>
