<svg width="24" height="24" viewBox="0 0 24 24" fill="none" xmlns="http://www.w3.org/2000/svg">
<path d="M15.7389 3.65918C16.6178 2.78027 18.0592 2.78027 18.9381 3.65918L20.3092 5.03027C21.1881 5.90918 21.1881 7.35059 20.3092 8.22949L18.6217 9.91699L14.0514 5.34668L15.7389 3.65918ZM13.2428 6.15527L17.8131 10.7256L9.62171 18.917C9.27015 19.2686 8.81312 19.5498 8.32093 19.6904L4.06702 20.9561C3.78577 21.0264 3.46937 20.9561 3.25843 20.71C3.01234 20.499 2.94202 20.1826 3.04749 19.9014L4.27796 15.6475C4.41859 15.1553 4.69984 14.6982 5.0514 14.3467L13.2428 6.15527Z" fill="#393C3C"/>
</svg>
