<svg width="24" height="24" viewBox="0 0 24 24" fill="none" xmlns="http://www.w3.org/2000/svg">
<path fill-rule="evenodd" clip-rule="evenodd" d="M6.2622 15.7167C6.01264 15.9351 5.82068 16.2526 5.72466 16.5721L4.87828 19.4874L7.7955 18.6091C8.12719 18.5096 8.43969 18.3489 8.65186 18.1064L8.66092 18.096L16.8161 9.97609L14.3925 7.5525L6.2622 15.7167ZM19.2446 3.61231L20.7596 5.12732C21.5716 5.97804 21.5716 7.33017 20.7595 8.18089L20.7563 8.18425L9.74624 19.1943C9.30988 19.5943 8.79088 19.9311 8.22393 20.0829L3.96079 21.3513L3.94854 21.3534C3.70164 21.3945 3.41484 21.36 3.21174 21.1569C3.00863 20.9538 2.9741 20.667 3.01525 20.4201L3.01729 20.4078L4.28566 16.1447C4.43751 15.5777 4.77447 15.0589 5.17448 14.6225L5.18035 14.6161L16.1877 3.60902C17.0384 2.79697 18.3905 2.79701 19.2413 3.60906L19.2446 3.61231ZM15.4824 6.49463L17.874 8.88624L19.6615 7.13122C19.9093 6.8516 19.8981 6.44871 19.6649 6.21546L18.1531 4.70375C17.9199 4.4705 17.517 4.45929 17.2374 4.70711L15.4824 6.49463Z" fill="#98A2B3"/>
</svg>
