<svg width="24" height="24" viewBox="0 0 24 24" fill="none" xmlns="http://www.w3.org/2000/svg">
<path d="M8.34625 12.3768C8.14232 12.1802 8.14232 11.8199 8.34625 11.6233L14.8719 5.33381C15.0759 5.13726 15.4497 5.13726 15.6537 5.33381C15.8576 5.53036 15.8576 5.8907 15.6537 6.08724L9.50184 11.9837L15.6537 17.9128C15.8576 18.1094 15.8576 18.4697 15.6537 18.6663C15.4497 18.8628 15.0759 18.8628 14.8719 18.6663L8.34625 12.3768Z" fill="#98A2B3"/>
<path fill-rule="evenodd" clip-rule="evenodd" d="M15.79 6.21934L9.77571 11.984L15.7904 17.781C16.0699 18.0504 16.0699 18.5287 15.7904 18.798C15.511 19.0673 15.0147 19.0673 14.7353 18.798L8.20958 12.5085C7.93014 12.2392 7.93014 11.7608 8.20958 11.4915L14.7353 5.20199C15.0147 4.93267 15.511 4.93267 15.7904 5.20199C16.0699 5.47132 16.0695 5.95001 15.79 6.21934ZM15.6537 17.9128C15.8576 18.1094 15.8576 18.4697 15.6537 18.6663C15.4497 18.8628 15.0759 18.8628 14.8719 18.6663L8.34625 12.3768C8.14232 12.1802 8.14232 11.8199 8.34625 11.6233L14.8719 5.33381C15.0759 5.13726 15.4497 5.13726 15.6537 5.33381C15.8576 5.53036 15.8576 5.8907 15.6537 6.08724L9.50184 11.9837L15.6537 17.9128Z" fill="#98A2B3"/>
</svg>
