<svg width="24" height="24" viewBox="0 0 24 24" fill="none" xmlns="http://www.w3.org/2000/svg">
<path fill-rule="evenodd" clip-rule="evenodd" d="M12.913 6.36637C12.3954 6.83031 11.6046 6.83031 11.087 6.36637C9.50813 4.95113 7.06142 4.99531 5.53571 6.4988C3.96385 8.04778 3.96385 10.5592 5.53571 12.1081L12 18.4783L18.4643 12.1081C20.0361 10.5592 20.0361 8.04778 18.4643 6.4988C16.9386 4.99531 14.4919 4.95113 12.913 6.36637ZM12 5.37726C9.88777 3.48398 6.61667 3.54268 4.5763 5.55335C2.47457 7.62448 2.47457 10.9825 4.5763 13.0536L11.3604 19.7389C11.7136 20.087 12.2864 20.087 12.6396 19.7389L19.4237 13.0536C21.5254 10.9825 21.5254 7.62448 19.4237 5.55335C17.3833 3.54268 14.1122 3.48398 12 5.37726Z" fill="#98A2B3"/>
</svg>
