<svg width="24" height="24" viewBox="0 0 24 24" fill="none" xmlns="http://www.w3.org/2000/svg">
<path d="M10.9062 20.5773C10.2734 19.8023 9.48828 18.7573 8.55078 17.4423C7.63672 16.1507 6.82812 14.8121 6.125 13.4266C5.42188 12.0411 5.04688 10.82 5 9.76321C5.04688 7.83757 5.70312 6.2407 6.96875 4.9726C8.23438 3.7045 9.82812 3.04697 11.75 3C13.6719 3.04697 15.2656 3.7045 16.5312 4.9726C17.7969 6.2407 18.4531 7.83757 18.5 9.76321C18.4531 10.82 18.0781 12.0411 17.375 13.4266C16.6484 14.8121 15.8281 16.1507 14.9141 17.4423C14 18.7573 13.2266 19.8023 12.5938 20.5773C12.3594 20.8591 12.0781 21 11.75 21C11.4219 21 11.1406 20.8591 10.9062 20.5773ZM11.75 12.0176C12.3828 11.9941 12.9102 11.771 13.332 11.3483C13.7539 10.9256 13.9766 10.3973 14 9.76321C13.9766 9.12916 13.7539 8.60078 13.332 8.17808C12.9102 7.75538 12.3828 7.53229 11.75 7.50881C11.1172 7.53229 10.5898 7.75538 10.168 8.17808C9.74609 8.60078 9.52344 9.12916 9.5 9.76321C9.52344 10.3973 9.74609 10.9256 10.168 11.3483C10.5898 11.771 11.1172 11.9941 11.75 12.0176Z" fill="#393C3C"/>
</svg>
