<svg width="24" height="24" viewBox="0 0 24 24" fill="none" xmlns="http://www.w3.org/2000/svg">
<path fill-rule="evenodd" clip-rule="evenodd" d="M8.59719 14.6941C9.67243 16.436 10.9255 18.1209 11.8075 19.2256C12.6638 18.1188 13.9182 16.4347 15.0247 14.6936C15.6015 13.742 16.1077 12.795 16.4776 11.9197C16.852 10.9991 17.0405 10.3177 17.0405 9.82045C17.0405 6.9399 14.6863 4.58269 11.8108 4.58269C8.90213 4.58269 6.58108 6.93891 6.58108 9.82045C6.58108 10.3228 6.73903 11.0079 7.10983 11.9197C7.47985 12.7953 7.98584 13.7416 8.5949 14.6905L8.59719 14.6941ZM10.7998 20.5232L10.7984 20.5214C9.92471 19.4062 8.48115 17.5134 7.25513 15.5187C6.64216 14.5215 6.0806 13.494 5.67163 12.522C5.26429 11.5539 5 10.6217 5 9.82045C5 6.05528 8.05029 3 11.8108 3C15.5713 3 18.6216 6.05528 18.6216 9.82045C18.6216 10.6217 18.3573 11.5539 17.9494 12.5221C17.5399 13.4942 16.9772 14.5217 16.362 15.5191C15.1316 17.514 13.6793 19.4069 12.7876 20.5232C12.2797 21.1589 11.3077 21.1589 10.7998 20.5232ZM11.1215 11.0547C11.5166 11.3091 12.065 11.3144 12.5033 11.0526C12.923 10.7811 13.2095 10.3396 13.2095 9.82045C13.2095 9.33815 12.9256 8.89572 12.5033 8.62252C12.065 8.3608 11.5166 8.36609 11.1215 8.62046L11.1152 8.62454C10.6698 8.89218 10.4122 9.32971 10.4122 9.82045C10.4122 10.3482 10.6723 10.7846 11.1151 11.0507L11.1215 11.0547ZM9.2062 11.3131C8.68237 10.4138 8.68481 9.2601 9.20408 8.33148L9.20979 8.32126C9.76285 7.43507 10.7268 6.8367 11.8108 6.8367C12.8622 6.8367 13.8253 7.43672 14.3774 8.32141L14.3836 8.33134C14.9028 9.25996 14.905 10.4138 14.3812 11.3131L14.3797 11.3157C13.8246 12.2423 12.8577 12.8042 11.8108 12.8042C10.7313 12.8042 9.76372 12.2437 9.20772 11.3157L9.2062 11.3131Z" fill="#98A2B3"/>
</svg>
