<svg width="24" height="24" viewBox="0 0 24 24" fill="none" xmlns="http://www.w3.org/2000/svg">
<path d="M15.7617 14.25C16.8633 13.5 18.0469 13.125 19.3125 13.125C19.8516 13.125 20.3789 13.1953 20.8945 13.3359C20.5664 15.3281 19.7227 17.0039 18.3633 18.3633C17.0039 19.7227 15.3281 20.5664 13.3359 20.8945C13.2188 20.3555 13.1602 19.8281 13.1602 19.3125C13.1602 18.3281 13.3828 17.3906 13.8281 16.5C14.25 15.6094 14.8945 14.8594 15.7617 14.25ZM4.75781 10.8398C4.19531 10.8398 3.64453 10.7812 3.10547 10.6641C3.43359 8.69531 4.27734 7.03125 5.63672 5.67188C6.99609 4.3125 8.67188 3.46875 10.6641 3.14062C10.7812 3.65625 10.8398 4.18359 10.8398 4.72266C10.8398 5.70703 10.6055 6.65625 10.1367 7.57031C9.66797 8.50781 8.97656 9.28125 8.0625 9.89062C7.14844 10.5 6.04688 10.8164 4.75781 10.8398ZM11.9648 3C13.6523 3.02344 15.1758 3.43359 16.5352 4.23047C17.8711 5.02734 18.9492 6.10547 19.7695 7.46484C20.5664 8.80078 20.9766 10.3125 21 12C21 12.0469 21 12.082 21 12.1055C21 12.1523 21 12.1875 21 12.2109C20.4375 12.0703 19.8633 12 19.2773 12C17.7539 12.0234 16.4414 12.4102 15.3398 13.1602C14.2617 13.8867 13.4414 14.8008 12.8789 15.9023C12.293 17.0273 12 18.1641 12 19.3125C12 19.875 12.0703 20.4375 12.2109 21C12.1641 21 12.1289 21 12.1055 21C12.082 21 12.0469 21 12 21C10.3359 20.9766 8.82422 20.5664 7.46484 19.7695C6.10547 18.9727 5.02734 17.8945 4.23047 16.5352C3.43359 15.1992 3.02344 13.6875 3 12C3 11.9531 3 11.918 3 11.8945C3 11.8711 3 11.8359 3 11.7891C3.5625 11.9297 4.125 12 4.6875 12C6.23438 11.9766 7.54688 11.6016 8.625 10.875C9.72656 10.125 10.5586 9.19922 11.1211 8.09766C11.707 6.99609 12 5.85938 12 4.6875C11.9766 4.125 11.8945 3.5625 11.7539 3C11.8008 3 11.8359 3 11.8594 3C11.9062 3 11.9414 3 11.9648 3Z" fill="#393C3C"/>
</svg>
