<svg width="24" height="24" viewBox="0 0 24 24" fill="none" xmlns="http://www.w3.org/2000/svg">
<path fill-rule="evenodd" clip-rule="evenodd" d="M13.9267 13.9408C15.4626 12.439 17.4928 11.7295 19.5062 11.8106C19.4148 7.82402 16.1588 4.56802 12.1722 4.47662C12.2533 6.48996 11.5438 8.52016 10.042 10.0561L10.0389 10.0592C8.50445 11.5596 6.47614 12.2696 4.49462 12.1896C4.60174 16.1813 7.80155 19.3811 11.7932 19.4882C11.7132 17.5067 12.4233 15.4784 13.9236 13.9439L13.9267 13.9408ZM16.4997 4.21256L16.5006 4.21309C19.2767 5.82955 21 8.78227 21 11.9828C21 15.2173 19.2771 18.1702 16.5006 19.7869L16.4997 19.7874C13.6885 21.4039 10.278 21.4046 7.49984 19.7872C4.68739 18.1698 3 15.216 3 11.9828C3 8.78362 4.68776 5.82998 7.49984 4.21283C10.278 2.59541 13.6885 2.59612 16.4997 4.21256ZM19.374 13.2994C17.8096 13.2296 16.2034 13.7995 14.9929 15.0101C13.7824 16.2206 13.2124 17.8268 13.2823 19.3912C16.397 18.8564 18.8392 16.4142 19.374 13.2994ZM10.6834 4.60879C7.56864 5.14363 5.12643 7.58584 4.59159 10.7006C6.15598 10.7704 7.7622 10.2005 8.97273 8.98992C10.1833 7.77939 10.7532 6.17318 10.6834 4.60879Z" fill="#98A2B3"/>
</svg>
