<svg width="18" height="18" viewBox="0 0 18 18" fill="none" xmlns="http://www.w3.org/2000/svg">
<path d="M12.7617 11.25C13.8633 10.5 15.0469 10.125 16.3125 10.125C16.8516 10.125 17.3789 10.1953 17.8945 10.3359C17.5664 12.3281 16.7227 14.0039 15.3633 15.3633C14.0039 16.7227 12.3281 17.5664 10.3359 17.8945C10.2188 17.3555 10.1602 16.8281 10.1602 16.3125C10.1602 15.3281 10.3828 14.3906 10.8281 13.5C11.25 12.6094 11.8945 11.8594 12.7617 11.25ZM1.75781 7.83984C1.19531 7.83984 0.644531 7.78125 0.105469 7.66406C0.433594 5.69531 1.27734 4.03125 2.63672 2.67188C3.99609 1.3125 5.67188 0.46875 7.66406 0.140625C7.78125 0.65625 7.83984 1.18359 7.83984 1.72266C7.83984 2.70703 7.60547 3.65625 7.13672 4.57031C6.66797 5.50781 5.97656 6.28125 5.0625 6.89062C4.14844 7.5 3.04688 7.81641 1.75781 7.83984ZM8.96484 0C10.6523 0.0234375 12.1758 0.433594 13.5352 1.23047C14.8711 2.02734 15.9492 3.10547 16.7695 4.46484C17.5664 5.80078 17.9766 7.3125 18 9C18 9.04688 18 9.08203 18 9.10547C18 9.15234 18 9.1875 18 9.21094C17.4375 9.07031 16.8633 9 16.2773 9C14.7539 9.02344 13.4414 9.41016 12.3398 10.1602C11.2617 10.8867 10.4414 11.8008 9.87891 12.9023C9.29297 14.0273 9 15.1641 9 16.3125C9 16.875 9.07031 17.4375 9.21094 18C9.16406 18 9.12891 18 9.10547 18C9.08203 18 9.04688 18 9 18C7.33594 17.9766 5.82422 17.5664 4.46484 16.7695C3.10547 15.9727 2.02734 14.8945 1.23047 13.5352C0.433594 12.1992 0.0234375 10.6875 0 9C0 8.95312 0 8.91797 0 8.89453C0 8.87109 0 8.83594 0 8.78906C0.5625 8.92969 1.125 9 1.6875 9C3.23438 8.97656 4.54688 8.60156 5.625 7.875C6.72656 7.125 7.55859 6.19922 8.12109 5.09766C8.70703 3.99609 9 2.85938 9 1.6875C8.97656 1.125 8.89453 0.5625 8.75391 0C8.80078 0 8.83594 0 8.85938 0C8.90625 0 8.94141 0 8.96484 0Z" fill="#393C3C"/>
</svg>
