<svg width="24" height="24" viewBox="0 0 24 24" fill="none" xmlns="http://www.w3.org/2000/svg">
<path d="M3.93103 3C4.47414 3.07759 4.78448 3.38793 4.86207 3.93103V7.88793C5.63793 6.60776 6.68534 5.56034 8.00431 4.78448C9.28448 4.04741 10.7198 3.65948 12.3103 3.62069C13.9397 3.65948 15.375 4.04741 16.694 4.82328C18.0129 5.59914 19.0216 6.64655 19.7974 7.92672C20.5733 9.24569 20.9612 10.7198 21 12.3103C20.9612 13.9397 20.5733 15.375 19.7974 16.694C19.0216 18.0129 18.0129 19.0216 16.694 19.7974C15.375 20.5733 13.9397 21 12.3103 21C10.2155 21 8.35345 20.3017 6.76293 18.9828C6.33621 18.5948 6.29741 18.1293 6.64655 17.6638C7.03448 17.2759 7.46121 17.2371 7.92672 17.5474C9.2069 18.5948 10.681 19.1379 12.3103 19.1379C14.25 19.0991 15.8405 18.4397 17.1207 17.1207C18.4009 15.8793 19.0603 14.25 19.1379 12.3103C19.0603 10.3707 18.4009 8.78017 17.1207 7.5C15.8405 6.21983 14.25 5.56034 12.3103 5.48276C10.9914 5.52155 9.78879 5.87069 8.74138 6.49138C7.65517 7.18966 6.84052 8.0819 6.25862 9.2069H10.1379C10.681 9.28448 10.9914 9.59483 11.069 10.1379C10.9914 10.7198 10.681 11.0302 10.1379 11.069H3.93103C3.34914 11.0302 3.03879 10.7198 3 10.1379V3.93103C3.03879 3.38793 3.34914 3.07759 3.93103 3Z" fill="#393C3C"/>
</svg>
