<svg width="24" height="24" viewBox="0 0 24 24" fill="none" xmlns="http://www.w3.org/2000/svg">
<path d="M12 3C13.6875 3.03516 15.1992 3.45703 16.5352 4.23047C17.8711 5.03906 18.9609 6.12891 19.7695 7.46484C20.543 8.80078 20.9648 10.3125 21 12C20.9648 13.6875 20.543 15.1992 19.7695 16.5352C18.9609 17.9062 17.8711 18.9961 16.5352 19.7695C15.1992 20.5781 13.6875 21 12 21C10.3125 21 8.80078 20.5781 7.46484 19.7695C6.09375 18.9961 5.00391 17.9062 4.23047 16.5352C3.42188 15.1992 3 13.6875 3 12C3 10.3125 3.42188 8.80078 4.23047 7.46484C5.00391 6.12891 6.09375 5.03906 7.46484 4.23047C8.80078 3.45703 10.3125 3.03516 12 3ZM4.6875 12C4.72266 14.0742 5.42578 15.7969 6.83203 17.168C8.20312 18.5742 9.92578 19.2773 12 19.3125C13.7227 19.2773 15.2344 18.75 16.5352 17.7656L6.26953 7.5C5.21484 8.76562 4.6875 10.2422 4.6875 12ZM17.7305 16.5C18.75 15.2695 19.2773 13.7578 19.3125 12C19.2422 9.96094 18.5391 8.23828 17.168 6.83203C15.7617 5.46094 14.0391 4.75781 12 4.6875C10.2422 4.72266 8.73047 5.25 7.46484 6.26953L17.7305 16.5Z" fill="#393C3C"/>
</svg>
