<svg width="24" height="24" viewBox="0 0 24 24" fill="none" xmlns="http://www.w3.org/2000/svg">
<path d="M17.0823 17.9003L6.08274 6.90074C4.89925 8.25828 4.20307 10.0335 4.20307 11.9828C4.20307 16.2991 7.68394 19.7799 12.0002 19.7799C13.9495 19.7799 15.7247 19.0838 17.0823 17.9003ZM17.8829 17.0997C19.0664 15.7421 19.7973 13.9669 19.7973 11.9828C19.7973 7.70134 16.2817 4.18567 12.0002 4.18567C10.0161 4.18567 8.24088 4.91665 6.88334 6.10014L17.8829 17.0997ZM3.0892 11.9828C3.0892 8.81522 4.76001 5.89129 7.5447 4.2901C10.2946 2.6889 13.671 2.6889 16.4557 4.2901C19.2056 5.89129 20.9112 8.81522 20.9112 11.9828C20.9112 15.1852 19.2056 18.1091 16.4557 19.7103C13.671 21.3115 10.2946 21.3115 7.5447 19.7103C4.76001 18.1091 3.0892 15.1852 3.0892 11.9828Z" fill="#98A2B3"/>
<path fill-rule="evenodd" clip-rule="evenodd" d="M16.5005 4.21288C19.2773 5.82976 21.0002 8.78274 21.0002 11.9826C21.0002 15.2171 19.2774 18.1701 16.5005 19.7871C13.6885 21.404 10.2777 21.4046 7.49999 19.7872C4.68747 18.1699 3 15.2165 3 11.9826C3 8.78335 4.68764 5.82996 7.49998 4.21276C10.2777 2.59544 13.6885 2.59601 16.5005 4.21288ZM7.5447 4.2901C4.76001 5.89129 3.0892 8.81522 3.0892 11.9828C3.0892 15.1852 4.76001 18.1091 7.5447 19.7103C10.2946 21.3115 13.671 21.3115 16.4557 19.7103C19.2056 18.1091 20.9112 15.1852 20.9112 11.9828C20.9112 8.81522 19.2056 5.89129 16.4557 4.2901C13.671 2.6889 10.2946 2.6889 7.5447 4.2901ZM6.08274 6.90074C6.06317 6.9232 6.04364 6.94555 6.02433 6.96823C4.87632 8.31684 4.20307 10.0658 4.20307 11.9828C4.20307 16.2991 7.68394 19.7799 12.0002 19.7799C13.9173 19.7799 15.6659 19.1064 17.0145 17.9584C17.0372 17.9391 17.0598 17.9198 17.0823 17.9003L6.08274 6.90074ZM6.08755 7.03145C4.95601 8.36329 4.2921 10.0894 4.2921 11.9826C4.2921 16.2497 7.73307 19.6906 12.0001 19.6906C13.8933 19.6906 15.6194 19.0267 16.9513 17.8952L6.08755 7.03145ZM17.8779 16.9686C19.0112 15.6361 19.7081 13.9091 19.7081 11.9826C19.7081 7.75035 16.2324 4.27457 12.0001 4.27457C10.0736 4.27457 8.34667 4.97149 7.01415 6.10481L17.8779 16.9686ZM17.9411 17.0318C19.0903 15.6832 19.7973 13.9341 19.7973 11.9828C19.7973 7.70134 16.2817 4.18567 12.0002 4.18567C10.0489 4.18567 8.29955 4.89247 6.95094 6.0416C6.92826 6.06092 6.90579 6.08057 6.88334 6.10014L17.8829 17.0997C17.9024 17.0772 17.9218 17.0545 17.9411 17.0318Z" fill="#98A2B3"/>
</svg>
