<svg width="24" height="24" viewBox="0 0 24 24" fill="none" xmlns="http://www.w3.org/2000/svg">
<path d="M12.8071 3.33482C12.3607 2.88839 11.6357 2.88839 11.1893 3.33482L6.61786 7.90625C6.17143 8.35268 6.17143 9.07768 6.61786 9.52411C7.06429 9.97054 7.78929 9.97054 8.23571 9.52411L10.8571 6.90268V14.4277C10.8571 15.0598 11.3679 15.5705 12 15.5705C12.6321 15.5705 13.1429 15.0598 13.1429 14.4277V6.90268L15.7643 9.52411C16.2107 9.97054 16.9357 9.97054 17.3821 9.52411C17.8286 9.07768 17.8286 8.35268 17.3821 7.90625L12.8107 3.33482H12.8071ZM6.28571 15.5705C6.28571 14.9384 5.775 14.4277 5.14286 14.4277C4.51071 14.4277 4 14.9384 4 15.5705V17.8563C4 19.7491 5.53571 21.2848 7.42857 21.2848H16.5714C18.4643 21.2848 20 19.7491 20 17.8563V15.5705C20 14.9384 19.4893 14.4277 18.8571 14.4277C18.225 14.4277 17.7143 14.9384 17.7143 15.5705V17.8563C17.7143 18.4884 17.2036 18.9991 16.5714 18.9991H7.42857C6.79643 18.9991 6.28571 18.4884 6.28571 17.8563V15.5705Z" fill="#98A2B3"/>
</svg>
