<svg width="24" height="24" viewBox="0 0 24 24" fill="none" xmlns="http://www.w3.org/2000/svg">
<path d="M4.6875 5C3.75586 5 3 5.75586 3 6.6875C3 7.21836 3.24961 7.71758 3.675 8.0375L11.325 13.775C11.7258 14.0738 12.2742 14.0738 12.675 13.775L20.325 8.0375C20.7504 7.71758 21 7.21836 21 6.6875C21 5.75586 20.2441 5 19.3125 5H4.6875ZM3 8.9375V16.25C3 17.491 4.00898 18.5 5.25 18.5H18.75C19.991 18.5 21 17.491 21 16.25V8.9375L13.35 14.675C12.5484 15.2762 11.4516 15.2762 10.65 14.675L3 8.9375Z" fill="#393C3C"/>
</svg>
