<svg width="24" height="24" viewBox="0 0 24 24" fill="none" xmlns="http://www.w3.org/2000/svg">
<path d="M12 4.84211H8.04211C6.62724 4.84211 5.9198 4.84211 5.37939 5.11746C4.90404 5.35966 4.51756 5.74614 4.27535 6.2215C4 6.76191 4 7.46934 4 8.88421V15.9579C4 17.3728 4 18.0802 4.27535 18.6206C4.51756 19.096 4.90404 19.4824 5.37939 19.7246C5.9198 20 6.62724 20 8.04211 20H15.7895C16.5726 20 16.9642 20 17.2854 19.9139C18.1572 19.6803 18.8382 18.9994 19.0718 18.1275C19.1579 17.8063 19.1579 17.4147 19.1579 16.6316M17.4737 9.05263V4M14.9474 6.52632H20M10.3158 9.47368C10.3158 10.4038 9.56174 11.1579 8.63158 11.1579C7.70142 11.1579 6.94737 10.4038 6.94737 9.47368C6.94737 8.54352 7.70142 7.78947 8.63158 7.78947C9.56174 7.78947 10.3158 8.54352 10.3158 9.47368ZM14.0969 12.3521L6.9736 18.8278C6.57294 19.1921 6.37261 19.3742 6.35489 19.532C6.33953 19.6687 6.39196 19.8043 6.49531 19.8952C6.61455 20 6.88529 20 7.42677 20H15.3314C16.5433 20 17.1492 20 17.6252 19.7964C18.2227 19.5408 18.6987 19.0648 18.9543 18.4673C19.1579 17.9914 19.1579 17.3854 19.1579 16.1735C19.1579 15.7657 19.1579 15.5618 19.1133 15.3719C19.0573 15.1333 18.9499 14.9098 18.7985 14.717C18.6781 14.5635 18.5189 14.4362 18.2005 14.1814L15.8449 12.297C15.5262 12.042 15.3669 11.9146 15.1914 11.8696C15.0367 11.8299 14.874 11.835 14.7221 11.8844C14.5498 11.9403 14.3989 12.0776 14.0969 12.3521Z" stroke="#98A2B3" stroke-width="2" stroke-linecap="round" stroke-linejoin="round"/>
</svg>
