<svg width="24" height="24" viewBox="0 0 24 24" fill="none" xmlns="http://www.w3.org/2000/svg">
<path d="M12.0856 21.18C17.0678 21.18 21.18 17.0658 21.18 12.09C21.18 7.11424 17.059 3 12.0768 3C7.10346 3 3 7.11424 3 12.09C3 17.0658 7.11225 21.18 12.0856 21.18ZM12.0856 15.1317C9.60771 15.1317 7.68339 16.0196 6.75199 17.0394C5.55697 15.7471 4.82767 14.0065 4.82767 12.09C4.82767 8.05488 8.05244 4.81976 12.0768 4.81976C16.11 4.81976 19.3523 8.05488 19.3611 12.09C19.3611 14.0065 18.6318 15.7471 17.428 17.0482C16.4966 16.0196 14.5723 15.1317 12.0856 15.1317ZM12.0856 13.69C13.7903 13.7076 15.1171 12.2482 15.1171 10.3669C15.1171 8.59114 13.7815 7.10544 12.0856 7.10544C10.3985 7.10544 9.05414 8.59114 9.06293 10.3669C9.07172 12.2482 10.3897 13.6812 12.0856 13.69Z" fill="#98A2B3"/>
</svg>
