<svg width="24" height="24" viewBox="0 0 24 24" fill="none" xmlns="http://www.w3.org/2000/svg">
<path d="M6.48387 5.74194C6.45968 6.22581 6.29032 6.6371 5.97581 6.97581C5.6371 7.29032 5.22581 7.45968 4.74194 7.48387C4.25806 7.45968 3.84677 7.29032 3.50806 6.97581C3.19355 6.6371 3.02419 6.22581 3 5.74194C3.02419 5.25806 3.19355 4.84677 3.50806 4.50806C3.84677 4.19355 4.25806 4.02419 4.74194 4C5.22581 4.02419 5.6371 4.19355 5.97581 4.50806C6.29032 4.84677 6.45968 5.25806 6.48387 5.74194ZM3 11.5484C3.02419 11.0645 3.19355 10.6532 3.50806 10.3145C3.84677 10 4.25806 9.83065 4.74194 9.80645C5.22581 9.83065 5.6371 10 5.97581 10.3145C6.29032 10.6532 6.45968 11.0645 6.48387 11.5484C6.45968 12.0323 6.29032 12.4435 5.97581 12.7823C5.6371 13.0968 5.22581 13.2661 4.74194 13.2903C4.25806 13.2661 3.84677 13.0968 3.50806 12.7823C3.19355 12.4435 3.02419 12.0323 3 11.5484ZM3 17.3548C3.02419 16.871 3.19355 16.4597 3.50806 16.121C3.84677 15.8065 4.25806 15.6371 4.74194 15.6129C5.22581 15.6371 5.6371 15.8065 5.97581 16.121C6.29032 16.4597 6.45968 16.871 6.48387 17.3548C6.45968 17.8387 6.29032 18.25 5.97581 18.5887C5.6371 18.9032 5.22581 19.0726 4.74194 19.0968C4.25806 19.0726 3.84677 18.9032 3.50806 18.5887C3.19355 18.25 3.02419 17.8387 3 17.3548ZM10.0766 4H17.8065C18.3387 4.04839 18.629 4.33871 18.6774 4.87097V6.6129C18.629 7.14516 18.3387 7.43548 17.8065 7.48387H10.0766C9.81048 7.48387 9.58064 7.41129 9.3871 7.26613L7.97177 6.21371C7.65726 5.89919 7.65726 5.58468 7.97177 5.27016L9.3871 4.21774C9.58064 4.07258 9.81048 4 10.0766 4ZM7.97177 11.0766L9.3871 10.0242C9.58064 9.87903 9.81048 9.80645 10.0766 9.80645H20.129C20.6613 9.85484 20.9516 10.1452 21 10.6774V12.4194C20.9516 12.9516 20.6613 13.2419 20.129 13.2903H10.0766C9.81048 13.2903 9.58064 13.2177 9.3871 13.0726L7.97177 12.0202C7.65726 11.7056 7.65726 11.3911 7.97177 11.0766ZM7.97177 16.8831L9.3871 15.8306C9.58064 15.6855 9.81048 15.6129 10.0766 15.6129H17.8065C18.3387 15.6613 18.629 15.9516 18.6774 16.4839V18.2258C18.629 18.7581 18.3387 19.0484 17.8065 19.0968H10.0766C9.81048 19.0968 9.58064 19.0242 9.3871 18.879L7.97177 17.8266C7.65726 17.5121 7.65726 17.1976 7.97177 16.8831Z" fill="#393C3C"/>
</svg>
