<svg width="24" height="24" viewBox="0 0 24 24" fill="none" xmlns="http://www.w3.org/2000/svg">
<path fill-rule="evenodd" clip-rule="evenodd" d="M17.0869 5.56522H9.91659L8.93833 6.54348L9.91659 7.52174H17.0869V5.56522ZM8.85345 4.42415C9.10373 4.17388 9.44495 4 9.83555 4H17.2826C18.0143 4 18.6521 4.63787 18.6521 5.36957V7.71739C18.6521 8.48972 18.0103 9.08696 17.2826 9.08696H9.83555C9.46028 9.08696 9.11479 8.96082 8.85345 8.69949L7.27601 7.12204C6.97949 6.82553 6.97949 6.29811 7.27601 6.0016L8.85345 4.42415ZM4.36952 7.91304C3.60114 7.91304 2.99995 7.31186 2.99995 6.54348C2.99995 5.81577 3.59719 5.17391 4.36952 5.17391C5.10122 5.17391 5.73908 5.81178 5.73908 6.54348C5.73908 7.3158 5.09723 7.91304 4.36952 7.91304ZM4.36952 13.7826C3.60114 13.7826 2.99995 13.1814 2.99995 12.413C2.99995 11.6853 3.59719 11.0435 4.36952 11.0435C5.10122 11.0435 5.73908 11.6813 5.73908 12.413C5.73908 13.1854 5.09723 13.7826 4.36952 13.7826ZM2.99995 18.2826C2.99995 17.5549 3.59719 16.913 4.36952 16.913C5.10122 16.913 5.73908 17.5509 5.73908 18.2826C5.73908 19.0549 5.09723 19.6522 4.36952 19.6522C3.60114 19.6522 2.99995 19.051 2.99995 18.2826ZM17.0869 17.3043H9.91659L8.93833 18.2826L9.91659 19.2609H17.0869V17.3043ZM8.85345 16.1633C9.10373 15.913 9.44495 15.7391 9.83555 15.7391H17.2826C18.0143 15.7391 18.6521 16.377 18.6521 17.1087V19.4565C18.6521 20.2288 18.0103 20.8261 17.2826 20.8261H9.83555C9.46028 20.8261 9.11479 20.6999 8.85345 20.4386L7.27601 18.8612C6.97949 18.5647 6.97949 18.0372 7.27601 17.7407L8.85345 16.1633ZM9.91659 13.3913L8.93833 12.413L9.91659 11.4348H19.4347V13.3913H9.91659ZM7.27601 11.8712L8.85345 10.2937C9.10373 10.0434 9.44495 9.86956 9.83555 9.86956H19.6304C20.3621 9.86956 21 10.5074 21 11.2391V13.587C21 14.3593 20.3581 14.9565 19.6304 14.9565H9.83555C9.46028 14.9565 9.11479 14.8304 8.85345 14.5691L7.27601 12.9916C6.97949 12.6951 6.97949 12.1677 7.27601 11.8712Z" fill="#98A2B3"/>
</svg>
