<svg width="24" height="24" viewBox="0 0 24 24" fill="none" xmlns="http://www.w3.org/2000/svg">
<path fill-rule="evenodd" clip-rule="evenodd" d="M3 5C3 3.89543 3.89543 3 5 3H8C8.55228 3 9 3.44772 9 4C9 4.55228 8.55228 5 8 5H5V8C5 8.55228 4.55228 9 4 9C3.44772 9 3 8.55228 3 8V5Z" fill="#393C3C"/>
<path fill-rule="evenodd" clip-rule="evenodd" d="M5 21C3.89543 21 3 20.1046 3 19L3 16C3 15.4477 3.44772 15 4 15C4.55228 15 5 15.4477 5 16L5 19H8C8.55228 19 9 19.4477 9 20C9 20.5523 8.55228 21 8 21H5Z" fill="#393C3C"/>
<path fill-rule="evenodd" clip-rule="evenodd" d="M21 19C21 20.1046 20.1046 21 19 21H16C15.4477 21 15 20.5523 15 20C15 19.4477 15.4477 19 16 19H19V16C19 15.4477 19.4477 15 20 15C20.5523 15 21 15.4477 21 16V19Z" fill="#393C3C"/>
<path fill-rule="evenodd" clip-rule="evenodd" d="M19 3C20.1046 3 21 3.89543 21 5V8C21 8.55228 20.5523 9 20 9C19.4477 9 19 8.55228 19 8V5L16 5C15.4477 5 15 4.55228 15 4C15 3.44772 15.4477 3 16 3L19 3Z" fill="#393C3C"/>
<path fill-rule="evenodd" clip-rule="evenodd" d="M2 12C2 11.4477 2.40701 11 2.90909 11H21.0909V13H2.90909C2.40701 13 2 12.5523 2 12ZM22 12C22 12.5523 21.5929 13 21.0909 13V11C21.5929 11 22 11.4477 22 12Z" fill="#393C3C"/>
</svg>
