<svg width="24" height="24" viewBox="0 0 24 24" fill="none" xmlns="http://www.w3.org/2000/svg">
<path fill-rule="evenodd" clip-rule="evenodd" d="M19.5 3C20.3284 3 21 3.67157 21 4.5V8.18182C21 8.63369 20.6337 9 20.1818 9C19.7299 9 19.3636 8.63369 19.3636 8.18182V4.63636L15.8182 4.63636C15.3663 4.63636 15 4.27005 15 3.81818C15 3.36631 15.3663 3 15.8182 3L19.5 3Z" fill="#98A2B3"/>
<path fill-rule="evenodd" clip-rule="evenodd" d="M3 4.5C3 3.67157 3.67157 3 4.5 3H8.18182C8.63369 3 9 3.36631 9 3.81818C9 4.27005 8.63369 4.63636 8.18182 4.63636H4.63636V8.18182C4.63636 8.63369 4.27005 9 3.81818 9C3.36631 9 3 8.63369 3 8.18182V4.5Z" fill="#98A2B3"/>
<path fill-rule="evenodd" clip-rule="evenodd" d="M4.5 21C3.67157 21 3 20.3284 3 19.5L3 15.8182C3 15.3663 3.36631 15 3.81818 15C4.27005 15 4.63636 15.3663 4.63636 15.8182V19.3636H8.18182C8.63369 19.3636 9 19.7299 9 20.1818C9 20.6337 8.63369 21 8.18182 21H4.5Z" fill="#98A2B3"/>
<path fill-rule="evenodd" clip-rule="evenodd" d="M21 19.5C21 20.3284 20.3284 21 19.5 21H15.8182C15.3663 21 15 20.6337 15 20.1818C15 19.7299 15.3663 19.3636 15.8182 19.3636L19.3636 19.3636V15.8182C19.3636 15.3663 19.7299 15 20.1818 15C20.6337 15 21 15.3663 21 15.8182V19.5Z" fill="#98A2B3"/>
<path fill-rule="evenodd" clip-rule="evenodd" d="M2 12C2 11.5858 2.31236 11.25 2.69767 11.25H21.3023C21.6876 11.25 22 11.5858 22 12C22 12.4142 21.6876 12.75 21.3023 12.75H2.69767C2.31236 12.75 2 12.4142 2 12Z" fill="#98A2B3"/>
</svg>
