<svg width="24" height="24" viewBox="0 0 24 24" fill="none" xmlns="http://www.w3.org/2000/svg">
<path fill-rule="evenodd" clip-rule="evenodd" d="M3.64871 3C2.71557 3 2 3.784 2 4.73174C2 5.11967 2.12575 5.5106 2.38098 5.81683L9.35068 14.5035V17.7277C9.35068 18.1753 9.56886 18.5735 9.90931 18.836L9.9101 18.8366L12.254 20.6903C12.5165 20.9138 12.8211 21 13.1546 21C13.9232 21 14.6108 20.3453 14.6108 19.5448V14.5035L21.5796 5.81799L21.5805 5.81682C21.8287 5.5192 22 5.13038 22 4.73174C22 3.77894 21.2411 3 20.3128 3H3.64871ZM10.7375 13.7329L10.7332 13.7263L3.54316 4.84675C3.53422 4.82647 3.53138 4.8147 3.52989 4.80556C3.52747 4.79065 3.52709 4.77423 3.52709 4.73174C3.52709 4.6891 3.54329 4.64426 3.56981 4.61159C3.5957 4.57971 3.62399 4.56742 3.64871 4.56742H20.3128C20.3417 4.56742 20.383 4.58378 20.42 4.62174C20.457 4.65971 20.4729 4.70207 20.4729 4.73174C20.4729 4.74165 20.4716 4.74792 20.4645 4.76266C20.4598 4.77222 20.4542 4.78225 20.4448 4.79888L20.444 4.80037C20.437 4.81284 20.4286 4.82788 20.4197 4.84508L13.2283 13.7263L13.224 13.7329C13.1291 13.879 13.0837 14.067 13.0837 14.2121V19.3672L10.9163 17.6531V14.2121C10.9163 14.123 10.8884 14.0319 10.8562 13.9548C10.823 13.8753 10.7798 13.798 10.7375 13.7329Z" fill="#98A2B3"/>
</svg>
