<svg width="24" height="24" viewBox="0 0 24 24" fill="none" xmlns="http://www.w3.org/2000/svg">
<path d="M5.92473 6.74186L5.91857 6.74908C4.7712 8.09314 4.11382 9.83217 4.11382 11.7398C4.11382 13.6818 4.77155 15.4207 5.91857 16.7643L5.92362 16.7703C6.26896 17.2019 6.23929 17.8999 5.75126 18.2642C5.3015 18.6593 4.6412 18.5625 4.29116 18.1276C2.8323 16.3899 2 14.167 2 11.7398C2 9.34593 2.83259 7.12319 4.29115 5.38582C4.64119 4.95096 5.30146 4.8541 5.75122 5.24922C6.24273 5.61548 6.26301 6.27673 5.93032 6.73418L5.92473 6.74186Z" fill="#393C3C"/>
<path d="M19.7089 5.38594C21.1314 7.12072 22 9.34272 22 11.7398C22 14.1703 21.1317 16.3924 19.7089 18.1275L19.7018 18.1362C19.3104 18.571 18.6558 18.6166 18.2162 18.2649C17.7759 17.9127 17.6818 17.213 18.0821 16.7635C19.1975 15.4169 19.8862 13.6774 19.8862 11.7398C19.8862 9.83489 19.1966 8.09393 18.0792 6.74642L18.0782 6.74518C17.69 6.27071 17.7695 5.61082 18.2107 5.25297C18.6657 4.84879 19.3236 4.95737 19.7016 5.37743L19.7089 5.38594Z" fill="#393C3C"/>
<path d="M12.8004 10.3773C13.2766 10.6551 13.5989 11.1729 13.5989 11.7398C13.5989 12.3372 13.2796 12.8565 12.8004 13.1361L12.7932 13.1403C12.285 13.414 11.6878 13.4192 11.2032 13.1382C10.6777 12.8535 10.4011 12.3262 10.4011 11.7398C10.4011 11.1836 10.6806 10.6584 11.2032 10.3752C11.6879 10.0943 12.2849 10.0996 12.7931 10.3733L12.8004 10.3773Z" fill="#393C3C"/>
<path d="M8.56158 15.7581C8.11215 16.1177 7.44977 16.0235 7.09882 15.5482C6.24919 14.5188 5.79404 13.1773 5.79404 11.7398C5.79404 10.332 6.25169 8.99036 7.10087 7.92888C7.45091 7.49133 8.10843 7.39684 8.55717 7.75178C9.03962 8.10636 9.12335 8.76927 8.73818 9.24618C8.22544 9.95329 7.90786 10.8165 7.90786 11.7398C7.90786 12.6958 8.22477 13.5575 8.73509 14.263C9.13643 14.7205 9.02357 15.3802 8.56366 15.7565L8.56158 15.7581Z" fill="#393C3C"/>
<path d="M16.8964 7.92522L16.9022 7.93284C17.7121 8.98919 18.206 10.3281 18.206 11.7398C18.206 13.184 17.7129 14.5246 16.8998 15.5499L16.8975 15.5528C16.52 16.0141 15.8647 16.1223 15.4089 15.7616C14.9161 15.3991 14.8843 14.6988 15.2296 14.2653C15.7732 13.5611 16.0921 12.699 16.0921 11.7398C16.0921 10.8147 15.7734 9.9519 15.2284 9.24664L15.2241 9.24102C14.8901 8.78181 14.9119 8.11717 15.4089 7.75179C15.8621 7.39325 16.5122 7.4983 16.89 7.91808L16.8964 7.92522Z" fill="#393C3C"/>
</svg>
