<svg width="24" height="24" viewBox="0 0 24 24" fill="none" xmlns="http://www.w3.org/2000/svg">
<path d="M5.4375 5.19957C5.81944 5.47734 5.85417 5.99818 5.57639 6.38012C4.36111 7.80373 3.66667 9.64401 3.66667 11.6579C3.66667 13.7065 4.36111 15.5468 5.57639 16.9704C5.85417 17.3176 5.81944 17.8732 5.4375 18.151C5.09028 18.4635 4.56944 18.394 4.29167 18.0468C2.83333 16.3107 2 14.0885 2 11.6579C2 9.26207 2.83333 7.03984 4.29167 5.30373C4.56944 4.95651 5.09028 4.88707 5.4375 5.19957ZM18.5278 5.19957C18.875 4.88707 19.3958 4.95651 19.7083 5.30373C21.1319 7.03984 22 9.26207 22 11.6579C22 14.0885 21.1319 16.3107 19.7083 18.0468C19.3958 18.394 18.875 18.4287 18.5278 18.151C18.1806 17.8732 18.1111 17.3176 18.4236 16.9704C19.6042 15.5468 20.3333 13.7065 20.3333 11.6579C20.3333 9.64401 19.6042 7.80373 18.4236 6.38012C18.1111 5.99818 18.1806 5.47734 18.5278 5.19957ZM10.6111 11.6579C10.6111 11.1718 10.8542 10.7204 11.3056 10.4773C11.7222 10.2343 12.2431 10.2343 12.6944 10.4773C13.1111 10.7204 13.3889 11.1718 13.3889 11.6579C13.3889 12.1787 13.1111 12.6301 12.6944 12.8732C12.2431 13.1162 11.7222 13.1162 11.3056 12.8732C10.8542 12.6301 10.6111 12.1787 10.6111 11.6579ZM8.45833 8.94957C7.90278 9.71346 7.55556 10.651 7.55556 11.6579C7.55556 12.6996 7.90278 13.6371 8.45833 14.401C8.77083 14.7482 8.70139 15.269 8.31944 15.5815C7.97222 15.8593 7.45139 15.7898 7.17361 15.4079C6.34028 14.401 5.88889 13.0815 5.88889 11.6579C5.88889 10.269 6.34028 8.94957 7.17361 7.9079C7.45139 7.56068 7.97222 7.49123 8.31944 7.76901C8.70139 8.04679 8.77083 8.56762 8.45833 8.94957ZM16.8264 7.9079C17.625 8.94957 18.1111 10.269 18.1111 11.6579C18.1111 13.0815 17.625 14.401 16.8264 15.4079C16.5139 15.7898 15.9931 15.8593 15.6458 15.5815C15.2639 15.3037 15.2292 14.7482 15.5069 14.401C16.0972 13.6371 16.4444 12.6996 16.4444 11.6579C16.4444 10.651 16.0972 9.71346 15.5069 8.94957C15.2292 8.56762 15.2639 8.04679 15.6458 7.76901C15.9931 7.49123 16.5139 7.56068 16.8264 7.9079Z" fill="#98A2B3"/>
</svg>
