<svg width="24" height="24" viewBox="0 0 24 24" fill="none" xmlns="http://www.w3.org/2000/svg">
<path d="M12.3768 15.6537C12.1802 15.8577 11.8199 15.8577 11.6233 15.6537L5.33381 9.12807C5.13726 8.92414 5.13726 8.55027 5.33381 8.34635C5.53036 8.14242 5.8907 8.14242 6.08724 8.34635L11.9837 14.4982L17.9128 8.34635C18.1094 8.14242 18.4697 8.14242 18.6663 8.34635C18.8628 8.55027 18.8628 8.92414 18.6663 9.12807L12.3768 15.6537Z" fill="#98A2B3"/>
<path fill-rule="evenodd" clip-rule="evenodd" d="M6.21934 8.20996L11.984 14.2243L17.781 8.20958C18.0504 7.93014 18.5287 7.93014 18.798 8.20958C19.0673 8.48901 19.0673 8.98531 18.798 9.26474L12.5085 15.7904C12.2392 16.0699 11.7608 16.0699 11.4915 15.7904L5.20199 9.26474C4.93267 8.98531 4.93267 8.48901 5.20199 8.20958C5.47132 7.93014 5.95001 7.93052 6.21934 8.20996ZM17.9128 8.34635C18.1094 8.14242 18.4697 8.14242 18.6663 8.34635C18.8628 8.55027 18.8628 8.92414 18.6663 9.12807L12.3768 15.6537C12.1802 15.8577 11.8199 15.8577 11.6233 15.6537L5.33381 9.12807C5.13726 8.92414 5.13726 8.55027 5.33381 8.34635C5.53036 8.14242 5.8907 8.14242 6.08724 8.34635L11.9837 14.4982L17.9128 8.34635Z" fill="#98A2B3"/>
</svg>
