<svg width="24" height="24" viewBox="0 0 24 24" fill="none" xmlns="http://www.w3.org/2000/svg">
<g clip-path="url(#clip0_0_937)">
<path fill-rule="evenodd" clip-rule="evenodd" d="M12.9938 14.6908L17.3284 10.3777C17.5242 10.1841 17.7848 10.1011 18.0233 10.1011C18.2618 10.1011 18.5218 10.1835 18.7176 10.3771C19.0941 10.7492 19.0941 11.3987 18.7176 11.7708L12.6943 17.724C12.4985 17.9176 12.2385 18 12 18C11.7615 18 11.5015 17.9176 11.3057 17.724L5.28236 11.7708C4.90588 11.3987 4.90588 10.7492 5.28236 10.3771C5.47818 10.1835 5.73821 10.1011 5.97669 10.1011C6.21518 10.1011 6.47521 10.1835 6.67102 10.3771L11.0404 14.6956V2.97283C11.0404 2.42257 11.4796 2 12.0171 2C12.5021 2 12.9938 2.4049 12.9938 2.97283V14.6908Z" fill="#393C3C"/>
<path fill-rule="evenodd" clip-rule="evenodd" d="M2 21C2 20.4477 2.44772 20 3 20H21C21.5523 20 22 20.4477 22 21C22 21.5523 21.5523 22 21 22H3C2.44772 22 2 21.5523 2 21Z" fill="#393C3C"/>
</g>
<defs>
<clipPath id="clip0_0_937">
<rect width="20" height="20" fill="white" transform="translate(2 2)"/>
</clipPath>
</defs>
</svg>
