<svg width="24" height="24" viewBox="0 0 24 24" fill="none" xmlns="http://www.w3.org/2000/svg">
<g clip-path="url(#clip0_0_571)">
<path d="M12.7793 2.75324V16.437L17.6947 11.5671C17.8432 11.4209 18.0457 11.3543 18.2384 11.3543C18.4312 11.3543 18.6337 11.4209 18.7822 11.5671C19.0726 11.8528 19.0726 12.3622 18.7822 12.648L12.5438 18.7872C12.3953 18.9334 12.1928 19 12 19C11.8072 19 11.6047 18.9334 11.4562 18.7872L5.2178 12.648C4.9274 12.3622 4.9274 11.8528 5.2178 11.5671C5.36632 11.4209 5.56881 11.3543 5.76157 11.3543C5.95434 11.3543 6.15683 11.4209 6.30534 11.5671L11.2561 16.4392V2.75324C11.2561 2.32796 11.5949 2 12.0177 2C12.3971 2 12.7793 2.3203 12.7793 2.75324Z" fill="#98A2B3"/>
<path fill-rule="evenodd" clip-rule="evenodd" d="M2 21.25C2 20.8358 2.33579 20.5 2.75 20.5H21.25C21.6642 20.5 22 20.8358 22 21.25C22 21.6642 21.6642 22 21.25 22H2.75C2.33579 22 2 21.6642 2 21.25Z" fill="#98A2B3"/>
</g>
<defs>
<clipPath id="clip0_0_571">
<rect width="20" height="20" fill="white" transform="translate(2 2)"/>
</clipPath>
</defs>
</svg>
