<svg width="24" height="24" viewBox="0 0 24 24" fill="none" xmlns="http://www.w3.org/2000/svg">
<path fill-rule="evenodd" clip-rule="evenodd" d="M12 3C16.9706 3 21 7.02944 21 12C21 16.9706 16.9706 21 12 21C7.02944 21 3 16.9706 3 12C3 7.02944 7.02944 3 12 3ZM12 10.875C11.3787 10.875 10.875 11.3787 10.875 12V16.5C10.875 17.1213 11.3787 17.625 12 17.625C12.6213 17.625 13.125 17.1213 13.125 16.5V12C13.125 11.3787 12.6213 10.875 12 10.875ZM10.65 7.95C10.65 8.69559 11.2544 9.3 12 9.3C12.7456 9.3 13.35 8.69559 13.35 7.95C13.35 7.20442 12.7456 6.6 12 6.6C11.2544 6.6 10.65 7.20442 10.65 7.95Z" fill="#393C3C"/>
</svg>
