<svg width="24" height="24" viewBox="0 0 24 24" fill="none" xmlns="http://www.w3.org/2000/svg">
<path d="M12 17.25C11.6272 17.25 11.325 16.9478 11.325 16.575V11.175C11.325 10.8022 11.6272 10.5 12 10.5C12.3728 10.5 12.675 10.8022 12.675 11.175V16.575C12.675 16.9478 12.3728 17.25 12 17.25Z" fill="#98A2B3"/>
<path d="M12 7.2C11.5029 7.2 11.1 7.60294 11.1 8.1C11.1 8.59706 11.5029 9 12 9C12.4971 9 12.9 8.59706 12.9 8.1C12.9 7.60294 12.4971 7.2 12 7.2Z" fill="#98A2B3"/>
<path fill-rule="evenodd" clip-rule="evenodd" d="M12 3C7.02944 3 3 7.02944 3 12C3 16.9706 7.02944 21 12 21C16.9706 21 21 16.9706 21 12C21 7.02944 16.9706 3 12 3ZM12 4.5C7.85786 4.5 4.5 7.85786 4.5 12C4.5 16.1421 7.85786 19.5 12 19.5C16.1421 19.5 19.5 16.1421 19.5 12C19.5 7.85786 16.1421 4.5 12 4.5Z" fill="#98A2B3"/>
</svg>
