<svg width="24" height="24" viewBox="0 0 24 24" fill="none" xmlns="http://www.w3.org/2000/svg">
<path d="M11.6232 8.34625C11.8198 8.14232 12.1801 8.14232 12.3767 8.34625L18.6662 14.8719C18.8627 15.0759 18.8627 15.4497 18.6662 15.6537C18.4696 15.8576 18.1093 15.8576 17.9128 15.6537L12.0163 9.50184L6.08715 15.6537C5.89061 15.8576 5.53027 15.8576 5.33372 15.6537C5.13717 15.4497 5.13717 15.0759 5.33372 14.8719L11.6232 8.34625Z" fill="#98A2B3"/>
<path fill-rule="evenodd" clip-rule="evenodd" d="M17.7807 15.79L12.016 9.77571L6.21897 15.7904C5.94965 16.0699 5.47132 16.0699 5.20199 15.7904C4.93267 15.511 4.93267 15.0147 5.20199 14.7353L11.4915 8.20958C11.7608 7.93014 12.2392 7.93014 12.5085 8.20958L18.798 14.7353C19.0673 15.0147 19.0673 15.511 18.798 15.7904C18.5287 16.0699 18.05 16.0695 17.7807 15.79ZM6.08715 15.6537C5.89061 15.8576 5.53027 15.8576 5.33372 15.6537C5.13717 15.4497 5.13717 15.0759 5.33372 14.8719L11.6232 8.34625C11.8198 8.14232 12.1801 8.14232 12.3767 8.34625L18.6662 14.8719C18.8627 15.0759 18.8627 15.4497 18.6662 15.6537C18.4696 15.8576 18.1093 15.8576 17.9128 15.6537L12.0163 9.50184L6.08715 15.6537Z" fill="#98A2B3"/>
</svg>
