<svg width="24" height="24" viewBox="0 0 24 24" fill="none" xmlns="http://www.w3.org/2000/svg">
<path fill-rule="evenodd" clip-rule="evenodd" d="M20.6494 5.34452L20.6566 5.35248C21.516 6.30125 21.9675 7.38554 21.9997 8.59808L22 8.61085C21.9679 9.82339 21.516 10.9077 20.6566 11.8564L20.648 11.8659L17.1997 15.2917C16.2718 16.1819 15.1751 16.6319 13.9206 16.6319C12.6372 16.6319 11.5383 16.1828 10.6384 15.2887C9.73852 14.3945 9.28649 13.3027 9.28649 12.0275C9.28649 11.5086 9.367 11.0019 9.5415 10.5203C9.70441 10.0708 10.1799 9.76954 10.676 9.89908C11.033 9.99231 11.2246 10.2592 11.3045 10.5497C11.3818 10.831 11.3622 11.1508 11.3002 11.4262C11.2576 11.6153 11.2377 11.8146 11.2377 12.0275C11.2377 12.786 11.4895 13.4165 12.0151 13.9113C12.5485 14.4133 13.1894 14.6628 13.9206 14.6628C14.6462 14.6628 15.2585 14.417 15.8259 13.9113L19.2618 10.4974C19.7755 9.92855 20.0486 9.31921 20.0486 8.60446C20.0486 7.92062 19.7761 7.28306 19.2661 6.71632C18.6957 6.20959 18.054 5.93886 17.3657 5.93886C16.6462 5.93886 16.0329 6.21015 15.4603 6.72063L14.3532 7.82073C14.0092 8.16248 13.4753 8.15737 13.1074 7.8969C12.6457 7.57005 12.5333 6.88667 12.9643 6.46584L14.12 5.33737C15.0772 4.44972 16.1724 4 17.4571 4H17.4637C18.6555 4.032 19.7173 4.4822 20.6415 5.33723L20.6494 5.34452ZM9.91058 18.6565C8.88985 19.6073 7.69836 20.058 6.37831 19.994L6.37666 19.994C5.21733 19.93 4.2179 19.4797 3.35522 18.6543L3.34882 18.6482C2.45291 17.7262 2 16.6364 2 15.3899C2 14.1722 2.45397 13.0844 3.3461 12.1346L3.3511 12.1293L6.80014 8.67222C7.69911 7.81091 8.79451 7.36395 10.0731 7.33219L10.0854 7.33188C11.3349 7.36372 12.4281 7.81185 13.355 8.66934L13.3614 8.67524L13.3674 8.68157C14.2304 9.60259 14.6811 10.6888 14.7132 11.9304L14.7133 11.9366C14.7133 12.4614 14.6229 12.9422 14.4635 13.3971C14.2991 13.8659 13.8049 14.2012 13.28 14.064C12.9282 13.9721 12.7416 13.7084 12.6668 13.4224C12.5946 13.146 12.6192 12.8329 12.686 12.5643C12.7359 12.3638 12.7621 12.1531 12.7621 11.9366C12.7621 11.2239 12.4906 10.6159 11.9796 10.0484C11.4136 9.54567 10.8027 9.30127 10.0792 9.30127C9.34907 9.30127 8.70893 9.55 8.17608 10.0505L4.73562 13.4689C4.19936 14.0308 3.95119 14.6675 3.95119 15.3596C3.95119 16.0841 4.20079 16.7177 4.73118 17.2458C5.29757 17.7795 5.9084 18.0252 6.63409 18.0252C7.33103 18.0252 7.97221 17.7783 8.5379 17.2449L9.65394 16.1578C9.99901 15.8217 10.5269 15.8549 10.8748 16.1134C11.3119 16.4382 11.4595 17.1177 11.029 17.5455L9.91058 18.6565Z" fill="#393C3C"/>
</svg>
