<svg width="24" height="24" viewBox="0 0 24 24" fill="none" xmlns="http://www.w3.org/2000/svg">
<path d="M20.6875 5.31202C21.5312 6.24918 21.9688 7.31129 22 8.49835C21.9688 9.68542 21.5312 10.7475 20.6875 11.6847L17.1562 15.2146C16.25 16.0893 15.1875 16.5267 13.9688 16.5267C12.7188 16.5267 11.6562 16.0893 10.7812 15.2146C9.90625 14.34 9.46875 13.2779 9.46875 12.0283C9.46875 11.5191 9.54724 11.0255 9.71534 10.5588C9.84414 10.2012 10.2119 9.97864 10.5795 10.0752C11.0948 10.2106 11.1552 10.8337 11.0388 11.3537C10.9906 11.5692 10.9688 11.7933 10.9688 12.0283C10.9688 12.8718 11.25 13.5902 11.8438 14.1525C12.4375 14.7148 13.1562 14.996 13.9688 14.996C14.7812 14.996 15.4688 14.7148 16.0938 14.1525L19.625 10.6226C20.1875 9.9978 20.5 9.31055 20.5 8.49835C20.5 7.71739 20.1875 6.9989 19.625 6.37413C19 5.81184 18.2812 5.49945 17.5 5.49945C16.6875 5.49945 16 5.81184 15.375 6.37413L14.2354 7.51331C13.9814 7.7672 13.5728 7.7734 13.2803 7.56506C12.9179 7.30694 12.8464 6.78302 13.1638 6.47124L14.3438 5.31202C15.2812 4.43734 16.3438 4 17.5938 4C18.75 4.03124 19.7812 4.46858 20.6875 5.31202ZM8.625 17.5888L9.77038 16.4663C10.0187 16.2229 10.4186 16.234 10.6971 16.4422C11.0497 16.7058 11.1395 17.2307 10.8281 17.542L9.6875 18.6821C8.6875 19.6193 7.53125 20.0566 6.25 19.9941C5.125 19.9317 4.15625 19.4943 3.3125 18.6821C2.4375 17.7762 2 16.7141 2 15.4958C2 14.3087 2.4375 13.2466 3.3125 12.3095L6.84375 8.74826C7.71875 7.90482 8.78125 7.46748 10.0312 7.43624C11.25 7.46748 12.3125 7.90482 13.2188 8.74826C14.0625 9.65418 14.5 10.7163 14.5312 11.9346C14.5312 12.4462 14.4439 12.9142 14.2891 13.3584C14.1561 13.7402 13.7667 13.9895 13.3757 13.8867C12.873 13.7545 12.8213 13.1465 12.946 12.6419C13.002 12.4153 13.0312 12.1779 13.0312 11.9346C13.0312 11.1224 12.7188 10.4351 12.1562 9.81037C11.5312 9.24808 10.8438 8.96693 10.0312 8.96693C9.21875 8.96693 8.5 9.24808 7.90625 9.81037L4.375 13.3403C3.78125 13.9651 3.5 14.6836 3.5 15.4646C3.5 16.2768 3.78125 16.9952 4.375 17.5888C5 18.1823 5.6875 18.4635 6.5 18.4635C7.28125 18.4635 8 18.1823 8.625 17.5888Z" fill="#98A2B3"/>
</svg>
