<svg width="24" height="24" viewBox="0 0 24 24" fill="none" xmlns="http://www.w3.org/2000/svg">
<g clip-path="url(#clip0_0_265)">
<path d="M18.95 2.09778H5.24554C3.50706 2.09778 2.09775 3.50709 2.09775 5.24557V18.95C2.09775 20.6885 3.50706 22.0978 5.24554 22.0978H18.95C20.6884 22.0978 22.0977 20.6885 22.0977 18.95V5.24557C22.0977 3.50709 20.6884 2.09778 18.95 2.09778Z" fill="#13EA60"/>
<path d="M9.16317 14.0032C11.3099 14.0032 13.0542 15.7027 13.0542 17.8495C13.0542 19.9962 11.3099 21.7181 9.16317 21.7181C7.01641 21.7181 5.29453 19.9962 5.29453 17.8495C5.29453 15.7027 7.01641 14.0032 9.16317 14.0032Z" fill="#090A0A"/>
<path d="M17.8449 22.0978H14.0682V12.8655H9.04427V9.08875H17.8449V22.0978Z" fill="white"/>
</g>
<defs>
<clipPath id="clip0_0_265">
<rect width="20" height="20" fill="white" transform="translate(2 2)"/>
</clipPath>
</defs>
</svg>
