<svg width="24" height="24" viewBox="0 0 24 24" fill="none" xmlns="http://www.w3.org/2000/svg">
<g clip-path="url(#clip0_0_279)">
<path d="M2 6C2 3.79086 3.79086 2 6 2H18C20.2091 2 22 3.79086 22 6V18C22 20.2091 20.2091 22 18 22H6C3.79086 22 2 20.2091 2 18V6Z" fill="#4267B2"/>
<path d="M12.6329 21.9999V14.0833H9.91663V11.1666H12.6329V9.01054C12.6329 6.42731 14.2107 5.02069 16.5151 5.02069C17.6189 5.02069 18.5676 5.10287 18.8441 5.13961V7.83923L17.2459 7.83996C15.9926 7.83996 15.7499 8.43549 15.7499 9.3094V11.1666H18.6666L18.2499 14.0833H15.7499V21.9999H12.6329Z" fill="white"/>
</g>
<defs>
<clipPath id="clip0_0_279">
<rect width="20" height="20" fill="white" transform="translate(2 2)"/>
</clipPath>
</defs>
</svg>
