<svg width="24" height="24" viewBox="0 0 24 24" fill="none" xmlns="http://www.w3.org/2000/svg">
<g clip-path="url(#clip0_0_283)">
<path d="M5.72543 2.10133C6.41017 1.99335 7.10656 1.9927 7.79841 2.00822L7.73893 2.06318C6.83369 2.65611 6.08299 3.47017 5.5405 4.4045C4.45293 6.27511 4.05656 8.48711 4.14644 10.6312C4.23567 12.377 4.65466 14.1325 5.54309 15.6501C5.6918 15.9217 5.93945 16.1616 5.94333 16.4913C5.97113 17.1987 5.62132 17.8653 5.14802 18.371C5.17905 18.4033 5.20944 18.4356 5.24048 18.468C5.6834 18.9516 6.15606 19.4062 6.60609 19.8834C7.24557 20.6063 7.97429 21.2464 8.60084 21.9822C7.55853 21.9977 6.50393 22.0462 5.4739 21.8516C4.17748 21.6001 3.02653 20.7013 2.47693 19.4999C2.14393 18.8055 2.04435 18.0289 2.01849 17.2679C2.01784 13.7543 2.01784 10.2413 2.01849 6.72837C2.03272 5.55415 2.34373 4.32562 3.17008 3.45465C3.82443 2.71689 4.75101 2.23711 5.72543 2.10133Z" fill="#0068FF"/>
<path d="M15.2188 8.55307C15.4961 8.55307 15.7735 8.55307 16.0516 8.55307C16.047 10.178 16.047 11.8035 16.0516 13.4284C15.78 13.3903 15.328 13.5642 15.2259 13.2027C15.2091 11.6535 15.2246 10.103 15.2188 8.55307Z" fill="#0068FF"/>
<path d="M6.73283 8.61063C8.02343 8.60933 9.31274 8.60093 10.6027 8.60998C10.5937 8.8628 10.5794 9.13825 10.41 9.34257C9.52806 10.4405 8.66486 11.5526 7.78354 12.6506C8.72046 12.6564 9.65738 12.6525 10.5943 12.6525C10.5768 12.8717 10.6538 13.1271 10.5115 13.3172C10.4223 13.4401 10.2607 13.4291 10.1268 13.4304C8.95453 13.4239 7.78225 13.4362 6.61062 13.4239C6.61385 13.1762 6.61644 12.9021 6.78973 12.7049C7.66134 11.6115 8.54329 10.5258 9.41103 9.42986C8.51937 9.43116 7.62707 9.42404 6.73541 9.43374C6.72959 9.15959 6.73153 8.88478 6.73283 8.61063Z" fill="#0068FF"/>
<path d="M18.1162 9.68656C19.0447 9.479 20.0521 10.0887 20.3062 11.003C20.6249 11.9542 20.043 13.0851 19.0815 13.3747C18.2649 13.6625 17.2872 13.2868 16.8637 12.5342C16.5313 11.9781 16.5113 11.25 16.8133 10.6778C17.0693 10.1728 17.564 9.80359 18.1162 9.68656ZM18.1006 10.5103C17.5342 10.7101 17.229 11.3994 17.4502 11.9561C17.6331 12.4824 18.2493 12.8044 18.7847 12.6428C19.3958 12.4967 19.765 11.7809 19.5484 11.1944C19.3673 10.6138 18.6658 10.2788 18.1006 10.5103Z" fill="#0068FF"/>
<path d="M11.2377 10.3635C11.6845 9.81005 12.4668 9.53718 13.1561 9.73439C13.3837 9.79194 13.59 9.90574 13.7891 10.0267C13.7872 9.96588 13.7827 9.84496 13.7807 9.78418C14.0413 9.78289 14.3012 9.78354 14.5618 9.78224C14.5605 10.9978 14.5592 12.2134 14.5625 13.4297C14.3711 13.4245 14.1764 13.4471 13.9883 13.4084C13.8564 13.3547 13.8156 13.2105 13.7633 13.0928C13.0443 13.6515 11.9146 13.5247 11.3172 12.8445C10.6803 12.1856 10.6473 11.0631 11.2377 10.3635ZM12.2903 10.5265C11.6916 10.7373 11.4013 11.5087 11.7045 12.0647C11.9631 12.6066 12.6912 12.8342 13.2117 12.5354C13.6947 12.282 13.9178 11.6528 13.7102 11.1498C13.5092 10.6028 12.8309 10.2963 12.2903 10.5265Z" fill="#0068FF"/>
<path d="M7.73893 2.06317C7.88377 2.02179 8.03507 2.00886 8.18508 2.00433C10.7708 2.01403 13.3566 2.00304 15.9423 2.00757C16.6335 2.01597 17.3286 1.96942 18.0146 2.07481C18.9645 2.14723 19.8788 2.54941 20.5855 3.18502C21.4726 4.03271 21.9459 5.25348 21.9608 6.47102C21.9615 9.89863 21.9595 13.3288 21.9628 16.7551C21.9537 16.7752 21.9362 16.8166 21.9272 16.8373C21.0058 17.8679 19.7669 18.5656 18.4718 19.0169C16.7266 19.6118 14.8573 19.8032 13.0229 19.6635C11.1885 19.5058 9.3399 19.0266 7.78419 18.0128C6.98888 18.3665 6.11145 18.5397 5.24048 18.468C5.20945 18.4356 5.17906 18.4033 5.14802 18.371C5.62133 17.8653 5.97114 17.1987 5.94333 16.4913C5.93945 16.1616 5.69181 15.9217 5.54309 15.6501C4.65467 14.1325 4.23567 12.377 4.14644 10.6312C4.05657 8.48711 4.45293 6.2751 5.5405 4.4045C6.083 3.47017 6.8337 2.6561 7.73893 2.06317ZM15.2188 8.55306C15.2246 10.103 15.2091 11.6535 15.2259 13.2027C15.328 13.5642 15.78 13.3902 16.0516 13.4284C16.047 11.8035 16.047 10.178 16.0516 8.55306C15.7735 8.55306 15.4961 8.55306 15.2188 8.55306ZM6.73283 8.61061C6.73153 8.88476 6.72959 9.15957 6.73541 9.43373C7.62707 9.42403 8.51937 9.43114 9.41103 9.42985C8.5433 10.5258 7.66134 11.6115 6.78973 12.7049C6.61644 12.9021 6.61385 13.1762 6.61062 13.4239C7.78225 13.4362 8.95453 13.4239 10.1268 13.4303C10.2607 13.429 10.4223 13.44 10.5115 13.3172C10.6538 13.1271 10.5768 12.8717 10.5943 12.6525C9.65738 12.6525 8.72046 12.6564 7.78355 12.6505C8.66486 11.5526 9.52806 10.4405 10.41 9.34256C10.5794 9.13823 10.5937 8.86278 10.6027 8.60996C9.31275 8.60091 8.02343 8.60931 6.73283 8.61061ZM18.1162 9.68654C17.564 9.80358 17.0693 10.1728 16.8133 10.6778C16.5113 11.25 16.5313 11.9781 16.8637 12.5342C17.2872 13.2868 18.2649 13.6625 19.0815 13.3747C20.043 13.0851 20.6249 11.9542 20.3062 11.003C20.0521 10.0887 19.0447 9.47899 18.1162 9.68654ZM11.2377 10.3635C10.6473 11.0631 10.6803 12.1856 11.3172 12.8445C11.9146 13.5247 13.0443 13.6515 13.7633 13.0928C13.8156 13.2105 13.8564 13.3547 13.9883 13.4084C14.1764 13.4471 14.3711 13.4245 14.5625 13.4297C14.5592 12.2134 14.5605 10.9978 14.5618 9.78224C14.3012 9.78353 14.0413 9.78289 13.7807 9.78418C13.7827 9.84496 13.7872 9.96587 13.7891 10.0267C13.59 9.90574 13.3837 9.79194 13.1561 9.73439C12.4668 9.53718 11.6845 9.81004 11.2377 10.3635Z" fill="white"/>
<path d="M12.2903 10.5265C12.8309 10.2963 13.5092 10.6028 13.7102 11.1498C13.9178 11.6529 13.6947 12.282 13.2117 12.5355C12.6912 12.8342 11.9631 12.6066 11.7045 12.0647C11.4013 11.5087 11.6916 10.7373 12.2903 10.5265Z" fill="white"/>
<path d="M18.1006 10.5103C18.6658 10.2788 19.3673 10.6138 19.5484 11.1944C19.765 11.7809 19.3958 12.4966 18.7847 12.6428C18.2494 12.8044 17.6331 12.4824 17.4502 11.9561C17.229 11.3994 17.5342 10.7101 18.1006 10.5103Z" fill="white"/>
<path d="M21.9272 16.8373L21.9783 16.7816C22.0048 17.7923 21.8955 18.8469 21.3996 19.7463C20.8228 20.8015 19.7766 21.5852 18.5998 21.8361C17.9396 21.9725 17.2626 22.0029 16.5902 21.9945C14.5217 21.9952 12.4533 21.9945 10.3848 21.9952C9.78993 21.9855 9.19377 22.0133 8.60084 21.9822C7.97429 21.2464 7.24557 20.6063 6.60609 19.8834C6.15606 19.4062 5.6834 18.9516 5.24048 18.468C6.11144 18.5397 6.98887 18.3665 7.78419 18.0128C9.3399 19.0266 11.1885 19.5058 13.0229 19.6635C14.8573 19.8032 16.7266 19.6118 18.4718 19.0169C19.7669 18.5656 21.0058 17.8679 21.9272 16.8373Z" fill="#005BE0"/>
</g>
<defs>
<clipPath id="clip0_0_283">
<rect width="20" height="20" fill="white" transform="translate(2 2)"/>
</clipPath>
</defs>
</svg>
