<svg width="24" height="24" viewBox="0 0 24 24" fill="none" xmlns="http://www.w3.org/2000/svg">
<path d="M5.25 6.125C4.62773 6.125 4.125 6.62773 4.125 7.25V8.65273L11.0016 13.6941C11.5957 14.1301 12.4043 14.1301 12.9984 13.6941L19.875 8.65273V7.25C19.875 6.62773 19.3723 6.125 18.75 6.125H5.25ZM4.125 10.0484V16.25C4.125 16.8723 4.62773 17.375 5.25 17.375H18.75C19.3723 17.375 19.875 16.8723 19.875 16.25V10.0484L13.6629 14.6012C12.6715 15.3254 11.325 15.3254 10.3371 14.6012L4.125 10.0484ZM3 7.25C3 6.00898 4.00898 5 5.25 5H18.75C19.991 5 21 6.00898 21 7.25V16.25C21 17.491 19.991 18.5 18.75 18.5H5.25C4.00898 18.5 3 17.491 3 16.25V7.25Z" fill="#98A2B3"/>
</svg>
