<svg width="24" height="24" viewBox="0 0 24 24" fill="none" xmlns="http://www.w3.org/2000/svg">
<path fill-rule="evenodd" clip-rule="evenodd" d="M3 12C3 11.4674 3.43173 11.0357 3.96429 11.0357H20.0357C20.5683 11.0357 21 11.4674 21 12C21 12.5326 20.5683 12.9643 20.0357 12.9643H3.96429C3.43173 12.9643 3 12.5326 3 12Z" fill="#393C3C"/>
<path fill-rule="evenodd" clip-rule="evenodd" d="M12 21C11.4674 21 11.0357 20.5683 11.0357 20.0357L11.0357 3.96429C11.0357 3.43173 11.4674 3 12 3C12.5326 3 12.9643 3.43173 12.9643 3.96429L12.9643 20.0357C12.9643 20.5683 12.5326 21 12 21Z" fill="#393C3C"/>
</svg>
