<svg width="24" height="24" viewBox="0 0 24 24" fill="none" xmlns="http://www.w3.org/2000/svg">
<path fill-rule="evenodd" clip-rule="evenodd" d="M12 2C12.4142 2 12.75 2.33579 12.75 2.75L12.75 9.25L19.25 9.25C19.6642 9.25 20 9.58579 20 10C20 10.4142 19.6642 10.75 19.25 10.75L12.75 10.75V17.25C12.75 17.6642 12.4142 18 12 18C11.5858 18 11.25 17.6642 11.25 17.25L11.25 10.75H4.75C4.33579 10.75 4 10.4142 4 10C4 9.58579 4.33579 9.25 4.75 9.25L11.25 9.25V2.75C11.25 2.33579 11.5858 2 12 2Z" fill="#98A2B3"/>
<path fill-rule="evenodd" clip-rule="evenodd" d="M20 21.25C20 21.6642 19.6642 22 19.25 22H4.75C4.33579 22 4 21.6642 4 21.25C4 20.8358 4.33579 20.5 4.75 20.5H19.25C19.6642 20.5 20 20.8358 20 21.25Z" fill="#98A2B3"/>
</svg>
