<svg width="24" height="24" viewBox="0 0 24 24" fill="none" xmlns="http://www.w3.org/2000/svg">
<path fill-rule="evenodd" clip-rule="evenodd" d="M10.752 11.4394L10.7533 11.4371C11.4087 10.3258 11.4105 8.92629 10.7527 7.7813C10.0931 6.6638 8.89096 5.95122 7.60976 5.95122C6.29703 5.95122 5.0954 6.66473 4.43638 7.78129C3.77856 8.92628 3.78035 10.3258 4.4357 11.4371L4.43706 11.4394C5.0943 12.5824 6.29366 13.2683 7.60976 13.2683C8.8943 13.2683 10.0942 12.5833 10.752 11.4394ZM10.1054 15.1873L10.3913 15.0348C10.8379 14.7966 11.2499 14.5312 11.6 14.2395L11.7634 14.1032L11.9206 14.2467C12.5784 14.8474 13.4654 15.2195 14.439 15.2195C16.4397 15.2195 18.0976 13.5897 18.0976 11.561C18.0976 9.56153 16.4385 7.90244 14.439 7.90244C14.1816 7.90244 13.9274 7.93115 13.7055 7.98662L13.4822 8.04245L13.4135 7.82275C13.2646 7.34605 13.0895 6.91141 12.8314 6.50994L12.6505 6.22857L12.9737 6.14238C13.4515 6.01497 13.93 5.95122 14.439 5.95122C15.6127 5.95122 16.7245 6.34732 17.6437 6.97479L18.6673 5.95122H17.6098C17.0482 5.95122 16.6341 5.53714 16.6341 4.97561C16.6341 4.45128 17.0416 4 17.6098 4H21.0244C21.5554 4 22 4.44456 22 4.97561V8.39024C22 8.95839 21.5487 9.36585 21.0244 9.36585C20.4629 9.36585 20.0488 8.95178 20.0488 8.39024V7.33274L19.0252 8.35631C19.6527 9.27554 20.0488 10.3873 20.0488 11.561C20.0488 14.6844 17.5301 17.1707 14.439 17.1707C12.8141 17.1707 11.3802 16.5008 10.3311 15.4199L10.1054 15.1873ZM6.63415 16.1951V15.1533C3.99717 14.6842 2 12.4037 2 9.60976C2 6.51864 4.48635 4 7.60976 4C10.7018 4 13.2195 6.51774 13.2195 9.60976C13.2195 12.4042 11.1934 14.6831 8.58537 15.1529V16.1951H9.80488C10.3359 16.1951 10.7805 16.6397 10.7805 17.1707C10.7805 17.7389 10.3292 18.1463 9.80488 18.1463H8.58537V19.122C8.58537 19.6901 8.13409 20.0976 7.60976 20.0976C7.04822 20.0976 6.63415 19.6835 6.63415 19.122V18.1463H5.41463C4.8531 18.1463 4.43902 17.7323 4.43902 17.1707C4.43902 16.6464 4.84649 16.1951 5.41463 16.1951H6.63415Z" fill="#393C3C"/>
</svg>
