<svg width="24" height="24" viewBox="0 0 24 24" fill="none" xmlns="http://www.w3.org/2000/svg">
<path d="M7.5 13.5C8.90625 13.5 10.2188 12.75 10.9375 11.5C11.6562 10.2812 11.6562 8.75 10.9375 7.5C10.2188 6.28125 8.90625 5.5 7.5 5.5C6.0625 5.5 4.75 6.28125 4.03125 7.5C3.3125 8.75 3.3125 10.2812 4.03125 11.5C4.75 12.75 6.0625 13.5 7.5 13.5ZM13 9.5C13 12.3125 10.9062 14.5938 8.25 14.9688V16.5H9.75C10.1562 16.5 10.5 16.8438 10.5 17.25C10.5 17.6875 10.1562 18 9.75 18H8.25V19.25C8.25 19.6875 7.90625 20 7.5 20C7.0625 20 6.75 19.6875 6.75 19.25V18H5.25C4.8125 18 4.5 17.6875 4.5 17.25C4.5 16.8438 4.8125 16.5 5.25 16.5H6.75V14.9688C4.0625 14.5938 2 12.3125 2 9.5C2 6.46875 4.4375 4 7.5 4C10.5312 4 13 6.46875 13 9.5ZM10.4688 15.2812C10.9375 15.0312 11.375 14.75 11.75 14.4375C12.4688 15.0938 13.4375 15.5 14.5 15.5C16.6875 15.5 18.5 13.7188 18.5 11.5C18.5 9.3125 16.6875 7.5 14.5 7.5C14.2188 7.5 13.9375 7.53125 13.6875 7.59375C13.5312 7.09375 13.3438 6.625 13.0625 6.1875C13.5312 6.0625 14 6 14.5 6C15.7188 6 16.875 6.4375 17.8125 7.125L19.4375 5.5H17.75C17.3125 5.5 17 5.1875 17 4.75C17 4.34375 17.3125 4 17.75 4H21.25C21.6562 4 22 4.34375 22 4.75V8.25C22 8.6875 21.6562 9 21.25 9C20.8125 9 20.5 8.6875 20.5 8.25V6.5625L18.875 8.1875C19.5625 9.125 20 10.2812 20 11.5C20 14.5625 17.5312 17 14.5 17C12.9062 17 11.5 16.3438 10.4688 15.2812Z" fill="#98A2B3"/>
</svg>
