<svg width="24" height="24" viewBox="0 0 24 24" fill="none" xmlns="http://www.w3.org/2000/svg">
<path fill-rule="evenodd" clip-rule="evenodd" d="M19.5028 5.57853C19.1245 5.1097 18.4117 5.18981 17.8687 5.45094C17.1774 5.78344 16.3391 5.77972 15.6247 5.36723C14.91 4.95461 14.4876 4.23016 14.4301 3.46496C14.3849 2.86363 14.0976 2.20535 13.5016 2.11323C13.0193 2.03868 12.5252 2 12.022 2C11.5188 2 11.0247 2.03869 10.5423 2.11325C9.9464 2.20537 9.65906 2.86364 9.61388 3.46496C9.55639 4.23016 9.13398 4.95461 8.4193 5.36723C7.70485 5.77972 6.86657 5.78344 6.17527 5.45096C5.63237 5.18985 4.91955 5.10974 4.54123 5.57857C3.92264 6.34517 3.41947 7.2088 3.05815 8.14305C2.84084 8.70493 3.26713 9.28193 3.765 9.62113C4.39951 10.0534 4.81616 10.7818 4.81616 11.6075C4.81616 12.4332 4.39952 13.1616 3.765 13.5939C3.26713 13.9331 2.84085 14.5101 3.05816 15.072C3.41946 16.0062 3.92261 16.8698 4.54117 17.6363C4.91946 18.1052 5.63224 18.0251 6.17514 17.764C6.86641 17.4316 7.70464 17.4353 8.41905 17.8478C9.13372 18.2604 9.55612 18.9849 9.61362 19.75C9.65881 20.3513 9.94613 21.0096 10.542 21.1017C11.0245 21.1763 11.5187 21.215 12.022 21.215C12.5252 21.215 13.0193 21.1763 13.5016 21.1018C14.0976 21.0096 14.3849 20.3514 14.4301 19.7501C14.4876 18.9849 14.91 18.2604 15.6247 17.8478C16.3391 17.4353 17.1774 17.4316 17.8687 17.7641C18.4116 18.0252 19.1245 18.1053 19.5028 17.6365C20.1214 16.8699 20.6245 16.0063 20.9859 15.0721C21.2032 14.5102 20.7769 13.9331 20.2789 13.5939C19.6444 13.1616 19.2277 12.4332 19.2277 11.6075C19.2277 10.7818 19.6444 10.0534 20.2789 9.62107C20.7769 9.28187 21.2032 8.70484 20.9859 8.14292C20.6245 7.20871 20.1214 6.34511 19.5028 5.57853ZM12.022 14.0094C13.3486 14.0094 14.4239 12.934 14.4239 11.6075C14.4239 10.281 13.3486 9.20563 12.022 9.20563C10.6955 9.20563 9.62017 10.281 9.62017 11.6075C9.62017 12.934 10.6955 14.0094 12.022 14.0094Z" fill="#393C3C"/>
</svg>
