<svg width="24" height="24" viewBox="0 0 24 24" fill="none" xmlns="http://www.w3.org/2000/svg">
<path fill-rule="evenodd" clip-rule="evenodd" d="M10.9915 4.06105C10.9868 4.06741 10.9814 4.07538 10.9753 4.0852C10.9168 4.1795 10.8582 4.34622 10.8308 4.55326C10.7079 5.48383 10.1678 6.35322 9.28905 6.86059C8.41049 7.36783 7.38787 7.40093 6.52065 7.04242C6.32791 6.96275 6.15441 6.93018 6.04346 6.93369C6.03153 6.93407 6.02167 6.93483 6.01368 6.9357C5.60322 7.46662 5.26209 8.0532 5.00351 8.68187C5.00669 8.68902 5.01084 8.69762 5.01625 8.7077C5.0686 8.80527 5.18357 8.93911 5.34908 9.06606C6.09439 9.63776 6.57797 10.5407 6.57797 11.5561C6.57797 12.5716 6.09439 13.4745 5.34908 14.0462C5.18357 14.1732 5.0686 14.307 5.01625 14.4046C5.01084 14.4147 5.00669 14.4233 5.00351 14.4304C5.26209 15.0591 5.60322 15.6456 6.01368 16.1766C6.02166 16.1774 6.03153 16.1782 6.04345 16.1786C6.1544 16.1821 6.32791 16.1495 6.52065 16.0698C7.38787 15.7113 8.41049 15.7444 9.28905 16.2517C10.1678 16.759 10.7079 17.6284 10.8308 18.559C10.8582 18.766 10.9168 18.9328 10.9753 19.0271C10.9814 19.0369 10.9868 19.0449 10.9915 19.0512C11.321 19.0951 11.6576 19.1178 12 19.1178C12.3424 19.1178 12.6791 19.0951 13.0085 19.0512C13.0132 19.0449 13.0186 19.0369 13.0247 19.0271C13.0832 18.9328 13.1418 18.766 13.1692 18.559C13.2921 17.6284 13.8322 16.759 14.711 16.2517C15.5895 15.7444 16.6122 15.7113 17.4794 16.0698C17.6721 16.1495 17.8456 16.1821 17.9566 16.1786C17.9685 16.1782 17.9784 16.1774 17.9864 16.1766C18.3968 15.6457 18.7379 15.0591 18.9965 14.4305C18.9933 14.4233 18.9892 14.4147 18.9838 14.4046C18.9314 14.3071 18.8164 14.1732 18.6509 14.0463C17.9055 13.4746 17.4219 12.5716 17.4219 11.5561C17.4219 10.5407 17.9055 9.63771 18.6509 9.06601C18.8164 8.93905 18.9314 8.80521 18.9837 8.70763C18.9892 8.69755 18.9933 8.68895 18.9965 8.6818C18.7379 8.05316 18.3968 7.4666 17.9863 6.9357C17.9784 6.93482 17.9685 6.93407 17.9566 6.93369C17.8456 6.93017 17.6721 6.96274 17.4794 7.04242C16.6122 7.40093 15.5895 7.36783 14.711 6.86059C13.8322 6.35322 13.2921 5.48382 13.1692 4.55325C13.1418 4.34622 13.0832 4.17949 13.0247 4.0852C13.0186 4.07538 13.0132 4.06741 13.0085 4.06105C12.679 4.01719 12.3424 3.9945 12 3.9945C11.6576 3.9945 11.321 4.01719 10.9915 4.06105ZM10.663 2.09291C11.1004 2.03162 11.5468 2 12 2C12.4532 2 12.8996 2.03162 13.337 2.09291C14.0129 2.18763 14.4595 2.6148 14.7193 3.03341C14.9719 3.44027 15.0951 3.90288 15.1465 4.29202C15.1918 4.63465 15.3888 4.94892 15.7082 5.13331C16.0275 5.31765 16.3981 5.33122 16.7174 5.19922C17.0798 5.04938 17.5416 4.92504 18.0197 4.9402C18.5116 4.95578 19.104 5.12832 19.5243 5.66451C20.0737 6.36518 20.5275 7.14499 20.866 7.98437C21.1211 8.61696 20.974 9.21677 20.7412 9.65064C20.515 10.0723 20.176 10.4099 19.8648 10.6486C19.5903 10.8591 19.4164 11.1871 19.4164 11.5561C19.4164 11.9252 19.5903 12.2532 19.8648 12.4637C20.176 12.7024 20.515 13.0399 20.7412 13.4616C20.974 13.8955 21.1211 14.4953 20.866 15.1279C20.5276 15.9673 20.0737 16.7471 19.5243 17.4478C19.104 17.9839 18.5116 18.1565 18.0198 18.1721C17.5416 18.1872 17.0799 18.0629 16.7174 17.913C16.3981 17.781 16.0275 17.7946 15.7082 17.979C15.3888 18.1633 15.1918 18.4776 15.1465 18.8202C15.0951 19.2094 14.9719 19.672 14.7193 20.0789C14.4595 20.4975 14.0129 20.9246 13.337 21.0194C12.8996 21.0806 12.4532 21.1123 12 21.1123C11.5468 21.1123 11.1004 21.0806 10.663 21.0194C9.98708 20.9246 9.5405 20.4975 9.28069 20.0789C9.02816 19.672 8.90492 19.2094 8.85351 18.8202C8.80824 18.4776 8.61117 18.1633 8.2918 17.979C7.97252 17.7946 7.60193 17.781 7.28263 17.913C6.92017 18.0629 6.45843 18.1872 5.98027 18.1721C5.48842 18.1565 4.89604 17.9839 4.47568 17.4478C3.92634 16.7471 3.47244 15.9672 3.134 15.1278C2.87895 14.4952 3.02596 13.8955 3.25875 13.4616C3.485 13.0399 3.82398 12.7024 4.13517 12.4637C4.40959 12.2532 4.58347 11.9252 4.58347 11.5561C4.58347 11.1871 4.40959 10.8591 4.13517 10.6486C3.82398 10.4099 3.485 10.0724 3.25875 9.65067C3.02596 9.21681 2.87895 8.61702 3.134 7.98446C3.47245 7.14504 3.92634 6.36521 4.47568 5.66451C4.89605 5.12833 5.48842 4.95579 5.98027 4.9402C6.45844 4.92504 6.92017 5.04938 7.28263 5.19922C7.60193 5.33122 7.97252 5.31765 8.2918 5.13331C8.61117 4.94892 8.80824 4.63465 8.85351 4.29202C8.90492 3.90288 9.02816 3.44027 9.28069 3.03341C9.5405 2.6148 9.98709 2.18764 10.663 2.09291ZM12 10.4137C11.369 10.4137 10.8575 10.9252 10.8575 11.5561C10.8575 12.1871 11.369 12.6986 12 12.6986C12.631 12.6986 13.1425 12.1871 13.1425 11.5561C13.1425 10.9252 12.631 10.4137 12 10.4137ZM8.86305 11.5561C8.86305 9.82363 10.2675 8.41917 12 8.41917C13.7325 8.41917 15.137 9.82363 15.137 11.5561C15.137 13.2886 13.7325 14.6931 12 14.6931C10.2675 14.6931 8.86305 13.2886 8.86305 11.5561ZM10.7896 3.91367C10.8298 3.85853 10.8908 3.82224 10.9585 3.81324C11.2989 3.76793 11.6465 3.7445 12 3.7445C12.3535 3.7445 12.7011 3.76793 13.0415 3.81323C13.1092 3.82224 13.1702 3.85853 13.2105 3.91367C13.2189 3.92528 13.2279 3.93844 13.2371 3.95336C13.3199 4.0868 13.3867 4.29061 13.417 4.52051C13.5303 5.37747 14.0274 6.17724 14.836 6.64408C15.6443 7.1108 16.5852 7.14154 17.3839 6.81138C17.5979 6.72289 17.8075 6.67884 17.9645 6.68382C17.9826 6.68439 17.9989 6.68558 18.0135 6.68718C18.081 6.69456 18.1426 6.72907 18.1841 6.78279C18.6081 7.33115 18.9605 7.93711 19.2277 8.5867C19.2537 8.64986 19.2527 8.7209 19.225 8.78331C19.2192 8.79634 19.2123 8.81051 19.204 8.82583C19.1299 8.96401 18.9869 9.12339 18.803 9.26438C18.1166 9.79086 17.6719 10.6218 17.6719 11.5561C17.6719 12.4905 18.1166 13.3214 18.803 13.8479C18.9869 13.9889 19.1299 14.1483 19.204 14.2864C19.2123 14.3018 19.2192 14.3159 19.225 14.329C19.2527 14.3914 19.2537 14.4624 19.2277 14.5256C18.9605 15.1752 18.6081 15.7811 18.1841 16.3295C18.1426 16.3832 18.081 16.4177 18.0135 16.4251C17.9989 16.4267 17.9826 16.4279 17.9645 16.4285C17.8075 16.4334 17.5979 16.3894 17.3839 16.3009C16.5852 15.9707 15.6444 16.0015 14.836 16.4682C14.0274 16.935 13.5303 17.7348 13.417 18.5918C13.3867 18.8217 13.3199 19.0255 13.2371 19.1589L13.0247 19.0271C13.0832 18.9328 13.1418 18.766 13.1692 18.559C13.2921 17.6284 13.8322 16.759 14.711 16.2517C15.5895 15.7444 16.6122 15.7113 17.4794 16.0698C17.6721 16.1495 17.8456 16.1821 17.9566 16.1786C17.9685 16.1782 17.9784 16.1774 17.9864 16.1766C18.3968 15.6457 18.7379 15.0591 18.9965 14.4305C18.9933 14.4233 18.9892 14.4147 18.9838 14.4046C18.9314 14.3071 18.8164 14.1732 18.6509 14.0463C17.9055 13.4746 17.4219 12.5716 17.4219 11.5561C17.4219 10.5407 17.9055 9.63771 18.6509 9.06601C18.8164 8.93905 18.9314 8.80521 18.9837 8.70763C18.9892 8.69755 18.9933 8.68895 18.9965 8.6818C18.7379 8.05316 18.3968 7.4666 17.9863 6.9357C17.9784 6.93482 17.9685 6.93407 17.9566 6.93369C17.8456 6.93017 17.6721 6.96274 17.4794 7.04242C16.6122 7.40093 15.5895 7.36783 14.711 6.86059C13.8322 6.35322 13.2921 5.48382 13.1692 4.55325C13.1418 4.34622 13.0832 4.17949 13.0247 4.0852C13.0186 4.07538 13.0132 4.06741 13.0085 4.06105C12.679 4.01719 12.3424 3.9945 12 3.9945C11.6576 3.9945 11.321 4.01719 10.9915 4.06105C10.9868 4.06741 10.9814 4.07538 10.9753 4.0852C10.9168 4.1795 10.8582 4.34622 10.8308 4.55326C10.7079 5.48383 10.1678 6.35322 9.28905 6.86059C8.41049 7.36783 7.38787 7.40093 6.52065 7.04242C6.32791 6.96275 6.15441 6.93018 6.04346 6.93369C6.03153 6.93407 6.02167 6.93483 6.01368 6.9357C5.60322 7.46662 5.26209 8.0532 5.00351 8.68187C5.00669 8.68902 5.01084 8.69762 5.01625 8.7077C5.0686 8.80527 5.18357 8.93911 5.34908 9.06606C6.09439 9.63776 6.57797 10.5407 6.57797 11.5561C6.57797 12.5716 6.09439 13.4745 5.34908 14.0462C5.18357 14.1732 5.0686 14.307 5.01625 14.4046C5.01084 14.4147 5.00669 14.4233 5.00351 14.4304C5.26209 15.0591 5.60322 15.6456 6.01368 16.1766C6.02166 16.1774 6.03153 16.1782 6.04345 16.1786C6.1544 16.1821 6.32791 16.1495 6.52065 16.0698C7.38787 15.7113 8.41049 15.7444 9.28905 16.2517C10.1678 16.759 10.7079 17.6284 10.8308 18.559C10.8582 18.766 10.9168 18.9328 10.9753 19.0271L10.7629 19.1589C10.6801 19.0255 10.6133 18.8217 10.583 18.5918C10.4698 17.7348 9.97265 16.935 9.16405 16.4682C8.35567 16.0015 7.41478 15.9707 6.61616 16.3009C6.4021 16.3894 6.19248 16.4334 6.03554 16.4284C6.01746 16.4279 6.00115 16.4267 5.98647 16.4251C5.91899 16.4177 5.85741 16.3832 5.81589 16.3295C5.39193 15.7811 5.0395 15.1751 4.77231 14.5255C4.74633 14.4623 4.74732 14.3913 4.77505 14.3289M10.9915 19.0512C10.9868 19.0449 10.9814 19.0369 10.9753 19.0271L10.7629 19.1589C10.7721 19.1738 10.7811 19.187 10.7896 19.1986C10.8298 19.2537 10.8908 19.29 10.9585 19.299C11.2989 19.3443 11.6465 19.3678 12 19.3678C12.3535 19.3678 12.7011 19.3443 13.0415 19.299C13.1092 19.29 13.1702 19.2538 13.2105 19.1986C13.219 19.187 13.2279 19.1738 13.2371 19.1589L13.0247 19.0271C13.0186 19.0369 13.0132 19.0449 13.0085 19.0512C12.6791 19.0951 12.3424 19.1178 12 19.1178C11.6576 19.1178 11.321 19.0951 10.9915 19.0512ZM4.79596 14.2864C4.87009 14.1482 5.01312 13.9888 5.19693 13.8478C5.88328 13.3214 6.32797 12.4905 6.32797 11.5561C6.32797 10.6218 5.88328 9.79091 5.19693 9.26443C5.01312 9.12343 4.87009 8.96407 4.79596 8.8259C4.78774 8.81058 4.78084 8.79641 4.77505 8.78338C4.74732 8.72097 4.74633 8.64994 4.77231 8.58677C5.0395 7.93716 5.39193 7.33117 5.8159 6.78279C5.85742 6.72908 5.919 6.69456 5.98649 6.68718C6.00115 6.68558 6.01745 6.68439 6.03554 6.68382C6.19248 6.67884 6.40211 6.7229 6.61616 6.81139C7.41479 7.14153 8.35567 7.1108 9.16405 6.64408C9.97265 6.17724 10.4698 5.37748 10.583 4.52051C10.6133 4.29061 10.6801 4.08681 10.7629 3.95337C10.7722 3.93845 10.7811 3.92528 10.7896 3.91367M14.5069 3.16524C14.2728 2.78802 13.8828 2.42184 13.3023 2.34049C12.8764 2.28081 12.4416 2.25 12 2.25C11.5584 2.25 11.1236 2.28081 10.6977 2.3405C10.1172 2.42184 9.72723 2.78802 9.4931 3.16525C9.2649 3.53292 9.14975 3.95843 9.10135 4.32476C9.04632 4.74133 8.80608 5.12506 8.4168 5.34981C8.02763 5.57451 7.57533 5.59074 7.18712 5.43025C6.84592 5.2892 6.42031 5.17638 5.98819 5.19007C5.54494 5.20412 5.03347 5.35824 4.67242 5.81876C4.13739 6.5012 3.6954 7.26063 3.36586 8.07795C3.14684 8.62116 3.26928 9.14153 3.47904 9.53248C3.68349 9.91352 3.99438 10.2255 4.28733 10.4502C4.62098 10.7062 4.83347 11.1063 4.83347 11.5561C4.83347 12.0059 4.62098 12.4061 4.28733 12.662C3.99438 12.8867 3.68349 13.1987 3.47904 13.5798C3.26928 13.9707 3.14684 14.4911 3.36586 15.0343C3.6954 15.8516 4.13739 16.6111 4.67242 17.2935C5.03346 17.754 5.54493 17.9081 5.98819 17.9222C6.42031 17.9359 6.84592 17.8231 7.18712 17.682C7.57533 17.5215 8.02763 17.5378 8.4168 17.7624C8.80609 17.9872 9.04632 18.3709 9.10135 18.7875C9.14975 19.1538 9.2649 19.5793 9.4931 19.947C9.72723 20.3242 10.1172 20.6904 10.6977 20.7718C11.1236 20.8315 11.5584 20.8623 12 20.8623C12.4416 20.8623 12.8764 20.8315 13.3023 20.7718C13.8828 20.6904 14.2728 20.3242 14.5069 19.947C14.7351 19.5793 14.8503 19.1538 14.8987 18.7875C14.9537 18.3709 15.1939 17.9872 15.5832 17.7624C15.9724 17.5378 16.4247 17.5215 16.8129 17.682C17.1541 17.8231 17.5797 17.9359 18.0118 17.9222C18.4551 17.9081 18.9666 17.754 19.3276 17.2935C19.8626 16.6111 20.3046 15.8517 20.6341 15.0344C20.8532 14.4912 20.7307 13.9708 20.5209 13.5798C20.3165 13.1988 20.0056 12.8868 19.7126 12.6621C19.3789 12.4061 19.1664 12.006 19.1664 11.5561C19.1664 11.1063 19.3789 10.7061 19.7126 10.4502C20.0056 10.2255 20.3165 9.91349 20.5209 9.53244C20.7307 9.14148 20.8532 8.6211 20.6341 8.07786C20.3046 7.26057 19.8626 6.50117 19.3276 5.81875C18.9666 5.35824 18.4551 5.20412 18.0118 5.19007C17.5797 5.17638 17.1541 5.2892 16.8129 5.43025C16.4247 5.59074 15.9724 5.57451 15.5832 5.34981C15.1939 5.12506 14.9537 4.74133 14.8987 4.32476C14.8503 3.95843 14.7351 3.53292 14.5069 3.16524ZM10.6075 11.5561C10.6075 10.7871 11.231 10.1637 12 10.1637C12.7691 10.1637 13.3925 10.7871 13.3925 11.5561C13.3925 12.3252 12.7691 12.9486 12 12.9486C11.231 12.9486 10.6075 12.3252 10.6075 11.5561ZM12 8.66917C10.4056 8.66917 9.11305 9.96171 9.11305 11.5561C9.11305 13.1506 10.4056 14.4431 12 14.4431C13.5944 14.4431 14.887 13.1506 14.887 11.5561C14.887 9.96171 13.5944 8.66917 12 8.66917ZM12 2C11.5468 2 11.1004 2.03162 10.663 2.09291C9.98709 2.18764 9.5405 2.6148 9.28069 3.03341C9.02816 3.44027 8.90492 3.90288 8.85351 4.29202C8.80824 4.63465 8.61117 4.94892 8.2918 5.13331C7.97252 5.31765 7.60193 5.33122 7.28263 5.19922C6.92017 5.04938 6.45844 4.92504 5.98027 4.9402C5.48842 4.95579 4.89605 5.12833 4.47568 5.66451C3.92634 6.36521 3.47245 7.14504 3.134 7.98446C2.87895 8.61702 3.02596 9.21681 3.25875 9.65067C3.485 10.0724 3.82398 10.4099 4.13517 10.6486C4.40959 10.8591 4.58347 11.1871 4.58347 11.5561C4.58347 11.9252 4.40959 12.2532 4.13517 12.4637C3.82398 12.7024 3.485 13.0399 3.25875 13.4616C3.02596 13.8955 2.87895 14.4952 3.134 15.1278C3.47244 15.9672 3.92634 16.7471 4.47568 17.4478C4.89604 17.9839 5.48842 18.1565 5.98027 18.1721C6.45843 18.1872 6.92017 18.0629 7.28263 17.913C7.60193 17.781 7.97252 17.7946 8.2918 17.979C8.61117 18.1633 8.80824 18.4776 8.85351 18.8202C8.90492 19.2094 9.02816 19.672 9.28069 20.0789C9.5405 20.4975 9.98708 20.9246 10.663 21.0194C11.1004 21.0806 11.5468 21.1123 12 21.1123C12.4532 21.1123 12.8996 21.0806 13.337 21.0194C14.0129 20.9246 14.4595 20.4975 14.7193 20.0789C14.9719 19.672 15.0951 19.2094 15.1465 18.8202C15.1918 18.4776 15.3888 18.1633 15.7082 17.979C16.0275 17.7946 16.3981 17.781 16.7174 17.913C17.0799 18.0629 17.5416 18.1872 18.0198 18.1721C18.5116 18.1565 19.104 17.9839 19.5243 17.4478C20.0737 16.7471 20.5276 15.9673 20.866 15.1279C21.1211 14.4953 20.974 13.8955 20.7412 13.4616C20.515 13.0399 20.176 12.7024 19.8648 12.4637C19.5903 12.2532 19.4164 11.9252 19.4164 11.5561C19.4164 11.1871 19.5903 10.8591 19.8648 10.6486C20.176 10.4099 20.515 10.0723 20.7412 9.65064C20.974 9.21677 21.1211 8.61696 20.866 7.98437C20.5275 7.14499 20.0737 6.36518 19.5243 5.66451C19.104 5.12832 18.5116 4.95578 18.0197 4.9402C17.5416 4.92504 17.0798 5.04938 16.7174 5.19922C16.3981 5.33122 16.0275 5.31765 15.7082 5.13331C15.3888 4.94892 15.1918 4.63465 15.1465 4.29202C15.0951 3.90288 14.9719 3.44027 14.7193 3.03341C14.4595 2.6148 14.0129 2.18763 13.337 2.09291C12.8996 2.03162 12.4532 2 12 2ZM10.8575 11.5561C10.8575 10.9252 11.369 10.4137 12 10.4137C12.631 10.4137 13.1425 10.9252 13.1425 11.5561C13.1425 12.1871 12.631 12.6986 12 12.6986C11.369 12.6986 10.8575 12.1871 10.8575 11.5561ZM12 8.41917C10.2675 8.41917 8.86305 9.82363 8.86305 11.5561C8.86305 13.2886 10.2675 14.6931 12 14.6931C13.7325 14.6931 15.137 13.2886 15.137 11.5561C15.137 9.82363 13.7325 8.41917 12 8.41917Z" fill="#98A2B3"/>
</svg>
