<svg width="24" height="24" viewBox="0 0 24 24" fill="none" xmlns="http://www.w3.org/2000/svg">
<g clip-path="url(#clip0_0_784)">
<path d="M4.5 3.875C4.14844 3.875 3.875 4.1875 3.875 4.5V19.5C3.875 19.8516 4.14844 20.125 4.5 20.125H10.7891C10.75 20.4375 10.75 20.75 10.75 21.0625V22H4.5C3.09375 22 2 20.9062 2 19.5V4.5C2 3.13281 3.09375 2 4.5 2H13.25C14.6172 2 15.75 3.13281 15.75 4.5V12.2344C15.0469 12.6641 14.4219 13.1328 13.875 13.6797V4.5C13.875 4.1875 13.5625 3.875 13.25 3.875H4.5ZM7.625 17.625H10.125C10.4375 17.625 10.75 17.9375 10.75 18.25C10.75 18.6016 10.4375 18.875 10.125 18.875H7.625C7.27344 18.875 7 18.6016 7 18.25C7 17.9375 7.27344 17.625 7.625 17.625ZM21.0625 12C21.5703 12 22 12.4297 22 12.9375C22 13.4844 21.5703 13.875 21.0625 13.875C17.0781 13.875 13.875 17.1172 13.875 21.0625C13.875 21.6094 13.4453 22 12.9375 22C12.3906 22 12 21.6094 12 21.0625C12 16.0625 16.0234 12 21.0625 12ZM20.75 22C20.0469 22 19.5 21.4531 19.5 20.75C19.5 20.0859 20.0469 19.5 20.75 19.5C21.4141 19.5 22 20.0859 22 20.75C22 21.4531 21.4141 22 20.75 22ZM22 16.6875C22 17.2344 21.5703 17.625 21.0625 17.625C19.1484 17.625 17.625 19.1875 17.625 21.0625C17.625 21.6094 17.1953 22 16.6875 22C16.1406 22 15.75 21.6094 15.75 21.0625C15.75 18.1328 18.0938 15.75 21.0625 15.75C21.5703 15.75 22 16.1797 22 16.6875Z" fill="#393C3C"/>
</g>
<defs>
<clipPath id="clip0_0_784">
<rect width="20" height="20" fill="white" transform="translate(2 2)"/>
</clipPath>
</defs>
</svg>
