<svg width="24" height="24" viewBox="0 0 24 24" fill="none" xmlns="http://www.w3.org/2000/svg">
<path fill-rule="evenodd" clip-rule="evenodd" d="M10.6848 20.4729V22H5.61087C4.14378 22 3.00003 20.8562 3.00003 19.3892V4.61084C3.00003 3.18375 4.14228 2 5.61087 2H13C14.4286 2 15.6109 3.18224 15.6109 4.61084V12.3158L15.5375 12.3586C15.0826 12.6239 14.7063 12.8876 14.3304 13.2259L14.0838 13.4479V4.61084C14.0838 4.03821 13.5727 3.52709 13 3.52709H5.61087C5.00273 3.52709 4.52712 4.03519 4.52712 4.61084V19.3892C4.52712 20.0003 4.99975 20.4729 5.61087 20.4729H10.6848ZM11.1592 17.7789L10.8948 18.8367L10.834 18.8671C10.7254 18.9214 10.618 18.9213 10.5448 18.9212L8.07392 18.9212C7.64594 18.9212 7.31038 18.5856 7.31038 18.1576C7.31038 17.7741 7.64007 17.3941 8.07392 17.3941H10.537C10.7948 17.3941 10.9874 17.5497 11.117 17.7226L11.1592 17.7789ZM21.5328 12.0879C21.669 12.2241 21.7685 12.4138 21.7685 12.6158C21.7685 13.0496 21.3885 13.3793 21.005 13.3793C16.6612 13.3793 13.1478 16.9303 13.1478 21.2365C13.1478 21.6703 12.7678 22 12.3843 22C11.9563 22 11.6207 21.6644 11.6207 21.2365C11.6207 16.0752 15.8044 11.8522 21.005 11.8522C21.207 11.8522 21.3966 11.9517 21.5328 12.0879ZM20.3892 22C19.6148 22 19.0099 21.395 19.0099 20.6207C19.0099 19.8878 19.6119 19.2414 20.3892 19.2414C21.1251 19.2414 21.7685 19.8848 21.7685 20.6207C21.7685 21.398 21.122 22 20.3892 22ZM21.7685 16.3103C21.7685 16.7442 21.3885 17.0739 21.005 17.0739C18.7013 17.0739 16.8424 18.9696 16.8424 21.2365C16.8424 21.6703 16.4624 22 16.0788 22C15.6509 22 15.3153 21.6644 15.3153 21.2365C15.3153 18.1152 17.8439 15.5468 21.005 15.5468C21.207 15.5468 21.3966 15.6463 21.5328 15.7825C21.669 15.9187 21.7685 16.1083 21.7685 16.3103Z" fill="#98A2B3"/>
</svg>
