<svg width="24" height="24" viewBox="0 0 24 24" fill="none" xmlns="http://www.w3.org/2000/svg">
<path d="M5.03 7.8C4.88 7.44 4.55 7.2 4.16 7.2C3.62 7.2 3.2 7.65 3.2 8.16C3.2 8.64 3.53 9.03 3.98 9.12C4.25 8.61 4.61 8.19 5.03 7.8ZM2.24 8.16C2.24 7.11 3.08 6.24 4.16 6.24C4.85 6.24 5.45 6.63 5.81 7.2C6.71 6.6 7.79 6.24 8.96 6.24C9.17 6.24 9.41 6.27 9.62 6.3C9.65 6.3 9.68 6.3 9.68 6.3C10.82 6.42 11.9 6.87 12.8 7.59L14.9 9.24C15.05 9.36 15.11 9.57 15.05 9.75L14.87 10.47C14.78 10.83 14.9 11.19 15.2 11.43C15.47 11.64 15.86 11.64 16.19 11.46L16.76 11.13C16.94 11.01 17.15 11.04 17.3 11.16L21.11 14.16C21.32 14.31 21.44 14.55 21.44 14.82C21.44 15.03 21.35 15.21 21.2 15.36L19.31 17.46C19.13 17.67 18.86 17.76 18.59 17.76H18.53C18.38 17.76 18.23 17.73 18.11 17.67L13.64 15.33C12.59 16.8 10.88 17.76 8.96 17.76C5.78 17.76 3.2 15.18 3.2 12C3.2 11.31 3.32 10.62 3.56 9.99C2.78 9.75 2.24 9.03 2.24 8.16ZM12.86 14.79C13.13 14.4 13.67 14.28 14.09 14.49L18.53 16.8H18.59L20.42 14.82L16.97 12.12L16.67 12.3C16.04 12.69 15.2 12.63 14.6 12.18C14 11.73 13.73 10.95 13.94 10.23L14.06 9.81L12.2 8.34C11.45 7.74 10.55 7.38 9.59 7.26C9.56 7.26 9.53 7.26 9.53 7.26C9.32 7.23 9.14 7.2 8.96 7.2C6.29 7.2 4.16 9.36 4.16 12C4.16 14.67 6.29 16.8 8.96 16.8C10.55 16.8 11.99 16.02 12.86 14.79ZM9.92 12C9.92 11.49 9.47 11.04 8.96 11.04C8.42 11.04 8 11.49 8 12C8 12.54 8.42 12.96 8.96 12.96C9.47 12.96 9.92 12.54 9.92 12ZM8.96 10.08C9.62 10.08 10.25 10.47 10.61 11.04C10.94 11.64 10.94 12.39 10.61 12.96C10.25 13.56 9.62 13.92 8.96 13.92C8.27 13.92 7.64 13.56 7.28 12.96C6.95 12.39 6.95 11.64 7.28 11.04C7.64 10.47 8.27 10.08 8.96 10.08Z" fill="#98A2B3"/>
<path fill-rule="evenodd" clip-rule="evenodd" d="M14.9 9.24C15.05 9.36 15.11 9.57 15.05 9.75L14.87 10.47C14.78 10.83 14.9 11.19 15.2 11.43C15.47 11.64 15.86 11.64 16.19 11.46L16.76 11.13C16.94 11.01 17.15 11.04 17.3 11.16L21.11 14.16C21.32 14.31 21.44 14.55 21.44 14.82C21.44 15.03 21.35 15.21 21.2 15.36L19.31 17.46C19.13 17.67 18.86 17.76 18.59 17.76H18.53C18.38 17.76 18.23 17.73 18.11 17.67L13.64 15.33C12.59 16.8 10.88 17.76 8.96 17.76C5.78 17.76 3.2 15.18 3.2 12C3.2 11.3918 3.29325 10.7835 3.47974 10.2164C3.50481 10.1401 3.53156 10.0647 3.56 9.99C3.48275 9.96623 3.40785 9.93775 3.3356 9.90489C2.67833 9.60591 2.24 8.94383 2.24 8.16C2.24 7.11 3.08 6.24 4.16 6.24C4.81165 6.24 5.38302 6.58785 5.74777 7.10666C5.76924 7.13719 5.78999 7.16832 5.81 7.2C5.87649 7.15567 5.94396 7.11266 6.01238 7.071C6.87007 6.54877 7.87644 6.24 8.96 6.24C9.17 6.24 9.41 6.27 9.62 6.3H9.68C10.82 6.42 11.9 6.87 12.8 7.59L14.9 9.24ZM12.9491 7.40194L12.9499 7.40259L15.0499 9.05258C15.2768 9.23405 15.3669 9.54433 15.2808 9.81618L15.1028 10.5282C15.036 10.7955 15.122 11.0595 15.3486 11.2415C15.5257 11.3783 15.807 11.3944 16.0725 11.2507L16.6338 10.9257C16.9106 10.7456 17.2309 10.7979 17.4491 10.972L17.4499 10.9726L21.2544 13.9682C21.5277 14.1659 21.68 14.4787 21.68 14.82C21.68 15.1035 21.5573 15.3402 21.3744 15.525L19.4902 17.6185C19.2527 17.894 18.9083 18 18.59 18H18.53C18.3512 18 18.1628 17.9647 18.0027 17.8847L17.9987 17.8827L13.7106 15.6379C12.6102 17.0719 10.8875 18 8.96 18C5.64745 18 2.96 15.3125 2.96 12C2.96 11.3644 3.05789 10.7273 3.25493 10.1318C2.50086 9.79774 2 9.04422 2 8.16C2 6.9799 2.94501 6 4.16 6C4.86003 6 5.46927 6.35276 5.87424 6.87415C6.7703 6.3254 7.82432 6 8.96 6C9.1826 6 9.43006 6.03067 9.63699 6.06H9.6926L9.70512 6.06132C10.8914 6.18619 12.0142 6.65426 12.9491 7.40194ZM12.2 8.34C11.45 7.74 10.55 7.38 9.59 7.26H9.53C9.50333 7.25619 9.47714 7.25238 9.45137 7.24863C9.27427 7.22286 9.11714 7.2 8.96 7.2C6.29 7.2 4.16 9.36 4.16 12C4.16 14.67 6.29 16.8 8.96 16.8C10.55 16.8 11.99 16.02 12.86 14.79C13.13 14.4 13.67 14.28 14.09 14.49L18.53 16.8H18.59L20.42 14.82L16.97 12.12L16.67 12.3C16.04 12.69 15.2 12.63 14.6 12.18C14 11.73 13.73 10.95 13.94 10.23L14.06 9.81L12.2 8.34ZM13.7851 9.89862L12.0501 8.52741C11.3411 7.96021 10.4888 7.61675 9.5749 7.5H9.51294L9.49606 7.49759C9.46853 7.49366 9.44197 7.4898 9.41624 7.48607C9.23695 7.46007 9.09853 7.44 8.96 7.44C6.42352 7.44 4.4 9.49157 4.4 12C4.4 14.5375 6.42255 16.56 8.96 16.56C10.4703 16.56 11.8375 15.8194 12.6634 14.6524C13.0058 14.1588 13.6777 14.0155 14.1973 14.2753L14.2008 14.2771L18.5187 16.5236L20.0669 14.8484L16.952 12.4107L16.7949 12.505C16.0755 12.9494 15.1292 12.8769 14.456 12.372C13.7783 11.8637 13.4711 10.9817 13.7094 10.1635L13.7851 9.89862ZM10.8168 10.918L10.8203 10.9243C11.1888 11.5944 11.1918 12.434 10.8177 13.0802L10.8158 13.0835C10.4143 13.7527 9.70781 14.16 8.96 14.16C8.18425 14.16 7.47682 13.7545 7.0742 13.0835L7.07227 13.0803C6.69815 12.4341 6.70116 11.5944 7.06971 10.9243L7.07321 10.918L7.07708 10.9118C7.47604 10.2802 8.17868 9.84 8.96 9.84C9.7133 9.84 10.4151 10.282 10.8129 10.9118L10.8168 10.918ZM4.73284 7.75142C4.60122 7.5563 4.39292 7.44 4.16 7.44C3.75739 7.44 3.44 7.77766 3.44 8.16C3.44 8.46404 3.61254 8.71742 3.86577 8.83269C4.10639 8.42464 4.40186 8.0741 4.73284 7.75142ZM5.03 7.8C4.88 7.44 4.55 7.2 4.16 7.2C3.62 7.2 3.2 7.65 3.2 8.16C3.2 8.64 3.53 9.03 3.98 9.12C4.25 8.61 4.61 8.19 5.03 7.8ZM9.68 12C9.68 11.6225 9.33745 11.28 8.96 11.28C8.55739 11.28 8.24 11.6177 8.24 12C8.24 12.4075 8.55255 12.72 8.96 12.72C9.34234 12.72 9.68 12.4026 9.68 12ZM8.96 11.04C9.47 11.04 9.92 11.49 9.92 12C9.92 12.54 9.47 12.96 8.96 12.96C8.42 12.96 8 12.54 8 12C8 11.49 8.42 11.04 8.96 11.04ZM10.61 11.04C10.25 10.47 9.62 10.08 8.96 10.08C8.27 10.08 7.64 10.47 7.28 11.04C6.95 11.64 6.95 12.39 7.28 12.96C7.64 13.56 8.27 13.92 8.96 13.92C9.62 13.92 10.25 13.56 10.61 12.96C10.94 12.39 10.94 11.64 10.61 11.04Z" fill="#98A2B3"/>
</svg>
