<svg width="24" height="24" viewBox="0 0 24 24" fill="none" xmlns="http://www.w3.org/2000/svg">
<path d="M3.375 9.8961C2.5625 9.64675 2 8.8987 2 7.99481C2 6.9039 2.875 6 4 6C4.71875 6 5.34375 6.40519 5.71875 6.9974C6.65625 6.37403 7.78125 6 9 6C9.21875 6 9.46875 6.03117 9.6875 6.06234C9.71875 6.06234 9.75 6.06234 9.75 6.06234C10.9375 6.18701 12.0625 6.65455 13 7.4026L15.1875 9.11688C15.3438 9.24156 15.4062 9.45974 15.3438 9.64675L15.1562 10.3948C15.0625 10.7688 15.1875 11.1429 15.5 11.3922C15.7812 11.6104 16.1875 11.6416 16.5312 11.4234L17.125 11.0805C17.3125 10.9558 17.5312 10.987 17.6875 11.1117L21.6562 14.2286C21.875 14.4156 22 14.6649 22 14.9143C22 15.1325 21.9062 15.3195 21.75 15.4753L19.7812 17.6571C19.5938 17.8753 19.3125 18 19.0312 18H18.9688C18.8125 18 18.6562 17.9377 18.5312 17.8753L13.875 15.4442C12.7812 16.9714 11 17.9688 9 17.9688C5.6875 17.9688 3 15.2883 3 11.9844C3 11.2675 3.125 10.5506 3.375 9.8961ZM4.5 7.99481C4.5 7.74545 4.25 7.4961 4 7.4961C3.71875 7.4961 3.5 7.74545 3.5 7.99481C3.5 8.27532 3.71875 8.49351 4 8.49351C4.25 8.49351 4.5 8.27532 4.5 7.99481ZM9 13.9792C9.6875 13.9792 10.3438 13.6052 10.7188 12.9818C11.0625 12.3896 11.0625 11.6104 10.7188 10.987C10.3438 10.3948 9.6875 9.98961 9 9.98961C8.28125 9.98961 7.625 10.3948 7.25 10.987C6.90625 11.6104 6.90625 12.3896 7.25 12.9818C7.625 13.6052 8.28125 13.9792 9 13.9792Z" fill="#393C3C"/>
</svg>
