<svg width="24" height="24" viewBox="0 0 24 24" fill="none" xmlns="http://www.w3.org/2000/svg">
<g clip-path="url(#clip0_0_934)">
<path fill-rule="evenodd" clip-rule="evenodd" d="M11.0062 5.30924L6.6716 9.62235C6.47579 9.81588 6.21518 9.89889 5.97669 9.89889C5.73821 9.89889 5.47818 9.81645 5.28236 9.62292C4.90588 9.25081 4.90588 8.60129 5.28236 8.22919L11.3057 2.27597C11.5015 2.08243 11.7615 2 12 2C12.2385 2 12.4985 2.08243 12.6943 2.27597L18.7176 8.22919C19.0941 8.60129 19.0941 9.25081 18.7176 9.62292C18.5218 9.81645 18.2618 9.89889 18.0233 9.89889C17.7848 9.89889 17.5248 9.81645 17.329 9.62292L12.9596 5.30436V17.0272C12.9596 17.5774 12.5204 18 11.9829 18C11.4979 18 11.0062 17.5951 11.0062 17.0272V5.30924Z" fill="#393C3C"/>
<path fill-rule="evenodd" clip-rule="evenodd" d="M22 21C22 21.5523 21.5523 22 21 22H3C2.44772 22 2 21.5523 2 21C2 20.4477 2.44772 20 3 20H21C21.5523 20 22 20.4477 22 21Z" fill="#393C3C"/>
</g>
<defs>
<clipPath id="clip0_0_934">
<rect width="20" height="20" fill="white" transform="matrix(-1 0 0 -1 22 22)"/>
</clipPath>
</defs>
</svg>
