<svg width="24" height="24" viewBox="0 0 24 24" fill="none" xmlns="http://www.w3.org/2000/svg">
<g clip-path="url(#clip0_0_568)">
<path d="M11.2207 18.2468L11.2207 4.56304L6.30534 9.43295C6.15683 9.57911 5.95434 9.64573 5.76157 9.64573C5.56881 9.64573 5.36632 9.57911 5.2178 9.43295C4.9274 9.14716 4.9274 8.63783 5.2178 8.35204L11.4562 2.21278C11.6047 2.06662 11.8072 2 12 2C12.1928 2 12.3953 2.06662 12.5438 2.21278L18.7822 8.35204C19.0726 8.63783 19.0726 9.14716 18.7822 9.43295C18.6337 9.57911 18.4312 9.64573 18.2384 9.64573C18.0457 9.64573 17.8432 9.57911 17.6947 9.43295L12.7439 4.56084L12.7439 18.2468C12.7439 18.672 12.4051 19 11.9823 19C11.6029 19 11.2207 18.6797 11.2207 18.2468Z" fill="#98A2B3"/>
<path fill-rule="evenodd" clip-rule="evenodd" d="M22 21.25C22 21.6642 21.6642 22 21.25 22L2.75 22C2.33579 22 2 21.6642 2 21.25C2 20.8358 2.33579 20.5 2.75 20.5L21.25 20.5C21.6642 20.5 22 20.8358 22 21.25Z" fill="#98A2B3"/>
</g>
<defs>
<clipPath id="clip0_0_568">
<rect width="20" height="20" fill="white" transform="matrix(-1 0 0 -1 22 22)"/>
</clipPath>
</defs>
</svg>
