<svg width="24" height="24" viewBox="0 0 24 24" fill="none" xmlns="http://www.w3.org/2000/svg">
<path fill-rule="evenodd" clip-rule="evenodd" d="M12 21C7.02944 21 3 16.9706 3 12C3 7.02944 7.02944 3 12 3C16.9706 3 21 7.02944 21 12C21 16.9706 16.9706 21 12 21ZM12 13.125C12.6213 13.125 13.125 12.6213 13.125 12V7.5C13.125 6.87868 12.6213 6.375 12 6.375C11.3787 6.375 10.875 6.87868 10.875 7.5V12C10.875 12.6213 11.3787 13.125 12 13.125ZM13.35 16.05C13.35 15.3044 12.7456 14.7 12 14.7C11.2544 14.7 10.65 15.3044 10.65 16.05C10.65 16.7956 11.2544 17.4 12 17.4C12.7456 17.4 13.35 16.7956 13.35 16.05Z" fill="#393C3C"/>
</svg>
