<svg width="24" height="24" viewBox="0 0 24 24" fill="none" xmlns="http://www.w3.org/2000/svg">
<path d="M12 7.05005C12.3728 7.05005 12.675 7.35226 12.675 7.72505V13.125C12.675 13.4978 12.3728 13.8 12 13.8C11.6272 13.8 11.325 13.4978 11.325 13.125V7.72505C11.325 7.35226 11.6272 7.05005 12 7.05005Z" fill="#98A2B3"/>
<path d="M12 17.4001C12.4971 17.4001 12.9 16.9972 12.9 16.5001C12.9 16.003 12.4971 15.6001 12 15.6001C11.5029 15.6001 11.1 16.003 11.1 16.5001C11.1 16.9972 11.5029 17.4001 12 17.4001Z" fill="#98A2B3"/>
<path fill-rule="evenodd" clip-rule="evenodd" d="M12 21C16.9706 21 21 16.9706 21 12C21 7.02944 16.9706 3 12 3C7.02944 3 3 7.02944 3 12C3 16.9706 7.02944 21 12 21ZM12 19.5C16.1421 19.5 19.5 16.1421 19.5 12C19.5 7.85786 16.1421 4.5 12 4.5C7.85786 4.5 4.5 7.85786 4.5 12C4.5 16.1421 7.85786 19.5 12 19.5Z" fill="#98A2B3"/>
</svg>
