<svg width="24" height="24" viewBox="0 0 24 24" fill="none" xmlns="http://www.w3.org/2000/svg">
<path fill-rule="evenodd" clip-rule="evenodd" d="M20.4949 13.6106C21.0838 13.2626 21.3917 12.7272 21.4184 12.0045C21.3917 11.3085 21.0838 10.7598 20.4949 10.3583L8.93111 3.29147C8.28867 2.91672 7.64624 2.90334 7.0038 3.25132C6.36137 3.62608 6.02677 4.18821 6 4.93771V19.0713C6.02677 19.8208 6.36137 20.3829 7.0038 20.7577C7.64624 21.1056 8.28867 21.0789 8.93111 20.6773L20.4949 13.6106ZM7.73794 19.4491C7.84083 19.5016 7.89042 19.5005 7.90501 19.4999C7.92365 19.4991 7.99582 19.493 8.13611 19.4054L8.1425 19.4014L19.7222 12.3248L19.7318 12.3192C19.8278 12.2625 19.8558 12.2199 19.8671 12.2004C19.8787 12.1802 19.9054 12.1254 19.9159 12.0059C19.9006 11.8404 19.8429 11.7353 19.675 11.6151L8.16471 4.58104C8.03547 4.50747 7.9641 4.50063 7.93621 4.50005C7.91047 4.49951 7.84978 4.50253 7.73822 4.55972C7.56744 4.66349 7.51098 4.75364 7.5 4.96909V19.0399C7.51098 19.2552 7.56738 19.3454 7.73794 19.4491Z" fill="#98A2B3"/>
</svg>
