<svg width="24" height="24" viewBox="0 0 24 24" fill="none" xmlns="http://www.w3.org/2000/svg">
<path d="M6.9697 8.875C6.9697 10.6719 7.95455 12.3125 9.59596 13.2109C11.1963 14.1094 13.2071 14.1094 14.8485 13.2109C16.4489 12.3125 17.4747 10.6719 17.4747 8.875C17.4747 7.11719 16.4489 5.47656 14.8485 4.57813C13.2071 3.67969 11.1963 3.67969 9.59596 4.57813C7.95455 5.47656 6.9697 7.11719 6.9697 8.875ZM13.2071 15.7109V17.625H15.1768C15.7102 17.625 16.1616 18.0547 16.1616 18.5625C16.1616 19.1094 15.7102 19.5 15.1768 19.5H13.2071V21.0625C13.2071 21.6094 12.7557 22 12.2222 22C11.6477 22 11.2374 21.6094 11.2374 21.0625V19.5H9.26768C8.69318 19.5 8.28283 19.1094 8.28283 18.5625C8.28283 18.0547 8.69318 17.625 9.26768 17.625H11.2374V15.7109C7.70833 15.2422 5 12.3906 5 8.875C5 5.08594 8.20076 2 12.2222 2C16.2027 2 19.4444 5.08594 19.4444 8.875C19.4444 12.3906 16.6951 15.2422 13.2071 15.7109Z" fill="#393C3C"/>
</svg>
