<svg width="24" height="24" viewBox="0 0 24 24" fill="none" xmlns="http://www.w3.org/2000/svg">
<path d="M6.25 8.875C6.25 10.9062 7.30469 12.7422 9.0625 13.7578C10.7812 14.7734 12.9297 14.7734 14.6875 13.7578C16.4062 12.7422 17.5 10.9062 17.5 8.875C17.5 6.88281 16.4062 5.04688 14.6875 4.03125C12.9297 3.01562 10.7812 3.01562 9.0625 4.03125C7.30469 5.04688 6.25 6.88281 6.25 8.875ZM12.5 15.75V18.25H15C15.3125 18.25 15.625 18.5625 15.625 18.875C15.625 19.2266 15.3125 19.5 15 19.5H12.5V21.375C12.5 21.7266 12.1875 22 11.875 22C11.5234 22 11.25 21.7266 11.25 21.375V19.5H8.75C8.39844 19.5 8.125 19.2266 8.125 18.875C8.125 18.5625 8.39844 18.25 8.75 18.25H11.25V15.75C7.73438 15.4375 5 12.4688 5 8.875C5 5.08594 8.04688 2 11.875 2C15.6641 2 18.75 5.08594 18.75 8.875C18.75 12.4688 15.9766 15.4375 12.5 15.75Z" fill="#98A2B3"/>
</svg>
