<svg width="24" height="24" viewBox="0 0 24 24" fill="none" xmlns="http://www.w3.org/2000/svg">
<path fill-rule="evenodd" clip-rule="evenodd" d="M8.90807 4.92213H5.19779C5.05281 4.92213 4.9221 5.064 4.9221 5.19782V8.9081C4.9221 9.06668 5.03921 9.1838 5.19779 9.1838H8.90807C9.04189 9.1838 9.18377 9.05308 9.18377 8.9081V5.19782C9.18377 5.15468 9.15874 5.08285 9.09089 5.015C9.02304 4.94715 8.95121 4.92213 8.90807 4.92213ZM5.19779 3H8.90807C10.1022 3 11.1059 4.0037 11.1059 5.19782V8.9081C11.1059 10.1455 10.0975 11.1059 8.90807 11.1059H5.19779C3.96502 11.1059 2.99997 10.1409 2.99997 8.9081V5.19782C2.99997 4.00836 3.96039 3 5.19779 3ZM5.19779 12.8941H8.90807C10.1022 12.8941 11.1059 13.8978 11.1059 15.0919V18.8022C11.1059 20.0396 10.0975 21 8.90807 21H5.19779C3.96502 21 2.99997 20.035 2.99997 18.8022V15.0919C2.99997 13.9024 3.96039 12.8941 5.19779 12.8941ZM15.0919 4.92213C14.9469 4.92213 14.8162 5.064 14.8162 5.19782V8.9081C14.8162 9.06668 14.9333 9.1838 15.0919 9.1838H18.8021C18.936 9.1838 19.0778 9.05308 19.0778 8.9081V5.19782C19.0778 5.15468 19.0528 5.08285 18.985 5.015C18.9171 4.94715 18.8453 4.92213 18.8021 4.92213H15.0919ZM12.894 5.19782C12.894 4.00836 13.8545 3 15.0919 3H18.8021C19.9963 3 21 4.0037 21 5.19782V8.9081C21 10.1455 19.9916 11.1059 18.8021 11.1059H15.0919C13.8591 11.1059 12.894 10.1409 12.894 8.9081V5.19782ZM12.894 13.8551C12.894 13.3706 13.3044 12.8941 13.8551 12.8941H16.3286C16.5947 12.8941 16.832 13.0236 16.9961 13.1877C17.1601 13.3517 17.2897 13.5891 17.2897 13.8551V16.1406H19.0778V13.8551C19.0778 13.3706 19.4882 12.8941 20.0389 12.8941C20.305 12.8941 20.5423 13.0236 20.7064 13.1877C20.8704 13.3517 21 13.5891 21 13.8551V17.1016C21 17.6523 20.5235 18.0627 20.0389 18.0627H16.3286C15.7915 18.0627 15.3676 17.6387 15.3676 17.1016V14.8162H14.8162V20.3481C14.8162 20.8988 14.3397 21.3092 13.8551 21.3092C13.318 21.3092 12.894 20.8852 12.894 20.3481V13.8551ZM6.74374 5.78271H7.36212C7.62817 5.78271 7.86553 5.91228 8.02957 6.07632C8.19361 6.24036 8.32319 6.47773 8.32319 6.74377V7.36215C8.32319 7.91285 7.84668 8.32322 7.36212 8.32322H6.74374C6.20664 8.32322 5.78268 7.89925 5.78268 7.36215V6.74377C5.78268 6.25922 6.19305 5.78271 6.74374 5.78271ZM5.78268 16.6378C5.78268 16.1533 6.19305 15.6768 6.74374 15.6768H7.36212C7.62817 15.6768 7.86553 15.8064 8.02957 15.9704C8.19361 16.1344 8.32319 16.3718 8.32319 16.6378V17.2562C8.32319 17.8069 7.84668 18.2173 7.36212 18.2173H6.74374C6.20664 18.2173 5.78268 17.7933 5.78268 17.2562V16.6378ZM16.6378 5.78271H17.2562C17.5222 5.78271 17.7596 5.91228 17.9236 6.07632C18.0877 6.24036 18.2173 6.47773 18.2173 6.74377V7.36215C18.2173 7.91285 17.7408 8.32322 17.2562 8.32322H16.6378C16.1007 8.32322 15.6768 7.89925 15.6768 7.36215V6.74377C15.6768 6.25922 16.0871 5.78271 16.6378 5.78271ZM15.3676 19.4206C15.3676 18.936 15.7779 18.4595 16.3286 18.4595H16.947C17.2131 18.4595 17.4504 18.5891 17.6145 18.7531C17.7785 18.9171 17.9081 19.1545 17.9081 19.4206V20.0389C17.9081 20.5896 17.4316 21 16.947 21H16.3286C15.7915 21 15.3676 20.576 15.3676 20.0389V19.4206ZM19.4205 18.4595H20.0389C20.305 18.4595 20.5423 18.5891 20.7064 18.7531C20.8704 18.9171 21 19.1545 21 19.4206V20.0389C21 20.5896 20.5235 21 20.0389 21H19.4205C18.8834 21 18.4595 20.576 18.4595 20.0389V19.4206C18.4595 18.936 18.8698 18.4595 19.4205 18.4595ZM5.19779 14.4735H8.90807C9.21726 14.4735 9.52645 14.7827 9.52645 15.0919V18.8022C9.52645 19.15 9.21726 19.4206 8.90807 19.4206H5.19779C4.84996 19.4206 4.57941 19.15 4.57941 18.8022V15.0919C4.57941 14.7827 4.84996 14.4735 5.19779 14.4735Z" fill="#393C3C"/>
</svg>
