<svg width="24" height="24" viewBox="0 0 24 24" fill="none" xmlns="http://www.w3.org/2000/svg">
<g clip-path="url(#clip0_0_769)">
<path d="M3.14062 4.37042C3.03516 4.22987 3 4.05417 3 3.87848C3 3.38653 3.38672 3 3.84375 3H7.67578C8.09766 3 8.44922 3.21083 8.66016 3.56223L11.0508 7.56808C9.36328 7.77892 7.85156 8.58712 6.72656 9.74671L3.14062 4.37042ZM20.8242 4.37042L17.2383 9.74671C16.1133 8.58712 14.6016 7.77892 12.9141 7.56808L15.3047 3.56223C15.5156 3.21083 15.8672 3 16.2891 3H20.1211C20.6133 3 21 3.38653 21 3.87848C21 4.05417 20.9297 4.22987 20.8242 4.37042ZM5.8125 14.8067C5.8125 12.6281 6.97266 10.59 8.90625 9.46559C10.8047 8.37628 13.1602 8.37628 15.0938 9.46559C16.9922 10.59 18.1875 12.6281 18.1875 14.8067C18.1875 17.0205 16.9922 19.0586 15.0938 20.183C13.1602 21.2723 10.8047 21.2723 8.90625 20.183C6.97266 19.0586 5.8125 17.0205 5.8125 14.8067ZM12.2812 11.5037C12.1758 11.2577 11.8242 11.2577 11.6836 11.5037L10.9102 13.0849C10.8398 13.1903 10.7695 13.2606 10.6641 13.2606L8.90625 13.5066C8.625 13.5417 8.51953 13.8931 8.69531 14.0688L9.99609 15.3338C10.0664 15.4041 10.1016 15.5095 10.0664 15.6149L9.78516 17.3719C9.71484 17.653 9.99609 17.8287 10.2422 17.7233L11.8242 16.8799C11.9297 16.8448 12.0352 16.8448 12.1406 16.8799L13.7227 17.7233C13.9688 17.8287 14.25 17.653 14.1797 17.3719L13.8984 15.6149C13.8633 15.5095 13.8984 15.4041 13.9688 15.3338L15.2695 14.0688C15.4453 13.8931 15.3398 13.5769 15.0586 13.5066L13.3008 13.2606C13.1953 13.2606 13.125 13.1903 13.0547 13.0849L12.2812 11.5037Z" fill="#393C3C"/>
</g>
<defs>
<clipPath id="clip0_0_769">
<rect width="18" height="18" fill="white" transform="translate(3 3)"/>
</clipPath>
</defs>
</svg>
