<svg width="24" height="24" viewBox="0 0 24 24" fill="none" xmlns="http://www.w3.org/2000/svg">
<path d="M8.68421 4.26316H4.89474C4.53947 4.26316 4.26316 4.57895 4.26316 4.89474V8.68421C4.26316 9.03947 4.53947 9.31579 4.89474 9.31579H8.68421C9 9.31579 9.31579 9.03947 9.31579 8.68421V4.89474C9.31579 4.57895 9 4.26316 8.68421 4.26316ZM4.89474 3H8.68421C9.71053 3 10.5789 3.86842 10.5789 4.89474V8.68421C10.5789 9.75 9.71053 10.5789 8.68421 10.5789H4.89474C3.82895 10.5789 3 9.75 3 8.68421V4.89474C3 3.86842 3.82895 3 4.89474 3ZM8.68421 14.3684H4.89474C4.53947 14.3684 4.26316 14.6842 4.26316 15V18.7895C4.26316 19.1447 4.53947 19.4211 4.89474 19.4211H8.68421C9 19.4211 9.31579 19.1447 9.31579 18.7895V15C9.31579 14.6842 9 14.3684 8.68421 14.3684ZM4.89474 13.1053H8.68421C9.71053 13.1053 10.5789 13.9737 10.5789 15V18.7895C10.5789 19.8553 9.71053 20.6842 8.68421 20.6842H4.89474C3.82895 20.6842 3 19.8553 3 18.7895V15C3 13.9737 3.82895 13.1053 4.89474 13.1053ZM15 4.26316C14.6447 4.26316 14.3684 4.57895 14.3684 4.89474V8.68421C14.3684 9.03947 14.6447 9.31579 15 9.31579H18.7895C19.1053 9.31579 19.4211 9.03947 19.4211 8.68421V4.89474C19.4211 4.57895 19.1053 4.26316 18.7895 4.26316H15ZM13.1053 4.89474C13.1053 3.86842 13.9342 3 15 3H18.7895C19.8158 3 20.6842 3.86842 20.6842 4.89474V8.68421C20.6842 9.75 19.8158 10.5789 18.7895 10.5789H15C13.9342 10.5789 13.1053 9.75 13.1053 8.68421V4.89474ZM13.1053 13.7368C13.1053 13.4211 13.3816 13.1053 13.7368 13.1053H16.2632C16.5789 13.1053 16.8947 13.4211 16.8947 13.7368V16.4211H19.4211V13.7368C19.4211 13.4211 19.6974 13.1053 20.0526 13.1053C20.3684 13.1053 20.6842 13.4211 20.6842 13.7368V17.0526C20.6842 17.4079 20.3684 17.6842 20.0526 17.6842H16.2632C15.9079 17.6842 15.6316 17.4079 15.6316 17.0526V14.3684H14.3684V20.3684C14.3684 20.7237 14.0526 21 13.7368 21C13.3816 21 13.1053 20.7237 13.1053 20.3684V13.7368ZM6.47368 5.84211H7.10526C7.42105 5.84211 7.73684 6.15789 7.73684 6.47368V7.10526C7.73684 7.46053 7.42105 7.73684 7.10526 7.73684H6.47368C6.11842 7.73684 5.84211 7.46053 5.84211 7.10526V6.47368C5.84211 6.15789 6.11842 5.84211 6.47368 5.84211ZM5.84211 16.5789C5.84211 16.2632 6.11842 15.9474 6.47368 15.9474H7.10526C7.42105 15.9474 7.73684 16.2632 7.73684 16.5789V17.2105C7.73684 17.5658 7.42105 17.8421 7.10526 17.8421H6.47368C6.11842 17.8421 5.84211 17.5658 5.84211 17.2105V16.5789ZM16.5789 5.84211H17.2105C17.5263 5.84211 17.8421 6.15789 17.8421 6.47368V7.10526C17.8421 7.46053 17.5263 7.73684 17.2105 7.73684H16.5789C16.2237 7.73684 15.9474 7.46053 15.9474 7.10526V6.47368C15.9474 6.15789 16.2237 5.84211 16.5789 5.84211ZM15.6316 19.4211C15.6316 19.1053 15.9079 18.7895 16.2632 18.7895H16.8947C17.2105 18.7895 17.5263 19.1053 17.5263 19.4211V20.0526C17.5263 20.4079 17.2105 20.6842 16.8947 20.6842H16.2632C15.9079 20.6842 15.6316 20.4079 15.6316 20.0526V19.4211ZM19.4211 18.7895H20.0526C20.3684 18.7895 20.6842 19.1053 20.6842 19.4211V20.0526C20.6842 20.4079 20.3684 20.6842 20.0526 20.6842H19.4211C19.0658 20.6842 18.7895 20.4079 18.7895 20.0526V19.4211C18.7895 19.1053 19.0658 18.7895 19.4211 18.7895Z" fill="#98A2B3"/>
</svg>
