<svg width="24" height="24" viewBox="0 0 24 24" fill="none" xmlns="http://www.w3.org/2000/svg">
<g clip-path="url(#clip0_0_404)">
<path d="M15.0055 13.087L13.5847 12.8696L12.929 11.5652C12.8197 11.2391 12.3825 11.0217 12.0546 11.0217C11.7268 11.0217 11.2896 11.2391 11.071 11.5652L10.4153 12.8696L8.99454 13.087C8.55738 13.087 8.22951 13.413 8.12022 13.7391C8.01093 14.1739 8.12022 14.6087 8.3388 14.8261L9.3224 15.8043L9.10383 17.2174C8.99454 17.6522 9.21312 17.9783 9.54098 18.3043C9.86885 18.5217 10.306 18.5217 10.6339 18.413L11.9454 17.7609L13.1475 18.413C13.2568 18.5217 13.4754 18.5217 13.5847 18.5217C13.8033 18.5217 14.0219 18.413 14.2404 18.3043C14.5683 18.087 14.7869 17.6522 14.6776 17.2174L14.459 15.8043L15.4426 14.8261C15.7705 14.5 15.8798 14.0652 15.7705 13.7391C15.7705 13.413 15.4426 13.087 15.0055 13.087ZM13.3661 14.9348C13.1475 15.1522 13.0383 15.4783 13.0383 15.913L13.1475 16.6739L12.4918 16.3478C12.1639 16.1304 11.8361 16.1304 11.5082 16.3478L10.8525 16.6739L10.9617 15.913C10.9617 15.587 10.8525 15.1522 10.6339 15.0435L10.0874 14.5L10.8525 14.2826C11.1803 14.2826 11.5082 14.0652 11.6175 13.7391L11.9454 13.087L12.2732 13.7391C12.3825 14.0652 12.7104 14.2826 13.0383 14.2826L13.8033 14.3913L13.3661 14.9348Z" fill="#98A2B3"/>
<path d="M6.37158 9.60869C6.59016 9.28261 6.91803 9.06522 7.2459 8.84783L7.35519 8.73913L3.85792 3.52174H7.46448L9.86885 7.43478H9.97814C10.4153 7.32609 10.8525 7.21739 11.2896 7.21739H11.5082L8.77596 2.76087C8.55738 2.32609 8.12022 2 7.57377 2H3.0929C2.54645 2 2 2.54348 2 3.08696C2 3.30435 2.10929 3.52174 2.21858 3.73913L6.2623 9.71739L6.37158 9.60869Z" fill="#98A2B3"/>
<path d="M12.0546 8.19565C9.65027 8.19565 7.35519 9.5 6.04372 11.6739C4.84153 13.8478 4.84153 16.4565 6.04372 18.5217C7.2459 20.6957 9.54098 22 12.0546 22C14.459 22 16.7541 20.6957 18.0656 18.5217C19.2678 16.4565 19.2678 13.8478 18.0656 11.6739C16.7541 9.5 14.459 8.19565 12.0546 8.19565ZM16.6448 17.7609C15.6612 19.3913 13.9126 20.4783 11.9454 20.4783C9.97814 20.4783 8.22951 19.5 7.2459 17.7609C6.2623 16.1304 6.2623 14.0652 7.2459 12.4348C8.22951 10.8043 9.97814 9.71739 11.9454 9.71739C13.8033 9.71739 15.6612 10.6957 16.6448 12.4348C17.6284 14.0652 17.6284 16.0217 16.6448 17.7609Z" fill="#98A2B3"/>
<path d="M20.9071 2H16.4262C15.8798 2 15.4426 2.21739 15.224 2.65217L12.4918 7.1087H12.7104C13.1475 7.1087 13.5847 7.21739 14.0219 7.32609H14.1311L16.5355 3.41304H20.1421L16.6448 8.63043L16.7541 8.84783C17.082 9.06522 17.4098 9.28261 17.6284 9.60869L17.7377 9.71739L21.7814 3.73913C21.8907 3.52174 22 3.30435 22 3.08696C22 2.54348 21.5628 2 20.9071 2Z" fill="#98A2B3"/>
</g>
<defs>
<clipPath id="clip0_0_404">
<rect width="20" height="20" fill="white" transform="translate(2 2)"/>
</clipPath>
</defs>
</svg>
