<svg width="24" height="24" viewBox="0 0 24 24" fill="none" xmlns="http://www.w3.org/2000/svg">
<path d="M8 5C6.89687 5 6 5.89688 6 7V14C6 15.1031 6.89687 16 8 16H19C20.1031 16 21 15.1031 21 14V7C21 5.89688 20.1031 5 19 5H8ZM15.375 8.33437L18.375 12.8344C18.5281 13.0656 18.5438 13.3594 18.4125 13.6031C18.2812 13.8469 18.0281 14 17.75 14H13.25H11.75H9.25C8.9625 14 8.7 13.8344 8.575 13.575C8.45 13.3156 8.48438 13.0063 8.66563 12.7812L10.6656 10.2812C10.8094 10.1031 11.0219 10 11.25 10C11.4781 10 11.6938 10.1031 11.8344 10.2812L12.375 10.9563L14.125 8.33125C14.2656 8.125 14.5 8 14.75 8C15 8 15.2344 8.125 15.375 8.33437ZM9 8C9 7.73478 9.10536 7.48043 9.29289 7.29289C9.48043 7.10536 9.73478 7 10 7C10.2652 7 10.5196 7.10536 10.7071 7.29289C10.8946 7.48043 11 7.73478 11 8C11 8.26522 10.8946 8.51957 10.7071 8.70711C10.5196 8.89464 10.2652 9 10 9C9.73478 9 9.48043 8.89464 9.29289 8.70711C9.10536 8.51957 9 8.26522 9 8ZM4.5 7.75C4.5 7.33437 4.16562 7 3.75 7C3.33437 7 3 7.33437 3 7.75V14.75C3 17.0969 4.90313 19 7.25 19H17.25C17.6656 19 18 18.6656 18 18.25C18 17.8344 17.6656 17.5 17.25 17.5H7.25C5.73125 17.5 4.5 16.2688 4.5 14.75V7.75Z" fill="#393C3C"/>
</svg>
