<svg width="24" height="24" viewBox="0 0 24 24" fill="none" xmlns="http://www.w3.org/2000/svg">
<path fill-rule="evenodd" clip-rule="evenodd" d="M12.9938 17.6908L17.3284 13.3777C17.5242 13.1841 17.7848 13.1011 18.0233 13.1011C18.2618 13.1011 18.5218 13.1835 18.7176 13.3771C19.0941 13.7492 19.0941 14.3987 18.7176 14.7708L12.6943 20.724C12.4985 20.9176 12.2385 21 12 21C11.7615 21 11.5015 20.9176 11.3057 20.724L5.28236 14.7708C4.90588 14.3987 4.90588 13.7492 5.28236 13.3771C5.47818 13.1835 5.73821 13.1011 5.97669 13.1011C6.21518 13.1011 6.47521 13.1835 6.67102 13.3771L11.0404 17.6956V3.97283C11.0404 3.42257 11.4796 3 12.0171 3C12.5021 3 12.9938 3.4049 12.9938 3.97283V17.6908Z" fill="#393C3C"/>
</svg>
