<svg width="24" height="24" viewBox="0 0 24 24" fill="none" xmlns="http://www.w3.org/2000/svg">
<path d="M12.7793 3.75324V18.437L17.6947 13.5671C17.8432 13.4209 18.0457 13.3543 18.2384 13.3543C18.4312 13.3543 18.6337 13.4209 18.7822 13.5671C19.0726 13.8528 19.0726 14.3622 18.7822 14.648L12.5438 20.7872C12.3953 20.9334 12.1928 21 12 21C11.8072 21 11.6047 20.9334 11.4562 20.7872L5.2178 14.648C4.9274 14.3622 4.9274 13.8528 5.2178 13.5671C5.36632 13.4209 5.56881 13.3543 5.76157 13.3543C5.95434 13.3543 6.15683 13.4209 6.30534 13.5671L11.2561 18.4392V3.75324C11.2561 3.32796 11.5949 3 12.0177 3C12.3971 3 12.7793 3.3203 12.7793 3.75324Z" fill="#98A2B3"/>
</svg>
