<svg width="24" height="24" viewBox="0 0 24 24" fill="none" xmlns="http://www.w3.org/2000/svg">
<path d="M3.05469 5H14.6562C15.2422 5 15.75 5.54167 15.75 6.16667C15.75 6.45833 15.6328 6.70833 15.4766 6.91667L11.375 11.9167V20C11.375 20.5417 10.9453 21 10.3984 21C10.2031 21 10.0078 20.9583 9.8125 20.7917L6.84375 18.4167C6.53125 18.1667 6.375 17.75 6.375 17.3333V11.9167L2.23438 6.91667C2.07812 6.70833 2 6.45833 2 6.16667C2 5.54167 2.46875 5 3.05469 5Z" fill="#393C3C"/>
<path fill-rule="evenodd" clip-rule="evenodd" d="M17 6.06667C17 5.47756 17.4477 5 18 5H21C21.5523 5 22 5.47756 22 6.06667C22 6.65577 21.5523 7.13333 21 7.13333H18C17.4477 7.13333 17 6.65577 17 6.06667Z" fill="#393C3C"/>
<path fill-rule="evenodd" clip-rule="evenodd" d="M14 12.4667C14 11.8776 14.4477 11.4 15 11.4L21 11.4C21.5523 11.4 22 11.8776 22 12.4667C22 13.0558 21.5523 13.5333 21 13.5333L15 13.5333C14.4477 13.5333 14 13.0558 14 12.4667Z" fill="#393C3C"/>
<path fill-rule="evenodd" clip-rule="evenodd" d="M14 19.9333C14 19.3442 14.4477 18.8667 15 18.8667L21 18.8667C21.5523 18.8667 22 19.3442 22 19.9333C22 20.5224 21.5523 21 21 21L15 21C14.4477 21 14 20.5224 14 19.9333Z" fill="#393C3C"/>
</svg>
