<svg width="24" height="24" viewBox="0 0 24 24" fill="none" xmlns="http://www.w3.org/2000/svg">
<path fill-rule="evenodd" clip-rule="evenodd" d="M15.5364 6.13924L11.532 10.9968V18.8627C11.532 19.4846 11.0386 20 10.4221 20C10.2069 20 9.97939 19.9532 9.75438 19.763L6.83128 17.4359C6.47855 17.1551 6.31034 16.6951 6.31034 16.2484V10.9973L2.26316 6.13406C2.08626 5.89935 2 5.61868 2 5.30065C2 4.60876 2.52111 4 3.18688 4H14.617C15.2759 4 15.8424 4.60128 15.8424 5.30065C15.8424 5.6339 15.7074 5.91262 15.5406 6.13394L15.5364 6.13924ZM7.65336 10.1888L7.65868 10.1973C7.70093 10.2646 7.74418 10.3445 7.77738 10.4268C7.80957 10.5065 7.83744 10.6007 7.83744 10.6928V16.1709L10.0049 17.9323V10.6928C10.0049 10.5419 10.0511 10.3366 10.1981 10.1777L13.9091 5.62092H3.8969L7.65336 10.1888ZM15.0788 17.7255H21.2365C21.4385 17.7255 21.6281 17.8311 21.7643 17.9757C21.9005 18.1202 22 18.3215 22 18.5359C22 18.9965 21.62 19.3464 21.2365 19.3464H15.0788C14.6508 19.3464 14.3153 18.9902 14.3153 18.5359C14.3153 18.1289 14.645 17.7255 15.0788 17.7255ZM14.3153 12C14.3153 11.5929 14.645 11.1895 15.0788 11.1895H21.2365C21.4385 11.1895 21.6281 11.2952 21.7643 11.4397C21.9005 11.5843 22 11.7856 22 12C22 12.4605 21.62 12.8105 21.2365 12.8105H15.0788C14.6508 12.8105 14.3153 12.4543 14.3153 12ZM17.5419 4.65359H21.2365C21.4385 4.65359 21.6281 4.75922 21.7643 4.90379C21.9005 5.04835 22 5.24964 22 5.46405C22 5.92456 21.62 6.27451 21.2365 6.27451H17.5419C17.1139 6.27451 16.7783 5.91833 16.7783 5.46405C16.7783 5.05698 17.108 4.65359 17.5419 4.65359Z" fill="#98A2B3"/>
</svg>
