<svg width="24" height="24" viewBox="0 0 24 24" fill="none" xmlns="http://www.w3.org/2000/svg">
<path d="M12.5167 4C13.0855 4 13.5873 4.49805 13.5873 5.0625V5.72656C16.0296 6.19141 17.8696 8.34961 17.8696 10.9062V11.5371C17.8696 13.0977 18.4383 14.625 19.4755 15.7871L19.7097 16.0527C20.0108 16.3848 20.0777 16.8164 19.9104 17.2148C19.7431 17.5801 19.3416 17.8125 18.9402 17.8125H6.09328C5.65836 17.8125 5.25689 17.5801 5.08961 17.2148C4.92234 16.8164 4.98925 16.3848 5.29035 16.0527L5.52453 15.7871C6.56165 14.625 7.16385 13.0977 7.16385 11.5371V10.9062C7.16385 8.34961 9.0039 6.19141 11.4462 5.72656V5.0625C11.4462 4.49805 11.9145 4 12.5167 4ZM14.0222 20.4023C13.6208 20.8008 13.0855 21 12.5167 21C11.948 21 11.3792 20.8008 10.9778 20.4023C10.5763 20.0039 10.3756 19.4395 10.3756 18.875H12.5167H14.6579C14.6579 19.4395 14.4237 20.0039 14.0222 20.4023Z" fill="#393C3C"/>
</svg>
