<svg width="24" height="24" viewBox="0 0 24 24" fill="none" xmlns="http://www.w3.org/2000/svg">
<g clip-path="url(#clip0_0_535)">
<path d="M20.6384 16.4234C20.8795 16.7023 21 16.9812 21 17.3C21 17.6586 20.8795 17.9375 20.6384 18.1766C20.3973 18.4555 20.0759 18.575 19.7143 18.575H4.28571C3.88393 18.575 3.60268 18.4555 3.36161 18.1766C3.12054 17.9375 3 17.6586 3 17.3C3 16.9812 3.12054 16.7023 3.36161 16.4234C3.36161 16.3836 3.44196 16.3437 3.52232 16.2641C3.92411 15.9055 4.36607 15.268 4.84821 14.3914C5.29018 13.5148 5.53125 12.1602 5.57143 10.2875C5.57143 8.73359 6.09375 7.37891 7.05804 6.26328C7.98214 5.14766 9.1875 4.43047 10.7143 4.11172V3.275C10.7143 2.91641 10.8348 2.59766 11.0759 2.35859C11.317 2.11953 11.5982 2 12 2C12.3616 2 12.683 2.11953 12.9241 2.35859C13.1652 2.59766 13.2857 2.91641 13.2857 3.275V4.11172C14.7723 4.43047 16.0179 5.14766 16.9821 6.26328C17.9062 7.37891 18.3884 8.73359 18.4286 10.2875C18.4286 12.1602 18.6696 13.5148 19.1518 14.3914C19.5938 15.268 20.0357 15.9055 20.5179 16.2641C20.558 16.3437 20.5982 16.3836 20.6384 16.4234ZM5.73214 16.6625H18.308C17.8259 16.1445 17.4241 15.3875 17.0625 14.3516C16.7009 13.3555 16.5 12.0008 16.5 10.3273V10.2875C16.4598 9.0125 16.0179 7.97656 15.1741 7.13984C14.3304 6.30312 13.2857 5.86484 12 5.825C10.7143 5.86484 9.62946 6.30312 8.82589 7.13984C7.94196 7.97656 7.5 9.0125 7.5 10.2875V10.3273C7.45982 12.0008 7.25893 13.3555 6.9375 14.3516C6.53571 15.3875 6.13393 16.1445 5.73214 16.6625ZM11.9598 22.4C11.2366 22.4 10.6741 22.1211 10.192 21.643C9.70982 21.1648 9.42857 20.5672 9.42857 19.85H14.5714C14.5312 20.5672 14.2902 21.1648 13.808 21.643C13.3259 22.1211 12.683 22.4 11.9598 22.4Z" fill="#98A2B3"/>
</g>
<defs>
<clipPath id="clip0_0_535">
<rect width="20" height="20" fill="white" transform="translate(2 2)"/>
</clipPath>
</defs>
</svg>
