<svg width="24" height="24" viewBox="0 0 24 24" fill="none" xmlns="http://www.w3.org/2000/svg">
<path fill-rule="evenodd" clip-rule="evenodd" d="M7.91645 17.8591L7.9181 17.8601C9.38903 18.7293 11.2298 18.7305 12.7378 17.8596C14.2131 16.9874 15.1498 15.4128 15.1498 13.6727C15.1498 11.9681 14.2138 10.3931 12.7378 9.52059C11.2297 8.64964 9.38902 8.65092 7.91809 9.5201L7.91645 9.52107C6.40849 10.3923 5.50524 11.9658 5.50524 13.6727C5.50524 15.4152 6.40915 16.9882 7.91645 17.8591ZM14.7875 4.0002H19.2474C19.4502 4.0002 19.6367 4.09965 19.7686 4.23156C19.9006 4.36348 20 4.54998 20 4.75281V9.21274C20 9.64184 19.626 9.96535 19.2474 9.96535C18.826 9.96535 18.4948 9.63409 18.4948 9.21274V6.58276L15.2935 9.78403C16.1272 10.845 16.6551 12.2245 16.6551 13.6727C16.6551 17.1958 13.8144 20.0002 10.3275 20.0002C6.80514 20.0002 4.00002 17.1951 4.00002 13.6727C4.00002 10.1858 6.80442 7.34515 10.3275 7.34515C11.7757 7.34515 13.1552 7.87302 14.2162 8.70669L17.4174 5.50542H14.7875C14.3661 5.50542 14.0349 5.17416 14.0349 4.75281C14.0349 4.37421 14.3584 4.0002 14.7875 4.0002Z" fill="#98A2B3"/>
</svg>
