<svg width="24" height="24" viewBox="0 0 24 24" fill="none" xmlns="http://www.w3.org/2000/svg">
<path d="M15.1429 4H19.1429C19.6071 4 20 4.39286 20 4.85714V8.85714C20 9.35714 19.6071 9.71429 19.1429 9.71429C18.6429 9.71429 18.2857 9.35714 18.2857 8.85714V6.92857L15.2857 9.92857C16.0714 11 16.5714 12.3214 16.5714 13.7143C16.5714 17.2143 13.75 20 10.2857 20C6.78571 20 4 17.2143 4 13.7143C4 10.25 6.78571 7.42857 10.2857 7.42857C11.6786 7.42857 13 7.92857 14.0714 8.71429L17.0714 5.71429H15.1429C14.6429 5.71429 14.2857 5.35714 14.2857 4.85714C14.2857 4.39286 14.6429 4 15.1429 4ZM5.71429 13.7143C5.71429 15.3571 6.57143 16.8571 8 17.6786C9.39286 18.5 11.1429 18.5 12.5714 17.6786C13.9643 16.8571 14.8571 15.3571 14.8571 13.7143C14.8571 12.1071 13.9643 10.6071 12.5714 9.78571C11.1429 8.96429 9.39286 8.96429 8 9.78571C6.57143 10.6071 5.71429 12.1071 5.71429 13.7143Z" fill="#393C3C"/>
</svg>
