<svg width="24" height="24" viewBox="0 0 24 24" fill="none" xmlns="http://www.w3.org/2000/svg">
<g clip-path="url(#clip0_0_964)">
<path d="M20.125 11.9805C20.125 9.08984 18.5625 6.43359 16.0625 4.94922C13.5234 3.50391 10.4375 3.50391 7.9375 4.94922C5.39844 6.43359 3.875 9.08984 3.875 11.9805C3.875 14.9102 5.39844 17.5664 7.9375 19.0508C10.4375 20.4961 13.5234 20.4961 16.0625 19.0508C18.5625 17.5664 20.125 14.9102 20.125 11.9805ZM2 11.9805C2 8.42578 3.875 5.14453 7 3.34766C10.0859 1.55078 13.875 1.55078 17 3.34766C20.0859 5.14453 22 8.42578 22 11.9805C22 15.5742 20.0859 18.8555 17 20.6523C13.875 22.4492 10.0859 22.4492 7 20.6523C3.875 18.8555 2 15.5742 2 11.9805ZM13.9531 14.7148L8.32812 16.8633C7.58594 17.1758 6.80469 16.3945 7.11719 15.6523L9.26562 10.0273C9.42188 9.67578 9.65625 9.44141 10.0078 9.28516L15.6328 7.13672C16.4141 6.82422 17.1562 7.56641 16.8438 8.34766L14.6953 13.9727C14.5391 14.3242 14.3047 14.5586 13.9531 14.7148ZM13.25 11.9805C13.25 11.3164 12.6641 10.7305 12 10.7305C11.2969 10.7305 10.75 11.3164 10.75 11.9805C10.75 12.6836 11.2969 13.2305 12 13.2305C12.6641 13.2305 13.25 12.6836 13.25 11.9805Z" fill="#393C3C"/>
</g>
<defs>
<clipPath id="clip0_0_964">
<rect width="20" height="20" fill="white" transform="translate(2 2)"/>
</clipPath>
</defs>
</svg>
