<svg width="24" height="24" viewBox="0 0 24 24" fill="none" xmlns="http://www.w3.org/2000/svg">
<g clip-path="url(#clip0_0_598)">
<path d="M12.0236 13.0804C12.6214 13.0804 13.1061 12.5957 13.1061 11.9979C13.1061 11.4001 12.6214 10.9155 12.0236 10.9155C11.4258 10.9155 10.9412 11.4001 10.9412 11.9979C10.9412 12.5957 11.4258 13.0804 12.0236 13.0804Z" fill="#98A2B3"/>
<path d="M20.6656 7.00109C19.3398 4.70441 17.1555 3.02825 14.5934 2.34133C12.0312 1.65442 9.30093 2.01302 7.00326 3.33824C4.70559 4.66347 3.0287 6.84677 2.34148 9.40784C1.65427 11.9689 2.01302 14.698 3.33883 16.9946C4.21566 18.5162 5.47808 19.7799 6.99897 20.6586C8.51986 21.5373 10.2455 22 12.0022 22C13.7589 22 15.4846 21.5373 17.0054 20.6586C18.5263 19.7799 19.7888 18.5162 20.6656 16.9946C21.5399 15.4743 22 13.7514 22 11.9979C22 10.2443 21.5399 8.52138 20.6656 7.00109ZM12.0241 20.4497C10.5363 20.4608 9.0728 20.0731 7.78579 19.327C6.49878 18.5809 5.43535 17.5037 4.70615 16.2074C3.94854 14.9298 3.54878 13.4721 3.54878 11.9869C3.54878 10.5018 3.94854 9.04402 4.70615 7.76646C5.44309 6.47934 6.50913 5.41121 7.79504 4.67151C9.08094 3.93181 10.5405 3.54714 12.0241 3.55692C13.5008 3.56622 14.9495 3.96042 16.2271 4.70058C17.5047 5.44075 18.5671 6.50127 19.3092 7.77739C20.0635 9.05611 20.4613 10.5134 20.4613 11.9979C20.4613 13.4823 20.0635 14.9396 19.3092 16.2183C18.584 17.51 17.5257 18.5838 16.2444 19.328C14.9632 20.0721 13.5059 20.4595 12.0241 20.4497Z" fill="#98A2B3"/>
<path d="M15.5135 6.72772L9.89106 8.60834C9.583 8.70472 9.30231 8.87298 9.07216 9.09922C8.84202 9.32546 8.66903 9.60319 8.56749 9.90947L6.71886 15.5295C6.6377 15.7753 6.62748 16.0391 6.68939 16.2905C6.7513 16.5419 6.88283 16.7708 7.0689 16.9509C7.19984 17.0853 7.35629 17.1922 7.52909 17.2654C7.70189 17.3387 7.88757 17.3767 8.07525 17.3773C8.22046 17.3731 8.36424 17.3473 8.50186 17.3008L14.1134 15.4201C14.4162 15.3219 14.6917 15.154 14.9178 14.9299C15.1439 14.7058 15.3142 14.4318 15.4151 14.1299L17.3184 8.55367C17.3967 8.30576 17.4054 8.04113 17.3437 7.78859C17.282 7.53605 17.1522 7.30526 16.9683 7.12134C16.7856 6.92816 16.5531 6.78919 16.2964 6.71973C16.0397 6.65027 15.7688 6.65304 15.5135 6.72772ZM15.6885 8.33499L13.9055 13.6598C13.8892 13.7266 13.8535 13.7872 13.8029 13.8339C13.7523 13.8805 13.6891 13.9113 13.6211 13.9222L8.32684 15.6935L10.1098 10.3796C10.1241 10.3136 10.1577 10.2534 10.2065 10.2067C10.2552 10.1599 10.3168 10.1288 10.3833 10.1172L15.6885 8.33499Z" fill="#98A2B3"/>
</g>
<defs>
<clipPath id="clip0_0_598">
<rect width="20" height="20" fill="white" transform="translate(2 2)"/>
</clipPath>
</defs>
</svg>
