<svg width="24" height="24" viewBox="0 0 24 24" fill="none" xmlns="http://www.w3.org/2000/svg">
<path d="M14.25 15.8125V14.125H21V19.1875C20.9766 19.6562 20.8125 20.0547 20.5078 20.3828C20.1797 20.6875 19.7812 20.8516 19.3125 20.875H4.6875C4.21875 20.8516 3.82031 20.6875 3.49219 20.3828C3.1875 20.0547 3.02344 19.6562 3 19.1875V14.125H9.75V15.8125C9.77344 16.1641 9.96094 16.3516 10.3125 16.375H13.6875C14.0391 16.3516 14.2266 16.1641 14.25 15.8125ZM19.3125 7.375C19.7812 7.39844 20.1797 7.5625 20.5078 7.86719C20.8125 8.19531 20.9766 8.59375 21 9.0625V13H3V9.0625C3.02344 8.59375 3.1875 8.19531 3.49219 7.86719C3.82031 7.5625 4.21875 7.39844 4.6875 7.375H7.5V5.6875C7.52344 5.21875 7.6875 4.82031 7.99219 4.49219C8.32031 4.1875 8.71875 4.02344 9.1875 4H14.8125C15.2813 4.02344 15.6797 4.1875 16.0078 4.49219C16.3125 4.82031 16.4766 5.21875 16.5 5.6875V7.375H19.3125ZM14.8125 7.375V5.6875H9.1875V7.375H14.8125Z" fill="#393C3C"/>
</svg>
