<svg width="24" height="24" viewBox="0 0 24 24" fill="none" xmlns="http://www.w3.org/2000/svg">
<g clip-path="url(#clip0_0_547)">
<path fill-rule="evenodd" clip-rule="evenodd" d="M15.2222 7.23333V5.67777C15.2222 5.57502 15.1697 5.46297 15.0812 5.37439C14.9926 5.28582 14.8805 5.23333 14.7778 5.23333H9.22222C8.9755 5.23333 8.77778 5.45685 8.77778 5.67777V7.23333H15.2222ZM7.44444 7.23333V5.67777C7.44444 4.71514 8.22186 3.89999 9.22222 3.89999H14.7778C15.7419 3.89999 16.5556 4.71363 16.5556 5.67777V7.23333H18.6667C19.9433 7.23333 21 8.29002 21 9.56666V18.4556C21 19.768 19.9422 20.7889 18.6667 20.7889H5.33333C4.02197 20.7889 3 19.7669 3 18.4556V9.56666C3 8.29115 4.02084 7.23333 5.33333 7.23333H7.44444ZM5.33333 8.56666C4.77194 8.56666 4.33333 9.03548 4.33333 9.56666V12.7889H19.6667V9.56666C19.6667 9.03775 19.1956 8.56666 18.6667 8.56666H5.33333ZM9.11111 14.1222H4.33333V18.4556C4.33333 19.0192 4.7697 19.4556 5.33333 19.4556H18.6667C19.1978 19.4556 19.6667 19.0169 19.6667 18.4556V14.1222H14.8889V15.6778C14.8889 16.3664 14.316 16.9 13.6667 16.9H10.3333C9.64697 16.9 9.11111 16.3641 9.11111 15.6778V14.1222ZM13.5556 15.5667V14.1222H10.4444V15.5667H13.5556Z" fill="#98A2B3"/>
</g>
<defs>
<clipPath id="clip0_0_547">
<rect width="18" height="18" fill="white" transform="translate(3 3)"/>
</clipPath>
</defs>
</svg>
