<svg width="24" height="24" viewBox="0 0 24 24" fill="none" xmlns="http://www.w3.org/2000/svg">
<g clip-path="url(#clip0_0_925)">
<path fill-rule="evenodd" clip-rule="evenodd" d="M16.4261 15.6715L13.0715 12.3001C12.921 12.1478 12.8564 11.9451 12.8564 11.7596C12.8564 11.5742 12.9205 11.3719 13.0711 11.2196C13.3605 10.9268 13.8657 10.9268 14.1551 11.2196L18.7854 15.9044C18.9359 16.0567 19 16.259 19 16.4444C19 16.6299 18.9359 16.8322 18.7854 16.9845L14.1551 21.6693C13.8657 21.9621 13.3605 21.9621 13.0711 21.6693C12.9205 21.517 12.8564 21.3147 12.8564 21.1292C12.8564 20.9438 12.9205 20.7415 13.0711 20.5892L16.4299 17.1908H5.75665C5.32866 17.1908 5 16.8492 5 16.4311C5 16.0539 5.31492 15.6715 5.75665 15.6715H16.4261Z" fill="#393C3C"/>
<path fill-rule="evenodd" clip-rule="evenodd" d="M7.57385 8.2174L10.9285 11.5888C11.079 11.7411 11.1436 11.9438 11.1436 12.1292C11.1436 12.3147 11.0795 12.517 10.9289 12.6693C10.6395 12.9621 10.1343 12.9621 9.84492 12.6693L5.21464 7.98448C5.06411 7.83218 5 7.62993 5 7.44444C5 7.25896 5.06411 7.05671 5.21464 6.90441L9.84492 2.21962C10.1343 1.92679 10.6395 1.92679 10.9289 2.21962C11.0795 2.37192 11.1436 2.57416 11.1436 2.75965C11.1436 2.94514 11.0795 3.14738 10.9289 3.29968L7.57006 6.6981H18.2434C18.6713 6.6981 19 7.03968 19 7.45775C19 7.83498 18.6851 8.2174 18.2434 8.2174H7.57385Z" fill="#393C3C"/>
</g>
<defs>
<clipPath id="clip0_0_925">
<rect width="20" height="20" fill="white" transform="translate(2 2)"/>
</clipPath>
</defs>
</svg>
