<svg width="24" height="24" viewBox="0 0 24 24" fill="none" xmlns="http://www.w3.org/2000/svg">
<path d="M3.75324 11.2207H18.437L13.5671 6.30535C13.4209 6.15683 13.3543 5.95434 13.3543 5.76157C13.3543 5.56881 13.4209 5.36632 13.5671 5.2178C13.8528 4.9274 14.3622 4.9274 14.648 5.2178L20.7872 11.4562C20.9334 11.6047 21 11.8072 21 12C21 12.1928 20.9334 12.3953 20.7872 12.5438L14.648 18.7822C14.3622 19.0726 13.8528 19.0726 13.5671 18.7822C13.4209 18.6337 13.3543 18.4312 13.3543 18.2384C13.3543 18.0457 13.4209 17.8432 13.5671 17.6947L18.4392 12.7439H3.75324C3.32796 12.7439 3 12.4051 3 11.9823C3 11.6029 3.3203 11.2207 3.75324 11.2207Z" fill="#98A2B3"/>
</svg>
