<svg width="24" height="24" viewBox="0 0 24 24" fill="none" xmlns="http://www.w3.org/2000/svg">
<g clip-path="url(#clip0_0_835)">
<path d="M12.5102 14L10.5702 8.70001C10.53 8.60804 10.4797 8.52083 10.4202 8.44001C10.3513 8.36917 10.2699 8.31156 10.1802 8.27001C10.0961 8.22926 10.0037 8.20871 9.91022 8.21001C9.82006 8.20953 9.73104 8.23007 9.65022 8.27001C9.56089 8.30847 9.48028 8.36462 9.41325 8.43509C9.34622 8.50556 9.29416 8.58887 9.26022 8.68001C9.19047 8.86705 9.19047 9.07297 9.26022 9.26001L10.1602 11.69C10.1658 11.7332 10.1658 11.7769 10.1602 11.82C10.1692 11.8595 10.1692 11.9005 10.1602 11.94C10.144 11.9778 10.1202 12.0118 10.0902 12.04C10.0594 12.0747 10.0165 12.0962 9.97022 12.1H9.85022C9.81378 12.1058 9.77665 12.1058 9.74022 12.1L9.66022 12C9.63083 11.9693 9.61012 11.9313 9.60022 11.89L8.73022 9.49001L8.05022 7.70001C8.01616 7.60809 7.96529 7.52332 7.90022 7.45001C7.83438 7.37313 7.75245 7.31168 7.66022 7.27001C7.57939 7.23007 7.49037 7.20953 7.40022 7.21001C7.30677 7.20871 7.21431 7.22926 7.13022 7.27001C6.95167 7.35051 6.8117 7.49766 6.74022 7.68001C6.67064 7.87052 6.67064 8.0795 6.74022 8.27001V8.34001L7.97022 11.69C7.99544 11.768 7.99544 11.852 7.97022 11.93C7.93938 12.0043 7.88248 12.0647 7.81022 12.1C7.77748 12.1089 7.74295 12.1089 7.71022 12.1C7.65231 12.0954 7.59687 12.0746 7.55022 12.04C7.5028 11.9989 7.46521 11.9476 7.44022 11.89L6.18022 8.47001L5.80022 7.40001C5.76502 7.30341 5.71059 7.21496 5.64022 7.14001C5.57559 7.07595 5.4968 7.02799 5.41022 7.00001C5.32546 6.96116 5.23344 6.94072 5.14022 6.94001C5.05006 6.93953 4.96104 6.96008 4.88022 7.00001C4.79024 7.04008 4.7093 7.09795 4.64227 7.17013C4.57525 7.24231 4.52352 7.32731 4.49022 7.42001C4.42047 7.60705 4.42047 7.81297 4.49022 8.00001L5.07022 9.55001C5.07022 9.55001 5.07022 9.55001 5.07022 9.62001L6.16022 12.51C6.17735 12.5477 6.18621 12.5886 6.18621 12.63C6.18621 12.6714 6.17735 12.7123 6.16022 12.75C6.14426 12.7914 6.11872 12.8283 6.08569 12.8579C6.05266 12.8874 6.01308 12.9087 5.97022 12.92C5.93748 12.9289 5.90295 12.9289 5.87022 12.92C5.81302 12.9124 5.7583 12.8919 5.71022 12.86C5.65992 12.8216 5.62174 12.7695 5.60022 12.71L4.51022 9.71001C4.42513 9.53 4.28022 9.3851 4.10022 9.30001C3.94571 9.24073 3.77472 9.24073 3.62022 9.30001C3.53024 9.34008 3.4493 9.39795 3.38227 9.47013C3.31525 9.54231 3.26352 9.62731 3.23022 9.72001C3.16047 9.90705 3.16047 10.113 3.23022 10.3L5.29022 15.77C5.30509 15.8325 5.30509 15.8975 5.29022 15.96C5.279 16.0248 5.24748 16.0843 5.20022 16.13C5.15304 16.1718 5.09315 16.1965 5.03022 16.2C4.97529 16.2199 4.91514 16.2199 4.86022 16.2L3.09022 15.05C2.94667 14.9436 2.76743 14.897 2.59022 14.92C2.49485 14.9365 2.40333 14.9704 2.32022 15.02C2.24724 15.0806 2.18327 15.1514 2.13022 15.23C2.02112 15.4024 1.97847 15.6085 2.01022 15.81C2.03638 16.0142 2.14025 16.2004 2.30022 16.33C2.30022 16.33 5.23022 18.81 6.22022 19.58C6.77814 19.9779 7.42894 20.2259 8.11022 20.3C8.79269 20.3819 9.48456 20.2747 10.1102 19.99C11.1828 19.5075 12.0281 18.6299 12.4702 17.54C12.9148 16.4044 12.9291 15.1454 12.5102 14Z" fill="black"/>
<path d="M21.9702 13.79C21.9417 13.6917 21.8941 13.6 21.8302 13.52C21.5202 13.06 20.9402 13.24 20.6202 13.37C20.0402 13.63 18.3702 14.37 18.3002 14.37C18.2654 14.3849 18.228 14.3925 18.1902 14.3925C18.1524 14.3925 18.115 14.3849 18.0802 14.37C17.6618 14.1431 17.1762 14.0727 16.7107 14.1717C16.2451 14.2707 15.8301 14.5325 15.5402 14.91H15.4302C15.4128 14.9174 15.3941 14.9213 15.3752 14.9213C15.3563 14.9213 15.3376 14.9174 15.3202 14.91C15.2841 14.9189 15.2463 14.9189 15.2102 14.91L15.1202 14.83C15.1147 14.7935 15.1147 14.7565 15.1202 14.72C15.1153 14.6802 15.1153 14.6399 15.1202 14.6C15.1379 14.5216 15.1758 14.4492 15.2302 14.39C15.5972 13.9782 16.0847 13.6927 16.6233 13.5742C17.162 13.4557 17.7243 13.5102 18.2302 13.73C18.3502 13.68 18.5902 13.57 18.8602 13.47L20.4602 8.89001C20.53 8.70297 20.53 8.49705 20.4602 8.31001C20.3549 8.1203 20.1787 7.98006 19.9702 7.92001C19.8029 7.85523 19.6175 7.85523 19.4502 7.92001C19.2824 7.99903 19.1503 8.13822 19.0802 8.31001L17.9702 11.68C17.9418 11.7382 17.9008 11.7895 17.8502 11.83C17.8021 11.8689 17.7421 11.8901 17.6802 11.89H17.5802C17.5127 11.8516 17.46 11.7917 17.4302 11.72C17.4001 11.6428 17.4001 11.5572 17.4302 11.48L18.5202 8.31001C18.5141 8.2669 18.5141 8.22312 18.5202 8.18001L19.0602 6.65001C19.1307 6.45965 19.1307 6.25037 19.0602 6.06001C18.9685 5.88974 18.8249 5.75314 18.6502 5.67001C18.5599 5.64061 18.4646 5.62988 18.3701 5.63848C18.2755 5.64707 18.1837 5.67481 18.1002 5.72001C17.9272 5.8165 17.7956 5.97304 17.7302 6.16001L17.3702 7.23001L16.0902 10.94C16.0684 11.0022 16.0261 11.0551 15.9702 11.09C15.9212 11.1261 15.861 11.1438 15.8002 11.14H15.7002C15.63 11.1129 15.5703 11.0638 15.5302 11C15.5001 10.9228 15.5001 10.8372 15.5302 10.76L16.7202 7.00001V6.92001C16.7957 6.72368 16.7957 6.50634 16.7202 6.31001C16.6309 6.14025 16.4863 6.00615 16.3102 5.93001C16.2233 5.89287 16.1297 5.87373 16.0352 5.87373C15.9407 5.87373 15.8471 5.89287 15.7602 5.93001C15.672 5.97449 15.5937 6.03642 15.5301 6.11205C15.4665 6.18769 15.4189 6.27544 15.3902 6.37001L14.7802 8.14001C14.7802 8.14001 14.7802 8.14001 14.7802 8.19001L13.9102 10.8C13.8833 10.8785 13.8348 10.9479 13.7702 11C13.7145 11.0144 13.656 11.0144 13.6002 11H13.5002C13.4273 10.9608 13.3706 10.897 13.3402 10.82C13.3151 10.7454 13.3151 10.6646 13.3402 10.59L14.2002 8.00001C14.2754 7.81053 14.2754 7.59949 14.2002 7.41001C14.1077 7.22484 13.9514 7.07927 13.7602 7.00001C13.6733 6.96287 13.5797 6.94373 13.4852 6.94373C13.3907 6.94373 13.2971 6.96287 13.2102 7.00001C13.0372 7.0965 12.9056 7.25304 12.8402 7.44001L11.8402 10.44L12.7202 12.72C13.0275 13.4815 13.2033 14.2897 13.2402 15.11C13.2612 16.1165 13.0775 17.1167 12.7002 18.05C12.7002 18.05 13.5402 18.41 13.7802 18.49C14.4241 18.7602 15.1275 18.8572 15.8205 18.7712C16.5135 18.6852 17.1719 18.4194 17.7302 18C18.7302 17.21 21.6602 14.65 21.7302 14.62C21.8119 14.5606 21.8773 14.4815 21.9202 14.39C21.9683 14.2991 22.002 14.2012 22.0202 14.1C22.0237 13.9944 22.0067 13.8892 21.9702 13.79Z" fill="black"/>
<path d="M8.97022 6.36001C9.05511 6.43389 9.15907 6.4824 9.27022 6.50001H9.37022C9.48314 6.49362 9.59185 6.4549 9.68339 6.38847C9.77493 6.32204 9.84545 6.2307 9.88654 6.12533C9.92764 6.01995 9.93758 5.90499 9.91518 5.79412C9.89279 5.68326 9.83899 5.58117 9.76022 5.50001L8.50022 4.33001C8.39435 4.23047 8.25548 4.1735 8.11022 4.17001C8.02702 4.17102 7.94493 4.18932 7.86919 4.22375C7.79344 4.25818 7.72568 4.30799 7.67022 4.37001C7.61517 4.42317 7.5714 4.48687 7.5415 4.55731C7.5116 4.62775 7.4962 4.70349 7.4962 4.78001C7.4962 4.85653 7.5116 4.93227 7.5415 5.00271C7.5714 5.07315 7.61517 5.13685 7.67022 5.19001L8.97022 6.36001Z" fill="black"/>
<path d="M11.3802 6.57001H11.6202C11.7602 6.53273 11.8823 6.44687 11.9648 6.32777C12.0472 6.20868 12.0846 6.06414 12.0702 5.92001L11.6902 3.50001C11.6686 3.3596 11.597 3.23172 11.4886 3.13986C11.3802 3.04801 11.2423 2.99835 11.1002 3.00001H11.0302C10.8773 3.02471 10.7395 3.10665 10.6448 3.22922C10.5501 3.35179 10.5055 3.50581 10.5202 3.66001L10.9002 6.09001C10.9166 6.21154 10.9725 6.32432 11.0592 6.41103C11.1459 6.49774 11.2587 6.55359 11.3802 6.57001Z" fill="black"/>
<path d="M13.1902 6.15001C13.2518 6.20469 13.3285 6.23954 13.4102 6.25001H13.5102C13.6188 6.25391 13.726 6.22435 13.8172 6.16532C13.9084 6.1063 13.9793 6.02066 14.0202 5.92001L14.8502 4.49001C14.9193 4.36014 14.9391 4.20969 14.9061 4.06635C14.873 3.92302 14.7892 3.79647 14.6702 3.71001C14.5777 3.65077 14.4701 3.61951 14.3602 3.62001C14.2631 3.61962 14.1673 3.64204 14.0804 3.68546C13.9936 3.72888 13.9182 3.7921 13.8602 3.87001L12.9702 5.37001C12.905 5.50441 12.8914 5.65806 12.932 5.80183C12.9725 5.94559 13.0644 6.06948 13.1902 6.15001Z" fill="black"/>
</g>
<defs>
<clipPath id="clip0_0_835">
<rect width="20" height="20" fill="white" transform="translate(2 2)"/>
</clipPath>
</defs>
</svg>
