<svg width="24" height="24" viewBox="0 0 24 24" fill="none" xmlns="http://www.w3.org/2000/svg">
<g clip-path="url(#clip0_0_470)">
<path d="M7.97264 5.80346L9.12741 6.87386C9.16574 6.90228 9.20406 6.93071 9.26711 6.94183C9.35117 6.95665 9.44265 6.92944 9.4995 6.85279C9.6058 6.74152 9.58971 6.58699 9.47844 6.4807L8.32367 5.4103C8.2124 5.304 8.05788 5.3201 7.95158 5.43137C7.84528 5.54264 7.86137 5.69717 7.97264 5.80346Z" fill="#98A2B3"/>
<path d="M11.0006 6.79239C11.0241 6.90488 11.0971 6.98276 11.2232 7.00499C11.2442 7.0087 11.2862 7.01611 11.311 6.9988C11.4445 6.979 11.5384 6.69219 11.5384 6.69219L11.1907 4.48561C11.1709 4.3521 11.0386 4.2421 10.8841 4.25819C10.7506 4.27799 10.6406 4.41028 10.6567 4.5648L11.0006 6.79239Z" fill="#98A2B3"/>
<path d="M13.0157 6.67082C13.033 6.69554 13.075 6.70295 13.096 6.70666C13.2011 6.72519 13.3173 6.68067 13.3568 6.57929L14.1379 5.22183C14.2022 5.10314 14.1651 4.94492 14.0501 4.85963C13.9314 4.79537 13.7732 4.83248 13.6879 4.94745L12.9068 6.30492C12.8389 6.44462 12.897 6.60655 13.0157 6.67082Z" fill="#98A2B3"/>
<path fill-rule="evenodd" clip-rule="evenodd" d="M17.1564 17.5207C17.6078 17.1794 18.5048 16.4542 19.2955 15.8082C19.69 15.486 20.0567 15.1845 20.3262 14.9623C20.4609 14.8512 20.5712 14.7599 20.6485 14.6958L20.7382 14.6212L20.7617 14.6015L20.7675 14.5958L20.7807 14.5857C20.9583 14.4491 21.0021 14.1886 20.8466 13.9908L20.8402 13.9826C20.7589 13.8701 20.6459 13.8281 20.4956 13.8301C20.3378 13.8323 20.1681 13.8845 20.0312 13.937C19.4951 14.1602 17.9583 14.7619 17.8815 14.7874C17.7622 14.8272 17.6385 14.8272 17.5191 14.7874L17.5104 14.7845L17.5019 14.781C16.9561 14.5544 16.5859 14.5605 16.2943 14.6547C15.9869 14.754 15.735 14.9587 15.4265 15.2101L15.4247 15.2116C15.1996 15.3917 14.8609 15.3455 14.6861 15.127C14.506 14.9019 14.5521 14.5632 14.7706 14.3885L14.7724 14.3871C14.7854 14.3769 14.7985 14.3665 14.8117 14.3561C15.1098 14.1215 15.4769 13.8325 15.9467 13.673C16.4287 13.5093 17.0002 13.4862 17.7076 13.7358C17.8061 13.6967 17.941 13.6438 18.0902 13.5882L19.522 9.70483C19.5514 9.63621 19.5492 9.51914 19.5057 9.40887C19.4476 9.31342 19.3634 9.24318 19.2614 9.19842C19.1956 9.17467 19.1036 9.17768 19.0037 9.22392C18.9067 9.26886 18.821 9.34677 18.77 9.44169L17.7272 12.326C17.6406 12.5424 17.4294 12.6651 17.2221 12.6651C17.1992 12.6651 17.18 12.6623 17.1675 12.6601C17.1543 12.6577 17.1429 12.6549 17.1344 12.6526C17.1224 12.6493 17.1105 12.6454 17.1026 12.6428H17.0726L17.0184 12.6158C16.7779 12.4955 16.6468 12.2113 16.7341 11.9494L16.7363 11.943L17.7987 9.01568H17.809L18.2985 7.68051C18.3279 7.61188 18.3258 7.49482 18.2822 7.38455C18.2251 7.2908 18.1429 7.22135 18.0433 7.1765C17.8479 7.11722 17.6155 7.22051 17.5295 7.44734L17.197 8.3783L17.1966 8.37954L16.0367 11.6809C15.9501 11.8973 15.7388 12.02 15.5314 12.02C15.5085 12.02 15.4894 12.0172 15.4768 12.015C15.4637 12.0126 15.4523 12.0098 15.4438 12.0074C15.4317 12.0042 15.4199 12.0003 15.412 11.9977H15.3898L15.3414 11.977C15.0735 11.8622 14.9311 11.5747 15.0212 11.3043L15.0221 11.3018L16.1335 8.07875L16.1343 8.07624L16.1587 8.003C16.1961 7.9035 16.1882 7.77921 16.1466 7.67371C16.0895 7.57997 16.0074 7.51054 15.9078 7.46568C15.7122 7.40637 15.4796 7.50985 15.3938 7.73704L14.8188 9.32408L14.8094 9.3334L14.0123 11.5919C13.9258 11.8084 13.7145 11.931 13.5071 11.931C13.4842 11.931 13.4651 11.9282 13.4525 11.926C13.4394 11.9236 13.4279 11.9208 13.4195 11.9185C13.4074 11.9152 13.3956 11.9113 13.3877 11.9087H13.3576L13.3035 11.8817C13.063 11.7614 12.9319 11.4773 13.0192 11.2153L13.0206 11.211L13.8243 8.93412L13.8276 8.92639C13.857 8.85776 13.8545 8.74055 13.8109 8.63028C13.7538 8.53653 13.6716 8.46708 13.572 8.42223C13.3768 8.36301 13.1447 8.46604 13.0585 8.69243L12.1788 11.2027L13.3264 14.1474C13.7421 15.3253 13.7026 16.5951 13.2302 17.7313C13.4054 17.8291 13.587 17.9117 13.7662 17.9714L13.7713 17.9731C14.9429 18.3915 16.2302 18.2205 17.1564 17.5207ZM19.6263 8.1869C19.9986 8.32118 20.2955 8.59009 20.458 8.94219C20.6183 9.28964 20.6459 9.69281 20.5111 10.0702L20.5105 10.0718L19.4214 13.0575C19.5042 13.0239 19.5786 12.9946 19.6425 12.9706C20.4214 12.6554 21.2252 12.7555 21.6955 13.3635C22.1801 13.9833 22.0762 14.92 21.4555 15.4099C21.2622 15.5747 18.7319 17.6864 17.797 18.3765C16.9963 18.9652 16.0529 19.2719 15.0643 19.2719C14.5019 19.2719 13.9395 19.1782 13.4006 18.9907L13.3986 18.99C13.1549 18.903 12.92 18.8014 12.6959 18.6748C12.1811 19.4177 11.4593 19.9776 10.6236 20.3205L10.6215 20.3213C10.0362 20.5555 9.42554 20.6733 8.83563 20.6733C7.93764 20.6733 7.04037 20.3901 6.307 19.8697C5.83428 19.532 4.95051 18.8495 4.16394 18.2297C3.76986 17.9192 3.39842 17.623 3.11266 17.3917C2.85059 17.1796 2.64625 17.0106 2.57145 16.9397C1.96832 16.4585 1.80567 15.5585 2.26219 14.9106C2.48127 14.5839 2.83387 14.3676 3.21441 14.3128C3.57846 14.2572 3.95107 14.3698 4.25698 14.5723L4.55902 14.7549L3.25826 11.4572C2.96243 10.7042 3.33632 9.84412 4.0674 9.54627L4.06891 9.54565C4.19514 9.49516 4.32024 9.46804 4.44288 9.4581L4.41488 9.38809C4.11905 8.63507 4.49307 7.77532 5.22415 7.47747L5.22883 7.47556C5.5777 7.34138 5.9614 7.33971 6.31815 7.50436C6.54995 7.61134 6.74659 7.76715 6.8989 7.96258C7.01282 7.86526 7.14449 7.78155 7.29447 7.72155L7.29764 7.72028C7.64651 7.5861 8.0302 7.58441 8.38695 7.74906C8.73001 7.9074 9.02633 8.19915 9.16408 8.57966L9.25946 8.81378C9.36216 8.73292 9.47821 8.66326 9.60796 8.61136L9.61114 8.61009C9.96001 8.47591 10.3437 8.47421 10.7004 8.63887C11.0439 8.79739 11.3405 9.08967 11.4781 9.47085L11.5592 9.67648L12.0438 8.31357C12.334 7.54856 13.1597 7.13646 13.9209 7.40454C14.0539 7.44528 14.178 7.50976 14.2888 7.589L14.3806 7.33194C14.673 6.58774 15.502 6.17846 16.2628 6.45018L16.2718 6.45341C16.4159 6.51104 16.5519 6.59188 16.672 6.68807C17.0395 6.17828 17.7237 5.93595 18.3538 6.16099C18.7283 6.29472 19.0268 6.56438 19.19 6.91788C19.3503 7.26512 19.3779 7.66801 19.2434 8.04517L19.2236 8.10182C19.3587 8.10779 19.4948 8.13493 19.6263 8.1869ZM3.19964 15.5745C3.06995 15.7784 3.11854 16.0499 3.2972 16.1873L3.3104 16.1975L3.31436 16.2014L3.33648 16.2195L3.42535 16.2911C3.50197 16.3527 3.61141 16.4404 3.74509 16.5472C4.01244 16.7607 4.37638 17.0503 4.76809 17.3601C5.55176 17.9798 6.44131 18.6759 6.89349 19.0069C7.84137 19.6651 9.06123 19.7925 10.2086 19.3335C12.0747 18.5871 12.9988 16.4672 12.3099 14.4992L10.5309 9.87376C10.4888 9.76158 10.4058 9.68055 10.314 9.64124C10.2228 9.60214 10.1179 9.60214 10.0266 9.64124L10.0209 9.6437C9.82848 9.72067 9.72128 9.94503 9.80929 10.1817L10.6363 12.3052C10.6805 12.4378 10.6669 12.5798 10.6184 12.6964C10.5697 12.813 10.4723 12.9342 10.3182 12.9856C10.1856 13.0298 10.0437 13.0165 9.92713 12.9679C9.81196 12.9199 9.69237 12.8243 9.63991 12.6736L8.8568 10.607C8.8487 10.596 8.83972 10.5821 8.83152 10.5657C8.81772 10.5382 8.81033 10.512 8.80636 10.4897L8.21733 9.00621C8.17527 8.89403 8.09226 8.81298 8.00053 8.77367C7.90932 8.73458 7.80437 8.73458 7.71315 8.77367L7.7074 8.77614C7.5146 8.85326 7.40736 9.07834 7.49631 9.31553L7.49964 9.32442L7.51998 9.386L8.6342 12.3053C8.67839 12.4378 8.66486 12.5798 8.61629 12.6964C8.57225 12.8021 8.48808 12.9115 8.35804 12.9693C8.30694 13.0003 8.2576 13.0106 8.23268 13.0147C8.19444 13.0211 8.15954 13.021 8.14777 13.021L8.14603 13.021C7.94927 13.021 7.74559 12.8877 7.66326 12.6818L7.66204 12.6788L6.50531 9.67568L6.14857 8.73925C6.10651 8.62707 6.02346 8.54604 5.93173 8.50673C5.84052 8.46764 5.73556 8.46764 5.64435 8.50673L5.6386 8.50919C5.44611 8.58619 5.3389 8.81068 5.42708 9.04745L5.97771 10.4699V10.4715C5.97852 10.4735 5.97934 10.4757 5.98016 10.4778C5.98641 10.4945 5.99489 10.5209 5.99837 10.5542L6.96593 13.0171C7.01011 13.1496 6.99647 13.2916 6.9479 13.4082C6.90386 13.5139 6.81969 13.6233 6.68966 13.6812C6.63855 13.7122 6.5892 13.7224 6.56428 13.7266C6.52604 13.7329 6.49115 13.7329 6.47938 13.7328L6.47764 13.7328C6.28088 13.7328 6.0772 13.5995 5.99487 13.3937L5.99388 13.3912L5.00031 10.83C4.93316 10.7189 4.84218 10.6361 4.75274 10.5978C4.65926 10.5577 4.57106 10.5579 4.49701 10.5808C4.30923 10.6603 4.20576 10.8818 4.29222 11.1153L6.18183 15.8727M3.30754 16.1958L3.30876 16.1968L3.30754 16.1958ZM3.19964 15.5745C3.25294 15.4957 3.34551 15.4332 3.43961 15.4215C3.51341 15.4123 3.57958 15.4206 3.64079 15.4438V15.4457L3.98661 15.6532L5.42445 16.5159C5.63408 16.6627 5.88986 16.5902 6.03087 16.4844L6.18183 15.8727M7.79553 5.98887C7.69975 5.89738 7.63443 5.77458 7.62475 5.63733C7.61485 5.497 7.66483 5.36034 7.76617 5.25425C7.85767 5.15848 7.98046 5.09316 8.11771 5.08348C8.25733 5.07362 8.39334 5.12306 8.49919 5.22338L9.65557 6.29527C9.75135 6.38676 9.81665 6.50958 9.82633 6.64683C9.83588 6.78216 9.78973 6.91408 9.69555 7.01845C9.57244 7.17373 9.3839 7.22279 9.22258 7.19434C9.09946 7.17263 9.02023 7.11369 8.97883 7.0829L8.96339 7.07144L7.79553 5.98887ZM9.4995 6.85279C9.6058 6.74152 9.58971 6.58699 9.47844 6.4807L8.32367 5.4103C8.2124 5.304 8.05788 5.3201 7.95158 5.43137C7.84528 5.54264 7.86137 5.69717 7.97264 5.80346L9.12741 6.87386C9.16574 6.90228 9.20406 6.93071 9.26711 6.94183C9.35117 6.95665 9.44265 6.92944 9.4995 6.85279ZM10.7472 6.83152L10.4013 4.59139C10.3712 4.30244 10.5751 4.0448 10.8465 4.00455L10.8575 4.00292C11.146 3.97288 11.4032 4.17591 11.4441 4.44662L11.4443 4.448L11.8013 6.71328L11.7821 6.77197L11.5384 6.69219L11.1907 4.48561C11.1709 4.3521 11.0386 4.2421 10.8841 4.25819C10.7506 4.27799 10.6406 4.41028 10.6567 4.5648L11.0006 6.79239C11.0241 6.90488 11.0971 6.98276 11.2232 7.00499C11.2442 7.0087 11.2862 7.01611 11.311 6.9988C11.4445 6.979 11.5384 6.69219 11.5384 6.69219C11.7821 6.77197 11.7821 6.77197 11.7821 6.77197L11.7817 6.77295L11.7813 6.77436L11.7799 6.77842L11.7754 6.79117C11.7717 6.80156 11.7664 6.81577 11.7596 6.83262C11.7464 6.86574 11.7264 6.91179 11.7002 6.96016C11.6749 7.0069 11.6387 7.06534 11.5906 7.1171C11.5523 7.15836 11.4881 7.21504 11.3978 7.24159C11.3407 7.26487 11.2887 7.26641 11.2633 7.26617C11.2252 7.26581 11.1915 7.25979 11.1803 7.2578L11.1787 7.2575C11.0723 7.23874 10.9728 7.1932 10.8937 7.11539C10.8149 7.03796 10.77 6.94212 10.7496 6.84483L10.7472 6.83152ZM14.1379 5.22183L13.3568 6.57929C13.3173 6.68067 13.2011 6.72519 13.096 6.70666C13.075 6.70295 13.033 6.69554 13.0157 6.67082C12.897 6.60655 12.8389 6.44462 12.9068 6.30492L13.6879 4.94745C13.7732 4.83248 13.9314 4.79537 14.0501 4.85963C14.1651 4.94492 14.2022 5.10314 14.1379 5.22183ZM12.8563 6.87399C12.642 6.7327 12.5559 6.4401 12.6763 6.19273L12.6801 6.18474L13.4731 4.80667L13.482 4.7947C13.6385 4.58364 13.9344 4.50542 14.1722 4.63416L14.1882 4.64284L14.2029 4.65369C14.4139 4.81024 14.4921 5.10616 14.3634 5.34392L14.3602 5.34975L13.5869 6.69356C13.4839 6.9247 13.2329 6.99116 13.0515 6.95917L13.0498 6.95888C13.0387 6.95694 13.0049 6.95107 12.969 6.93838C12.9459 6.93022 12.9004 6.91215 12.8563 6.87399Z" fill="#98A2B3"/>
</g>
<defs>
<clipPath id="clip0_0_470">
<rect width="20" height="20" fill="white" transform="translate(2 2)"/>
</clipPath>
</defs>
</svg>
