<svg width="24" height="24" viewBox="0 0 24 24" fill="none" xmlns="http://www.w3.org/2000/svg">
<g clip-path="url(#clip0_0_748)">
<path d="M20.2313 8.07563C19.7865 8.07563 19.309 8.27065 18.9184 8.64987C18.5386 9.03993 18.3542 9.51666 18.3542 9.95005C18.3542 10.2968 18.4627 10.6218 18.7014 10.8493C19.2222 11.3694 20.2096 11.3261 20.9041 10.6326C21.2839 10.2426 21.4792 9.76586 21.4792 9.32163C21.4792 8.98575 21.3598 8.66071 21.1211 8.43318C20.8932 8.19481 20.5677 8.07563 20.2313 8.07563ZM20.2313 7.55556C20.6871 7.55556 21.1536 7.71808 21.49 8.06479C21.8372 8.41151 22 8.86657 22 9.33247C22 9.91755 21.7396 10.5243 21.273 11.001C20.6654 11.6078 19.7865 11.8678 19.0486 11.6403C18.7556 11.5536 18.4084 11.5644 18.1806 11.7486C18.2999 11.8895 18.2891 12.0953 18.1589 12.2254L17 13.3831C16.8698 13.5239 16.6528 13.5239 16.5117 13.3831L16.1645 13.0364C16.0343 12.9063 16.0343 12.6788 16.1645 12.5488L17.3234 11.3911C17.4536 11.2611 17.6597 11.2502 17.8008 11.3802C17.9961 11.1419 17.9961 10.7952 17.9093 10.5026C17.855 10.3293 17.8333 10.1451 17.8333 9.95005C17.8333 9.36497 18.0829 8.75822 18.5603 8.28149C19.0269 7.81559 19.6346 7.55556 20.2313 7.55556Z" fill="#393C3C"/>
<path d="M6.92188 14.3828C7.19531 14.8516 7.58594 15.2031 8.05469 15.4766L8.40625 15.7109L7.89844 16.9609C7.46875 17.7813 6.80469 18.2109 5.86719 18.25H2.9375C2.35156 18.2109 2.03906 17.8984 2 17.3125C2.03906 16.7656 2.35156 16.4531 2.9375 16.375H5.86719C5.98438 16.375 6.0625 16.3359 6.14062 16.1797L6.92188 14.3828ZM12.625 5.75C12.0781 5.75 11.6484 5.55469 11.2969 5.20313C10.9453 4.85156 10.75 4.42188 10.75 3.875C10.75 3.36719 10.9453 2.9375 11.2969 2.54688C11.6484 2.23438 12.0781 2.03906 12.625 2C13.1328 2.03906 13.5625 2.23438 13.9531 2.54688C14.2656 2.9375 14.4609 3.36719 14.5 3.875C14.4609 4.42188 14.2656 4.85156 13.9531 5.20313C13.5625 5.55469 13.1328 5.75 12.625 5.75ZM17.3125 11.4141C17.8594 11.4922 18.1719 11.8047 18.25 12.3516C18.1719 12.9375 17.8594 13.25 17.3125 13.2891L15.4375 13.25C14.9297 13.25 14.5 13.1328 14.1094 12.8203C13.7188 12.5859 13.4844 12.1953 13.3281 11.7266L12.7813 9.92969C12.7031 9.77344 12.625 9.61719 12.5469 9.46094L10.9062 13.5625L12.9375 14.7734C13.6016 15.2422 13.9531 15.8672 13.9922 16.6484C13.9922 16.8438 13.9531 17.0391 13.875 17.2344L12.5859 21.3359C12.4297 21.7656 12.1172 22 11.6875 22C11.3359 22 11.1016 21.8828 10.9453 21.6484C10.7891 21.4531 10.75 21.2578 10.75 21.0625C10.75 20.9844 10.75 20.9062 10.7891 20.7891L12.0781 16.7266C12.0781 16.7266 12.1172 16.6875 12.1172 16.6484C12.1172 16.5313 12.0391 16.4531 11.9609 16.375L8.67969 14.3828C7.97656 13.9531 7.625 13.3281 7.625 12.5078C7.625 12.2734 7.66406 12 7.78125 11.6875L9.14844 8.28906L8.5625 8.17188C8.44531 8.17188 8.32813 8.13281 8.25 8.13281C7.85938 8.13281 7.54688 8.25 7.27344 8.44531L5.39844 9.89063C5.20313 10.0469 5.00781 10.0859 4.8125 10.0859C4.22656 10.0469 3.91406 9.73438 3.875 9.14844C3.875 8.875 3.99219 8.64063 4.22656 8.44531L6.14062 6.96094C6.76562 6.49219 7.46875 6.25781 8.25 6.25781C8.48438 6.25781 8.71875 6.29688 8.99219 6.33594L12.0391 7.03906C12.6641 7.19531 13.1719 7.46875 13.6406 7.85938C14.0703 8.28906 14.3828 8.79688 14.5781 9.38281L15.125 11.1797C15.1641 11.3359 15.2813 11.375 15.4375 11.375L17.3125 11.4141Z" fill="#393C3C"/>
</g>
<defs>
<clipPath id="clip0_0_748">
<rect width="20" height="20" fill="white" transform="translate(2 2)"/>
</clipPath>
</defs>
</svg>
