<svg width="24" height="24" viewBox="0 0 24 24" fill="none" xmlns="http://www.w3.org/2000/svg">
<path d="M5.25 8.25C5.25 8.90625 5.5625 9.46875 6.125 9.78125C6.65625 10.0938 7.3125 10.0938 7.875 9.78125C8.40625 9.46875 8.75 8.90625 8.75 8.25C8.75 7.625 8.40625 7.0625 7.875 6.75C7.3125 6.4375 6.65625 6.4375 6.125 6.75C5.5625 7.0625 5.25 7.625 5.25 8.25ZM10.25 8.25C10.25 9.4375 9.625 10.5 8.625 11.0938C7.59375 11.6562 6.375 11.6562 5.375 11.0938C4.34375 10.5 3.75 9.4375 3.75 8.25C3.75 7.09375 4.34375 6.03125 5.375 5.4375C6.375 4.875 7.59375 4.875 8.625 5.4375C9.625 6.03125 10.25 7.09375 10.25 8.25ZM17 11C15.9062 11 14.9375 10.4375 14.375 9.5C13.8438 8.59375 13.8438 7.4375 14.375 6.5C14.9375 5.59375 15.9062 5 17 5C18.0625 5 19.0312 5.59375 19.5938 6.5C20.125 7.4375 20.125 8.59375 19.5938 9.5C19.0312 10.4375 18.0625 11 17 11ZM6 14.5C4.59375 14.5 3.5 15.625 3.5 17V17.5H10.5V17C10.5 15.625 9.375 14.5 8 14.5H6ZM6 13H8C10.1875 13 12 14.8125 12 17V17.5C12 18.3438 11.3125 19 10.5 19H3.5C2.65625 19 2 18.3438 2 17.5V17C2 14.8125 3.78125 13 6 13ZM16 19C14.7812 19 13.7188 18.5 12.9688 17.6562C13 17.5938 13 17.5625 13 17.5V17C13 15.9375 12.625 14.9062 12.0312 14.0938C12.2188 13.4688 12.8125 13 13.5 13H20.5C21.3125 13 22 13.6875 22 14.5V15C22 17.2188 20.1875 19 18 19H16Z" fill="#98A2B3"/>
</svg>
