<svg width="24" height="24" viewBox="0 0 24 24" fill="none" xmlns="http://www.w3.org/2000/svg">
<path d="M12.0176 4C12.5103 4 12.9677 4.28152 13.2141 4.70381L20.8152 17.654C21.0616 18.1114 21.0616 18.6393 20.8152 19.0616C20.5689 19.5191 20.1114 19.7654 19.6188 19.7654H4.41642C3.88856 19.7654 3.43109 19.5191 3.18475 19.0616C2.93842 18.6393 2.93842 18.1114 3.18475 17.654L10.7859 4.70381C11.0323 4.28152 11.4897 4 12.0176 4ZM12.0176 8.5044C11.5249 8.5044 11.173 8.8915 11.173 9.34897V13.2903C11.173 13.783 11.5249 14.1349 12.0176 14.1349C12.4751 14.1349 12.8622 13.783 12.8622 13.2903V9.34897C12.8622 8.8915 12.4751 8.5044 12.0176 8.5044ZM13.1437 16.3871C13.1437 15.7889 12.6158 15.261 12.0176 15.261C11.3842 15.261 10.8915 15.7889 10.8915 16.3871C10.8915 17.0205 11.3842 17.5132 12.0176 17.5132C12.6158 17.5132 13.1437 17.0205 13.1437 16.3871Z" fill="#393C3C"/>
</svg>
