<svg width="24" height="24" viewBox="0 0 24 24" fill="none" xmlns="http://www.w3.org/2000/svg">
<path d="M11.9925 14.2887C12.093 14.2926 12.1933 14.2764 12.2874 14.2409C12.3815 14.2054 12.4676 14.1515 12.5405 14.0822C12.6135 14.0129 12.6718 13.9297 12.712 13.8375C12.7523 13.7453 12.7737 13.646 12.7749 13.5454V9.14435C12.7648 8.94369 12.678 8.75459 12.5323 8.61622C12.3867 8.47785 12.1934 8.4008 11.9925 8.40106C11.7969 8.40601 11.6107 8.48591 11.4724 8.62425C11.334 8.76258 11.2541 8.94877 11.2492 9.14435V13.5454C11.2479 13.6434 11.2662 13.7406 11.3031 13.8314C11.34 13.9222 11.3947 14.0046 11.464 14.0739C11.5332 14.1432 11.6157 14.1979 11.7065 14.2348C11.7973 14.2717 11.8945 14.29 11.9925 14.2887Z" fill="#98A2B3"/>
<path d="M11.9925 15.2765C11.8598 15.2763 11.7285 15.3031 11.6066 15.3553C11.4846 15.4075 11.3745 15.4839 11.283 15.58C11.1915 15.6761 11.1206 15.7897 11.0744 15.9141C11.0282 16.0385 11.0078 16.1709 11.0145 16.3034C11.0145 16.5628 11.1175 16.8115 11.3009 16.995C11.4843 17.1784 11.7331 17.2814 11.9925 17.2814C12.2519 17.2814 12.5006 17.1784 12.684 16.995C12.8674 16.8115 12.9705 16.5628 12.9705 16.3034C12.9708 16.0393 12.8693 15.7853 12.6872 15.594C12.5051 15.4028 12.2563 15.2891 11.9925 15.2765Z" fill="#98A2B3"/>
<path d="M20.7261 16.9195L13.8116 5.05625C13.622 4.7411 13.3558 4.47899 13.0378 4.29432C12.7197 4.10965 12.3602 4.0084 11.9925 4C11.6189 4.00547 11.2527 4.10514 10.9279 4.28978C10.6031 4.47442 10.3301 4.73805 10.1342 5.05625L3.22948 16.9195C3.07098 17.2172 2.99213 17.5508 3.00058 17.8879C3.00903 18.225 3.1045 18.5542 3.27771 18.8436C3.45092 19.1329 3.696 19.3726 3.98915 19.5392C4.28229 19.7059 4.61356 19.794 4.95078 19.7949H19.0439C19.5627 19.7949 20.0602 19.5888 20.4271 19.222C20.7939 18.8552 21 18.3576 21 17.8389C20.9825 17.5151 20.8887 17.2001 20.7261 16.9195ZM19.0439 18.3377H4.95078C4.83403 18.3302 4.72451 18.2785 4.64456 18.1931C4.5646 18.1077 4.52022 17.995 4.52046 17.878C4.50143 17.8142 4.50143 17.7462 4.52046 17.6824L11.435 5.80932C11.493 5.71271 11.5745 5.63241 11.6721 5.57595C11.7696 5.5195 11.8798 5.48875 11.9925 5.48658C12.0988 5.49342 12.2018 5.52647 12.2922 5.58278C12.3827 5.6391 12.4578 5.71693 12.5108 5.80932L15.9681 11.7507L19.4254 17.6922C19.4692 17.7525 19.4962 17.8234 19.5036 17.8976C19.4921 18.0137 19.4395 18.1219 19.3552 18.2026C19.2709 18.2833 19.1605 18.3312 19.0439 18.3377Z" fill="#98A2B3"/>
</svg>
