<svg width="24" height="24" viewBox="0 0 24 24" fill="none" xmlns="http://www.w3.org/2000/svg">
<path d="M15.2695 4.68503C13.8281 4.68503 12.2812 5.31692 11.0156 6.54559C9.78516 7.80936 9.1875 9.35397 9.1875 10.7582C9.1875 11.8815 9.53906 12.9347 10.3125 13.6719C12 15.3569 15.1992 15.2165 17.4492 12.9698C18.6797 11.706 19.3125 10.1614 19.3125 8.72209C19.3125 7.63384 18.9258 6.58069 18.1523 5.84349C17.4141 5.07118 16.3594 4.68503 15.2695 4.68503ZM15.2695 3C16.7461 3 18.2578 3.52657 19.3477 4.64993C20.4727 5.77328 21 7.24768 21 8.75719C21 10.6529 20.1563 12.6187 18.6445 14.1633C16.6758 16.1292 13.8281 16.9717 11.4375 16.2345C10.4883 15.9537 9.36328 15.9888 8.625 16.5856C9.01172 17.0419 8.97656 17.7089 8.55469 18.1302L6.02344 20.6577C5.60156 21.1141 4.89844 21.1141 4.44141 20.6577L3.31641 19.5344C2.89453 19.1131 2.89453 18.3759 3.31641 17.9547L5.84766 15.4271C6.26953 15.0059 6.9375 14.9707 7.39453 15.392C8.02734 14.6197 8.02734 13.4963 7.74609 12.5485C7.57031 11.9868 7.5 11.3901 7.5 10.7582C7.5 8.86251 8.30859 6.89664 9.85547 5.35202C11.3672 3.84252 13.3359 3 15.2695 3Z" fill="#393C3C"/>
</svg>
