<svg width="24" height="24" viewBox="0 0 24 24" fill="none" xmlns="http://www.w3.org/2000/svg">
<path fill-rule="evenodd" clip-rule="evenodd" d="M10.2936 14.1328L10.2948 14.1341C12.1621 16.0347 15.5828 15.7678 17.9209 13.4297C19.2227 12.1279 19.9014 10.49 19.9014 8.93047C19.9014 7.74821 19.4623 6.60713 18.6269 5.80522L18.621 5.79956C17.8191 4.96423 16.6782 4.525 15.4959 4.525C13.9363 4.525 12.2985 5.20368 10.9967 6.50548C9.69645 7.80573 9.05137 9.44306 9.05137 10.9695C9.05137 12.1894 9.45702 13.2962 10.2936 14.1328ZM8.11857 15.2166C8.44991 14.9129 8.47193 14.3561 8.22069 13.9164L8.21675 13.9095C7.74339 12.9992 7.52637 12.0177 7.52637 10.9695C7.52637 9.01458 8.35856 6.9959 9.94041 5.41405C11.4863 3.86819 13.5047 3 15.4959 3C17.02 3 18.5492 3.54467 19.7154 4.71092C20.8834 5.87884 21.3908 7.40859 21.3912 8.92872C21.4269 10.922 20.5575 12.9408 19.0123 14.486C16.6801 16.8182 13.1411 17.6305 10.5145 16.2082C10.0509 15.9612 9.51691 16.0003 9.16844 16.3145L8.90363 16.6034L8.92821 16.6341C9.4585 17.1359 9.45569 17.9985 8.91978 18.4965L6.39393 21.0223C5.89335 21.5611 5.02423 21.5611 4.52365 21.0223L3.40405 19.9027C2.86532 19.4021 2.86532 18.533 3.40405 18.0324L5.92989 15.5066C6.42784 14.9707 7.2905 14.9679 7.79227 15.4982L7.81699 15.5179L8.11857 15.2166ZM4.63421 18.95L5.47637 19.7922L7.72477 17.5437L6.88262 16.7016L4.63421 18.95Z" fill="#98A2B3"/>
</svg>
