<svg width="24" height="24" viewBox="0 0 24 24" fill="none" xmlns="http://www.w3.org/2000/svg">
<path d="M15.6537 11.6232C15.8577 11.8198 15.8577 12.1801 15.6537 12.3767L9.12807 18.6662C8.92414 18.8627 8.55027 18.8627 8.34635 18.6662C8.14242 18.4696 8.14242 18.1093 8.34635 17.9128L14.4982 12.0163L8.34635 6.08715C8.14242 5.89061 8.14242 5.53027 8.34635 5.33372C8.55027 5.13717 8.92414 5.13717 9.12807 5.33372L15.6537 11.6232Z" fill="#98A2B3"/>
<path fill-rule="evenodd" clip-rule="evenodd" d="M8.20996 17.7807L14.2243 12.016L8.20958 6.21897C7.93014 5.94965 7.93014 5.47132 8.20958 5.20199C8.48901 4.93267 8.98531 4.93267 9.26474 5.20199L15.7904 11.4915C16.0699 11.7608 16.0699 12.2392 15.7904 12.5085L9.26474 18.798C8.98531 19.0673 8.48901 19.0673 8.20958 18.798C7.93014 18.5287 7.93052 18.05 8.20996 17.7807ZM8.34635 6.08715C8.14242 5.89061 8.14242 5.53027 8.34635 5.33372C8.55027 5.13717 8.92414 5.13717 9.12807 5.33372L15.6537 11.6232C15.8577 11.8198 15.8577 12.1801 15.6537 12.3767L9.12807 18.6662C8.92414 18.8627 8.55027 18.8627 8.34635 18.6662C8.14242 18.4696 8.14242 18.1093 8.34635 17.9128L14.4982 12.0163L8.34635 6.08715Z" fill="#98A2B3"/>
</svg>
