<svg width="24" height="24" viewBox="0 0 24 24" fill="none" xmlns="http://www.w3.org/2000/svg">
<path d="M3 6.78571C3 5.53571 3.98438 4.5 5.25 4.5H18.75C19.9805 4.5 21 5.53571 21 6.78571V18.2143C21 19.5 19.9805 20.5 18.75 20.5H5.25C3.98438 20.5 3 19.5 3 18.2143V6.78571ZM4.6875 16.5V17.6429C4.6875 17.9643 4.93359 18.2143 5.25 18.2143H6.375C6.65625 18.2143 6.9375 17.9643 6.9375 17.6429V16.5C6.9375 16.2143 6.65625 15.9286 6.375 15.9286H5.25C4.93359 15.9286 4.6875 16.2143 4.6875 16.5ZM17.625 15.9286C17.3086 15.9286 17.0625 16.2143 17.0625 16.5V17.6429C17.0625 17.9643 17.3086 18.2143 17.625 18.2143H18.75C19.0312 18.2143 19.3125 17.9643 19.3125 17.6429V16.5C19.3125 16.2143 19.0312 15.9286 18.75 15.9286H17.625ZM4.6875 11.9286V13.0714C4.6875 13.3929 4.93359 13.6429 5.25 13.6429H6.375C6.65625 13.6429 6.9375 13.3929 6.9375 13.0714V11.9286C6.9375 11.6429 6.65625 11.3571 6.375 11.3571H5.25C4.93359 11.3571 4.6875 11.6429 4.6875 11.9286ZM17.625 11.3571C17.3086 11.3571 17.0625 11.6429 17.0625 11.9286V13.0714C17.0625 13.3929 17.3086 13.6429 17.625 13.6429H18.75C19.0312 13.6429 19.3125 13.3929 19.3125 13.0714V11.9286C19.3125 11.6429 19.0312 11.3571 18.75 11.3571H17.625ZM4.6875 7.35714V8.5C4.6875 8.82143 4.93359 9.07143 5.25 9.07143H6.375C6.65625 9.07143 6.9375 8.82143 6.9375 8.5V7.35714C6.9375 7.07143 6.65625 6.78571 6.375 6.78571H5.25C4.93359 6.78571 4.6875 7.07143 4.6875 7.35714ZM17.625 6.78571C17.3086 6.78571 17.0625 7.07143 17.0625 7.35714V8.5C17.0625 8.82143 17.3086 9.07143 17.625 9.07143H18.75C19.0312 9.07143 19.3125 8.82143 19.3125 8.5V7.35714C19.3125 7.07143 19.0312 6.78571 18.75 6.78571H17.625ZM8.625 7.92857V10.2143C8.625 10.8571 9.11719 11.3571 9.75 11.3571H14.25C14.8477 11.3571 15.375 10.8571 15.375 10.2143V7.92857C15.375 7.32143 14.8477 6.78571 14.25 6.78571H9.75C9.11719 6.78571 8.625 7.32143 8.625 7.92857ZM9.75 13.6429C9.11719 13.6429 8.625 14.1786 8.625 14.7857V17.0714C8.625 17.7143 9.11719 18.2143 9.75 18.2143H14.25C14.8477 18.2143 15.375 17.7143 15.375 17.0714V14.7857C15.375 14.1786 14.8477 13.6429 14.25 13.6429H9.75Z" fill="#393C3C"/>
</svg>
