<svg width="24" height="24" viewBox="0 0 24 24" fill="none" xmlns="http://www.w3.org/2000/svg">
<path d="M18.75 4C19.3828 4.03571 19.9102 4.25 20.332 4.67857C20.7539 5.10714 20.9648 5.64286 21 6.28571V17.7143C20.9648 18.3571 20.7539 18.8929 20.332 19.3214C19.9102 19.75 19.3828 20 18.75 20H5.25C4.61719 20 4.08984 19.75 3.66797 19.3214C3.24609 18.8929 3 18.3571 3 17.7143V6.28571C3 5.64286 3.24609 5.10714 3.66797 4.67857C4.08984 4.25 4.61719 4.03571 5.25 4H18.75ZM6.9375 18.2857V15.1429H4.6875V17.7143C4.6875 18.0714 4.89844 18.2857 5.25 18.2857H6.9375ZM6.9375 13.4286V10.5714H4.6875V13.4286H6.9375ZM6.9375 8.85714V5.71429H5.25C4.89844 5.75 4.6875 5.92857 4.6875 6.28571V8.85714H6.9375ZM15.375 18.2857V12.8571H8.625V18.2857H15.375ZM15.375 11.1429V5.71429H8.625V11.1429H15.375ZM19.3125 17.7143V15.1429H17.0625V18.2857H18.75C19.1016 18.2857 19.2773 18.0714 19.3125 17.7143ZM19.3125 13.4286V10.5714H17.0625V13.4286H19.3125ZM19.3125 8.85714V6.28571C19.2773 5.92857 19.1016 5.75 18.75 5.71429H17.0625V8.85714H19.3125Z" fill="#98A2B3"/>
</svg>
