<svg width="24" height="24" viewBox="0 0 24 24" fill="none" xmlns="http://www.w3.org/2000/svg">
<path d="M7.94912 6.53571C8.45793 6.57589 8.88845 6.77679 9.27984 7.09821C9.59295 7.5 9.78865 7.94196 9.82779 8.46429C9.78865 9.02679 9.59295 9.46875 9.27984 9.83036C8.88845 10.192 8.45793 10.3929 7.94912 10.3929C7.40117 10.3929 6.97065 10.192 6.6184 9.83036C6.26614 9.46875 6.07045 9.02679 6.07045 8.46429C6.07045 7.94196 6.26614 7.5 6.6184 7.09821C6.97065 6.77679 7.40117 6.57589 7.94912 6.53571ZM19.4951 3C20.1996 3.04018 20.8258 3.28125 21.2955 3.76339C21.726 4.24554 21.9609 4.84821 22 5.57143V18.4286C21.9609 19.1518 21.726 19.7545 21.2564 20.2366C20.7867 20.7188 20.1996 21 19.4951 21H4.46575C3.76125 21 3.21331 20.7188 2.74364 20.2366C2.27397 19.7545 2 19.1518 2 18.4286V5.57143C2 4.84821 2.27397 4.24554 2.74364 3.76339C3.21331 3.28125 3.76125 3.04018 4.46575 3H19.4951ZM20.1213 18.1473H20.1605V5.57143C20.1213 5.16964 19.9256 4.96875 19.5342 4.92857H4.50489C4.1135 4.96875 3.87867 5.16964 3.87867 5.57143V18.3884L6.85323 14.6116C6.97065 14.4509 7.16634 14.3705 7.40117 14.3705C7.63601 14.3705 7.8317 14.4509 7.98826 14.6116L9.4364 16.4598L13.6243 10.6741C13.7417 10.5134 13.9374 10.3929 14.2114 10.3929C14.4462 10.3929 14.6419 10.5134 14.7593 10.6741L20.1213 18.1473Z" fill="#393C3C"/>
</svg>
