<svg width="24" height="24" viewBox="0 0 24 24" fill="none" xmlns="http://www.w3.org/2000/svg">
<path d="M5.82716 7.56164C5.82716 6.88796 6.17438 6.29354 6.75309 5.93689C7.29321 5.58023 8.02623 5.58023 8.60494 5.93689C9.14506 6.29354 9.53086 6.88796 9.53086 7.56164C9.53086 8.27495 9.14506 8.86937 8.60494 9.22603C8.02623 9.58268 7.29321 9.58268 6.75309 9.22603C6.17438 8.86937 5.82716 8.27495 5.82716 7.56164Z" fill="white"/>
<path fill-rule="evenodd" clip-rule="evenodd" d="M5.85721 12.149C6.52231 11.5085 7.56256 11.5085 8.22767 12.149L8.23054 12.1518L10.7651 14.7553L15.7337 9.61276C16.3988 8.97228 17.4391 8.97234 18.1042 9.61282L18.1071 9.61558L20.5185 12.0926V5.65949C20.5185 5.0506 19.9918 4.51468 19.4074 4.51468H4.59259C3.97204 4.51468 3.48148 5.04806 3.48148 5.65949V14.6256L5.85721 12.149ZM9.70528 15.8049L7.16675 13.2358C7.09949 13.1667 6.98603 13.1661 6.91877 13.2352L3.48148 16.7658V18.3405C3.48148 18.989 3.96959 19.4853 4.59259 19.4853H6.12222L9.70528 15.8049ZM17.0427 10.699C16.9754 10.6299 16.8626 10.6299 16.7953 10.699L8.20361 19.4853H19.4074C19.9943 19.4853 20.5185 18.9865 20.5185 18.3405V14.23L17.0427 10.699ZM6.75309 9.22603C7.29321 9.58268 8.02623 9.58268 8.60494 9.22603C9.14506 8.86937 9.53086 8.27495 9.53086 7.56164C9.53086 6.88796 9.14506 6.29354 8.60494 5.93689C8.02623 5.58023 7.29321 5.58023 6.75309 5.93689C6.17438 6.29354 5.82716 6.88796 5.82716 7.56164C5.82716 8.27495 6.17438 8.86937 6.75309 9.22603ZM2 5.65949C2 4.20899 3.13103 3 4.59259 3H19.4074C20.8292 3 22 4.20771 22 5.65949V18.3405C22 19.8332 20.8279 21 19.4074 21H4.59259C3.13227 21 2 19.8319 2 18.3405V5.65949ZM8.01488 7.21168C7.9161 7.11021 7.79194 7.05088 7.67901 7.05088C7.40805 7.05088 7.18519 7.30435 7.18519 7.56164C7.18519 7.8535 7.40323 8.07241 7.67901 8.07241C7.92115 8.07241 8.17284 7.84854 8.17284 7.56164C8.17284 7.44202 8.11345 7.31292 8.01488 7.21168Z" fill="#98A2B3"/>
</svg>
