<svg width="24" height="24" viewBox="0 0 24 24" fill="none" xmlns="http://www.w3.org/2000/svg">
<path d="M7.47143 4.125C7.47143 3.52734 7.97768 3 8.62857 3C9.2433 3 9.78571 3.52734 9.78571 4.125V5.25H14.4143V4.125C14.4143 3.52734 14.9205 3 15.5714 3C16.1862 3 16.7286 3.52734 16.7286 4.125V5.25H18.4643C19.4045 5.25 20.2 6.02344 20.2 6.9375V8.625H4V6.9375C4 6.02344 4.75937 5.25 5.73571 5.25H7.47143V4.125ZM20.2 9.75V19.3125C20.2 20.2617 19.4045 21 18.4643 21H5.73571C4.75937 21 4 20.2617 4 19.3125V9.75H20.2Z" fill="#393C3C"/>
</svg>
