<svg width="24" height="24" viewBox="0 0 24 24" fill="none" xmlns="http://www.w3.org/2000/svg">
<path fill-rule="evenodd" clip-rule="evenodd" d="M8.91517 3.74592C8.91517 3.54472 8.81404 3.3599 8.68008 3.22927C8.54613 3.09863 8.35662 3 8.15031 3C7.71416 3 7.38545 3.37066 7.38545 3.74592V5.20109H6.45759C5.0752 5.20109 4 6.28805 4 7.59783V18.6033C4 19.9494 5.07724 21 6.45759 21H17.7424C19.0854 21 20.2 19.9514 20.2 18.6033V7.59783C20.2 6.28605 19.0875 5.20109 17.7424 5.20109H16.8146V3.74592C16.8146 3.54472 16.7134 3.3599 16.5795 3.22927C16.4455 3.09863 16.256 3 16.0497 3C15.6135 3 15.2848 3.37066 15.2848 3.74592V5.20109H8.91517V3.74592ZM5.52972 9.99456H18.6703V18.6033C18.6703 19.1103 18.2352 19.5082 17.7424 19.5082H6.45759C5.93361 19.5082 5.52972 19.1143 5.52972 18.6033V9.99456ZM6.45759 6.69293H17.7424C18.2311 6.69293 18.6703 7.12122 18.6703 7.59783V8.50272H5.52972V7.59783C5.52972 7.11723 5.93766 6.69293 6.45759 6.69293Z" fill="#98A2B3"/>
</svg>
