<svg width="24" height="24" viewBox="0 0 24 24" fill="none" xmlns="http://www.w3.org/2000/svg">
<path d="M6.5 7.4963C6.5 5.59206 8.0625 4 10 4H10.5C10.75 4 11 4.24974 11 4.49947V4.99894C11 6.90317 9.5 8.4328 7.65625 8.49524C6.90625 9.5254 6.5 10.7429 6.5 11.9915C6.5 15.0508 8.9375 17.4857 12 17.4857H12.3438C13.7188 17.4857 15.0312 17.8291 16.25 18.4222L16.5625 18.5783C16.9375 18.7656 17.0938 19.2026 16.9062 19.5772C16.7188 19.9519 16.2812 20.1079 15.9062 19.9206L15.5938 19.7645C14.5938 19.2651 13.4688 18.9841 12.3438 18.9841H12H11.625C10.5 18.9841 9.375 19.2651 8.375 19.7645L8.0625 19.9206C7.6875 20.1079 7.25 19.9519 7.0625 19.5772C6.875 19.2026 7.03125 18.7656 7.40625 18.5783L7.71875 18.4222C7.96875 18.2974 8.21875 18.1725 8.5 18.0788C8.3125 17.9852 8.15625 17.8603 8 17.7667C6.125 18.6407 3.875 17.954 2.8125 16.1434L2.5625 15.7063C2.4375 15.4566 2.53125 15.1444 2.75 15.0196C3.1875 14.7698 3.65625 14.6138 4.125 14.5201C2.84375 13.8645 2 12.5222 2 10.9926V10.4931C2 10.2434 2.21875 9.99365 2.5 9.99365C2.96875 9.99365 3.46875 10.0873 3.90625 10.2746C3.125 9.05714 3.0625 7.46508 3.8125 6.15397L4.0625 5.71693C4.21875 5.4672 4.53125 5.40476 4.75 5.52963C5.59375 5.99788 6.15625 6.71587 6.5 7.52751V7.4963ZM16.3438 8.49524C14.4688 8.4328 13 6.90317 13 4.99894V4.49947C13 4.24974 13.2188 4 13.5 4H14C15.9062 4 17.5 5.59206 17.5 7.4963V7.52751C17.8125 6.71587 18.4062 5.99788 19.2188 5.52963C19.4688 5.40476 19.75 5.4672 19.9062 5.71693L20.1562 6.15397C20.9062 7.46508 20.8438 9.05714 20.0625 10.2746C20.5312 10.0873 21 10.0249 21.5 10.0249C21.75 10.0249 22 10.2434 22 10.5243V11.0238C22 12.5534 21.125 13.8645 19.875 14.5513C20.3125 14.6138 20.7812 14.7698 21.2188 15.0196C21.4688 15.1757 21.5312 15.4566 21.4062 15.7063L21.1562 16.1434C20.4062 17.4545 19 18.1725 17.5938 18.1413C17.4375 17.954 17.25 17.7979 17.0312 17.7042L16.7188 17.5481C16.625 17.4857 16.5312 17.4545 16.4375 17.3921C16.125 17.2672 15.7812 17.1111 15.4375 17.0175C15.2188 16.9238 14.9688 16.8614 14.6875 16.7989C16.375 15.8312 17.5 14.0519 17.5 11.9915C17.5 10.7429 17.0625 9.5254 16.3438 8.49524Z" fill="#393C3C"/>
</svg>
