<svg width="24" height="24" viewBox="0 0 24 24" fill="none" xmlns="http://www.w3.org/2000/svg">
<path fill-rule="evenodd" clip-rule="evenodd" d="M15.5543 17.5744C15.2815 17.4843 15.024 17.4 14.7401 17.3437L14.0376 17.2045L14.6698 16.8705C16.4184 15.9465 17.6141 14.0976 17.6141 11.9886C17.6141 10.8537 17.2096 9.7668 16.524 8.85875H16.4067C14.3743 8.85875 12.7347 7.23436 12.7347 5.22085V4.73744C12.7347 4.36574 13.0528 4 13.4791 4H13.967C15.5207 4 16.8795 4.98691 17.3946 6.36323C17.7092 5.8454 18.1536 5.38757 18.7172 5.06185L18.7192 5.06071C19.0646 4.86521 19.4828 5.01374 19.6697 5.29143L19.6749 5.29909L20.1963 6.21074L20.1971 6.2121C20.7875 7.21569 20.8905 8.36225 20.5938 9.40085C20.8245 9.34956 21.0694 9.31751 21.3166 9.31751C21.7247 9.31751 22 9.66606 22 10.0247V11.0218C22 12.1902 21.5144 13.2375 20.7348 13.9975C20.9724 14.0709 21.201 14.1723 21.4191 14.3092C21.7524 14.5021 21.8466 14.9206 21.6985 15.2141L21.6925 15.2259L21.1722 16.1349C20.2626 17.6797 18.5081 18.4202 16.8501 18.1303L16.824 18.1258L16.6371 18.0517L16.6275 18.0469C16.2735 17.8716 15.9184 17.7247 15.5543 17.5744ZM12.2412 19.0406H11.4053C10.3133 19.0406 9.22587 19.2746 8.25963 19.7677L8.25689 19.7691L7.95192 19.9201C7.58952 20.0997 7.12634 19.9702 6.93699 19.595C6.74649 19.2176 6.93641 18.7752 7.25258 18.5962L7.26495 18.5892L7.57629 18.4354C7.85856 18.3049 8.14159 18.1854 8.43205 18.077C8.31272 18.0102 8.19512 17.9393 8.08064 17.8643C7.95041 17.9134 7.82236 17.954 7.71007 17.9896C7.66482 18.004 7.62212 18.0175 7.58287 18.0305L7.56936 18.035C5.78429 18.5173 3.80387 17.7788 2.82831 16.1357L2.82287 16.1266L2.34028 15.2296C2.14397 14.9231 2.25292 14.4991 2.58087 14.3092C2.799 14.1723 3.02756 14.0709 3.26519 13.9975C2.48565 13.2375 2 12.1902 2 11.0218V10.0247C2 9.66606 2.27533 9.31751 2.68336 9.31751C2.93112 9.31751 3.17655 9.3497 3.40773 9.40118C3.11569 8.35956 3.24082 7.21442 3.80106 6.21537L3.80211 6.21349L4.32514 5.29909L4.33029 5.29143C4.51715 5.01374 4.93544 4.86521 5.28078 5.06072L5.28277 5.06184C5.84987 5.38958 6.29627 5.85109 6.61123 6.37289C7.13679 4.99388 8.47685 4 10.0635 4H10.5514C10.7568 4 10.9407 4.09918 11.0682 4.22547C11.1957 4.35176 11.2958 4.53397 11.2958 4.73744V5.22085C11.2958 7.23583 9.62417 8.85875 7.62377 8.85875H7.47612C6.79491 9.76361 6.41636 10.8499 6.41636 11.9886C6.41636 15.0509 8.92424 17.5355 12.0152 17.5355H12.5947C13.9159 17.5355 15.236 17.847 16.4299 18.4385L16.7349 18.5895C17.1136 18.7771 17.2442 19.236 17.063 19.595L17.0566 19.6077C16.876 19.9209 16.4291 20.1089 16.0481 19.9201L15.7404 19.7677C14.7701 19.2725 13.682 19.0104 12.5947 19.0104H12.2412V19.0406ZM6.36306 16.4028C5.89855 15.5793 4.97527 15.1683 4.08245 15.3238L4.1247 15.3955C4.63895 16.2689 5.587 16.7386 6.5512 16.7043L6.36306 16.4028ZM17.6311 16.4126L17.4488 16.7043C18.413 16.7386 19.361 16.2689 19.8753 15.3955L19.9175 15.3238C19.0247 15.1683 18.1014 15.5793 17.6369 16.4028L17.6311 16.4126ZM16.1333 7.36805C15.1271 7.25038 14.3582 6.4886 14.2394 5.49177C15.2232 5.61462 16.0093 6.3934 16.1333 7.36805ZM9.79054 5.49225C9.28046 5.55774 8.83114 5.80396 8.476 6.1558C8.16022 6.46865 7.95437 6.89876 7.89672 7.36742C8.88301 7.24759 9.6684 6.48572 9.79054 5.49225ZM3.4887 10.9407V11.0218C3.4887 12.0543 4.06099 12.951 4.92765 13.3885V13.0158C4.92765 12.0744 4.31791 11.2599 3.4887 10.9407ZM19.1028 13.3844C19.9516 12.9442 20.5418 12.048 20.5418 11.0218V10.9454C19.6895 11.2797 19.1028 12.0743 19.1028 13.0158V13.3844ZM5.3594 9.38236C5.82349 8.55499 5.71594 7.55943 5.1437 6.87691L5.10058 6.95014C4.58382 7.82778 4.65497 8.88334 5.16685 9.69052L5.3594 9.38236ZM18.8332 9.69052C19.345 8.88334 19.4162 7.82778 18.8994 6.95014L18.8563 6.8769C18.2841 7.55943 18.1765 8.55499 18.6406 9.38236L18.8332 9.69052Z" fill="#98A2B3"/>
</svg>
