<svg width="24" height="24" viewBox="0 0 24 24" fill="none" xmlns="http://www.w3.org/2000/svg">
<path fill-rule="evenodd" clip-rule="evenodd" d="M6.30924 12.9938L10.6223 17.3284C10.8159 17.5242 10.8989 17.7848 10.8989 18.0233C10.8989 18.2618 10.8165 18.5218 10.6229 18.7176C10.2508 19.0941 9.60129 19.0941 9.22919 18.7176L3.27597 12.6943C3.08243 12.4985 3 12.2385 3 12C3 11.7615 3.08243 11.5015 3.27597 11.3057L9.22919 5.28236C9.60129 4.90588 10.2508 4.90588 10.6229 5.28236C10.8165 5.47818 10.8989 5.73821 10.8989 5.97669C10.8989 6.21518 10.8165 6.47521 10.6229 6.67102L6.30436 11.0404H20.0272C20.5774 11.0404 21 11.4796 21 12.0171C21 12.5021 20.5951 12.9938 20.0272 12.9938H6.30924Z" fill="#393C3C"/>
</svg>
