<svg width="24" height="24" viewBox="0 0 24 24" fill="none" xmlns="http://www.w3.org/2000/svg">
<path d="M20.2468 12.7793H5.56304L10.4329 17.6947C10.5791 17.8432 10.6457 18.0457 10.6457 18.2384C10.6457 18.4312 10.5791 18.6337 10.4329 18.7822C10.1472 19.0726 9.63783 19.0726 9.35204 18.7822L3.21278 12.5438C3.06662 12.3953 3 12.1928 3 12C3 11.8072 3.06662 11.6047 3.21278 11.4562L9.35204 5.2178C9.63783 4.9274 10.1472 4.9274 10.4329 5.2178C10.5791 5.36632 10.6457 5.56881 10.6457 5.76157C10.6457 5.95434 10.5791 6.15683 10.4329 6.30534L5.56084 11.2561H20.2468C20.672 11.2561 21 11.5949 21 12.0177C21 12.3971 20.6797 12.7793 20.2468 12.7793Z" fill="#98A2B3"/>
</svg>
