<svg width="24" height="24" viewBox="0 0 24 24" fill="none" xmlns="http://www.w3.org/2000/svg">
<path fill-rule="evenodd" clip-rule="evenodd" d="M15 4.5V19.5H18V4.5H15ZM14.5 3C13.9477 3 13.5 3.44772 13.5 4V20C13.5 20.5523 13.9477 21 14.5 21H18.5C19.0523 21 19.5 20.5523 19.5 20V4C19.5 3.44772 19.0523 3 18.5 3H14.5Z" fill="#98A2B3"/>
<path fill-rule="evenodd" clip-rule="evenodd" d="M6 4.5V19.5H9V4.5H6ZM5.5 3C4.94772 3 4.5 3.44772 4.5 4V20C4.5 20.5523 4.94772 21 5.5 21H9.5C10.0523 21 10.5 20.5523 10.5 20V4C10.5 3.44772 10.0523 3 9.5 3H5.5Z" fill="#98A2B3"/>
</svg>
