<svg width="24" height="24" viewBox="0 0 24 24" fill="none" xmlns="http://www.w3.org/2000/svg">
<path fill-rule="evenodd" clip-rule="evenodd" d="M19.7861 5.75508L16.7058 9.7994L19.7862 13.8773C19.9109 14.0415 20 14.2539 20 14.4762C20 15.0711 19.5227 15.4973 18.9659 15.4973H5.51084V20.2541C5.51084 20.6794 5.13545 21 4.75542 21C4.33252 21 4 20.6717 4 20.2541V3.74592C4 3.37066 4.32466 3 4.75542 3C4.95918 3 5.14636 3.09863 5.27865 3.22927C5.41095 3.3599 5.51084 3.54472 5.51084 3.74592V4.10054H18.9659C19.5282 4.10054 20 4.56645 20 5.1216C20 5.3743 19.9137 5.587 19.7861 5.75508ZM18.0094 14.0054L15.3941 10.6041C15.0278 10.1219 15.0278 9.51034 15.3941 9.02807L18.0117 5.59239H5.51084V14.0054H18.0094Z" fill="#98A2B3"/>
</svg>
