<svg width="24" height="24" viewBox="0 0 24 24" fill="none" xmlns="http://www.w3.org/2000/svg">
<path d="M3.46323 10.886C3.1285 10.5468 2.58578 10.5468 2.25105 10.886C1.91632 11.2251 1.91632 11.7749 2.25105 12.114L3.46323 10.886ZM7.42858 16.1316L6.82248 16.7456C7.15722 17.0848 7.69994 17.0848 8.03467 16.7456L7.42858 16.1316ZM17.1775 7.48249C17.5122 7.14335 17.5122 6.59349 17.1775 6.25435C16.8428 5.91522 16.3001 5.91522 15.9654 6.25435L17.1775 7.48249ZM8.03467 10.886C7.69994 10.5468 7.15722 10.5468 6.82248 10.886C6.48775 11.2251 6.48775 11.7749 6.82248 12.114L8.03467 10.886ZM12 16.1316L11.394 16.7456C11.7287 17.0848 12.2713 17.0848 12.6061 16.7456L12 16.1316ZM21.7489 7.48249C22.0837 7.14335 22.0837 6.59349 21.7489 6.25435C21.4142 5.91522 20.8716 5.91522 20.5368 6.25435L21.7489 7.48249ZM2.25105 12.114L6.82248 16.7456L8.03467 15.5176L3.46323 10.886L2.25105 12.114ZM8.03467 16.7456L17.1775 7.48249L15.9654 6.25435L6.82248 15.5176L8.03467 16.7456ZM6.82248 12.114L11.394 16.7456L12.6061 15.5176L8.03467 10.886L6.82248 12.114ZM12.6061 16.7456L21.7489 7.48249L20.5368 6.25435L11.394 15.5176L12.6061 16.7456Z" fill="#98A2B3"/>
</svg>
