<svg width="24" height="24" viewBox="0 0 24 24" fill="none" xmlns="http://www.w3.org/2000/svg">
<path fill-rule="evenodd" clip-rule="evenodd" d="M3 5C3 3.89543 3.89543 3 5 3H9C9.55228 3 10 3.44772 10 4C10 4.55228 9.55228 5 9 5H5V19H19V15C19 14.4477 19.4477 14 20 14C20.5523 14 21 14.4477 21 15V19C21 20.1046 20.1046 21 19 21H5C3.89543 21 3 20.1046 3 19V5ZM14 5C13.4477 5 13 4.55228 13 4C13 3.44772 13.4477 3 14 3H20C20.5523 3 21 3.44772 21 4V10C21 10.5523 20.5523 11 20 11C19.4477 11 19 10.5523 19 10V6.41421L10.7071 14.7071C10.3166 15.0976 9.68342 15.0976 9.29289 14.7071C8.90237 14.3166 8.90237 13.6834 9.29289 13.2929L17.5858 5H14Z" fill="#393C3C"/>
</svg>
