<svg width="24" height="24" viewBox="0 0 24 24" fill="none" xmlns="http://www.w3.org/2000/svg">
<path d="M8.23828 5.17857C8.44922 4.5 9.08203 4 9.82031 4H14.1445C14.8828 4 15.5156 4.5 15.7266 5.17857L16.1133 6.28571H18.75C19.9805 6.28571 21 7.32143 21 8.57143V17.7143C21 19 19.9805 20 18.75 20H5.25C3.98438 20 3 19 3 17.7143V8.57143C3 7.32143 3.98438 6.28571 5.25 6.28571H7.85156L8.23828 5.17857ZM12 9.71429C10.7695 9.71429 9.67969 10.3929 9.04688 11.4286C8.44922 12.5 8.44922 13.8214 9.04688 14.8571C9.67969 15.9286 10.7695 16.5714 12 16.5714C13.1953 16.5714 14.2852 15.9286 14.918 14.8571C15.5156 13.8214 15.5156 12.5 14.918 11.4286C14.2852 10.3929 13.1953 9.71429 12 9.71429Z" fill="#393C3C"/>
</svg>
