<svg width="24" height="24" viewBox="0 0 24 24" fill="none" xmlns="http://www.w3.org/2000/svg">
<path d="M9.76453 4.19834H14.2011C14.9233 4.19834 15.5424 4.68595 15.7831 5.34772L16.127 6.42744H18.6033C19.807 6.42744 20.8044 7.4375 20.8044 8.65654V17.5729C20.8044 18.8268 19.807 19.8021 18.6033 19.8021H5.39675C4.15864 19.8021 3.19566 18.8268 3.19566 17.5729V8.65654C3.19566 7.4375 4.15864 6.42744 5.39675 6.42744H7.83858L8.1825 5.34772C8.42325 4.68595 9.0423 4.19834 9.76453 4.19834ZM9.21426 5.69601L8.73277 7.19369C8.66399 7.40267 8.45764 7.54199 8.21689 7.54199H5.39675C4.7777 7.54199 4.29621 8.06444 4.29621 8.65654V17.5729C4.29621 18.1999 4.7777 18.6875 5.39675 18.6875H18.6033C19.1879 18.6875 19.7038 18.1999 19.7038 17.5729V8.65654C19.7038 8.06444 19.1879 7.54199 18.6033 7.54199H15.7487C15.508 7.54199 15.3016 7.40267 15.2329 7.15886L14.7514 5.69601C14.6482 5.48704 14.4418 5.31289 14.2011 5.31289H9.76453C9.52379 5.31289 9.31744 5.48704 9.21426 5.69601ZM12 17.0157C10.5899 17.0157 9.35183 16.2842 8.66399 15.0652C7.94176 13.881 7.94176 12.3833 8.66399 11.1643C9.35183 9.98007 10.5899 9.21382 12 9.21382C13.3757 9.21382 14.6138 9.98007 15.3016 11.1643C16.0239 12.3833 16.0239 13.881 15.3016 15.0652C14.6138 16.2842 13.3757 17.0157 12 17.0157ZM9.24865 13.1147C9.24865 14.1248 9.76453 15.0304 10.6243 15.5528C11.4497 16.0404 12.5159 16.0404 13.3757 15.5528C14.2011 15.0304 14.7514 14.1248 14.7514 13.1147C14.7514 12.1395 14.2011 11.2339 13.3757 10.7115C12.5159 10.2239 11.4497 10.2239 10.6243 10.7115C9.76453 11.2339 9.24865 12.1395 9.24865 13.1147Z" fill="#98A2B3"/>
<path fill-rule="evenodd" clip-rule="evenodd" d="M15.9693 5.28669L16.2695 6.2291H18.6033C19.915 6.2291 21 7.32788 21 8.65635V17.5728C21 18.9381 19.913 20 18.6033 20H5.39674C4.05057 20 3 18.9361 3 17.5728V8.65635C3 7.3299 4.04858 6.2291 5.39674 6.2291H7.6961L7.99875 5.27897C8.26508 4.54685 8.95266 4 9.76452 4H14.2011C15.0129 4 15.7004 4.54691 15.9667 5.27902L15.9693 5.28669ZM7.83858 6.42744H5.39675C4.15864 6.42744 3.19566 7.4375 3.19566 8.65654V17.5729C3.19566 18.8268 4.15864 19.8021 5.39675 19.8021H18.6033C19.807 19.8021 20.8044 18.8268 20.8044 17.5729V8.65654C20.8044 7.4375 19.807 6.42744 18.6033 6.42744H16.127L15.7831 5.34772C15.5424 4.68595 14.9233 4.19834 14.2011 4.19834H9.76453C9.0423 4.19834 8.42325 4.68595 8.1825 5.34772L7.83858 6.42744ZM8.73277 7.19369C8.66399 7.40267 8.45764 7.54199 8.21689 7.54199H5.39675C4.7777 7.54199 4.29621 8.06444 4.29621 8.65654V17.5729C4.29621 18.1999 4.7777 18.6875 5.39675 18.6875H18.6033C19.1879 18.6875 19.7038 18.1999 19.7038 17.5729V8.65654C19.7038 8.06444 19.1879 7.54199 18.6033 7.54199H15.7487C15.508 7.54199 15.3016 7.40267 15.2329 7.15886L14.7514 5.69601C14.6482 5.48704 14.4418 5.31289 14.2011 5.31289H9.76453C9.52379 5.31289 9.31744 5.48704 9.21426 5.69601L8.73277 7.19369ZM9.39544 5.77225L8.91838 7.25616C8.81934 7.55704 8.5298 7.73994 8.21688 7.73994H5.39674C4.88968 7.73994 4.49185 8.16963 4.49185 8.65635V17.5728C4.49185 18.0903 4.88574 18.4892 5.39674 18.4892H18.6033C19.0839 18.4892 19.5082 18.0863 19.5082 17.5728V8.65635C19.5082 8.17367 19.0799 7.73994 18.6033 7.73994H15.7487C15.4307 7.73994 15.1423 7.55176 15.046 7.21753L14.5705 5.77282C14.4883 5.61528 14.3426 5.51084 14.2011 5.51084H9.76452C9.62315 5.51084 9.47767 5.61503 9.39544 5.77225ZM8.49576 15.1663C7.73596 13.918 7.73793 12.3426 8.49578 11.0629C9.21719 9.82144 10.5177 9.01548 12 9.01548C13.4489 9.01548 14.7489 9.82234 15.4698 11.0629C16.2277 12.3426 16.2296 13.918 15.4699 15.1662C14.7472 16.4447 13.4455 17.2136 12 17.2136C10.5212 17.2136 9.21892 16.4455 8.49576 15.1663ZM15.3016 15.0652C16.0239 13.881 16.0239 12.3833 15.3016 11.1643C14.6138 9.98007 13.3757 9.21382 12 9.21382C10.5899 9.21382 9.35183 9.98007 8.66399 11.1643C7.94176 12.3833 7.94176 13.881 8.66399 15.0652C9.35183 16.2842 10.5899 17.0157 12 17.0157C13.3757 17.0157 14.6138 16.2842 15.3016 15.0652ZM10.7239 15.3821C9.92237 14.8945 9.44429 14.0531 9.44429 13.1146C9.44429 12.2122 9.92122 11.3701 10.724 10.8818C11.4858 10.4323 12.4754 10.4298 13.276 10.8819C14.0488 11.3728 14.5557 12.217 14.5557 13.1146C14.5557 14.0482 14.0476 14.8919 13.276 15.3821C12.4754 15.8342 11.4858 15.8316 10.7239 15.3821ZM13.3757 15.5528C12.5159 16.0404 11.4497 16.0404 10.6243 15.5528C9.76453 15.0304 9.24865 14.1248 9.24865 13.1147C9.24865 12.1395 9.76453 11.2339 10.6243 10.7115C11.4497 10.2239 12.5159 10.2239 13.3757 10.7115C14.2011 11.2339 14.7514 12.1395 14.7514 13.1147C14.7514 14.1248 14.2011 15.0304 13.3757 15.5528Z" fill="#98A2B3"/>
</svg>
