<svg width="100" height="26" viewBox="0 0 100 26" fill="none" xmlns="http://www.w3.org/2000/svg">
<path d="M14.1612 12.4663C15.3488 11.8735 16.5617 10.6642 16.5617 8.83839C16.5617 5.96924 14.237 4.04858 10.1181 4.04858H4.35669V21.9273H11.0278C15.273 21.9273 17.7241 19.8406 17.7241 16.7818C17.7241 14.6714 16.2585 13.0354 14.1612 12.4663ZM8.32399 7.17861H9.89066C11.4826 7.17861 12.5692 7.93739 12.5692 9.33635C12.5692 10.7353 11.4826 11.4941 9.89066 11.4941H8.32399V7.17861ZM10.7751 18.7973H8.32399V14.3158H10.7751C12.5692 14.3158 13.6052 15.2169 13.6052 16.5447C13.6052 17.8963 12.5692 18.7973 10.7751 18.7973Z" fill="#090A0A"/>
<path d="M30.6225 10.0239H20.2116V12.9168H26.7816V14.6693H22.3108C20.1783 14.6693 18.4434 16.2972 18.4434 18.2983C18.4434 20.2993 20.1783 21.9273 22.3108 21.9273H28.1332V21.9272H30.6225V10.0239ZM22.3992 18.2983C22.3992 17.5234 23.071 16.8931 23.8967 16.8931H26.7816V19.7034H23.8967C23.071 19.7034 22.3992 19.0731 22.3992 18.2983Z" fill="#090A0A"/>
<path d="M33.3496 17.6829C34.4615 18.8684 36.3314 19.5323 37.8476 19.5323C38.9847 19.5323 39.8691 19.153 39.8691 18.4416C39.8691 16.4024 32.1873 18.4891 32.1873 13.7942C32.1873 11.3518 34.6131 9.73944 37.8476 9.73944C40.425 9.73944 42.3455 10.5931 43.4573 11.7787L41.4105 13.8416C40.425 12.822 39.1868 12.3714 37.8476 12.3714C36.7863 12.3714 36.104 12.7508 36.104 13.3911C36.104 15.2643 43.7353 13.5807 43.7353 18.0622C43.7353 20.6942 41.0315 22.2118 37.6454 22.2118C35.2196 22.2118 32.6421 21.4056 31.4545 19.9829L33.3496 17.6829Z" fill="#090A0A"/>
<path d="M51.1546 9.73944C47.6675 9.73944 44.6099 12.3714 44.6099 15.9756C44.6099 19.5561 47.6675 22.2117 51.2557 22.2117C53.7068 22.2117 55.8041 21.1685 57.017 19.2952L54.3132 17.5406C53.5804 18.6076 52.7465 19.2716 51.2557 19.2716C49.7648 19.2716 48.5266 18.3942 48.1728 16.9003H57.4972C57.7498 12.7745 55.2735 9.73944 51.1546 9.73944ZM48.2992 14.6714C48.754 13.4147 49.8659 12.6797 51.1798 12.6797C52.7971 12.6797 53.6563 13.6519 53.8331 14.6714H48.2992Z" fill="#090A0A"/>
<path d="M62.5557 2.81561H58.7147V21.9272H62.5557V2.81561Z" fill="#090A0A"/>
<path d="M68.4541 10.0239H64.6132V21.9272H68.4541V10.0239Z" fill="#090A0A"/>
<path d="M66.5413 2.51807C67.9339 2.51807 69.051 3.55199 69.051 4.87313C69.051 6.19427 67.9339 7.21385 66.5413 7.21385C65.1334 7.21385 64.0162 6.19427 64.0162 4.87313C64.0162 3.55199 65.1334 2.51807 66.5413 2.51807Z" fill="#14EB5F"/>
<path d="M74.3451 13.1302V21.9272H70.5042V10.0239H82.4818V21.9272H78.6409V13.1302H74.3451Z" fill="#090A0A"/>
<path d="M90.0747 9.73944C86.5875 9.73944 83.5299 12.3714 83.5299 15.9756C83.5299 19.5561 86.5875 22.2117 90.1757 22.2117C92.6269 22.2117 94.7242 21.1685 95.9371 19.2952L93.2333 17.5406C92.5005 18.6076 91.6666 19.2716 90.1757 19.2716C88.6848 19.2716 87.4466 18.3942 87.0929 16.9003H96.4172C96.6699 12.7745 94.1935 9.73944 90.0747 9.73944ZM87.2193 14.6714C87.6741 13.4147 88.7859 12.6797 90.0999 12.6797C91.7172 12.6797 92.5763 13.6519 92.7532 14.6714H87.2193Z" fill="#090A0A"/>
</svg>
