<svg width="24" height="24" viewBox="0 0 24 24" fill="none" xmlns="http://www.w3.org/2000/svg">
<path d="M5.26923 4.08974C5.26923 3.7719 5.37139 3.51082 5.57572 3.30649C5.78005 3.10216 6.04113 3 6.35897 3C6.67682 3 6.9379 3.10216 7.14223 3.30649C7.34655 3.51082 7.44872 3.7719 7.44872 4.08974V5.17949H11.8077V4.08974C11.8077 3.7719 11.9099 3.51082 12.1142 3.30649C12.3185 3.10216 12.5796 3 12.8974 3C13.2153 3 13.4764 3.10216 13.6807 3.30649C13.885 3.51082 13.9872 3.7719 13.9872 4.08974V5.17949H15.6218C16.0759 5.20219 16.4618 5.36111 16.7796 5.65625C17.0748 5.97409 17.2337 6.36004 17.2564 6.8141V8.44872H2V6.8141C2.0227 6.36004 2.18162 5.97409 2.47676 5.65625C2.7946 5.36111 3.18056 5.20219 3.63462 5.17949H5.26923V4.08974ZM16.1667 9.57252C14.6002 9.73144 13.3061 10.3671 12.2845 11.4796C11.2855 12.592 10.7634 13.9428 10.7179 15.5321C10.7179 16.5537 10.945 17.4845 11.399 18.3245C11.8531 19.1872 12.4774 19.891 13.272 20.4359H3.63462C3.18056 20.4132 2.7946 20.2543 2.47676 19.9591C2.18162 19.6413 2.0227 19.2553 2 18.8013V9.53846H16.1667V9.57252Z" fill="#393C3C"/>
<path d="M19.0152 16.8972C19.6429 16.4699 20.3173 16.2562 21.0385 16.2562C21.3456 16.2562 21.6461 16.2963 21.9399 16.3764C21.7529 17.5116 21.2722 18.4664 20.4976 19.241C19.723 20.0156 18.7682 20.4963 17.633 20.6833C17.5662 20.3761 17.5329 20.0757 17.5329 19.7819C17.5329 19.221 17.6597 18.6868 17.9135 18.1793C18.1538 17.6718 18.5211 17.2445 19.0152 16.8972ZM12.7452 14.9541C12.4247 14.9541 12.1108 14.9207 11.8037 14.854C11.9907 13.7322 12.4714 12.784 13.246 12.0094C14.0206 11.2348 14.9754 10.7541 16.1106 10.5671C16.1774 10.8609 16.2107 11.1614 16.2107 11.4685C16.2107 12.0294 16.0772 12.5703 15.8101 13.0911C15.543 13.6253 15.149 14.066 14.6282 14.4133C14.1074 14.7605 13.4797 14.9408 12.7452 14.9541ZM16.8518 10.487C17.8133 10.5003 18.6814 10.734 19.4559 11.1881C20.2171 11.6422 20.8315 12.2565 21.2989 13.031C21.7529 13.7923 21.9866 14.6536 22 15.6152C22 15.6419 22 15.6619 22 15.6753C22 15.702 22 15.722 22 15.7354C21.6795 15.6552 21.3523 15.6152 21.0184 15.6152C20.1504 15.6285 19.4025 15.8489 18.7748 16.2762C18.1605 16.6902 17.6931 17.2111 17.3726 17.8387C17.0387 18.4798 16.8718 19.1275 16.8718 19.7819C16.8718 20.1024 16.9119 20.4229 16.992 20.7434C16.9653 20.7434 16.9452 20.7434 16.9319 20.7434C16.9185 20.7434 16.8985 20.7434 16.8718 20.7434C15.9236 20.73 15.0622 20.4963 14.2877 20.0423C13.5131 19.5882 12.8988 18.9739 12.4447 18.1993C11.9907 17.4381 11.7569 16.5767 11.7436 15.6152C11.7436 15.5885 11.7436 15.5684 11.7436 15.5551C11.7436 15.5417 11.7436 15.5217 11.7436 15.495C12.0641 15.5751 12.3846 15.6152 12.7051 15.6152C13.5865 15.6018 14.3344 15.3882 14.9487 14.9742C15.5764 14.5468 16.0505 14.0193 16.371 13.3916C16.7049 12.764 16.8718 12.1163 16.8718 11.4485C16.8584 11.128 16.8117 10.8075 16.7316 10.487C16.7583 10.487 16.7783 10.487 16.7917 10.487C16.8184 10.487 16.8384 10.487 16.8518 10.487Z" fill="#393C3C"/>
</svg>
