<svg width="24" height="24" viewBox="0 0 24 24" fill="none" xmlns="http://www.w3.org/2000/svg">
<g clip-path="url(#clip0_0_508)">
<path fill-rule="evenodd" clip-rule="evenodd" d="M3.35829 9.65421V17.9782C3.35829 18.4914 3.75473 18.8879 4.26794 18.8879H12.0207L12.0656 18.9462C12.386 19.3628 12.7384 19.6834 13.1576 19.9736L13.5512 20.2461H4.26794C2.99377 20.2461 2.00003 19.2524 2.00003 17.9782V7.38629C2.00003 6.14675 2.99225 5.11838 4.26794 5.11838H5.1776V3.67913C5.1776 3.33781 5.47031 3 5.85673 3C6.03776 3 6.20628 3.08901 6.32656 3.2093C6.44685 3.32958 6.53586 3.4981 6.53586 3.67913V5.11838H12.5919V3.67913C12.5919 3.33781 12.8846 3 13.2711 3C13.4521 3 13.6206 3.08901 13.7409 3.2093C13.8612 3.32958 13.9502 3.4981 13.9502 3.67913V5.11838H14.8598C16.1009 5.11838 17.1278 6.14522 17.1278 7.38629V9.65421H3.35829ZM4.26794 6.47664C3.75775 6.47664 3.35829 6.90313 3.35829 7.38629V8.29595H15.7695V7.38629C15.7695 6.90618 15.34 6.47664 14.8598 6.47664H4.26794Z" fill="#98A2B3"/>
<path fill-rule="evenodd" clip-rule="evenodd" d="M17.9489 16.2774L17.9501 16.2762C18.7659 15.4785 19.8317 15.0824 20.9 15.0861C20.7789 13.1402 19.2026 11.5639 17.2567 11.4428C17.2605 12.5111 16.8643 13.5769 16.0666 14.3927L16.0627 14.3967C15.2486 15.1927 14.1849 15.5893 13.1321 15.5868C13.2594 17.534 14.8088 19.0834 16.756 19.2107C16.7535 18.1579 17.1501 17.0943 17.9461 16.2802L17.9473 16.279L17.9489 16.2774ZM19.5086 11.024C21.0452 11.9187 22 13.5537 22 15.3272C22 17.1186 21.0457 18.7538 19.5087 19.6488L19.5074 19.6496C17.9515 20.5442 16.0623 20.5452 14.5232 19.6492C12.9656 18.7533 12.0312 17.1169 12.0312 15.3272C12.0312 13.5554 12.9661 11.9193 14.5232 11.0237C16.0623 10.1277 17.9515 10.1287 19.5074 11.0233L19.5086 11.024ZM20.8051 16.1775C20.0577 16.187 19.305 16.4801 18.7275 17.0576C18.15 17.6351 17.8569 18.3878 17.8474 19.1351C19.3262 18.814 20.484 17.6563 20.8051 16.1775ZM13.2077 14.4954C13.5288 13.0166 14.6865 11.8589 16.1653 11.5378C16.1558 12.2851 15.8627 13.0378 15.2852 13.6153C14.7077 14.1928 13.955 14.4859 13.2077 14.4954Z" fill="#98A2B3"/>
</g>
<defs>
<clipPath id="clip0_0_508">
<rect width="20" height="20" fill="white" transform="translate(2 2)"/>
</clipPath>
</defs>
</svg>
