<svg width="24" height="24" viewBox="0 0 24 24" fill="none" xmlns="http://www.w3.org/2000/svg">
<path fill-rule="evenodd" clip-rule="evenodd" d="M5.51084 4.22518V3.74592C5.51084 3.54472 5.41095 3.3599 5.27865 3.22927C5.14636 3.09863 4.95918 3 4.75542 3C4.32466 3 4 3.37066 4 3.74592V20.2541C4 20.6717 4.33252 21 4.75542 21C5.13545 21 5.51084 20.6794 5.51084 20.2541V15.407L19.3054 10.7418C19.7421 10.6106 20 10.2206 20 9.79891C20 9.39613 19.6927 9.01832 19.308 8.89133L5.51084 4.22518ZM5.51084 5.77397V13.8575L17.3828 9.79965L5.51084 5.77397Z" fill="#98A2B3"/>
</svg>
