<svg width="24" height="24" viewBox="0 0 24 24" fill="none" xmlns="http://www.w3.org/2000/svg">
<g clip-path="url(#clip0_0_787)">
<path d="M4.5 3.875C4.14844 3.875 3.875 4.1875 3.875 4.5V19.5C3.875 19.8516 4.14844 20.125 4.5 20.125H13.25C13.5625 20.125 13.875 19.8516 13.875 19.5V13.25H15.75V19.5C15.75 20.9062 14.6172 22 13.25 22H4.5C3.09375 22 2 20.9062 2 19.5V4.5C2 3.13281 3.09375 2 4.5 2H10.75V3.875H4.5ZM7.625 17.625H10.125C10.4375 17.625 10.75 17.9375 10.75 18.25C10.75 18.6016 10.4375 18.875 10.125 18.875H7.625C7.27344 18.875 7 18.6016 7 18.25C7 17.9375 7.27344 17.625 7.625 17.625ZM12.9375 2C17.9375 2 22 6.0625 22 11.0625C22 11.6094 21.5703 12 21.0625 12C20.5156 12 20.125 11.6094 20.125 11.0625C20.125 7.11719 16.8828 3.875 12.9375 3.875C12.3906 3.875 12 3.48438 12 2.9375C12 2.42969 12.3906 2 12.9375 2ZM13.25 12C12.5469 12 12 11.4531 12 10.75C12 10.0859 12.5469 9.5 13.25 9.5C13.9141 9.5 14.5 10.0859 14.5 10.75C14.5 11.4531 13.9141 12 13.25 12ZM12 6.6875C12 6.17969 12.3906 5.75 12.9375 5.75C15.8672 5.75 18.25 8.13281 18.25 11.0625C18.25 11.6094 17.8203 12 17.3125 12C16.7656 12 16.375 11.6094 16.375 11.0625C16.375 9.1875 14.8125 7.625 12.9375 7.625C12.3906 7.625 12 7.23438 12 6.6875Z" fill="#393C3C"/>
</g>
<defs>
<clipPath id="clip0_0_787">
<rect width="20" height="20" fill="white" transform="translate(2 2)"/>
</clipPath>
</defs>
</svg>
