<svg width="24" height="24" viewBox="0 0 24 24" fill="none" xmlns="http://www.w3.org/2000/svg">
<g clip-path="url(#clip0_0_422)">
<path fill-rule="evenodd" clip-rule="evenodd" d="M13.2499 13.25H14.8999V19.7C14.8999 21.2187 13.6755 22.4 12.1999 22.4H4.69994C3.18323 22.4 1.99994 21.2167 1.99994 19.7V4.7C1.99994 3.2244 3.1812 2 4.69994 2H9.89994V3.65H4.69994C4.1113 3.65 3.64994 4.14232 3.64994 4.7V19.7C3.64994 20.2927 4.10727 20.75 4.69994 20.75H12.1999C12.7576 20.75 13.2499 20.2886 13.2499 19.7V13.25ZM7.19994 17.625H9.69994C9.92124 17.625 10.1258 17.7336 10.271 17.8789C10.4163 18.0241 10.5249 18.2287 10.5249 18.45C10.5249 18.92 10.1148 19.275 9.69994 19.275H7.19994C6.73792 19.275 6.37494 18.912 6.37494 18.45C6.37494 18.0352 6.72998 17.625 7.19994 17.625ZM11.5749 2C16.8416 2 21.1499 6.30829 21.1499 11.575C21.1499 12.045 20.7398 12.4 20.3249 12.4C19.8629 12.4 19.4999 12.037 19.4999 11.575C19.4999 7.23233 15.9176 3.65 11.5749 3.65C11.1129 3.65 10.7499 3.28702 10.7499 2.825C10.7499 2.41015 11.105 2 11.5749 2ZM12.1999 12.4C11.3864 12.4 10.7499 11.7636 10.7499 10.95C10.7499 10.1796 11.3823 9.5 12.1999 9.5C12.9745 9.5 13.6499 10.1755 13.6499 10.95C13.6499 11.7676 12.9704 12.4 12.1999 12.4ZM10.7499 6.575C10.7499 6.16015 11.105 5.75 11.5749 5.75C14.7713 5.75 17.3999 8.37861 17.3999 11.575C17.3999 12.045 16.9898 12.4 16.5749 12.4C16.1129 12.4 15.7499 12.037 15.7499 11.575C15.7499 9.30264 13.8473 7.4 11.5749 7.4C11.1129 7.4 10.7499 7.03702 10.7499 6.575Z" fill="#98A2B3"/>
</g>
<defs>
<clipPath id="clip0_0_422">
<rect width="20" height="20" fill="white" transform="translate(2 2)"/>
</clipPath>
</defs>
</svg>
