<svg width="24" height="24" viewBox="0 0 24 24" fill="none" xmlns="http://www.w3.org/2000/svg">
<path fill-rule="evenodd" clip-rule="evenodd" d="M20.7225 19.4923C20.9017 19.7071 20.9951 19.9177 20.9998 20.1278C21.0045 20.3382 20.9199 20.5407 20.7578 20.7387L20.7549 20.7422C20.5706 20.9264 20.3486 21 20.128 21C19.9068 21 19.6868 20.9259 19.4692 20.7448L19.4661 20.7422L14.8042 16.0834C13.5418 17.1226 12.0367 17.6418 10.2912 17.6418C8.21542 17.6066 6.48766 16.9031 5.14834 15.4946C3.73932 14.1215 3.03521 12.3961 3.00003 10.3217L3 10.3202C3.0352 8.28032 3.73958 6.55519 5.11314 5.14744C6.48722 3.77436 8.21409 3.07041 10.2896 3.0001L10.2927 3C12.3335 3.07032 14.0596 3.77408 15.4684 5.14664L15.4692 5.14743C16.8428 6.55518 17.5469 8.2801 17.6173 10.3194L17.6174 10.3218C17.5825 12.0655 17.0627 13.5689 16.0573 14.8302L20.7225 19.4923ZM4.7699 10.321C4.80487 11.9185 5.36052 13.2013 6.40207 14.2421C7.44363 15.2829 8.72745 15.8382 10.3261 15.8731C11.8901 15.8382 13.2088 15.2828 14.2503 14.2421C15.2911 13.202 15.8125 11.9195 15.8824 10.321C15.8125 8.75719 15.291 7.43972 14.2503 6.39974C13.2095 5.35975 11.8911 4.83866 10.3261 4.76877C8.72646 4.83865 7.44293 5.35964 6.40207 6.39974C5.36064 7.44042 4.80487 8.75821 4.7699 10.321Z" fill="#393C3C"/>
</svg>
