<svg width="24" height="24" viewBox="0 0 24 24" fill="none" xmlns="http://www.w3.org/2000/svg">
<path fill-rule="evenodd" clip-rule="evenodd" d="M16.091 14.9876C17.107 13.7089 17.7255 12.1105 17.7255 10.349C17.7255 6.32008 14.3989 3.0001 10.3627 3.0001C6.29157 3.0001 2.99997 6.3208 2.99997 10.349C2.99997 14.4121 6.29229 17.6978 10.3627 17.6978C12.0887 17.6978 13.7214 17.1157 14.9793 16.0707L19.6628 20.7784C19.9586 21.0736 20.4823 21.0743 20.7782 20.7789C21.0741 20.4836 21.0741 19.9611 20.7782 19.6658L16.091 14.9876ZM13.2648 5.34661C11.4491 4.32621 9.23976 4.32753 7.46072 5.3466C5.64591 6.40072 4.55861 8.30977 4.55861 10.349C4.55861 12.4231 5.64655 14.3318 7.46076 15.3856C9.2398 16.4046 11.4491 16.406 13.2648 15.3856C15.047 14.3305 16.1669 12.4205 16.1669 10.349C16.1669 8.31238 15.0476 6.40208 13.2648 5.34661Z" fill="#98A2B3"/>
</svg>
