<svg width="24" height="24" viewBox="0 0 24 24" fill="none" xmlns="http://www.w3.org/2000/svg">
<path d="M13.0084 8.78503C13.38 8.73436 13.657 8.41696 13.657 8.04191V4.90245C13.657 4.85834 13.6688 4.83335 13.6806 4.81667C13.6947 4.79658 13.7182 4.77647 13.75 4.76327C13.7819 4.75007 13.8127 4.74771 13.8369 4.7519C13.857 4.75539 13.883 4.76474 13.9142 4.79593L14.4445 4.2656L13.9142 4.79593L20.2059 11.0876C20.2647 11.1464 20.2647 11.2418 20.2059 11.3006L13.9142 17.5923C13.883 17.6235 13.857 17.6329 13.8369 17.6364C13.8127 17.6406 13.7819 17.6382 13.75 17.625C13.7182 17.6118 13.6947 17.5917 13.6806 17.5716C13.6688 17.5549 13.657 17.5299 13.657 17.4858V14.3464C13.657 13.9322 13.3213 13.5964 12.907 13.5964H12.7859C9.23728 13.5964 5.92979 15.3923 3.99722 18.3685C3.97013 18.4102 3.94696 18.4208 3.93283 18.4255C3.91261 18.4322 3.88175 18.4347 3.84627 18.4242C3.81079 18.4136 3.78623 18.3948 3.77294 18.3781C3.76365 18.3665 3.75 18.345 3.75 18.2952V18.0406C3.75 13.4615 7.13264 9.58625 11.6698 8.96756L13.0084 8.78503Z" stroke="#98A2B3" stroke-width="1.5" stroke-linecap="round" stroke-linejoin="round"/>
</svg>
