<svg width="24" height="24" viewBox="0 0 24 24" fill="none" xmlns="http://www.w3.org/2000/svg">
<path d="M10.343 8.49101C10.343 8.86183 10.614 9.17699 10.9806 9.23254L12.3192 9.43535C16.805 10.115 20.25 14.4069 20.25 19.6007V19.8836C20.25 19.9774 20.2241 20.0302 20.2041 20.058C20.1819 20.089 20.1549 20.106 20.1323 20.1134C20.1101 20.1207 20.0966 20.1179 20.0905 20.1156L20.0903 20.1155C20.0879 20.1147 20.0588 20.1046 20.0213 20.0404C18.1055 16.7623 14.8 14.746 11.2141 14.746H11.093C10.6787 14.746 10.343 15.0818 10.343 15.496V18.9842C10.343 19.1426 10.266 19.2079 10.2234 19.2275C10.1999 19.2383 10.1842 19.2376 10.1768 19.2361L10.1766 19.2361C10.1728 19.2354 10.1497 19.231 10.1129 19.1901L3.82126 12.1994C3.72625 12.0938 3.72625 11.8932 3.82126 11.7876L10.1129 4.79683C10.1497 4.75594 10.1728 4.75159 10.1766 4.75086L10.1768 4.75082C10.1842 4.7494 10.1999 4.74866 10.2234 4.75949C10.266 4.77908 10.343 4.84438 10.343 5.00272V8.49101Z" stroke="#98A2B3" stroke-width="1.5" stroke-linecap="round" stroke-linejoin="round"/>
</svg>
