<svg width="24" height="24" viewBox="0 0 24 24" fill="none" xmlns="http://www.w3.org/2000/svg">
<path d="M12 12.2857C13.364 12.2857 14.6721 11.7439 15.6365 10.7794C16.601 9.81493 17.1429 8.50683 17.1429 7.14286C17.1429 5.77889 16.601 4.47078 15.6365 3.50631C14.6721 2.54184 13.364 2 12 2C10.636 2 9.32792 2.54184 8.36345 3.50631C7.39898 4.47078 6.85714 5.77889 6.85714 7.14286C6.85714 8.50683 7.39898 9.81493 8.36345 10.7794C9.32792 11.7439 10.636 12.2857 12 12.2857ZM10.1638 14.2143C6.20625 14.2143 3 17.4205 3 21.3781C3 22.0371 3.53438 22.5714 4.1933 22.5714H19.8067C20.4656 22.5714 21 22.0371 21 21.3781C21 17.4205 17.7937 14.2143 13.8362 14.2143H10.1638Z" fill="#393C3C"/>
</svg>
