<svg width="24" height="24" viewBox="0 0 24 24" fill="none" xmlns="http://www.w3.org/2000/svg">
<path d="M14.5 8C14.5 7.33696 14.2366 6.70107 13.7678 6.23223C13.2989 5.76339 12.663 5.5 12 5.5C11.337 5.5 10.7011 5.76339 10.2322 6.23223C9.76339 6.70107 9.5 7.33696 9.5 8C9.5 8.66304 9.76339 9.29893 10.2322 9.76777C10.7011 10.2366 11.337 10.5 12 10.5C12.663 10.5 13.2989 10.2366 13.7678 9.76777C14.2366 9.29893 14.5 8.66304 14.5 8ZM8 8C8 6.93913 8.42143 5.92172 9.17157 5.17157C9.92172 4.42143 10.9391 4 12 4C13.0609 4 14.0783 4.42143 14.8284 5.17157C15.5786 5.92172 16 6.93913 16 8C16 9.06087 15.5786 10.0783 14.8284 10.8284C14.0783 11.5786 13.0609 12 12 12C10.9391 12 9.92172 11.5786 9.17157 10.8284C8.42143 10.0783 8 9.06087 8 8ZM6.54062 18.5H17.4594C17.1813 16.5219 15.4812 15 13.4281 15H10.5719C8.51875 15 6.81875 16.5219 6.54062 18.5ZM5 19.0719C5 15.9937 7.49375 13.5 10.5719 13.5H13.4281C16.5063 13.5 19 15.9937 19 19.0719C19 19.5844 18.5844 20 18.0719 20H5.92813C5.41563 20 5 19.5844 5 19.0719Z" fill="#98A2B3"/>
</svg>
