<svg width="24" height="24" viewBox="0 0 24 24" fill="none" xmlns="http://www.w3.org/2000/svg">
<path d="M4.77419 5C4.34516 5 4 5.34516 4 5.77419V7.32258C4 7.75161 4.34516 8.09677 4.77419 8.09677H6.32258C6.75161 8.09677 7.09677 7.75161 7.09677 7.32258V5.77419C7.09677 5.34516 6.75161 5 6.32258 5H4.77419ZM9.67742 5.51613C9.10645 5.51613 8.64516 5.97742 8.64516 6.54839C8.64516 7.11935 9.10645 7.58065 9.67742 7.58065H18.9677C19.5387 7.58065 20 7.11935 20 6.54839C20 5.97742 19.5387 5.51613 18.9677 5.51613H9.67742ZM9.67742 10.6774C9.10645 10.6774 8.64516 11.1387 8.64516 11.7097C8.64516 12.2806 9.10645 12.7419 9.67742 12.7419H18.9677C19.5387 12.7419 20 12.2806 20 11.7097C20 11.1387 19.5387 10.6774 18.9677 10.6774H9.67742ZM9.67742 15.8387C9.10645 15.8387 8.64516 16.3 8.64516 16.871C8.64516 17.4419 9.10645 17.9032 9.67742 17.9032H18.9677C19.5387 17.9032 20 17.4419 20 16.871C20 16.3 19.5387 15.8387 18.9677 15.8387H9.67742ZM4 10.9355V12.4839C4 12.9129 4.34516 13.2581 4.77419 13.2581H6.32258C6.75161 13.2581 7.09677 12.9129 7.09677 12.4839V10.9355C7.09677 10.5065 6.75161 10.1613 6.32258 10.1613H4.77419C4.34516 10.1613 4 10.5065 4 10.9355ZM4.77419 15.3226C4.34516 15.3226 4 15.6677 4 16.0968V17.6452C4 18.0742 4.34516 18.4194 4.77419 18.4194H6.32258C6.75161 18.4194 7.09677 18.0742 7.09677 17.6452V16.0968C7.09677 15.6677 6.75161 15.3226 6.32258 15.3226H4.77419Z" fill="#98A2B3"/>
</svg>
