<svg width="24" height="24" viewBox="0 0 24 24" fill="none" xmlns="http://www.w3.org/2000/svg">
<g clip-path="url(#clip0_0_910)">
<path d="M2 4C2 2.89543 2.89543 2 4 2H7C8.10457 2 9 2.89543 9 4V7C9 8.10457 8.10457 9 7 9H4C2.89543 9 2 8.10457 2 7V4Z" fill="#393C3C"/>
<path d="M2 17C2 15.8954 2.89543 15 4 15H7C8.10457 15 9 15.8954 9 17V20C9 21.1046 8.10457 22 7 22H4C2.89543 22 2 21.1046 2 20V17Z" fill="#393C3C"/>
<path fill-rule="evenodd" clip-rule="evenodd" d="M11 6.5H9V4.5H11C12.1046 4.5 13 5.39543 13 6.5V17.5C13 18.6046 12.1046 19.5 11 19.5H9V17.5L11 17.5V6.5Z" fill="#393C3C"/>
<path fill-rule="evenodd" clip-rule="evenodd" d="M15.5 13H12V11H15.5V13Z" fill="#393C3C"/>
<path d="M15 10C15 8.89543 15.8954 8 17 8H20C21.1046 8 22 8.89543 22 10V13C22 14.1046 21.1046 15 20 15H17C15.8954 15 15 14.1046 15 13V10Z" fill="#393C3C"/>
</g>
<defs>
<clipPath id="clip0_0_910">
<rect width="20" height="20" fill="white" transform="translate(2 2)"/>
</clipPath>
</defs>
</svg>
