<svg width="24" height="24" viewBox="0 0 24 24" fill="none" xmlns="http://www.w3.org/2000/svg">
<g clip-path="url(#clip0_0_544)">
<path fill-rule="evenodd" clip-rule="evenodd" d="M7 3.5H4C3.72386 3.5 3.5 3.72386 3.5 4V7C3.5 7.27614 3.72386 7.5 4 7.5H7C7.27614 7.5 7.5 7.27614 7.5 7V4C7.5 3.72386 7.27614 3.5 7 3.5ZM4 2C2.89543 2 2 2.89543 2 4V7C2 8.10457 2.89543 9 4 9H7C8.10457 9 9 8.10457 9 7V4C9 2.89543 8.10457 2 7 2H4Z" fill="#98A2B3"/>
<path fill-rule="evenodd" clip-rule="evenodd" d="M7 16.5H4C3.72386 16.5 3.5 16.7239 3.5 17V20C3.5 20.2761 3.72386 20.5 4 20.5H7C7.27614 20.5 7.5 20.2761 7.5 20V17C7.5 16.7239 7.27614 16.5 7 16.5ZM4 15C2.89543 15 2 15.8954 2 17V20C2 21.1046 2.89543 22 4 22H7C8.10457 22 9 21.1046 9 20V17C9 15.8954 8.10457 15 7 15H4Z" fill="#98A2B3"/>
<path fill-rule="evenodd" clip-rule="evenodd" d="M11 6.75H9V5.25H11C11.9665 5.25 12.75 6.0335 12.75 7V17C12.75 17.9665 11.9665 18.75 11 18.75H9V17.25H11C11.1381 17.25 11.25 17.1381 11.25 17V7C11.25 6.86193 11.1381 6.75 11 6.75Z" fill="#98A2B3"/>
<path fill-rule="evenodd" clip-rule="evenodd" d="M15.5 12.75H12V11.25H15.5V12.75Z" fill="#98A2B3"/>
<path fill-rule="evenodd" clip-rule="evenodd" d="M20 9.5H17C16.7239 9.5 16.5 9.72386 16.5 10V13C16.5 13.2761 16.7239 13.5 17 13.5H20C20.2761 13.5 20.5 13.2761 20.5 13V10C20.5 9.72386 20.2761 9.5 20 9.5ZM17 8C15.8954 8 15 8.89543 15 10V13C15 14.1046 15.8954 15 17 15H20C21.1046 15 22 14.1046 22 13V10C22 8.89543 21.1046 8 20 8H17Z" fill="#98A2B3"/>
</g>
<defs>
<clipPath id="clip0_0_544">
<rect width="20" height="20" fill="white" transform="translate(2 2)"/>
</clipPath>
</defs>
</svg>
