<svg width="20" height="20" viewBox="0 0 20 20" fill="none" xmlns="http://www.w3.org/2000/svg">
<g clip-path="url(#clip0_0_545)">
<path fill-rule="evenodd" clip-rule="evenodd" d="M5 1.5H2C1.72386 1.5 1.5 1.72386 1.5 2V5C1.5 5.27614 1.72386 5.5 2 5.5H5C5.27614 5.5 5.5 5.27614 5.5 5V2C5.5 1.72386 5.27614 1.5 5 1.5ZM2 0C0.895431 0 0 0.89543 0 2V5C0 6.10457 0.89543 7 2 7H5C6.10457 7 7 6.10457 7 5V2C7 0.895431 6.10457 0 5 0H2Z" fill="#98A2B3"/>
<path fill-rule="evenodd" clip-rule="evenodd" d="M5 14.5H2C1.72386 14.5 1.5 14.7239 1.5 15V18C1.5 18.2761 1.72386 18.5 2 18.5H5C5.27614 18.5 5.5 18.2761 5.5 18V15C5.5 14.7239 5.27614 14.5 5 14.5ZM2 13C0.895431 13 0 13.8954 0 15V18C0 19.1046 0.89543 20 2 20H5C6.10457 20 7 19.1046 7 18V15C7 13.8954 6.10457 13 5 13H2Z" fill="#98A2B3"/>
<path fill-rule="evenodd" clip-rule="evenodd" d="M9 4.75H7V3.25H9C9.9665 3.25 10.75 4.0335 10.75 5V15C10.75 15.9665 9.9665 16.75 9 16.75H7V15.25H9C9.13807 15.25 9.25 15.1381 9.25 15V5C9.25 4.86193 9.13807 4.75 9 4.75Z" fill="#98A2B3"/>
<path fill-rule="evenodd" clip-rule="evenodd" d="M13.5 10.75H10V9.25H13.5V10.75Z" fill="#98A2B3"/>
<path fill-rule="evenodd" clip-rule="evenodd" d="M18 7.5H15C14.7239 7.5 14.5 7.72386 14.5 8V11C14.5 11.2761 14.7239 11.5 15 11.5H18C18.2761 11.5 18.5 11.2761 18.5 11V8C18.5 7.72386 18.2761 7.5 18 7.5ZM15 6C13.8954 6 13 6.89543 13 8V11C13 12.1046 13.8954 13 15 13H18C19.1046 13 20 12.1046 20 11V8C20 6.89543 19.1046 6 18 6H15Z" fill="#98A2B3"/>
</g>
<defs>
<clipPath id="clip0_0_545">
<rect width="20" height="20" fill="white"/>
</clipPath>
</defs>
</svg>
