<svg width="24" height="24" viewBox="0 0 24 24" fill="none" xmlns="http://www.w3.org/2000/svg">
<path d="M8.5 4H15.5C16.3125 4 17 4.6875 16.9688 5.53125C16.9375 5.6875 16.9375 5.84375 16.9375 6H20.25C20.6562 6 21 6.34375 21 6.75C21 9.65625 19.9375 11.6562 18.5312 13.0312C17.1562 14.375 15.4688 15.0625 14.2188 15.4062C13.4688 15.5938 12.9688 16.2188 12.9688 16.8438C12.9688 17.4688 13.5 18 14.1562 18H15C15.5312 18 16 18.4688 16 19C16 19.5625 15.5312 20 15 20H9C8.4375 20 8 19.5625 8 19C8 18.4688 8.4375 18 9 18H9.8125C10.4688 18 11 17.4688 11 16.8438C11 16.2188 10.5 15.5938 9.75 15.4062C8.5 15.0625 6.8125 14.375 5.4375 13.0312C4.03125 11.6562 3 9.65625 3 6.75C3 6.34375 3.3125 6 3.75 6H7.03125C7.03125 5.84375 7.03125 5.6875 7 5.53125C6.96875 4.6875 7.65625 4 8.5 4ZM7.15625 7.5H4.5C4.6875 9.59375 5.5 11 6.46875 11.9688C7.1875 12.6562 8 13.125 8.78125 13.4688C8.0625 12.2188 7.4375 10.3438 7.15625 7.5ZM15.1875 13.4688C15.9688 13.125 16.7812 12.6562 17.5 11.9688C18.5 11 19.3125 9.59375 19.4688 7.5H16.8125C16.5312 10.3438 15.9062 12.2188 15.1875 13.4688ZM12.2188 6.71875C12.125 6.53125 11.8438 6.53125 11.75 6.71875L11.1562 7.9375C11.125 8 11.0625 8.0625 10.9688 8.0625L9.625 8.25C9.4375 8.28125 9.34375 8.53125 9.5 8.6875L10.4688 9.625C10.5312 9.6875 10.5625 9.78125 10.5312 9.84375L10.3125 11.1875C10.2812 11.4062 10.5 11.5625 10.6562 11.4375L11.875 10.8125C11.9375 10.7812 12.0312 10.7812 12.0938 10.8125L13.3125 11.4688C13.5 11.5625 13.6875 11.4062 13.6562 11.1875L13.4375 9.84375C13.4375 9.78125 13.4375 9.6875 13.5 9.625L14.4688 8.6875C14.625 8.5625 14.5312 8.28125 14.3438 8.28125L13 8.0625C12.9062 8.0625 12.8438 8 12.8125 7.9375L12.2188 6.71875Z" fill="#393C3C"/>
</svg>
