<svg width="24" height="24" viewBox="0 0 24 24" fill="none" xmlns="http://www.w3.org/2000/svg">
<path d="M14.2115 8.46875C14.2115 8.59375 14.1802 8.6875 14.1177 8.75L13.274 9.5625L13.4927 10.75C13.4927 10.875 13.4615 10.9375 13.3677 11C13.3052 11.0625 13.274 11.0625 13.2115 11.0625C13.149 11.0625 13.1177 11.0625 13.0865 11.0312L12.024 10.4688L10.9927 11.0312C10.8677 11.0938 10.774 11.0625 10.6802 11C10.5865 10.9375 10.5552 10.8438 10.5865 10.75L10.774 9.5625L9.9302 8.75C9.83645 8.6875 9.8052 8.5625 9.83645 8.4375C9.8677 8.34375 9.96145 8.28125 10.0865 8.25L11.2427 8.0625L11.774 7.03125C11.8365 6.9375 11.899 6.875 12.024 6.875C12.149 6.875 12.2115 6.9375 12.274 7.03125L12.8052 8.09375L13.9615 8.25C14.0865 8.28125 14.149 8.34375 14.2115 8.46875ZM20.899 6.5625C20.899 6.625 20.9615 6.90625 21.024 7.40625C21.0552 7.90625 20.9927 8.53125 20.8677 9.28125C20.7427 10.0625 20.399 10.875 19.899 11.6875C18.7115 13.4375 16.7427 14.6562 14.024 15.3438C13.7115 15.4375 13.4615 15.5938 13.2115 15.8438C12.9615 16.0938 12.8052 16.3438 12.8052 16.6562V18.5H15.274C15.7115 18.5625 15.9615 18.8125 16.024 19.25C15.9615 19.7188 15.7115 19.9688 15.274 20H8.8052C8.33645 19.9688 8.08645 19.7188 8.0552 19.25C8.08645 18.8125 8.33645 18.5625 8.8052 18.5H11.274V16.6562C11.2427 16.3438 11.1177 16.0938 10.8677 15.8438C10.6177 15.5938 10.3365 15.4375 10.0552 15.3438C7.3052 14.6562 5.3677 13.4375 4.1802 11.6875C3.64895 10.875 3.3052 10.0625 3.1802 9.28125C3.02395 8.53125 2.96145 7.90625 3.02395 7.40625C3.08645 6.90625 3.1177 6.625 3.14895 6.5625C3.2427 6.21875 3.4927 6.03125 3.8677 6H7.02395V5.78125C6.9927 5.46875 6.9927 5.21875 7.02395 4.96875C7.02395 4.71875 7.14895 4.46875 7.33645 4.28125C7.52395 4.09375 7.7427 4 8.02395 4H16.024C16.274 4 16.524 4.09375 16.7115 4.28125C16.899 4.46875 16.9927 4.71875 17.024 4.96875V6H20.1802C20.5552 6.03125 20.774 6.21875 20.899 6.5625ZM5.4302 10.875C6.1802 11.9688 7.3052 12.8125 8.83645 13.4062C8.27395 12.5 7.83645 11.5312 7.58645 10.4688C7.27395 9.46875 7.1177 8.46875 7.0552 7.5H4.52395C4.4927 7.875 4.52395 8.375 4.64895 8.96875C4.7427 9.59375 4.9927 10.2188 5.4302 10.875ZM12.024 15L12.149 14.875C12.7115 14.25 13.274 13.5625 13.774 12.8125C14.274 12.0938 14.7115 11.1562 15.024 9.96875C15.3365 8.84375 15.524 7.34375 15.524 5.5H8.5552C8.5552 7.34375 8.71145 8.84375 9.02395 10C9.33645 11.1562 9.7427 12.0938 10.274 12.8438C10.774 13.5938 11.3052 14.25 11.899 14.875L12.024 15ZM18.6177 10.875C19.024 10.2188 19.274 9.59375 19.399 8.96875C19.4927 8.375 19.524 7.875 19.524 7.5H16.9927C16.9302 8.4375 16.7427 9.4375 16.4615 10.4688C16.1802 11.5312 15.774 12.5 15.2115 13.4062C16.7115 12.8125 17.8677 11.9688 18.6177 10.875Z" fill="#98A2B3"/>
</svg>
