<svg width="24" height="24" viewBox="0 0 24 24" fill="none" xmlns="http://www.w3.org/2000/svg">
<path d="M11.1562 3.18475C11.6836 2.93842 12.2812 2.93842 12.8086 3.18475L20.5078 6.739C20.7891 6.87977 21 7.16129 21 7.47801C21 7.82991 20.7891 8.11144 20.5078 8.2522L12.8086 11.8065C12.2812 12.0528 11.6836 12.0528 11.1562 11.8065L3.45703 8.2522C3.17578 8.11144 3 7.82991 3 7.47801C3 7.16129 3.17578 6.87977 3.45703 6.739L11.1562 3.18475ZM18.6094 10.3636L20.5078 11.2434C20.7891 11.3842 21 11.6657 21 11.9824C21 12.3343 20.7891 12.6158 20.5078 12.7566L12.8086 16.3109C12.2812 16.5572 11.6836 16.5572 11.1562 16.3109L3.45703 12.7566C3.17578 12.6158 3 12.3343 3 11.9824C3 11.6657 3.17578 11.3842 3.45703 11.2434L5.35547 10.3636L10.6992 12.827C11.5078 13.2141 12.457 13.2141 13.2656 12.827L18.6094 10.3636ZM13.2656 17.3314L18.6094 14.868L20.5078 15.7478C20.7891 15.8886 21 16.1701 21 16.4868C21 16.8387 20.7891 17.1202 20.5078 17.261L12.8086 20.8152C12.2812 21.0616 11.6836 21.0616 11.1562 20.8152L3.45703 17.261C3.17578 17.1202 3 16.8387 3 16.4868C3 16.1701 3.17578 15.8886 3.45703 15.7478L5.35547 14.868L10.6992 17.3314C11.5078 17.7185 12.457 17.7185 13.2656 17.3314Z" fill="#393C3C"/>
</svg>
