<svg width="24" height="24" viewBox="0 0 24 24" fill="none" xmlns="http://www.w3.org/2000/svg">
<path fill-rule="evenodd" clip-rule="evenodd" d="M11.1663 3.18802C11.4223 3.07832 11.69 3.00024 12 3.00024C12.271 3.00024 12.5742 3.07589 12.806 3.191L20.2963 6.55822C20.7144 6.72737 21 7.14357 21 7.63246C21 8.09116 20.7107 8.50468 20.2963 8.67231L12.7993 12.0425C12.5283 12.1587 12.26 12.1959 12 12.1959C11.7075 12.1959 11.4386 12.1592 11.1663 12.0425L11.1631 12.0412L3.66926 8.67231C3.24041 8.49874 3 8.07412 3 7.59807C3 7.15212 3.24384 6.73041 3.66926 6.55822L11.1663 3.18802ZM12.1945 10.687L19.0207 7.59901L12.1876 4.54038C12.1371 4.51515 12.0642 4.49209 12 4.49209C11.9361 4.49209 11.8661 4.51302 11.7615 4.54779L4.94493 7.59901L11.7609 10.6824C11.8268 10.7026 11.8969 10.704 12 10.704C12.0536 10.704 12.0959 10.7039 12.1328 10.7006C12.1504 10.6989 12.1637 10.6968 12.1736 10.6945C12.1785 10.6934 12.182 10.6924 12.1844 10.6916C12.1866 10.6908 12.1876 10.6903 12.1876 10.6903L12.1945 10.687ZM19.0162 16.4054L16.8191 15.4442L18.6372 14.6051L20.2969 15.3628C20.7147 15.5321 21 15.9481 21 16.4368C21 16.8955 20.7107 17.309 20.2963 17.4767L12.7993 20.8469C12.5283 20.963 12.26 21.0002 12 21.0002C11.7075 21.0002 11.4386 20.9635 11.1663 20.8469L11.1631 20.8455L3.66926 17.4767C3.24041 17.3031 3 16.8785 3 16.4024C3 15.9567 3.24363 15.5351 3.66872 15.3628L5.32611 14.6062L7.15093 15.4016L4.94252 16.4023L11.7609 19.4868C11.8268 19.507 11.8969 19.5084 12 19.5084C12.0536 19.5084 12.0959 19.5082 12.1328 19.5049C12.1504 19.5033 12.1637 19.5012 12.1736 19.4989C12.1785 19.4978 12.182 19.4967 12.1844 19.4959C12.1868 19.4951 12.1876 19.4947 12.1876 19.4947L12.1944 19.4913L19.0162 16.4054ZM5.32611 10.204L7.15093 10.9994L4.94252 12.0001L11.7609 15.0846C11.8268 15.1048 11.8969 15.1062 12 15.1062C12.0536 15.1062 12.0959 15.1061 12.1328 15.1027C12.1504 15.1011 12.1637 15.099 12.1736 15.0967C12.1785 15.0956 12.182 15.0946 12.1844 15.0937C12.1866 15.093 12.1876 15.0925 12.1876 15.0925L12.1944 15.0891L19.0162 12.0032L16.8191 11.042L18.6372 10.2029L20.2969 10.9606C20.7147 11.1299 21 11.546 21 12.0346C21 12.4933 20.7107 12.9069 20.2963 13.0745L12.7993 16.4447C12.5283 16.5609 12.26 16.5981 12 16.5981C11.7075 16.5981 11.4386 16.5614 11.1663 16.4447L11.1631 16.4433L3.66926 13.0745C3.24041 12.9009 3 12.4763 3 12.0002C3 11.5545 3.24363 11.133 3.6687 10.9606L5.32611 10.204Z" fill="#98A2B3"/>
</svg>
