<svg width="24" height="24" viewBox="0 0 24 24" fill="none" xmlns="http://www.w3.org/2000/svg">
<g clip-path="url(#clip0_0_958)">
<path d="M12.7071 3.27748C12.3166 2.90751 11.6834 2.90751 11.2929 3.27748L2.29292 11.8038C2.00692 12.0747 1.92137 12.4822 2.07615 12.8362C2.23093 13.1902 2.59557 13.4211 3.00003 13.4211H4V20.0526C4 20.5758 4.44772 21 5 21H9C9.55228 21 10 20.5758 10 20.0526V16.1158C10 15.674 10.3582 15.3158 10.8 15.3158H13.2C13.6418 15.3158 14 15.674 14 16.1158V20.0526C14 20.5758 14.4477 21 15 21H19C19.5523 21 20 20.5758 20 20.0526V13.4211H21C21.4045 13.4211 21.7691 13.1902 21.9239 12.8362C22.0787 12.4822 21.9931 12.0747 21.7071 11.8038L12.7071 3.27748Z" fill="#393C3C"/>
</g>
<defs>
<clipPath id="clip0_0_958">
<rect width="20" height="20" fill="white" transform="translate(2 2)"/>
</clipPath>
</defs>
</svg>
