<svg width="24" height="24" viewBox="0 0 24 24" fill="none" xmlns="http://www.w3.org/2000/svg">
<path d="M11.5092 4.1643C11.7904 3.94523 12.1966 3.94523 12.4778 4.1643L20.7267 11.1746C21.0391 11.4562 21.1016 11.9257 20.8204 12.2386C20.5392 12.5516 20.0705 12.5829 19.7581 12.3325L19.0082 11.6753V17.4963C19.0082 18.9046 17.8833 20 16.5085 20H7.50978C6.10373 20 5.01013 18.9046 5.01013 17.4963V11.6753L4.22899 12.3325C3.91654 12.5829 3.44785 12.5516 3.16664 12.2386C2.91668 11.9257 2.94792 11.4562 3.26038 11.1746L11.5092 4.1643ZM12.0092 5.7291L6.50992 10.3922V17.4963C6.50992 18.0597 6.94736 18.4978 7.50978 18.4978H9.00957V13.7408C9.00957 13.0523 9.54075 12.489 10.2594 12.489H13.7589C14.4463 12.489 15.0087 13.0523 15.0087 13.7408V18.4978H16.5085C17.0397 18.4978 17.5084 18.0597 17.5084 17.4963V10.3922L12.0092 5.7291ZM10.5094 18.4978H13.5089V13.9912H10.5094V18.4978Z" fill="#98A2B3"/>
</svg>
