<svg width="24" height="24" viewBox="0 0 24 24" fill="none" xmlns="http://www.w3.org/2000/svg">
<path d="M13.1111 6.66667H4.22222C3.90972 6.66667 3.66667 6.94444 3.66667 7.22222V16.1111C3.66667 16.4236 3.90972 16.6667 4.22222 16.6667H13.1111C13.3889 16.6667 13.6667 16.4236 13.6667 16.1111V7.22222C13.6667 6.94444 13.3889 6.66667 13.1111 6.66667ZM4.22222 5H13.1111C14.3264 5 15.3333 6.00694 15.3333 7.22222V8.36806V14.9653V16.1111C15.3333 17.3611 14.3264 18.3333 13.1111 18.3333H4.22222C2.97222 18.3333 2 17.3611 2 16.1111V7.22222C2 6.00694 2.97222 5 4.22222 5ZM20.3333 7.95139L16.4444 9.6875V7.88194L20.0556 6.25C20.2292 6.18056 20.4028 6.11111 20.6111 6.11111C21.375 6.11111 22 6.73611 22 7.5V15.8681C22 16.6319 21.375 17.2222 20.6111 17.2222C20.4028 17.2222 20.2292 17.1875 20.0556 17.1181L16.4444 15.4861V13.6458L20.3333 15.4167V7.95139ZM9.5 9.16667V10.8333H11.1667C11.6181 10.8333 12 11.2153 12 11.6667C12 12.1528 11.6181 12.5 11.1667 12.5H9.5V14.1667C9.5 14.6528 9.11806 15 8.66667 15C8.18056 15 7.83333 14.6528 7.83333 14.1667V12.5H6.16667C5.68056 12.5 5.33333 12.1528 5.33333 11.6667C5.33333 11.2153 5.68056 10.8333 6.16667 10.8333H7.83333V9.16667C7.83333 8.71528 8.18056 8.33333 8.66667 8.33333C9.11806 8.33333 9.5 8.71528 9.5 9.16667Z" fill="#98A2B3"/>
</svg>
