<svg width="24" height="24" viewBox="0 0 24 24" fill="none" xmlns="http://www.w3.org/2000/svg">
<path d="M5 6H13C14.0938 6 15 6.90625 15 8V16C15 17.125 14.0938 18 13 18H5C3.875 18 3 17.125 3 16V8C3 6.90625 3.875 6 5 6ZM21 8V16C21 16.375 20.7812 16.7188 20.4688 16.9062C20.125 17.0625 19.75 17.0625 19.4375 16.8438L16.4375 14.8438L16 14.5625V14V10V9.46875L16.4375 9.1875L19.4375 7.1875C19.75 6.96875 20.125 6.96875 20.4688 7.125C20.7812 7.3125 21 7.65625 21 8ZM9.75 9.75C9.75 9.34375 9.40625 9 9 9C8.5625 9 8.25 9.34375 8.25 9.75V11.25H6.75C6.3125 11.25 6 11.5938 6 12C6 12.4375 6.3125 12.75 6.75 12.75H8.25V14.25C8.25 14.6875 8.5625 15 9 15C9.40625 15 9.75 14.6875 9.75 14.25V12.75H11.25C11.6562 12.75 12 12.4375 12 12C12 11.5938 11.6562 11.25 11.25 11.25H9.75V9.75Z" fill="black"/>
</svg>
