<svg width="24" height="24" viewBox="0 0 24 24" fill="none" xmlns="http://www.w3.org/2000/svg">
<path d="M3.28392 5.36914L7.02804 8.01758C7.79171 6.85547 8.98702 5.99219 10.4148 5.72656V5.0625C10.4148 4.49805 10.8796 4 11.4773 4C12.0417 4 12.5398 4.49805 12.5398 5.0625V5.72656C14.9636 6.19141 16.7898 8.34961 16.7898 10.9062V11.5371C16.7898 13.0977 17.3542 14.625 18.3835 15.7871L18.6159 16.0527C18.9148 16.3848 18.9812 16.8164 18.8152 17.2148C18.8152 17.2148 18.7819 17.2148 18.7819 17.248L21.4714 19.3066C21.8366 19.5723 21.903 20.0703 21.6042 20.4023C21.3386 20.7676 20.8405 20.834 20.5085 20.5352L2.32103 6.59766C1.95579 6.33203 1.88938 5.83399 2.18821 5.50196C2.45384 5.13672 2.95189 5.07032 3.28392 5.36914ZM14.3327 17.8125H5.10226C4.67062 17.8125 4.27218 17.5801 4.10617 17.2148C3.94015 16.8164 4.00656 16.3848 4.30539 16.0527L4.53781 15.7871C5.5671 14.625 6.16476 13.0977 6.16476 11.5371V11.4043L14.3327 17.8125ZM12.9714 20.4023C12.573 20.8008 12.0417 21 11.4773 21C10.9128 21 10.3484 20.8008 9.94992 20.4023C9.55148 20.0039 9.35226 19.4395 9.35226 18.875H11.4773H13.6023C13.6023 19.4395 13.3698 20.0039 12.9714 20.4023Z" fill="#393C3C"/>
</svg>
