<svg width="24" height="24" viewBox="0 0 24 24" fill="none" xmlns="http://www.w3.org/2000/svg">
<path d="M21.6274 19.2402C21.9594 19.5723 21.9926 19.9707 21.727 20.3691C21.5278 20.5684 21.3286 20.668 21.0961 20.668C20.9301 20.668 20.7641 20.6348 20.6313 20.502L2.87936 7C2.51413 6.66797 2.48093 6.30273 2.74655 5.87109C3.07858 5.53906 3.44382 5.47266 3.87546 5.73828L7.25044 8.01758C8.01412 6.85547 9.14302 6.0918 10.604 5.75977V5.0625C10.604 4.76367 10.7036 4.49805 10.9028 4.29883C11.0688 4.09961 11.3012 4 11.6333 4C11.9321 4 12.1977 4.09961 12.3969 4.29883C12.5961 4.49805 12.6958 4.76367 12.6958 5.0625V5.75977C13.9243 6.02539 14.9204 6.62305 15.7172 7.55273C16.5141 8.48242 16.9126 9.61133 16.9458 10.9062C16.9458 12.4668 17.145 13.5957 17.5434 14.3262C17.9086 15.0566 18.2739 15.5879 18.6391 15.8867L18.7719 16.0195C18.9711 16.252 19.0708 16.4844 19.0708 16.75C19.0708 16.916 19.0044 17.082 18.9379 17.2148L21.6274 19.2402ZM8.47896 9.01367L16.1157 14.9902C15.6508 14.0938 15.3852 12.7324 15.352 10.9395V10.9062C15.3188 9.84375 14.9536 8.98047 14.2563 8.2832C13.559 7.58594 12.6958 7.2207 11.6333 7.1875C10.936 7.1875 10.3051 7.35352 9.77388 7.68555C9.24263 8.01758 8.81099 8.48242 8.47896 9.01367ZM11.6001 21C11.0024 21 10.5376 20.7676 10.1391 20.3691C9.74068 19.9707 9.50826 19.5059 9.50826 18.9082H13.7251C13.6919 19.5059 13.4926 19.9707 13.0942 20.3691C12.6958 20.7676 12.1977 21 11.6001 21ZM6.45357 16.2188H12.4965L14.5219 17.8125L5.25826 17.7461C4.92623 17.7461 4.6606 17.6465 4.49459 17.4473C4.29537 17.248 4.19576 17.0156 4.19576 16.7168C4.19576 16.4844 4.29537 16.252 4.49459 15.9863L4.56099 15.9199C4.89302 15.6543 5.22505 15.1562 5.62349 14.4922C5.98873 13.8281 6.22115 12.7656 6.32076 11.3379L7.8149 12.5332C7.68209 13.4629 7.48287 14.1934 7.25044 14.791C6.98482 15.3887 6.71919 15.8867 6.45357 16.2188Z" fill="#98A2B3"/>
</svg>
