<svg width="24" height="24" viewBox="0 0 24 24" fill="none" xmlns="http://www.w3.org/2000/svg">
<path d="M12.5 3C13.8616 3.04688 15 3.53906 15.9152 4.47656C16.808 5.4375 17.2768 6.63281 17.3214 8.0625V9.75H17.8571C18.4598 9.77344 18.9621 9.99609 19.3638 10.418C19.7656 10.8398 19.9777 11.3672 20 12V18.75C19.9777 19.3828 19.7656 19.9102 19.3638 20.332C18.9621 20.7539 18.4598 20.9766 17.8571 21H7.14286C6.54018 20.9766 6.03795 20.7539 5.63616 20.332C5.23437 19.9102 5.02232 19.3828 5 18.75V12C5.02232 11.3672 5.23437 10.8398 5.63616 10.418C6.03795 9.99609 6.54018 9.77344 7.14286 9.75H7.67857V8.0625C7.72321 6.63281 8.19196 5.4375 9.08482 4.47656C10 3.53906 11.1384 3.04688 12.5 3ZM12.5 5.25C11.7411 5.27344 11.1049 5.54297 10.5915 6.05859C10.1004 6.59766 9.84375 7.26562 9.82143 8.0625V9.75H15.1786V8.0625C15.1562 7.26562 14.8996 6.59766 14.4085 6.05859C13.8951 5.54297 13.2589 5.27344 12.5 5.25ZM13.5714 14.25C13.5714 13.9219 13.471 13.6523 13.2701 13.4414C13.0692 13.2305 12.8125 13.125 12.5 13.125C12.1875 13.125 11.9308 13.2305 11.7299 13.4414C11.529 13.6523 11.4286 13.9219 11.4286 14.25V16.5C11.4286 16.8281 11.529 17.0977 11.7299 17.3086C11.9308 17.5195 12.1875 17.625 12.5 17.625C12.8125 17.625 13.0692 17.5195 13.2701 17.3086C13.471 17.0977 13.5714 16.8281 13.5714 16.5V14.25Z" fill="#393C3C"/>
</svg>
