<svg width="24" height="24" viewBox="0 0 24 24" fill="none" xmlns="http://www.w3.org/2000/svg">
<path d="M12.5 4.24731C10.7561 4.24731 9.34116 5.73553 9.34116 7.56985V9.78488H15.6589V7.56985C15.6589 5.73553 14.244 4.24731 12.5 4.24731ZM8.28821 7.56985C8.28821 5.14716 10.1638 3.1398 12.5 3.1398C14.8034 3.1398 16.7119 5.14716 16.7119 7.56985V9.78488H17.2383C18.6861 9.78488 19.8707 11.0308 19.8707 12.5537V18.0912C19.8707 19.6487 18.6861 20.86 17.2383 20.86H7.76173C6.28101 20.86 5.12934 19.6487 5.12934 18.0912V12.5537C5.12934 11.0308 6.28101 9.78488 7.76173 9.78488H8.28821V7.56985ZM7.76173 10.8924C6.8733 10.8924 6.1823 11.6538 6.1823 12.5537V18.0912C6.1823 19.0257 6.8733 19.7525 7.76173 19.7525H17.2383C18.0939 19.7525 18.8178 19.0257 18.8178 18.0912V12.5537C18.8178 11.6538 18.0939 10.8924 17.2383 10.8924H7.76173ZM13.0265 13.938V16.7068C13.0265 17.0183 12.7633 17.2606 12.5 17.2606C12.2039 17.2606 11.9736 17.0183 11.9736 16.7068V13.938C11.9736 13.6612 12.2039 13.3843 12.5 13.3843C12.7633 13.3843 13.0265 13.6612 13.0265 13.938Z" fill="#98A2B3"/>
<path fill-rule="evenodd" clip-rule="evenodd" d="M12.5 4.38721C10.824 4.38721 9.47047 5.81648 9.47047 7.56985V9.64498H15.5296V7.56985C15.5296 5.81648 14.176 4.38721 12.5 4.38721ZM15.6589 7.56985C15.6589 5.73553 14.244 4.24731 12.5 4.24731C10.7561 4.24731 9.34116 5.73553 9.34116 7.56985V9.78488H15.6589V7.56985ZM8.1589 7.56985C8.1589 5.06691 10.0952 2.9999 12.5 2.9999C14.8713 2.9999 16.8412 5.06621 16.8412 7.56985V9.64498H17.2383C18.7541 9.64498 20 10.9499 20 12.5537V18.0912C20 19.7307 18.753 20.9999 17.2383 20.9999H7.76173C6.21305 20.9999 5.00003 19.7296 5.00003 18.0912V12.5537C5.00003 10.951 6.21199 9.64498 7.76173 9.64498H8.1589V7.56985ZM8.28821 7.56985C8.28821 5.14716 10.1638 3.1398 12.5 3.1398C14.8034 3.1398 16.7119 5.14716 16.7119 7.56985V9.78488H17.2383C18.6861 9.78488 19.8707 11.0308 19.8707 12.5537V18.0912C19.8707 19.6487 18.6861 20.86 17.2383 20.86H7.76173C6.28101 20.86 5.12934 19.6487 5.12934 18.0912V12.5537C5.12934 11.0308 6.28101 9.78488 7.76173 9.78488H8.28821V7.56985ZM7.76173 11.0323C6.94303 11.0323 6.31161 11.7329 6.31161 12.5537V18.0912C6.31161 18.9447 6.94126 19.6126 7.76173 19.6126H17.2383C18.0277 19.6126 18.6885 18.9429 18.6885 18.0912V12.5537C18.6885 11.7348 18.0259 11.0323 17.2383 11.0323H7.76173ZM13.1558 13.938V16.7068C13.1558 17.1047 12.8259 17.4005 12.5 17.4005C12.1359 17.4005 11.8442 17.0993 11.8442 16.7068V13.938C11.8442 13.5858 12.1307 13.2444 12.5 13.2444C12.6724 13.2444 12.8349 13.3337 12.9521 13.457C13.0691 13.5801 13.1558 13.7527 13.1558 13.938ZM6.1823 12.5537C6.1823 11.6538 6.8733 10.8924 7.76173 10.8924H17.2383C18.0939 10.8924 18.8178 11.6538 18.8178 12.5537V18.0912C18.8178 19.0257 18.0939 19.7525 17.2383 19.7525H7.76173C6.8733 19.7525 6.1823 19.0257 6.1823 18.0912V12.5537ZM13.0265 16.7068V13.938C13.0265 13.6612 12.7633 13.3843 12.5 13.3843C12.2039 13.3843 11.9736 13.6612 11.9736 13.938V16.7068C11.9736 17.0183 12.2039 17.2606 12.5 17.2606C12.7633 17.2606 13.0265 17.0183 13.0265 16.7068Z" fill="#98A2B3"/>
</svg>
