<svg width="24" height="24" viewBox="0 0 24 24" fill="none" xmlns="http://www.w3.org/2000/svg">
<path d="M9.5868 4C7.34151 4.05116 6.03006 4.26489 5.13401 5.15783C4.34978 5.93934 4.08763 7.03795 4 8.8M14.4132 4C16.6585 4.05116 17.9699 4.26489 18.866 5.15783C19.6502 5.93934 19.9124 7.03795 20 8.8M14.4132 20C16.6585 19.9488 17.9699 19.7351 18.866 18.8422C19.6502 18.0607 19.9124 16.9621 20 15.2M9.5868 20C7.34151 19.9488 6.03006 19.7351 5.13401 18.8422C4.34978 18.0607 4.08763 16.9621 4 15.2" stroke="#98A2B3" stroke-width="1.5" stroke-linecap="round" stroke-linejoin="round"/>
<path d="M8.21053 16.2105C10.1741 14.154 13.8048 14.0571 15.7895 16.2105M14.1011 9.89474C14.1011 11.0574 13.1572 12 11.9929 12C10.8285 12 9.8846 11.0574 9.8846 9.89474C9.8846 8.73203 10.8285 7.78947 11.9929 7.78947C13.1572 7.78947 14.1011 8.73203 14.1011 9.89474Z" stroke="#98A2B3" stroke-width="1.5" stroke-linecap="round"/>
</svg>
