<svg width="24" height="24" viewBox="0 0 24 24" fill="none" xmlns="http://www.w3.org/2000/svg">
<path fill-rule="evenodd" clip-rule="evenodd" d="M17.6908 11.0062L13.3777 6.6716C13.1841 6.47579 13.1011 6.21518 13.1011 5.97669C13.1011 5.73821 13.1835 5.47818 13.3771 5.28236C13.7492 4.90588 14.3987 4.90588 14.7708 5.28236L20.724 11.3057C20.9176 11.5015 21 11.7615 21 12C21 12.2385 20.9176 12.4985 20.724 12.6943L14.7708 18.7176C14.3987 19.0941 13.7492 19.0941 13.3771 18.7176C13.1835 18.5218 13.1011 18.2618 13.1011 18.0233C13.1011 17.7848 13.1835 17.5248 13.3771 17.329L17.6956 12.9596H3.97283C3.42257 12.9596 3 12.5204 3 11.9829C3 11.4979 3.4049 11.0062 3.97283 11.0062H17.6908Z" fill="#393C3C"/>
</svg>
