<svg width="24" height="24" viewBox="0 0 24 24" fill="none" xmlns="http://www.w3.org/2000/svg">
<g clip-path="url(#clip0_0_739)">
<path d="M8.41423 2.95286L9.97868 6.70754C10.2525 7.33331 10.096 8.07643 9.54845 8.50665L7.63201 10.1102C8.92268 12.848 11.152 15.0773 13.8898 16.368L15.4934 14.4515C15.9236 13.904 16.6667 13.7475 17.2925 14.0213L21.0471 15.5858C21.7902 15.8595 22.1422 16.6809 21.9467 17.424L21.008 20.8658C20.8125 21.5307 20.2258 22 19.5218 22C9.82223 22 2 14.1778 2 4.4782C2 3.7742 2.46933 3.18753 3.13422 2.99198L6.57601 2.05331C7.31912 1.85775 8.14045 2.20975 8.41423 2.95286Z" fill="#393C3C"/>
</g>
<defs>
<clipPath id="clip0_0_739">
<rect width="20" height="20" fill="white" transform="translate(2 2)"/>
</clipPath>
</defs>
</svg>
