<svg width="24" height="24" viewBox="0 0 24 24" fill="none" xmlns="http://www.w3.org/2000/svg">
<path d="M16.1868 12.6822L20.1253 14.3668C20.7582 14.6125 21.1099 15.2793 20.9692 15.9461L20.1253 19.8769C19.9846 20.5087 19.422 21 18.7538 21C18.5077 21 18.2967 20.9649 18.0857 20.9649C17.945 20.9649 17.7692 20.9649 17.6286 20.9298C9.43516 20.3683 3 13.5596 3 5.24179C3 4.61006 3.45714 4.01342 4.09011 3.87304L8.02857 3.03073C8.6967 2.89034 9.36483 3.2413 9.61098 3.87304L11.2989 7.80381C11.545 8.36535 11.4044 9.03218 10.9121 9.41824L9.47032 10.6115C10.4198 12.2259 11.756 13.5596 13.3736 14.5072L14.5692 13.0683C14.956 12.5769 15.6242 12.4365 16.1868 12.6822ZM18.7187 19.8418C18.8593 19.8418 18.9648 19.7716 19 19.6312L19.8439 15.7005C19.8791 15.5601 19.8088 15.4548 19.7033 15.3846L15.7648 13.7C15.6242 13.6649 15.5187 13.7 15.4132 13.7702L14.2527 15.2091C13.9011 15.6303 13.3033 15.7356 12.811 15.4548C11.0176 14.437 9.54065 12.963 8.52087 11.1731C8.23956 10.6817 8.34505 10.0851 8.76703 9.73411L10.2088 8.57593C10.2791 8.47064 10.3143 8.36535 10.2791 8.22497L8.5912 4.29419C8.52087 4.1889 8.41538 4.11871 8.27472 4.15381L4.33626 4.99612C4.1956 4.99612 4.12527 5.1365 4.12527 5.24179C4.12527 13.3139 10.6659 19.8418 18.7187 19.8418Z" fill="#98A2B3"/>
</svg>
