<svg width="24" height="24" viewBox="0 0 24 24" fill="none" xmlns="http://www.w3.org/2000/svg">
<path d="M17 18V10H13.5C12.6719 10 12 9.32813 12 8.5V5H8C7.44687 5 7 5.44688 7 6V18C7 18.5531 7.44687 19 8 19H16C16.5531 19 17 18.5531 17 18ZM16.9844 9C16.9625 8.9125 16.9187 8.83125 16.8531 8.76875L13.2312 5.14688C13.1656 5.08125 13.0875 5.0375 13 5.01563V8.5C13 8.775 13.225 9 13.5 9H16.9844ZM6 6C6 4.89688 6.89688 4 8 4H12.8781C13.275 4 13.6562 4.15938 13.9375 4.44063L17.5594 8.05938C17.8406 8.34063 18 8.72188 18 9.11875V18C18 19.1031 17.1031 20 16 20H8C6.89688 20 6 19.1031 6 18V6Z" fill="#98A2B3"/>
</svg>
