<svg width="24" height="24" viewBox="0 0 24 24" fill="none" xmlns="http://www.w3.org/2000/svg">
<g clip-path="url(#clip0_0_826)">
<path d="M3.18762 4.18738L6.68762 6.90613C8.09387 5.84363 9.84387 4.99988 12.0001 4.99988C14.5001 4.99988 16.5314 6.15613 18.0001 7.53113C19.4689 8.87488 20.4376 10.4999 20.9064 11.6249C21.0001 11.8749 21.0001 12.1561 20.9064 12.4061C20.5001 13.4061 19.6564 14.8436 18.4064 16.0936L21.6876 18.6874C22.0314 18.9374 22.0939 19.4061 21.8126 19.7186C21.5626 20.0624 21.0939 20.1249 20.7814 19.8436L2.28137 5.34363C1.93762 5.09363 1.87512 4.62488 2.15637 4.31238C2.40637 3.96863 2.87512 3.90613 3.18762 4.18738ZM8.96887 8.68738L11.7814 10.9061C11.9064 10.6249 12.0001 10.3436 12.0001 10.0311C12.0001 9.78113 11.9376 9.59363 11.8751 9.37488C11.8439 9.21863 11.9376 8.99988 12.1251 9.03113C13.4064 9.06238 14.5314 9.93738 14.8751 11.2499C15.0626 11.9374 15.0001 12.6249 14.7501 13.2186L15.9376 14.1561C16.2814 13.5311 16.5001 12.7811 16.5001 11.9999C16.5001 9.53113 14.4689 7.49988 12.0001 7.49988C10.8126 7.49988 9.75012 7.96863 8.96887 8.68738ZM13.6564 16.1874L15.9376 17.9999C14.7814 18.6249 13.4689 18.9999 12.0001 18.9999C9.46887 18.9999 7.43762 17.8749 5.96887 16.4999C4.50012 15.1249 3.53137 13.4999 3.06262 12.4061C2.96887 12.1561 2.96887 11.8749 3.06262 11.6249C3.37512 10.9061 3.87512 9.99988 4.59387 9.06238L7.53137 11.3749C7.50012 11.5936 7.50012 11.8124 7.50012 11.9999C7.50012 14.4999 9.50012 16.4999 12.0001 16.4999C12.5626 16.4999 13.1251 16.4061 13.6564 16.1874Z" fill="#393C3C"/>
</g>
<defs>
<clipPath id="clip0_0_826">
<rect width="20" height="20" fill="white" transform="translate(2 2)"/>
</clipPath>
</defs>
</svg>
