<svg width="24" height="24" viewBox="0 0 24 24" fill="none" xmlns="http://www.w3.org/2000/svg">
<g clip-path="url(#clip0_0_461)">
<path d="M21.7187 18.6562C22.0312 19 22.0625 19.3438 21.8125 19.6875C21.5 20.0312 21.125 20.0625 20.75 19.8125L2.28121 5.34375C1.93746 5.03125 1.90621 4.6875 2.15621 4.28125C2.31246 4.09375 2.49996 4 2.74996 4C2.90621 4 3.06246 4.0625 3.21871 4.15625L6.65621 6.90625C8.21871 5.71875 9.99996 5.09375 12 5.0625C13.9375 5.09375 15.6875 5.6875 17.25 6.84375C18.8125 8 20.0312 9.5625 20.9062 11.5C20.9687 11.6875 21 11.8438 21 12.0312C21 12.2188 20.9687 12.4062 20.9062 12.5625C20.2812 13.9375 19.4687 15.125 18.4687 16.125L21.7187 18.6562ZM14.3125 12.875C14.4375 12.625 14.5 12.3125 14.5 12C14.4687 11.3125 14.2187 10.7188 13.7812 10.2188C13.2812 9.78125 12.6875 9.53125 12 9.5H11.9687H11.9062C11.9375 9.6875 11.9687 9.84375 11.9687 10C11.9375 10.3125 11.875 10.625 11.7812 10.9062L14.3125 12.875ZM15.5312 13.8125L17.2812 15.1562C18.1562 14.3125 18.9062 13.25 19.5 11.9688C18.6875 10.2812 17.6562 8.96875 16.3437 7.96875C15.0312 7.03125 13.5625 6.53125 12 6.5C10.5 6.53125 9.12496 6.96875 7.87496 7.8125L9.37496 9C10.0937 8.375 10.9687 8.03125 12 8C13.125 8.03125 14.0625 8.4375 14.8437 9.1875C15.5937 9.9375 15.9687 10.875 16 12C15.9687 12.6875 15.8125 13.2812 15.5312 13.8125ZM12 16C10.875 16 9.90621 15.5938 9.15621 14.8438C8.40621 14.0938 7.99996 13.125 7.99996 12V11.8438C7.99996 11.8125 8.03121 11.7812 8.03121 11.75L9.78121 13.125C10.125 13.8125 10.6875 14.25 11.4687 14.4375L13.1875 15.8125C12.8125 15.9375 12.4062 16 12 16ZM12 17.5C12.9375 17.5 13.8125 17.3125 14.625 16.9062L15.9687 17.9688C14.7187 18.6562 13.4062 18.9688 11.9687 18.9688C10.0312 18.9688 8.28121 18.375 6.71871 17.1875C5.15621 16.0625 3.93746 14.5 3.09371 12.5312C2.99996 12.375 2.96871 12.1875 2.96871 12C2.96871 11.8125 3.03121 11.6562 3.09371 11.4688C3.46871 10.5938 3.96871 9.75 4.53121 9L5.71871 9.96875C5.24996 10.5938 4.84371 11.2812 4.49996 12.0312C5.28121 13.7188 6.34371 15.0625 7.65621 16.0312C8.96871 17 10.4062 17.5 12 17.5Z" fill="#98A2B3"/>
</g>
<defs>
<clipPath id="clip0_0_461">
<rect width="20" height="20" fill="white" transform="translate(2 2)"/>
</clipPath>
</defs>
</svg>
