<svg width="24" height="24" viewBox="0 0 24 24" fill="none" xmlns="http://www.w3.org/2000/svg">
<path d="M7 6.99763C6.4375 6.99763 6 7.46583 6 7.99645V8.99526H13C14.0938 8.99526 15 9.90044 15 10.9929V16.9858C15 18.1095 14.0938 18.9834 13 18.9834H5C3.875 18.9834 3 18.1095 3 16.9858V10.9929C3 10.275 3.375 9.61952 4 9.27618V7.99645C4 6.34216 5.34375 5 7 5H12C12.5312 5 13 5.46819 13 5.99882C13 6.56065 12.5312 6.99763 12 6.99763H7ZM20.4688 9.12011C20.7812 9.30739 21 9.65073 21 9.99408V17.9846C21 18.3592 20.7812 18.7025 20.4688 18.8898C20.125 19.0458 19.75 19.0458 19.4375 18.8273L16.4375 16.8297L16 16.5488V15.987V11.9917V11.4611L16.4375 11.1802L19.4375 9.18254C19.75 8.96405 20.125 8.96405 20.4688 9.12011ZM5.5 10.9929C5.21875 10.9929 5 11.2426 5 11.4923C5 11.7732 5.21875 11.9917 5.5 11.9917H12.5C12.75 11.9917 13 11.7732 13 11.4923C13 11.2426 12.75 10.9929 12.5 10.9929H5.5Z" fill="#393C3C"/>
</svg>
