<svg width="24" height="24" viewBox="0 0 24 24" fill="none" xmlns="http://www.w3.org/2000/svg">
<path d="M12.75 11.5C13.1875 11.5625 13.4375 11.8125 13.5 12.25C13.4375 12.7188 13.1875 12.9688 12.75 13H6.25C5.78125 12.9688 5.53125 12.7188 5.5 12.25C5.53125 11.8125 5.78125 11.5625 6.25 11.5H12.75ZM20.4375 9.6875C20.7812 9.96875 20.9688 10.3125 21 10.75V17.2188C20.9688 17.7188 20.7812 18.0625 20.4375 18.3125C20.2188 18.4375 20 18.5 19.75 18.5C19.5625 18.5 19.375 18.4688 19.2188 18.375L16 16.9062V17C15.9688 17.5625 15.7812 18.0312 15.4062 18.4062C15.0312 18.7812 14.5625 19 14 19L5 18.9062C4.4375 18.9062 3.96875 18.7188 3.59375 18.3438C3.21875 17.9688 3 17.5 3 16.9375V10.9688C3 10.5312 3.125 10.125 3.4375 9.78125C3.6875 9.4375 4.0625 9.1875 4.5 9.0625V7.75C4.5 7 4.78125 6.34375 5.3125 5.8125C5.8125 5.3125 6.46875 5.03125 7.25 5H12.25C12.6875 5.0625 12.9375 5.3125 13 5.75C12.9375 6.21875 12.6875 6.46875 12.25 6.5H7.25C6.875 6.5 6.59375 6.625 6.375 6.875C6.125 7.125 6 7.40625 6 7.75V8.96875L14 9C14.5625 9.03125 15.0312 9.21875 15.4062 9.59375C15.7812 9.96875 15.9688 10.4375 16 11V11.0938L19.2188 9.625C19.625 9.4375 20.0312 9.46875 20.4375 9.6875ZM14.5 17V11C14.4688 10.6875 14.3125 10.5312 14 10.5H5C4.6875 10.5312 4.5 10.6875 4.5 11V17C4.5 17.3125 4.6875 17.5 5 17.5H14C14.3125 17.5 14.4688 17.3125 14.5 17ZM19.5 16.875V11.125L16 12.75V15.25L19.5 16.875Z" fill="#98A2B3"/>
</svg>
