<svg width="24" height="24" viewBox="0 0 24 24" fill="none" xmlns="http://www.w3.org/2000/svg">
<path d="M8.71231 17.4241L9.82917 16.3353C10.0714 16.0991 10.4616 16.11 10.7333 16.312Lnan nanL10.7333 16.312C11.0772 16.5676 11.1647 17.0766 10.8611 17.3784L9.7485 18.4847C8.83421 19.3332 7.79802 19.7574 6.63993 19.7574C5.45135 19.7574 4.41516 19.3332 3.53135 18.4847C2.67802 17.6059 2.25135 16.5756 2.25135 15.3938C2.25135 14.2422 2.67802 13.2119 3.53135 12.3029L5.87802 9.99982L7.03612 10.8786L4.56754 13.3029C3.9885 13.9089 3.71421 14.6059 3.71421 15.3635C3.71421 16.1513 3.9885 16.8483 4.56754 17.4241C5.17707 17.9998 5.84755 18.2726 6.63993 18.2726C7.40183 18.2726 8.10279 17.9998 8.71231 17.4241ZM17.0933 15.0604L21.4514 18.4241C21.7561 18.7271 21.8171 19.0907 21.5733 19.4544C21.2685 19.7877 20.9028 19.818 20.5371 19.5756L2.52564 5.54528C2.1904 5.24225 2.15992 4.90892 2.40373 4.51498C2.55611 4.33316 2.73897 4.24225 2.98278 4.24225C3.13516 4.24225 3.28754 4.30285 3.43992 4.39376L8.16374 8.06043C8.74279 7.7574 9.38279 7.60589 10.0837 7.60589C11.2723 7.63619 12.3085 8.06043 13.1923 8.87861C14.0152 9.7574 14.4418 10.7877 14.4723 11.9695C14.4723 12.3029 14.4114 12.6059 14.3504 12.9089L15.9352 14.1513C15.9352 14.1513 15.9352 14.121 15.9656 14.121C15.9656 14.121 15.9656 14.0907 15.9961 14.0907L19.4399 10.6665C19.9885 10.0604 20.2933 9.39376 20.2933 8.60589C20.2933 7.84831 19.9885 7.15134 19.4399 6.54528C18.8304 5.99982 18.1295 5.69679 17.3676 5.69679C16.5752 5.69679 15.9047 5.99982 15.2952 6.54528L14.1863 7.64788C13.9372 7.89551 13.5364 7.90155 13.2494 7.69849Lnan nanL13.2494 7.69849C12.896 7.4484 12.8241 6.94167 13.1309 6.63669L14.259 5.51498C15.1733 4.66649 16.2095 4.24225 17.3676 4.24225C18.5257 4.24225 19.5618 4.66649 20.4761 5.51498C21.3295 6.42407 21.7561 7.45437 21.7561 8.60589C21.7561 9.7574 21.3295 10.7877 20.4761 11.6968L17.0933 15.0604ZM9.53517 9.15134L13.0095 11.8483C12.9485 11.121 12.6742 10.4544 12.1561 9.90892C11.7904 9.57558 11.3942 9.33316 10.9371 9.21195C10.4495 9.09073 9.99231 9.09073 9.53517 9.15134ZM10.8152 15.121C10.1752 14.515 9.77898 13.7574 9.59612 12.9089L14.0761 16.3938H13.9847H13.9237C12.7047 16.3938 11.6685 15.9695 10.8152 15.121Z" fill="#393C3C"/>
<path fill-rule="evenodd" clip-rule="evenodd" d="M4.5676 13.303C3.98856 13.9091 3.71427 14.6061 3.71427 15.3636C3.71427 16.1515 3.98856 16.8485 4.5676 17.4242C5.17713 18 5.84761 18.2727 6.63999 18.2727C7.40189 18.2727 8.10285 18 8.71237 17.4242L9.82923 16.3355C10.0715 16.0993 10.4616 16.1102 10.7334 16.3122C11.0772 16.5678 11.1647 17.0767 10.8611 17.3786L9.74856 18.4848C8.83427 19.3333 7.79808 19.7576 6.63999 19.7576C5.45141 19.7576 4.41522 19.3333 3.53141 18.4848C2.67808 17.6061 2.25141 16.5758 2.25141 15.3939C2.25141 14.2424 2.67808 13.2121 3.53141 12.303L5.87808 10L7.03618 10.8788L4.5676 13.303ZM8.54307 17.2498C7.97758 17.7834 7.33664 18.0303 6.63999 18.0303C5.91459 18.0303 5.30399 17.7846 4.73781 17.2506C4.2076 16.7224 3.95808 16.0885 3.95808 15.3636C3.95808 14.6715 4.20602 14.0347 4.74174 13.4728L7.40708 10.8553L5.85759 9.67949L3.36014 12.1305L3.35317 12.1376C2.46138 13.0877 2.0076 14.1759 2.0076 15.3939C2.0076 16.6409 2.46044 17.7309 3.35602 18.6532L3.36206 18.6592C4.28963 19.5497 5.38591 20 6.63999 20C7.86503 20 8.95943 19.5488 9.91492 18.6621L11.0335 17.55C11.4638 17.1222 11.3163 16.4429 10.8794 16.118C10.5315 15.8594 10.0036 15.8261 9.65854 16.1624L8.54307 17.2498ZM21.613 18.2421L21.6238 18.2528C21.8046 18.4325 21.9285 18.646 21.9599 18.8853C21.9916 19.127 21.9252 19.3668 21.7762 19.589L21.766 19.6042L21.7537 19.6176C21.5706 19.8179 21.3513 19.9454 21.1044 19.9721C20.8588 19.9986 20.6196 19.9218 20.4019 19.7775L20.3941 19.7723L2.36831 5.73081L2.36169 5.72483C2.16364 5.54581 2.03265 5.33607 2.00528 5.09117C1.97825 4.84925 2.05691 4.61307 2.19615 4.3881L2.20531 4.3733L2.21649 4.35996C2.41299 4.12549 2.6633 4 2.98284 4C3.19913 4 3.39667 4.08538 3.56542 4.18606L3.57824 4.19371L8.19227 7.77516C8.77065 7.50001 9.40238 7.36364 10.0838 7.36364H10.0901C11.3391 7.39548 12.4319 7.84356 13.3585 8.70136L13.3649 8.70726L13.3708 8.7136C14.2335 9.63493 14.6841 10.7215 14.7161 11.9635L14.7163 11.9697C14.7163 12.2729 14.6694 12.5513 14.6187 12.8106L15.916 13.8278L19.263 10.4998C19.7766 9.93072 20.0495 9.32112 20.0495 8.60606C20.0495 7.92191 19.7772 7.28409 19.2673 6.71713C18.6971 6.21021 18.0557 5.93939 17.3676 5.93939C16.6485 5.93939 16.0354 6.21077 15.463 6.72144L14.3587 7.81948C14.0135 8.16273 13.4775 8.15758 13.1081 7.89617C12.6471 7.56995 12.5323 6.88926 12.9585 6.46545L14.0926 5.33782C15.0481 4.4511 16.1426 4 17.3676 4C18.5927 4 19.6871 4.4512 20.6425 5.33793L20.6487 5.34363L20.6544 5.34974C21.5462 6.2998 22 7.38798 22 8.60606C22 9.82414 21.5462 10.9123 20.6544 11.8624L20.6487 11.8685L17.4612 15.0377L21.613 18.2421ZM17.0933 15.0606L20.4762 11.697C21.3295 10.7879 21.7562 9.75758 21.7562 8.60606C21.7562 7.45455 21.3295 6.42424 20.4762 5.51515C19.5619 4.66667 18.5257 4.24242 17.3676 4.24242C16.2095 4.24242 15.1733 4.66667 14.259 5.51515L13.1309 6.63687C12.8242 6.94184 12.8961 7.44858 13.2495 7.69866C13.5364 7.90172 13.9373 7.89569 14.1863 7.64806L15.2952 6.54545C15.9048 6 16.5752 5.69697 17.3676 5.69697C18.1295 5.69697 18.8305 6 19.44 6.54545C19.9886 7.15152 20.2933 7.84848 20.2933 8.60606C20.2933 9.39394 19.9886 10.0606 19.44 10.6667L15.9962 14.0909C15.9896 14.0909 15.9845 14.0923 15.9804 14.0945C15.9732 14.0985 15.9695 14.1051 15.9676 14.1107C15.9657 14.1164 15.9657 14.1212 15.9657 14.1212C15.9632 14.1212 15.9609 14.1214 15.9588 14.1218C15.9352 14.126 15.9352 14.1515 15.9352 14.1515L14.3505 12.9091C14.4114 12.6061 14.4724 12.303 14.4724 11.9697C14.4419 10.7879 14.0152 9.75758 13.1924 8.87879C12.3086 8.06061 11.2724 7.63636 10.0838 7.60606C9.38285 7.60606 8.74285 7.75758 8.1638 8.06061L3.43998 4.39394C3.2876 4.30303 3.13522 4.24242 2.98284 4.24242C2.73903 4.24242 2.55617 4.33333 2.40379 4.51515C2.15998 4.90909 2.19046 5.24242 2.5257 5.54545L20.5371 19.5758C20.9029 19.8182 21.2686 19.7879 21.5733 19.4545C21.8171 19.0909 21.7562 18.7273 21.4514 18.4242L17.0933 15.0606ZM14.0762 16.3939H13.9238C13.8392 16.3939 13.7555 16.3919 13.6726 16.3878C12.5618 16.333 11.6093 15.9108 10.8152 15.1212C10.2738 14.6085 9.90689 13.9874 9.69599 13.2945C9.65758 13.1683 9.62435 13.0398 9.59618 12.9091L14.0762 16.3939ZM10.6449 15.2947C11.5441 16.1878 12.6418 16.6364 13.9238 16.6364H14.7835L9.21692 12.3063L9.35778 12.9599C9.54964 13.8501 9.96716 14.652 10.6449 15.2947ZM13.0095 11.8485C12.9998 11.7326 12.9847 11.6182 12.964 11.5056C12.8549 10.9118 12.5917 10.3676 12.1562 9.90909C11.7905 9.57576 11.3943 9.33333 10.9371 9.21212C10.5748 9.12205 10.2292 9.09891 9.88804 9.11784C9.77009 9.12438 9.65266 9.13595 9.53523 9.15152L13.0095 11.8485ZM12.6591 11.2689C12.5352 10.8306 12.3133 10.4296 11.9849 10.0819C11.6433 9.77193 11.2834 9.5552 10.8761 9.44685C10.6435 9.38917 10.4177 9.36104 10.1939 9.35526L12.6591 11.2689Z" fill="#393C3C"/>
</svg>
