<svg width="24" height="24" viewBox="0 0 24 24" fill="none" xmlns="http://www.w3.org/2000/svg">
<path d="M8.63019 17.5938L9.77479 16.4712C10.0232 16.2275 10.4233 16.2387 10.7019 16.4471C11.0543 16.7107 11.144 17.2352 10.8329 17.5464L9.69228 18.6875C8.75515 19.5625 7.69306 20 6.50602 20C5.28774 20 4.22566 19.5625 3.31976 18.6875C2.4451 17.7812 2.00777 16.7188 2.00777 15.5C2.00777 14.3125 2.4451 13.25 3.31976 12.3125L5.72507 9.9375L6.91211 10.8438L4.38184 13.3438C3.78833 13.9688 3.50718 14.6875 3.50718 15.4688C3.50718 16.2812 3.78833 17 4.38184 17.5938C5.0066 18.1875 5.69383 18.4688 6.50602 18.4688C7.28697 18.4688 8.00544 18.1875 8.63019 17.5938ZM17.2206 15.1562L21.6876 18.625C22 18.9375 22.0625 19.3125 21.8126 19.6875C21.5002 20.0312 21.1253 20.0625 20.7505 19.8125L2.28891 5.34375C1.94529 5.03125 1.91405 4.6875 2.16396 4.28125C2.32015 4.09375 2.50757 4 2.75748 4C2.91367 4 3.06985 4.0625 3.22604 4.15625L8.06791 7.9375C8.66143 7.625 9.31743 7.46875 10.0359 7.46875C11.2542 7.5 12.3163 7.9375 13.2222 8.78125C14.0656 9.6875 14.5029 10.75 14.5341 11.9688C14.5341 12.3125 14.4717 12.625 14.4092 12.9375L16.0336 14.2188C16.0336 14.2188 16.0336 14.1875 16.0648 14.1875C16.0648 14.1875 16.0648 14.1562 16.096 14.1562L19.6259 10.625C20.1882 10 20.5006 9.3125 20.5006 8.5C20.5006 7.71875 20.1882 7 19.6259 6.375C19.0012 5.8125 18.2827 5.5 17.5017 5.5C16.6896 5.5 16.0023 5.8125 15.3776 6.375L14.2411 7.51189C13.9858 7.76733 13.5747 7.77354 13.2805 7.56408C12.9183 7.30624 12.8446 6.78394 13.1589 6.46951L14.3155 5.3125C15.2526 4.4375 16.3147 4 17.5017 4C18.6888 4 19.7509 4.4375 20.688 5.3125C21.5627 6.25 22 7.3125 22 8.5C22 9.6875 21.5627 10.75 20.688 11.6875L17.2206 15.1562ZM9.47362 9.0625L13.0347 11.8438C12.9723 11.0938 12.6911 10.4062 12.1601 9.84375C11.7852 9.5 11.3791 9.25 10.9106 9.125C10.4108 9 9.94218 9 9.47362 9.0625ZM10.7856 15.2188C10.1296 14.5938 9.72352 13.8125 9.53609 12.9375L14.1281 16.5312H14.0343H13.9719C12.7224 16.5312 11.6603 16.0938 10.7856 15.2188Z" fill="#98A2B3"/>
</svg>
