<svg width="24" height="24" viewBox="0 0 24 24" fill="none" xmlns="http://www.w3.org/2000/svg">
<g clip-path="url(#clip0_0_751)">
<path d="M21.4918 3.87477L19.1178 19.2737C19.0436 19.6447 18.8458 19.9292 18.5243 20.1271C18.3265 20.226 18.1286 20.2755 17.9308 20.2755C17.7824 20.2755 17.6341 20.2508 17.4857 20.2013L12.9232 18.3089L11.0315 21.1289C10.8831 21.3763 10.6729 21.5 10.4009 21.5C9.93102 21.4505 9.67137 21.1908 9.62191 20.7208V17.1586C9.62191 16.8865 9.70846 16.6391 9.88156 16.4165L17.9308 6.06401L7.02538 15.8599L3.24187 14.3015C2.79675 14.1036 2.54946 13.7449 2.5 13.2254C2.5 12.7307 2.69783 12.3596 3.09349 12.1122L19.7113 2.65028C20.1564 2.42764 20.5768 2.45238 20.9725 2.72449C21.3681 2.9966 21.5412 3.38002 21.4918 3.87477Z" fill="#393C3C"/>
</g>
<defs>
<clipPath id="clip0_0_751">
<rect width="20" height="20" fill="white" transform="translate(2 2)"/>
</clipPath>
</defs>
</svg>
