<svg width="24" height="24" viewBox="0 0 24 24" fill="none" xmlns="http://www.w3.org/2000/svg">
<g clip-path="url(#clip0_0_386)">
<path fill-rule="evenodd" clip-rule="evenodd" d="M3.28151 14.386C2.84005 14.1853 2.50637 13.7769 2.50397 13.2391C2.46506 12.7452 2.7143 12.2936 3.16138 12.0491L3.1626 12.0485L19.5529 2.67963C19.9635 2.43393 20.535 2.43287 20.9485 2.72239C21.3587 3.00959 21.564 3.50221 21.4823 3.99429L21.4822 3.99524L19.141 19.2177C19.0991 19.624 18.856 19.9957 18.4822 20.1661C18.1523 20.3683 17.7058 20.4078 17.336 20.2439L13.263 18.5285L11.3919 20.8593C11.0687 21.302 10.5849 21.5 10.0728 21.5C9.11708 21.5 8.35896 20.7416 8.35896 19.7856V16.4754L3.28151 14.386ZM10.2566 19.9534L11.8591 17.9752L9.81067 17.1058V19.7856C9.81067 19.8873 9.83925 19.9482 9.87477 19.9837C9.91028 20.0193 9.97117 20.0478 10.0728 20.0478C10.1503 20.0478 10.2088 20.024 10.2488 19.9639L10.2566 19.9534ZM13.7121 17.1665L10.3858 15.7801L19.7815 5.64781L17.7557 18.8196L13.713 17.1668L13.7121 17.1665ZM4.13222 13.1405L18.3818 4.99052L8.93889 15.1524L4.13222 13.1405Z" fill="#98A2B3"/>
</g>
<defs>
<clipPath id="clip0_0_386">
<rect width="20" height="20" fill="white" transform="translate(2 2)"/>
</clipPath>
</defs>
</svg>
