<svg width="24" height="24" viewBox="0 0 24 24" fill="none" xmlns="http://www.w3.org/2000/svg">
<path fill-rule="evenodd" clip-rule="evenodd" d="M5.19841 5.19841C5.46296 4.93386 5.89188 4.93386 6.15643 5.19841L12 11.042L17.8436 5.19841C18.1081 4.93386 18.537 4.93386 18.8016 5.19841C19.0661 5.46296 19.0661 5.89188 18.8016 6.15643L12.958 12L18.8016 17.8436C19.0661 18.1081 19.0661 18.537 18.8016 18.8016C18.537 19.0661 18.1081 19.0661 17.8436 18.8016L12 12.958L6.15643 18.8016C5.89188 19.0661 5.46296 19.0661 5.19841 18.8016C4.93386 18.537 4.93386 18.1081 5.19841 17.8436L11.042 12L5.19841 6.15643C4.93386 5.89188 4.93386 5.46296 5.19841 5.19841Z" fill="#98A2B3"/>
</svg>
