<svg width="24" height="24" viewBox="0 0 24 24" fill="none" xmlns="http://www.w3.org/2000/svg">
<path d="M3 12.2998C3.02344 10.6123 3.43359 9.10059 4.23047 7.76465C5.02734 6.40527 6.10547 5.32715 7.46484 4.53027C8.80078 3.7334 10.3125 3.32324 12 3.2998C13.6875 3.32324 15.1992 3.7334 16.5352 4.53027C17.8945 5.32715 18.9727 6.40527 19.7695 7.76465C20.5664 9.10059 20.9766 10.6123 21 12.2998C20.9766 13.9873 20.5664 15.499 19.7695 16.835C18.9727 18.1943 17.8945 19.2725 16.5352 20.0693C15.1992 20.8662 13.6875 21.2764 12 21.2998C10.3125 21.2764 8.80078 20.8662 7.46484 20.0693C6.10547 19.2725 5.02734 18.1943 4.23047 16.835C3.43359 15.499 3.02344 13.9873 3 12.2998ZM9.15234 10.6123L10.8047 12.2646L9.15234 13.9521C8.82422 14.3506 8.82422 14.7373 9.15234 15.1123C9.55078 15.4639 9.9375 15.4639 10.3125 15.1123L11.9648 13.4951L13.6523 15.1123C14.0508 15.4639 14.4375 15.4639 14.8125 15.1123C15.1641 14.7373 15.1641 14.3506 14.8125 13.9521L13.1953 12.2646L14.8125 10.6123C15.1641 10.2373 15.1641 9.85059 14.8125 9.45215C14.4375 9.12402 14.0508 9.12402 13.6523 9.45215L11.9648 11.1045L10.3125 9.45215C9.9375 9.12402 9.55078 9.12402 9.15234 9.45215C8.82422 9.85059 8.82422 10.2373 9.15234 10.6123Z" fill="#393C3C"/>
</svg>
