<svg width="24" height="24" viewBox="0 0 24 24" fill="none" xmlns="http://www.w3.org/2000/svg">
<path d="M12.0176 4.125C9.16992 4.125 6.60352 5.63672 5.19727 8.0625C3.75586 10.5234 3.75586 13.5117 5.19727 15.9375C6.60352 18.3984 9.16992 19.875 12.0176 19.875C14.8301 19.875 17.3965 18.3984 18.8027 15.9375C20.2441 13.5117 20.2441 10.5234 18.8027 8.0625C17.3965 5.63672 14.8301 4.125 12.0176 4.125ZM12.0176 21C8.7832 21 5.83008 19.3125 4.21289 16.5C2.5957 13.7227 2.5957 10.3125 4.21289 7.5C5.83008 4.72266 8.7832 3 12.0176 3C15.2168 3 18.1699 4.72266 19.7871 7.5C21.4043 10.3125 21.4043 13.7227 19.7871 16.5C18.1699 19.3125 15.2168 21 12.0176 21ZM9.3457 9.36328C9.55664 9.15234 9.94336 9.15234 10.1543 9.36328L12.0176 11.2266L13.8457 9.36328C14.0566 9.15234 14.4434 9.15234 14.6543 9.36328C14.8652 9.57422 14.8652 9.96094 14.6543 10.1719L12.791 12L14.6543 13.8633C14.8652 14.0742 14.8652 14.4609 14.6543 14.6719C14.4434 14.8828 14.0566 14.8828 13.8457 14.6719L12.0176 12.8086L10.1543 14.6719C9.94336 14.8828 9.55664 14.8828 9.3457 14.6719C9.13477 14.4609 9.13477 14.0742 9.3457 13.8633L11.209 12L9.3457 10.1719C9.13477 9.96094 9.13477 9.57422 9.3457 9.36328Z" fill="#98A2B3"/>
</svg>
