<svg width="24" height="24" viewBox="0 0 24 24" fill="none" xmlns="http://www.w3.org/2000/svg">
<path d="M16.475 5.2875C15.7155 5.31133 15.0789 5.58535 14.5651 6.10957C14.0737 6.65762 13.8168 7.33672 13.7944 8.14687V9.8625H14.8667C15.4698 9.88633 15.9724 10.1127 16.3745 10.5416C16.7766 10.9705 16.9888 11.5066 17.0111 12.15V19.0125C16.9888 19.6559 16.7766 20.192 16.3745 20.6209C15.9724 21.0498 15.4698 21.2762 14.8667 21.3H4.14444C3.54132 21.2762 3.03872 21.0498 2.63663 20.6209C2.23455 20.192 2.02234 19.6559 2 19.0125V12.15C2.02234 11.5066 2.23455 10.9705 2.63663 10.5416C3.03872 10.1127 3.54132 9.88633 4.14444 9.8625H11.65V8.14687C11.6947 6.69336 12.1638 5.47812 13.0573 4.50117C13.9731 3.54805 15.1124 3.04766 16.475 3C17.8376 3.04766 18.9769 3.54805 19.8927 4.50117C20.7862 5.47812 21.2553 6.69336 21.3 8.14687V9.8625C21.3 10.1961 21.1995 10.4701 20.9984 10.6846C20.7974 10.899 20.5405 11.0062 20.2278 11.0062C19.915 11.0062 19.6582 10.899 19.4571 10.6846C19.2561 10.4701 19.1556 10.1961 19.1556 9.8625V8.14687C19.1332 7.33672 18.8763 6.65762 18.3849 6.10957C17.8711 5.58535 17.2345 5.31133 16.475 5.2875ZM10.5778 16.725C10.8905 16.725 11.1474 16.6178 11.3484 16.4033C11.5495 16.1889 11.65 15.9148 11.65 15.5812C11.65 15.2477 11.5495 14.9736 11.3484 14.7592C11.1474 14.5447 10.8905 14.4375 10.5778 14.4375H8.43333C8.1206 14.4375 7.86372 14.5447 7.66267 14.7592C7.46163 14.9736 7.36111 15.2477 7.36111 15.5812C7.36111 15.9148 7.46163 16.1889 7.66267 16.4033C7.86372 16.6178 8.1206 16.725 8.43333 16.725H10.5778Z" fill="#393C3C"/>
</svg>
