<svg width="24" height="24" viewBox="0 0 24 24" fill="none" xmlns="http://www.w3.org/2000/svg">
<path d="M16.9278 4.275C15.1795 4.275 13.7611 5.78672 13.7611 7.65V9.9H14.2889C15.7403 9.9 16.9278 11.1656 16.9278 12.7125V18.3375C16.9278 19.9195 15.7403 21.15 14.2889 21.15H4.78889C3.30451 21.15 2.15 19.9195 2.15 18.3375V12.7125C2.15 11.1656 3.30451 9.9 4.78889 9.9H12.7056V7.65C12.7056 5.18906 14.5858 3.15 16.9278 3.15C19.2368 3.15 21.15 5.18906 21.15 7.65V10.4625C21.15 10.7789 20.8861 11.025 20.6222 11.025C20.3253 11.025 20.0944 10.7789 20.0944 10.4625V7.65C20.0944 5.78672 18.676 4.275 16.9278 4.275ZM4.78889 11.025C3.89826 11.025 3.20556 11.7984 3.20556 12.7125V18.3375C3.20556 19.2867 3.89826 20.025 4.78889 20.025H14.2889C15.1465 20.025 15.8722 19.2867 15.8722 18.3375V12.7125C15.8722 11.7984 15.1465 11.025 14.2889 11.025H4.78889ZM10.8583 16.0875H8.21944C7.92257 16.0875 7.69167 15.8414 7.69167 15.525C7.69167 15.2437 7.92257 14.9625 8.21944 14.9625H10.8583C11.1222 14.9625 11.3861 15.2437 11.3861 15.525C11.3861 15.8414 11.1222 16.0875 10.8583 16.0875Z" fill="#98A2B3"/>
<path fill-rule="evenodd" clip-rule="evenodd" d="M16.9278 4.425C15.2712 4.425 13.9111 5.86041 13.9111 7.65V9.75H14.2889C15.832 9.75 17.0778 11.0919 17.0778 12.7125V18.3375C17.0778 19.9945 15.8308 21.3 14.2889 21.3H4.78889C3.21281 21.3 2 19.9932 2 18.3375V12.7125C2 11.0932 3.21163 9.75 4.78889 9.75H12.5556V7.65C12.5556 5.11615 14.4933 3 16.9278 3C19.3285 3 21.3 5.11537 21.3 7.65V10.4625C21.3 10.8587 20.9719 11.175 20.6222 11.175C20.2336 11.175 19.9444 10.8526 19.9444 10.4625V7.65C19.9444 5.86041 18.5843 4.425 16.9278 4.425ZM12.7056 7.65C12.7056 5.18906 14.5858 3.15 16.9278 3.15C19.2368 3.15 21.15 5.18906 21.15 7.65V10.4625C21.15 10.7789 20.8861 11.025 20.6222 11.025C20.3253 11.025 20.0944 10.7789 20.0944 10.4625V7.65C20.0944 5.78672 18.676 4.275 16.9278 4.275C15.1795 4.275 13.7611 5.78672 13.7611 7.65V9.9H14.2889C15.7403 9.9 16.9278 11.1656 16.9278 12.7125V18.3375C16.9278 19.9195 15.7403 21.15 14.2889 21.15H4.78889C3.30451 21.15 2.15 19.9195 2.15 18.3375V12.7125C2.15 11.1656 3.30451 9.9 4.78889 9.9H12.7056V7.65ZM4.78889 11.175C3.99192 11.175 3.35556 11.87 3.35556 12.7125V18.3375C3.35556 19.213 3.98997 19.875 4.78889 19.875H14.2889C15.0568 19.875 15.7222 19.2109 15.7222 18.3375V12.7125C15.7222 11.8721 15.0548 11.175 14.2889 11.175H4.78889ZM10.8583 16.2375H8.21944C7.83087 16.2375 7.54167 15.9151 7.54167 15.525C7.54167 15.1763 7.82513 14.8125 8.21944 14.8125H10.8583C11.0425 14.8125 11.2116 14.9089 11.3306 15.0356C11.4501 15.163 11.5361 15.3389 11.5361 15.525C11.5361 15.9212 11.208 16.2375 10.8583 16.2375ZM3.20556 12.7125C3.20556 11.7984 3.89826 11.025 4.78889 11.025H14.2889C15.1465 11.025 15.8722 11.7984 15.8722 12.7125V18.3375C15.8722 19.2867 15.1465 20.025 14.2889 20.025H4.78889C3.89826 20.025 3.20556 19.2867 3.20556 18.3375V12.7125ZM8.21944 16.0875H10.8583C11.1222 16.0875 11.3861 15.8414 11.3861 15.525C11.3861 15.2437 11.1222 14.9625 10.8583 14.9625H8.21944C7.92257 14.9625 7.69167 15.2437 7.69167 15.525C7.69167 15.8414 7.92257 16.0875 8.21944 16.0875Z" fill="#98A2B3"/>
</svg>
