<svg width="24" height="24" viewBox="0 0 24 24" fill="none" xmlns="http://www.w3.org/2000/svg">
<path d="M5.25 4H18.75C19.3477 4 19.875 4.52902 19.875 5.12857C19.875 5.76339 19.3477 6.25714 18.75 6.25714H5.8125C5.49609 6.25714 5.25 6.53929 5.25 6.82143C5.25 7.13884 5.49609 7.38571 5.8125 7.38571H18.75C19.9805 7.38571 21 8.40848 21 9.64286V17.5429C21 18.8125 19.9805 19.8 18.75 19.8H5.25C3.98438 19.8 3 18.8125 3 17.5429V6.25714C3 5.02277 3.98438 4 5.25 4ZM17.625 12.4643C16.9922 12.4643 16.5 12.9933 16.5 13.5929C16.5 14.2277 16.9922 14.7214 17.625 14.7214C18.2227 14.7214 18.75 14.2277 18.75 13.5929C18.75 12.9933 18.2227 12.4643 17.625 12.4643Z" fill="#393C3C"/>
</svg>
