<svg width="24" height="24" viewBox="0 0 24 24" fill="none" xmlns="http://www.w3.org/2000/svg">
<path d="M19.1535 4H5.94701C4.28972 4 3 5.32731 3 6.94701V16.8519C3 18.5076 4.29132 19.7989 5.94701 19.7989H18.053C19.6727 19.7989 21 18.5092 21 16.8519V9.1481C21 7.52679 19.6743 6.20109 18.053 6.20109H7.04755C6.62221 6.20109 6.30163 6.57175 6.30163 6.94701C6.30163 7.36459 6.62997 7.69293 7.04755 7.69293H18.053C18.8391 7.69293 19.5082 8.36196 19.5082 9.1481V16.8519C19.5082 17.6698 18.8418 18.3071 18.053 18.3071H5.94701C5.12648 18.3071 4.49185 17.6724 4.49185 16.8519V6.94701C4.49185 6.15821 5.12913 5.49185 5.94701 5.49185H19.1535C19.5288 5.49185 19.8995 5.17127 19.8995 4.74592C19.8995 4.54472 19.8008 4.3599 19.6702 4.22927C19.5396 4.09863 19.3547 4 19.1535 4Z" fill="#98A2B3"/>
<path d="M15.5768 13.0002C15.5768 13.4817 15.9207 13.8256 16.4022 13.8256C16.8493 13.8256 17.2276 13.4817 17.2276 13.0002C17.2276 12.5531 16.8493 12.1748 16.4022 12.1748C15.9207 12.1748 15.5768 12.5531 15.5768 13.0002Z" fill="#98A2B3"/>
</svg>
