<svg width="24" height="24" viewBox="0 0 24 24" fill="none" xmlns="http://www.w3.org/2000/svg">
<path d="M14.8488 5.47182V7.35908C14.8488 7.62447 14.6146 7.83089 14.3805 7.83089C14.1171 7.83089 13.9122 7.62447 13.9122 7.35908V5.47182C13.9122 5.23591 14.1171 5 14.3805 5C14.6146 5 14.8488 5.23591 14.8488 5.47182ZM11.9512 5.70772L12.8878 7.12317C13.0341 7.32959 12.9756 7.62447 12.7415 7.77192C12.5366 7.91936 12.2439 7.86038 12.0976 7.62447L11.161 6.20903C11.0146 6.00261 11.0732 5.70772 11.3073 5.56028C11.5122 5.41284 11.8049 5.47182 11.9512 5.70772ZM8.96585 8.50913C9.22927 8.24373 9.66829 8.24373 9.93171 8.50913L13.561 12.1657C13.8537 12.4606 14.3805 12.2542 14.3805 11.8413V10.6618C14.3805 10.1605 14.7902 9.71816 15.3171 9.71816C15.8146 9.71816 16.2537 10.1605 16.2537 10.6618V15.203C16.2537 16.8839 15.3756 18.4467 13.9415 19.3019C12.0683 20.452 9.66829 20.1571 8.11707 18.5942L5.21951 15.6453C4.92683 15.3799 4.92683 14.9376 5.21951 14.6722C5.48293 14.3773 5.92195 14.3773 6.18537 14.6722L7.73659 16.2351C7.94146 16.412 8.20488 16.412 8.40976 16.2351C8.58537 16.0287 8.58537 15.7633 8.40976 15.5569L5.6878 12.8144C5.39512 12.549 5.39512 12.1067 5.6878 11.8413C5.95122 11.5464 6.39024 11.5464 6.65366 11.8413L9.37561 14.5838C9.58049 14.7607 9.8439 14.7607 10.0488 14.5838C10.2244 14.3773 10.2244 14.1119 10.0488 13.9055L6.62439 10.4554C6.33171 10.19 6.33171 9.74764 6.62439 9.48225C6.8878 9.18736 7.32683 9.18736 7.59024 9.48225L11.0146 12.9324C11.2195 13.1093 11.4829 13.1093 11.6878 12.9324C11.8634 12.726 11.8634 12.4606 11.6878 12.2542L8.96585 9.51174C8.67317 9.24634 8.67317 8.80401 8.96585 8.53862V8.50913ZM17.6878 19.3019C16.9561 19.7442 16.1951 19.9507 15.4049 19.9801C16.8098 18.8301 17.6585 17.0608 17.6585 15.203V12.3131C17.8927 12.3131 18.1268 12.1362 18.1268 11.8413V10.6618C18.1268 10.1605 18.5366 9.71816 19.0634 9.71816C19.561 9.71816 20 10.1605 20 10.6618V15.203C20 16.8839 19.122 18.4467 17.6878 19.3019ZM17.4244 5.56028C17.6585 5.70772 17.7171 6.00261 17.5707 6.20903L16.6341 7.62447C16.4878 7.86038 16.1951 7.91936 15.9902 7.77192C15.7561 7.62447 15.6976 7.32959 15.8439 7.12317L16.7805 5.70772C16.9268 5.47182 17.2195 5.41284 17.4244 5.56028Z" fill="#393C3C"/>
</svg>
