<svg width="24" height="24" viewBox="0 0 24 24" fill="none" xmlns="http://www.w3.org/2000/svg">
<path fill-rule="evenodd" clip-rule="evenodd" d="M9.18896 9.21106H9.04802C8.88013 9.21106 8.72384 9.36735 8.72384 9.53524C8.72384 9.66648 8.75193 9.73989 8.80193 9.77739L8.8112 9.78434L11.0549 12.028C11.2905 12.2636 11.2905 12.6821 11.0549 12.9178C10.8192 13.1534 10.4007 13.1534 10.1651 12.9178L7.00432 9.75698L6.99737 9.74771C6.9485 9.68255 6.85874 9.64096 6.75522 9.64096C6.5933 9.64096 6.43105 9.79116 6.43105 9.9938C6.43105 10.125 6.45913 10.1984 6.50913 10.2359L6.5184 10.2429L9.67919 13.4037C9.91482 13.6393 9.91482 14.0578 9.67919 14.2934C9.44356 14.5291 9.02506 14.5291 8.78943 14.2934L6.31648 11.8205L6.30953 11.8112C6.26066 11.7461 6.1709 11.7045 6.06738 11.7045C5.90546 11.7045 5.74321 11.8547 5.74321 12.0573C5.74321 12.1886 5.77129 12.262 5.82129 12.2995L5.83056 12.3064L8.30351 14.7794C8.53914 15.015 8.53914 15.4335 8.30351 15.6691C8.06788 15.9048 7.64938 15.9048 7.41375 15.6691L6.31648 14.5719L6.30953 14.5626C6.26066 14.4974 6.1709 14.4558 6.06738 14.4558C5.90546 14.4558 5.74321 14.606 5.74321 14.8087C5.74321 14.9399 5.77129 15.0133 5.82129 15.0508L5.83056 15.0578L6.92955 16.1568L7.87338 17.1292C8.6174 17.8447 9.60811 18.2568 10.653 18.2568C12.8286 18.2568 14.5883 16.5227 14.5883 14.3501V10.6243C14.5883 10.5627 14.5559 10.4874 14.4928 10.4243C14.4297 10.3613 14.3544 10.3288 14.2928 10.3288C14.1314 10.3288 13.9973 10.4785 13.9973 10.6243V12.4586C13.9973 12.813 13.6884 13.0802 13.3757 13.0802C13.2125 13.0802 13.0463 13.0476 12.9165 12.9178L9.29712 9.29842L9.29017 9.28915C9.26561 9.25641 9.23073 9.22962 9.18896 9.21106ZM7.01337 17.9914L7.01251 17.9906L6.03806 17.0448L4.94293 15.9497C4.6597 15.635 4.5 15.2526 4.5 14.8087C4.5 14.2491 4.79313 13.7651 5.22666 13.482L4.94293 13.1983C4.6597 12.8836 4.5 12.5012 4.5 12.0573C4.5 11.4484 4.81838 10.9436 5.32737 10.6661C5.22801 10.4497 5.18784 10.2194 5.18784 9.9938C5.18784 9.13423 5.88712 8.39776 6.75522 8.39776C7.09621 8.39776 7.4394 8.5059 7.7126 8.70817C7.99537 8.26601 8.48742 7.96786 9.07668 7.96786C9.49358 7.96786 9.87546 8.1289 10.1889 8.41095L10.1952 8.41669L12.7541 10.9759V10.6243C12.7541 9.79133 13.4267 9.0856 14.2928 9.0856C15.128 9.0856 15.8315 9.78911 15.8315 10.6243V14.3501C15.8315 17.1927 13.4932 19.5 10.653 19.5C9.29198 19.5 7.98978 18.9674 7.01337 17.9914ZM14.8978 18.2402L14.9523 18.2306C16.8274 17.8997 18.2568 16.3017 18.2568 14.3501V10.6243C18.2568 10.5627 18.2243 10.4874 18.1612 10.4243C18.0982 10.3613 18.0229 10.3288 17.9613 10.3288C17.7999 10.3288 17.6658 10.4785 17.6658 10.6243V12.4872C17.6658 12.6549 17.5836 12.8089 17.4747 12.9178C17.3658 13.0266 17.2118 13.1088 17.0442 13.1088C16.8531 13.1088 16.6981 13.031 16.5849 12.9178L16.5786 12.9114L16.4226 12.7164V10.6243C16.4226 9.79133 17.0952 9.0856 17.9613 9.0856C18.7965 9.0856 19.5 9.78911 19.5 10.6243V14.3501C19.5 17.1927 17.1616 19.5 14.3215 19.5H13.3541L13.7681 19.2043C14.1666 18.9196 14.5568 18.6122 14.8604 18.281L14.8978 18.2402ZM14.4558 5.1216V6.95584C14.4558 7.3103 14.147 7.57745 13.8342 7.57745C13.4863 7.57745 13.2126 7.30383 13.2126 6.95584V5.1216C13.2126 4.80889 13.4798 4.5 13.8342 4.5C14.0019 4.5 14.1559 4.58219 14.2648 4.69105C14.3736 4.79992 14.4558 4.95394 14.4558 5.1216ZM11.5924 5.26229L12.5069 6.63412C12.7053 6.9147 12.6194 7.30241 12.3199 7.49269C12.0388 7.6899 11.6513 7.60286 11.4619 7.30238L10.5473 5.93056C10.3489 5.64998 10.4348 5.26226 10.7343 5.07198C11.0154 4.87477 11.4029 4.96181 11.5924 5.26229ZM17.0925 5.93054C17.2909 5.64996 17.205 5.26225 16.9055 5.07197C16.6244 4.87477 16.2369 4.96181 16.0475 5.26229L15.1329 6.63412C14.9345 6.9147 15.0204 7.30241 15.3199 7.49269C15.601 7.6899 15.9885 7.60286 16.1779 7.30238L17.0925 5.93054Z" fill="#98A2B3"/>
</svg>
