<svg width="24" height="24" viewBox="0 0 24 24" fill="none" xmlns="http://www.w3.org/2000/svg">
<path fill-rule="evenodd" clip-rule="evenodd" d="M11.0062 6.30924L6.6716 10.6223C6.47579 10.8159 6.21518 10.8989 5.97669 10.8989C5.73821 10.8989 5.47818 10.8165 5.28236 10.6229C4.90588 10.2508 4.90588 9.60129 5.28236 9.22919L11.3057 3.27597C11.5015 3.08243 11.7615 3 12 3C12.2385 3 12.4985 3.08243 12.6943 3.27597L18.7176 9.22919C19.0941 9.60129 19.0941 10.2508 18.7176 10.6229C18.5218 10.8165 18.2618 10.8989 18.0233 10.8989C17.7848 10.8989 17.5248 10.8165 17.329 10.6229L12.9596 6.30436V20.0272C12.9596 20.5774 12.5204 21 11.9829 21C11.4979 21 11.0062 20.5951 11.0062 20.0272V6.30924Z" fill="#393C3C"/>
</svg>
