<svg width="24" height="24" viewBox="0 0 24 24" fill="none" xmlns="http://www.w3.org/2000/svg">
<path d="M11.2207 20.2468V5.56304L6.30535 10.4329C6.15683 10.5791 5.95434 10.6457 5.76157 10.6457C5.56881 10.6457 5.36632 10.5791 5.2178 10.4329C4.9274 10.1472 4.9274 9.63783 5.2178 9.35204L11.4562 3.21278C11.6047 3.06662 11.8072 3 12 3C12.1928 3 12.3953 3.06662 12.5438 3.21278L18.7822 9.35204C19.0726 9.63783 19.0726 10.1472 18.7822 10.4329C18.6337 10.5791 18.4312 10.6457 18.2384 10.6457C18.0457 10.6457 17.8432 10.5791 17.6947 10.4329L12.7439 5.56084V20.2468C12.7439 20.672 12.4051 21 11.9823 21C11.6029 21 11.2207 20.6797 11.2207 20.2468Z" fill="#98A2B3"/>
</svg>
