<svg width="24" height="24" viewBox="0 0 24 24" fill="none" xmlns="http://www.w3.org/2000/svg">
<path d="M21.375 6.31944C21.7569 6.63194 21.9653 7.01389 22 7.5V15.7986C21.9653 16.3542 21.7569 16.7361 21.375 17.0139C21.1319 17.1528 20.8889 17.2222 20.6111 17.2222C20.4028 17.2222 20.1944 17.1875 20.0208 17.0833L16.4444 15.4514V16.1111C16.4097 16.7361 16.2014 17.2569 15.7847 17.6736C15.3681 18.0903 14.8472 18.3333 14.2222 18.3333H4.22222C3.59722 18.3333 3.07639 18.0903 2.65972 17.6736C2.24306 17.2569 2 16.7361 2 16.1111V7.22222C2 6.59722 2.24306 6.07639 2.65972 5.65972C3.07639 5.24306 3.59722 5.03472 4.22222 5H14.2222C14.8472 5.03472 15.3681 5.24306 15.7847 5.65972C16.2014 6.07639 16.4097 6.59722 16.4444 7.22222V7.88194L20.0208 6.25C20.4722 6.04167 20.9236 6.07639 21.375 6.31944ZM14.7778 16.1111V7.22222C14.7431 6.875 14.5694 6.70139 14.2222 6.66667H4.22222C3.875 6.70139 3.66667 6.875 3.66667 7.22222V16.1111C3.66667 16.4583 3.875 16.6667 4.22222 16.6667H14.2222C14.5694 16.6667 14.7431 16.4583 14.7778 16.1111ZM20.3333 15.4167V7.91667L16.4444 9.72222V13.6111L20.3333 15.4167Z" fill="#98A2B3"/>
</svg>
